<?xml version="1.0" standalone="no"?>
<!DOCTYPE svg PUBLIC "-//W3C//DTD SVG 1.1//EN" "http://www.w3.org/Graphics/SVG/1.1/DTD/svg11.dtd" >
<svg xmlns="http://www.w3.org/2000/svg" xmlns:xlink="http://www.w3.org/1999/xlink" version="1.1">
<metadata>
Created by FontForge 20200427 at Sat Apr 14 14:45:20 2012
 By www
Copyright c 1989-2012 YoonDesign Inc. All rights reserved. The Font Software is protected by copyright laws of Korea, international copyright treaties. It may not be reproduced, copied, distributed, resold, rented, transferred without the written expression of YoonDesign Inc.
</metadata>
<defs>
<font id="YDYooncheB" horiz-adv-x="820" >
  <font-face 
    font-family="YDYooncheB"
    font-weight="400"
    font-stretch="normal"
    units-per-em="1000"
    panose-1="2 2 6 3 2 1 1 2 1 1"
    ascent="800"
    descent="-200"
    x-height="542"
    cap-height="593"
    bbox="-72 -199 900 831"
    underline-thickness="25"
    underline-position="-212"
    unicode-range="U+0020-FFE6"
  />
<missing-glyph horiz-adv-x="1000" 
d="M100 -100v800h800v-800h-800zM150 -50h700v700h-700v-700z" />
    <glyph glyph-name=".notdef" horiz-adv-x="1000" 
d="M100 -100v800h800v-800h-800zM150 -50h700v700h-700v-700z" />
    <glyph glyph-name="glyph1" horiz-adv-x="0" 
 />
    <glyph glyph-name="glyph2" horiz-adv-x="1000" 
 />
    <glyph glyph-name="space" unicode=" " horiz-adv-x="330" 
 />
    <glyph glyph-name="exclam" unicode="!" horiz-adv-x="470" 
d="M154 800v-258l36 -297h90l36 297v258h-162zM154 115v-140h162v140h-162z" />
    <glyph glyph-name="quotedbl" unicode="&#x22;" horiz-adv-x="339" 
d="M30 800v-252h117v252h-117zM192 800v-252h117v252h-117z" />
    <glyph glyph-name="numbersign" unicode="#" horiz-adv-x="770" 
d="M301 245h107l-30 -175h120l29 175h124v110h-105l21 122h120v110h-101l31 184h-119l-31 -184h-107l31 184h-118l-32 -184h-121v-110h102l-21 -122h-117v-110h99l-31 -175h120zM448 477l-21 -122h-107l21 122h107z" />
    <glyph glyph-name="dollar" unicode="$" horiz-adv-x="770" 
d="M429 800h-90v-32q-84 -12 -137 -65t-53 -131q0 -52 25.5 -85.5t63.5 -56.5q37 -22 81 -37t80 -30q42 -18 61.5 -41t19.5 -50q0 -24 -25.5 -50.5t-73.5 -26.5q-50 0 -76 29.5t-26 66.5h-150q0 -38 13.5 -74t39.5 -66q27 -30 66 -51.5t91 -27.5v-56h90v57q42 6 78.5 24
t63.5 44t42.5 60t15.5 73q0 46 -16 77.5t-41 53.5q-26 22 -56.5 36.5t-60.5 28.5q-25 10 -52.5 19t-50.5 21t-38 27.5t-15 39.5q0 25 23 45.5t59 20.5t59 -23t23 -47h152q-3 32 -17 63.5t-38 57.5t-57.5 45.5t-73.5 27.5v33z" />
    <glyph glyph-name="percent" unicode="%" horiz-adv-x="770" 
d="M513 789l-390 -737h132l392 737h-134zM-1 600q0 -36 13 -67t36 -54q24 -23 55 -36.5t67 -13.5q35 0 66 13.5t54 36.5q24 23 37.5 54t13.5 67q0 35 -13.5 66t-37.5 55q-23 23 -54 36.5t-66 13.5q-36 0 -67 -13.5t-55 -36.5q-23 -24 -36 -55t-13 -66zM170 670q30 0 50 -20
t20 -50t-20 -50t-50 -20t-50 20t-20 50t20 50t50 20zM430 239q0 -36 13.5 -67t36.5 -54t54 -36.5t67 -13.5q35 0 66 13.5t55 36.5q23 23 36.5 54t13.5 67q0 35 -13.5 66t-36.5 55q-24 23 -55 36.5t-66 13.5q-36 0 -67 -13.5t-54 -36.5q-23 -24 -36.5 -55t-13.5 -66zM601 309
q30 0 50 -20t20 -50t-20 -50t-50 -20t-50 20t-20 50t20 50t50 20z" />
    <glyph glyph-name="ampersand" unicode="&#x26;" horiz-adv-x="770" 
d="M459 617q0 -31 -17.5 -53t-40.5 -39q-11 12 -19.5 23t-15.5 23t-10.5 25t-3.5 31q0 23 14 40.5t40 17.5q27 0 40 -22t13 -46zM472 227q-23 -26 -50.5 -39t-61.5 -13q-36 0 -62.5 26.5t-26.5 59.5q0 44 25 71t59 46zM597 69h162l-128 160q27 37 43.5 84t22.5 95h-120
q-3 -22 -8.5 -42.5t-13.5 -38.5l-86 108q46 29 81 72.5t35 106.5q0 85 -54 130t-132 45q-35 0 -67 -12.5t-57 -34.5q-24 -22 -39 -52.5t-15 -67.5q0 -47 17.5 -81t45.5 -70q-30 -16 -57 -36.5t-48 -46.5t-33.5 -57.5t-12.5 -68.5q0 -51 17 -90t47 -66t70 -41t86 -14
q58 0 106 21.5t88 62.5z" />
    <glyph glyph-name="quotesingle" unicode="'" horiz-adv-x="270" 
d="M68 800v-252h135v252h-135z" />
    <glyph glyph-name="parenleft" unicode="(" horiz-adv-x="270" 
d="M130 800q-69 -100 -102.5 -211t-33.5 -224t34 -222.5t103 -206.5h148q-78 105 -116.5 216t-38.5 222t38.5 219t115.5 207h-148z" />
    <glyph glyph-name="parenright" unicode=")" horiz-adv-x="270" 
d="M-8 800q76 -99 114.5 -207t38.5 -219t-38.5 -222t-115.5 -216h148q70 99 105.5 209t35.5 223q0 112 -35 222t-105 210h-148z" />
    <glyph glyph-name="asterisk" unicode="*" horiz-adv-x="345" 
d="M125 561l-4 -96h101l-4 94l75 -54l47 87l-94 43l92 32l-42 92l-79 -48l5 89h-101l5 -91l-77 49l-45 -86l91 -36l-93 -41l44 -90z" />
    <glyph glyph-name="plus" unicode="+" horiz-adv-x="470" 
d="M307 351h156v126h-156v171h-144v-171h-156v-126h156v-171h144v171z" />
    <glyph glyph-name="comma" unicode="," horiz-adv-x="270" 
d="M19 100v-157h71l-55 -126h89l64 126v157h-169z" />
    <glyph glyph-name="hyphen" unicode="-" horiz-adv-x="470" 
d="M13 352h446v126h-446v-126z" />
    <glyph glyph-name="period" unicode="." horiz-adv-x="270" 
d="M22 106v-157h171v157h-171z" />
    <glyph glyph-name="slash" unicode="/" horiz-adv-x="391" 
d="M123 -64l270 864h-126l-270 -864h126z" />
    <glyph glyph-name="zero" unicode="0" horiz-adv-x="760" 
d="M-11 395q0 -81 30.5 -152.5t83.5 -124.5t124.5 -83.5t152.5 -30.5t152 30.5t125 83.5q53 53 84 124.5t31 152.5t-31 152t-84 125q-54 53 -125 84t-152 31t-152.5 -31t-124.5 -84q-53 -54 -83.5 -125t-30.5 -152zM380 648q52 0 98 -20t81 -54q34 -35 54 -81t20 -98
q0 -53 -20 -98.5t-55 -80.5q-34 -34 -80 -53.5t-98 -19.5q-53 0 -99 19.5t-80 53.5q-35 35 -54.5 80.5t-19.5 98.5q0 52 19.5 98t54.5 81q34 34 80 54t99 20z" />
    <glyph glyph-name="one" unicode="1" horiz-adv-x="440" 
d="M363 767h-286v-143h124v-602h162v745z" />
    <glyph glyph-name="two" unicode="2" horiz-adv-x="580" 
d="M186 519q-5 46 22.5 85t81.5 39q48 0 76.5 -26t28.5 -82q0 -15 -19.5 -40t-62.5 -67q-43 -43 -112 -107t-168 -155v-144h514v144h-304q61 60 118 109t99 95q43 45 66.5 90t20.5 97q-4 46 -24.5 88t-54.5 73q-35 32 -80.5 50.5t-97.5 18.5q-66 0 -116 -27t-82 -68
q-32 -40 -47 -87t-12 -86h153z" />
    <glyph glyph-name="three" unicode="3" horiz-adv-x="580" 
d="M33 261q-1 -52 19 -99t55 -82q35 -36 82 -56.5t100 -20.5q52 0 99 19.5t82 53.5q36 35 56.5 82t20.5 103q0 63 -26.5 100t-68.5 57q30 19 53.5 50.5t23.5 100.5q0 34 -17.5 72.5t-48.5 70.5q-32 32 -76 53t-97 21q-57 0 -101 -23t-75 -56q-30 -34 -46 -72t-16 -68h148
q0 33 28.5 56t61.5 23t61.5 -23.5t28.5 -56.5q0 -48 -33.5 -77.5t-105.5 -21.5v-102q45 4 76 -5.5t50 -26.5t27 -37t8 -35q0 -53 -31.5 -87t-80.5 -34t-80 33.5t-31 87.5h-146z" />
    <glyph glyph-name="four" unicode="4" horiz-adv-x="580" 
d="M335 767l-306 -515v-134h298v-97h150v97h77v143h-77v506h-142zM328 512v-251h-149z" />
    <glyph glyph-name="five" unicode="5" horiz-adv-x="580" 
d="M129 766l-66 -402l135 -42q0 1 7.5 10.5t21.5 19.5t35 16.5t49 2.5q40 -8 70.5 -44.5t21.5 -90.5q-7 -41 -38 -71t-76 -27q-42 3 -64 20.5t-32 37.5q-10 19 -11.5 36t-1.5 19h-145q-3 -30 12 -73t48 -82q32 -39 82 -66.5t116 -27.5q55 0 102 21.5t81 57.5q34 37 53 84
t19 98q0 43 -13.5 80.5t-33.5 66.5q-20 28 -43.5 48t-44.5 30q-44 18 -78.5 19.5t-58.5 -3.5q-24 -6 -37.5 -13.5t-14.5 -8.5l24 141h263v143h-382z" />
    <glyph glyph-name="six" unicode="6" horiz-adv-x="580" 
d="M434 767h-163l-212 -397q-12 -26 -19 -52t-7 -58q-1 -54 19.5 -100.5t55.5 -81.5t82 -55t101 -20q52 0 99.5 20t82.5 55t55 82t19 100q-2 51 -20 96.5t-51 79.5q-33 33 -80 51t-104 14zM291 371q45 0 77.5 -33.5t32.5 -78.5q0 -47 -33 -79t-78 -32q-47 0 -79.5 33
t-32.5 80q0 45 33 77.5t80 32.5z" />
    <glyph glyph-name="seven" unicode="7" horiz-adv-x="580" 
d="M44 766v-143h333l-281 -602h162l281 602v143h-495z" />
    <glyph glyph-name="eight" unicode="8" horiz-adv-x="580" 
d="M528 569q0 45 -20.5 84t-53.5 69q-34 29 -77 46t-88 17q-46 0 -89 -17t-76 -46t-53 -69t-20 -85q0 -54 28 -94.5t56 -55.5q-43 -26 -73 -70.5t-30 -100.5q0 -53 20 -97.5t55 -77.5q34 -32 81 -50.5t100 -18.5q52 0 99 18.5t82 50.5q36 33 56.5 77.5t20.5 97.5
q0 57 -29.5 101t-71.5 70q29 16 56 56.5t27 94.5zM288 653q38 0 65 -26.5t27 -64.5q0 -37 -27 -63.5t-64 -26.5q-38 0 -65 26t-27 64t26.5 64.5t64.5 26.5zM289 132q-46 0 -78.5 32.5t-32.5 79.5q0 45 32.5 78t78.5 33t79 -33t33 -78q0 -47 -33 -79.5t-79 -32.5z" />
    <glyph glyph-name="nine" unicode="9" horiz-adv-x="580" 
d="M171 22h162l213 397q12 25 18.5 51t6.5 59q0 53 -20 99.5t-55 81.5t-82 55.5t-100 20.5t-100.5 -20.5t-82.5 -55.5t-55 -82t-18 -99q1 -52 19 -97.5t51 -79.5q33 -33 80 -51t105 -13zM314 418q-46 0 -78 33t-32 79t32.5 78.5t78.5 32.5t79 -33.5t33 -79.5t-33.5 -78
t-79.5 -32z" />
    <glyph glyph-name="colon" unicode=":" horiz-adv-x="270" 
d="M54 260v-144h162v144h-162zM54 665v-144h162v144h-162z" />
    <glyph glyph-name="semicolon" unicode=";" horiz-adv-x="270" 
d="M54 252v-144h68l-54 -140h84l64 140v144h-162zM54 657v-144h162v144h-162z" />
    <glyph glyph-name="less" unicode="&#x3c;" horiz-adv-x="341" 
d="M233 803l-241 -434l241 -433l116 60l-207 373l207 373z" />
    <glyph glyph-name="equal" unicode="=" horiz-adv-x="470" 
d="M12 469h446v126h-446v-126zM12 244h446v126h-446v-126z" />
    <glyph glyph-name="greater" unicode="&#x3e;" horiz-adv-x="350" 
d="M354 367l-241 434l-116 -61l207 -373l-207 -373l116 -60z" />
    <glyph glyph-name="question" unicode="?" horiz-adv-x="710" 
d="M122 556h152q-1 1 -2 16.5t4 34.5q6 18 21 35t48 22q21 3 38.5 -3.5t29.5 -19.5t17.5 -30t2.5 -34q-4 -21 -11.5 -35t-19.5 -26t-27.5 -25t-35.5 -31q-33 -30 -48 -62t-15 -68v-98h153v81q0 28 7 44.5t20 30.5t32.5 30t43.5 45q43 49 50 108.5t-18 110.5q-25 50 -79 84
t-133 33q-69 -2 -114.5 -25.5t-71.5 -58.5q-26 -36 -36 -78.5t-8 -80.5zM271 116v-139h162v139h-162z" />
    <glyph glyph-name="at" unicode="@" horiz-adv-x="770" 
d="M290 417q0 21 8 43t22 41t33.5 31t43.5 12q27 0 47 -21t20 -52q0 -23 -8 -46.5t-23 -41.5q-14 -19 -33.5 -31t-41.5 -12q-31 0 -49.5 21.5t-18.5 55.5zM576 614h-70l-15 -49q-15 35 -44.5 48.5t-56.5 13.5q-43 0 -78 -19.5t-60 -50.5q-24 -31 -37.5 -71t-13.5 -80
q0 -30 10.5 -57t29.5 -47q18 -21 43 -32.5t53 -11.5q27 0 52.5 12t41.5 38h2q0 -21 18 -35t45 -14q20 0 54.5 14t67.5 44t57.5 77.5t24.5 114.5q0 60 -25 109t-67 83q-42 35 -96.5 54t-113.5 19q-68 0 -128 -25t-105 -68q-45 -44 -70.5 -103t-25.5 -128q0 -70 26 -129.5
t71 -102.5q45 -44 105.5 -68.5t130.5 -24.5q45 0 89.5 12t82.5 35q38 22 68.5 54t47.5 71h-74q-25 -47 -85 -74.5t-124 -27.5q-56 0 -103 18t-80 51q-34 34 -53 80.5t-19 103.5q0 54 17 101t49 82q32 34 77 54t102 20q49 0 92 -14t75 -41q31 -27 49.5 -67t18.5 -92
q0 -35 -9.5 -64t-23.5 -50q-15 -22 -33 -33.5t-36 -11.5t-16 19.5t8 37.5z" />
    <glyph glyph-name="A" unicode="A" 
d="M333 761l-288 -730h147l66 172h304l65 -172h147l-286 730h-155zM410 598l97 -261h-195z" />
    <glyph glyph-name="B" unicode="B" horiz-adv-x="580" 
d="M38 761v-730h266q33 0 74 11t78 38q37 26 62 69.5t25 108.5q0 48 -18 81.5t-39 54.5q-21 20 -38.5 29.5t-17.5 10.5q1 1 13 11.5t26 29.5q14 18 25.5 43t11.5 55q0 36 -14.5 70t-42.5 60t-69 42t-94 16h-248zM187 633h96q29 0 51.5 -19.5t22.5 -50.5q0 -36 -25 -54
t-48 -18h-97v142zM186 369h102q47 0 77 -31.5t30 -73.5q0 -44 -30.5 -75t-75.5 -31h-103v211z" />
    <glyph glyph-name="C" unicode="C" horiz-adv-x="840" 
d="M793 507q-18 58 -53.5 108t-83.5 86q-48 37 -106.5 57.5t-122.5 20.5q-80 0 -149.5 -30.5t-122.5 -81.5q-52 -52 -82 -122t-30 -149q0 -80 30 -149.5t82 -121.5q53 -52 122.5 -82t149.5 -30q64 0 122.5 20t106.5 57q48 36 83.5 86t53.5 109h-154q-11 -29 -32.5 -53
t-49.5 -42q-28 -17 -61 -27t-68 -10q-50 0 -94 18.5t-77 51.5t-52.5 77.5t-19.5 95.5q0 48 18 92t51 78q32 33 76.5 53t97.5 20q36 0 69.5 -11t61.5 -30q28 -18 48.5 -42t32.5 -49h153z" />
    <glyph glyph-name="D" unicode="D" horiz-adv-x="700" 
d="M44 761v-730h281q46 0 104.5 18.5t110.5 60.5q51 43 86.5 113t35.5 173q0 102 -36.5 172t-88.5 112q-53 43 -111 62t-101 19h-281zM198 630h70q52 0 96 -17t77 -47q32 -31 50 -74.5t18 -96.5q0 -54 -18 -97t-50 -74q-33 -30 -77 -46t-96 -16h-70v468z" />
    <glyph glyph-name="E" unicode="E" horiz-adv-x="560" 
d="M35 760v-729h486v136h-334v176h316v134h-316v146h325v137h-477z" />
    <glyph glyph-name="F" unicode="F" horiz-adv-x="550" 
d="M37 760v-729h154v313h314v133h-315v146h324v137h-477z" />
    <glyph glyph-name="G" unicode="G" horiz-adv-x="860" 
d="M795 511q-18 59 -53.5 108.5t-83.5 84.5q-48 36 -106.5 56t-122.5 20q-80 0 -150 -30.5t-122 -82.5t-82 -121.5t-30 -148.5q0 -80 30 -150t82 -122t122 -82t150 -30q64 0 133.5 27t125.5 81q57 53 92.5 131t33.5 179h-452v-141h277q-24 -64 -82.5 -100t-125.5 -36
q-53 0 -97.5 19.5t-77.5 53.5t-51 78t-18 92q0 50 18.5 94t51.5 77t77.5 52.5t96.5 20.5q65 0 124 -33.5t88 -96.5h152z" />
    <glyph glyph-name="H" unicode="H" horiz-adv-x="640" 
d="M39 760v-729h155v315h252v-315h155v729h-155v-286h-252v286h-155z" />
    <glyph glyph-name="I" unicode="I" horiz-adv-x="210" 
d="M26 762v-731h158v731h-158z" />
    <glyph glyph-name="J" unicode="J" horiz-adv-x="560" 
d="M365 238q-2 -34 -25.5 -63t-62.5 -29q-44 0 -68.5 34.5t-18.5 76.5h-155q0 -52 20 -96.5t54 -77.5t77.5 -52t90.5 -19t91 17.5t78 50.5q34 32 55 77t21 99v504h-157v-522z" />
    <glyph glyph-name="K" unicode="K" horiz-adv-x="610" 
d="M40 761v-730h155v318l208 -318h169l-247 365l247 365h-169l-208 -320v320h-155z" />
    <glyph glyph-name="L" unicode="L" horiz-adv-x="540" 
d="M37 760v-729h468v132h-313v597h-155z" />
    <glyph glyph-name="M" unicode="M" horiz-adv-x="840" 
d="M46 760v-729h147v459l156 -459h142l156 468v-468h147v729h-192l-182 -538l-182 538h-192z" />
    <glyph glyph-name="N" unicode="N" horiz-adv-x="660" 
d="M40 761v-730h151v481l268 -481h161v730h-150v-480l-269 480h-161z" />
    <glyph glyph-name="O" unicode="O" horiz-adv-x="860" 
d="M47 396q0 -80 30 -149.5t82 -121.5t121.5 -82t149.5 -30q79 0 149 30t122 82q51 52 81.5 121.5t30.5 149.5q0 79 -30.5 149t-81.5 122q-52 51 -122 81.5t-149 30.5q-80 0 -149.5 -30.5t-121.5 -81.5q-52 -52 -82 -122t-30 -149zM430 639q50 0 94.5 -19t77.5 -52t52 -77.5
t19 -94.5q0 -51 -19 -95t-52 -77t-77.5 -51.5t-94.5 -18.5q-51 0 -95.5 18.5t-77.5 51.5t-51.5 77t-18.5 95q0 50 18.5 94.5t51.5 77.5t77.5 52t95.5 19z" />
    <glyph glyph-name="P" unicode="P" horiz-adv-x="600" 
d="M193 624h121q33 0 63 -20.5t30 -68.5t-31 -67.5t-62 -19.5h-121v176zM339 760h-300v-729h158v280h142q42 0 82 16t72 46t51.5 71t19.5 91t-20 91.5t-51 70.5q-32 30 -72.5 46.5t-81.5 16.5z" />
    <glyph glyph-name="Q" unicode="Q" horiz-adv-x="860" 
d="M740 177q30 48 49.5 100t19.5 119q0 79 -30.5 149t-82.5 122t-121.5 82.5t-148.5 30.5q-80 0 -150 -30.5t-122 -82.5t-82 -122t-30 -149q0 -80 30 -149.5t82 -121.5t122 -82t150 -30q66 0 118 16t99 49l73 -64l93 101zM528 182q-24 -12 -49 -19t-55 -7q-51 0 -95 19
t-77 52t-52 77.5t-19 94.5t18.5 94t51.5 77t77.5 52.5t95.5 19.5q50 0 94 -19.5t77 -52.5t52.5 -77t19.5 -94q0 -39 -9 -68.5t-24 -56.5l-126 109l-94 -100z" />
    <glyph glyph-name="R" unicode="R" horiz-adv-x="600" 
d="M194 624h120q33 0 63.5 -20.5t30.5 -68.5t-31 -67.5t-63 -19.5h-120v176zM195 318l195 -288h172l-188 284q37 6 71 24.5t60 47.5t41.5 66.5t15.5 82.5q0 50 -19.5 91.5t-51.5 70.5q-31 30 -71.5 46.5t-81.5 16.5h-300v-729h157v287z" />
    <glyph glyph-name="S" unicode="S" horiz-adv-x="600" 
d="M385 565h158q-3 40 -21.5 78.5t-49.5 69.5q-32 30 -75.5 48.5t-96.5 18.5q-50 0 -94 -18t-77 -48t-52 -69t-19 -81q0 -60 25.5 -96.5t64.5 -59.5q39 -24 84.5 -39.5t85.5 -32.5q42 -20 61 -43.5t22 -57.5q0 -10 -6.5 -24.5t-19.5 -28.5t-32.5 -23.5t-44.5 -9.5
q-52 0 -79 34.5t-27 73.5h-154q0 -42 16.5 -85t50.5 -79q33 -35 82 -57.5t114 -22.5q52 -1 100 18t83 51q36 31 56 71.5t18 84.5q-3 52 -19.5 86t-41.5 57q-26 23 -56.5 38t-61.5 30q-27 12 -56 22.5t-54 23.5t-41 30.5t-16 44.5q0 28 26.5 51t60.5 23t60 -25.5t26 -53.5z
" />
    <glyph glyph-name="T" unicode="T" horiz-adv-x="590" 
d="M219 31h153v597h180v132h-514v-132h181v-597z" />
    <glyph glyph-name="U" unicode="U" horiz-adv-x="620" 
d="M38 760v-477q0 -47 18 -95t53 -87q35 -40 85.5 -64.5t114.5 -24.5t115 24.5t86 63.5t53.5 87.5t18.5 95.5v477h-155v-502q0 -17 -7.5 -37t-21.5 -38q-15 -18 -37 -29.5t-52 -11.5q-32 0 -54 11.5t-36 29.5t-20 38t-6 37v502h-155z" />
    <glyph glyph-name="V" unicode="V" horiz-adv-x="800" 
d="M594 760l-194 -555l-196 555h-160l275 -729h164l272 729h-161z" />
    <glyph glyph-name="W" unicode="W" horiz-adv-x="920" 
d="M534 760h-146l-95 -464l-84 464h-160l156 -729h149l107 480l108 -480h149l155 729h-160l-84 -464z" />
    <glyph glyph-name="X" unicode="X" horiz-adv-x="800" 
d="M54 761l252 -355l-261 -375h197l159 242l159 -242h196l-262 375l253 355h-189l-158 -221l-157 221h-189z" />
    <glyph glyph-name="Y" unicode="Y" horiz-adv-x="720" 
d="M41 760l240 -468v-261h158v261l240 468h-171l-148 -299l-147 299h-172z" />
    <glyph glyph-name="Z" unicode="Z" horiz-adv-x="580" 
d="M55 761v-134h305l-324 -468v-128h506v134h-342l323 468v128h-468z" />
    <glyph glyph-name="bracketleft" unicode="[" horiz-adv-x="270" 
d="M53 800v-864h229v122h-108v621h108v121h-229z" />
    <glyph glyph-name="backslash" unicode="\" horiz-adv-x="391" 
d="M267 -64l-270 864h126l270 -864h-126z" />
    <glyph glyph-name="bracketright" unicode="]" horiz-adv-x="270" 
d="M217 -64v864h-229v-121h108v-621h-108v-122h229z" />
    <glyph glyph-name="asciicircum" unicode="^" horiz-adv-x="400" 
d="M-8 422h127l80 243l80 -243h128l-136 378h-144z" />
    <glyph glyph-name="underscore" unicode="_" horiz-adv-x="452" 
d="M0 -101h451v126h-451v-126z" />
    <glyph glyph-name="grave" unicode="`" horiz-adv-x="216" 
d="M143 453l-125 205h91l78 -205h-44z" />
    <glyph glyph-name="a" unicode="a" horiz-adv-x="670" 
d="M477 18h150v524h-150v-53q-24 30 -76 50t-100 20q-50 0 -97 -21.5t-84 -58.5q-37 -38 -59.5 -89t-22.5 -110q0 -60 23 -111t60 -89q37 -37 84 -58t95 -21t93.5 16.5t83.5 46.5v-46zM181 280q0 32 12 60.5t33 49.5t49.5 33.5t61.5 12.5q32 0 60.5 -12.5t49.5 -33.5
t33.5 -49.5t12.5 -60.5t-12.5 -60.5t-33.5 -49.5q-21 -22 -49.5 -34t-60.5 -12q-33 0 -61.5 12t-49.5 34q-21 21 -33 49.5t-12 60.5z" />
    <glyph glyph-name="b" unicode="b" horiz-adv-x="670" 
d="M193 28v46q37 -30 82.5 -46t94.5 -16q47 0 94 21t84 58t60.5 88.5t23.5 111.5q0 59 -23 110t-60 88q-37 38 -84.5 59.5t-95.5 21.5t-99.5 -19t-76.5 -52v260h-150v-731h150zM333 134q-33 0 -61.5 12t-49.5 33q-21 22 -33 50.5t-12 61.5q0 31 12 59.5t33 49.5t49.5 33.5
t61.5 12.5q32 0 60.5 -12.5t49.5 -33.5t33.5 -49.5t12.5 -59.5q0 -33 -12.5 -61.5t-33.5 -50.5q-21 -21 -49.5 -33t-60.5 -12z" />
    <glyph glyph-name="c" unicode="c" horiz-adv-x="623" 
d="M584 367q-14 42 -39 77.5t-60 62.5q-34 26 -76.5 41t-90.5 15q-59 0 -110 -22.5t-89 -60.5t-60 -89t-22 -109q0 -59 22 -110t60 -89t89 -60t110 -22q48 0 90.5 14.5t77.5 41.5q35 26 60 62t37 78h-148q-18 -28 -47 -44.5t-68 -16.5q-31 0 -57.5 11.5t-46.5 31.5
q-20 19 -31 46t-11 57t11 56.5t31 46.5q20 19 46.5 31t57.5 12q39 0 68 -15.5t48 -45.5h148z" />
    <glyph glyph-name="d" unicode="d" horiz-adv-x="670" 
d="M477 28h150v731h-150v-260q-12 15 -32.5 28t-44.5 22q-24 10 -50 15.5t-49 5.5q-49 0 -96.5 -21.5t-84.5 -59.5q-37 -37 -59.5 -88t-22.5 -110q0 -60 23 -111.5t60 -88.5t84 -58t95 -21t93.5 16t83.5 46v-46zM181 291q0 31 12 59.5t33 49.5t49.5 33.5t61.5 12.5
q32 0 60.5 -12.5t49.5 -33.5t33.5 -49.5t12.5 -59.5q0 -33 -12.5 -61.5t-33.5 -50.5q-21 -21 -49.5 -33t-60.5 -12q-33 0 -61.5 12t-49.5 33q-21 22 -33 50.5t-12 61.5z" />
    <glyph glyph-name="e" unicode="e" horiz-adv-x="640" 
d="M182 346q16 37 49.5 62.5t83.5 25.5q41 0 78 -22t54 -66h-265zM595 235q8 72 -9 127t-49 96q-44 53 -104 79t-114 26q-58 0 -109 -22.5t-90 -60.5q-38 -38 -60 -89.5t-22 -108.5q0 -59 22 -110t60 -89q39 -38 90 -60t109 -22q96 0 163 51.5t100 135.5h-148
q-14 -24 -41.5 -41t-73.5 -17q-54 0 -91 28.5t-49 76.5h416z" />
    <glyph glyph-name="f" unicode="f" horiz-adv-x="380" 
d="M104 434v-403h151v403h93v121h-94l-0.5 7t0.5 17q2 9 6.5 19.5t14.5 18.5q10 9 22.5 12.5t23.5 3.5q11 1 18.5 -0.5t8.5 -1.5v129q-2 0 -19.5 1t-42.5 -2q-24 -4 -53 -14t-53 -31q-32 -29 -48 -57t-22 -51q-7 -22 -6.5 -36.5l0.5 -14.5h-74v-121h74z" />
    <glyph glyph-name="g" unicode="g" horiz-adv-x="670" 
d="M330 -72q-39 -2 -81 17t-66 58h-143q17 -52 51 -91.5t78 -65.5t95 -36.5t104 -4.5q49 6 94.5 28.5t80.5 57.5t58 80.5t28 98.5v460h-150v-52q-12 15 -32.5 27.5t-44.5 21.5t-50 14.5t-49 5.5q-49 0 -96.5 -21t-84.5 -57q-37 -37 -59.5 -86.5t-22.5 -106.5
q0 -59 23 -108.5t60 -85.5t84 -56.5t95 -20.5t96 17.5t87 49.5q-1 -3 -6 -25t-22 -47q-16 -26 -46.5 -47.5t-80.5 -24.5zM183 276q0 30 12 57.5t33 47.5q21 21 49.5 33t61.5 12q32 0 60.5 -12t49.5 -33q21 -20 33.5 -47.5t12.5 -57.5q0 -32 -12.5 -59.5t-33.5 -47.5
q-21 -21 -49.5 -32.5t-60.5 -11.5q-33 0 -61.5 11.5t-49.5 32.5q-21 20 -33 47.5t-12 59.5z" />
    <glyph glyph-name="h" unicode="h" horiz-adv-x="580" 
d="M543 368q0 38 -15 75t-42 66t-64.5 47t-83.5 18q-36 0 -64.5 -10t-48.5 -22t-30.5 -22t-11.5 -11v252h-145v-730h145v316q0 40 31.5 72t76.5 32q44 0 75.5 -32t31.5 -73v-315h145v337z" />
    <glyph glyph-name="i" unicode="i" horiz-adv-x="200" 
d="M175 537h-150v-505h150v505zM175 762h-150v-131h150v131z" />
    <glyph glyph-name="j" unicode="j" horiz-adv-x="280" 
d="M102 38q0 -20 -4 -30.5t-15 -24.5q-14 -19 -34 -22t-21 -3v-149q1 0 18.5 0.5t43.5 7.5q25 8 54.5 24.5t55.5 49.5q19 23 36 56.5t17 96.5v477h-151v-483zM253 615v130h-151v-130h151z" />
    <glyph glyph-name="k" unicode="k" horiz-adv-x="600" 
d="M186 31v232l203 -232h174l-239 262l222 263h-177l-183 -225v430h-147v-730h147z" />
    <glyph glyph-name="l" unicode="l" horiz-adv-x="200" 
d="M175 31v730h-150v-730h150z" />
    <glyph glyph-name="m" unicode="m" horiz-adv-x="840" 
d="M795 377q0 36 -14.5 70t-39.5 60t-59 41.5t-74 15.5q-38 0 -66 -12t-47 -26q-18 -15 -27.5 -27.5t-9.5 -13.5q-2 1 -11.5 13.5t-27.5 27.5q-18 14 -43 26t-57 12q-33 0 -57.5 -10.5t-40.5 -23.5q-17 -13 -25.5 -23.5t-8.5 -11.5v50h-140v-525h141v334q0 32 22 59.5
t61 27.5t61 -28t22 -61v-332h134v337q0 27 21 55.5t61 28.5q45 0 64.5 -27.5t19.5 -56.5v-337h141v357z" />
    <glyph glyph-name="n" unicode="n" horiz-adv-x="580" 
d="M543 358q0 38 -15 75t-42 66t-64.5 47t-83.5 18q-36 0 -64.5 -10t-48.5 -22t-30.5 -22.5l-11.5 -11.5v47h-145v-525h145v316q0 41 31.5 73t76.5 32q44 0 75.5 -32.5t31.5 -73.5v-315h145v338z" />
    <glyph glyph-name="o" unicode="o" horiz-adv-x="640" 
d="M36 286q0 -59 22 -111t61 -90q38 -39 90 -61t111 -22q58 0 110 22t90 61q39 38 61.5 90t22.5 111q0 58 -22.5 110t-61.5 90q-38 39 -90 61.5t-110 22.5q-59 0 -111 -22.5t-90 -61.5q-39 -38 -61 -90t-22 -110zM172 286q0 31 11 58t31 47t47 32t59 12q31 0 58 -12t47 -32
t32 -47t12 -58q0 -32 -12 -59t-32 -47t-47 -31t-58 -11q-32 0 -59 11t-47 31t-31 47t-11 59z" />
    <glyph glyph-name="p" unicode="p" horiz-adv-x="670" 
d="M193 -198v261q39 -31 83.5 -51.5t93.5 -20.5q47 0 94 21t84 58q37 38 60.5 89t23.5 111q0 59 -23 110t-60 89q-37 37 -84.5 58.5t-95.5 21.5t-98.5 -19.5t-77.5 -52.5v55h-150v-730h150zM333 114q-33 0 -61.5 12t-49.5 33t-33 49.5t-12 61.5q0 32 12 60.5t33 49.5
t49.5 33.5t61.5 12.5q32 0 60.5 -12.5t49.5 -33.5t33.5 -49.5t12.5 -60.5q0 -33 -12.5 -61.5t-33.5 -49.5t-49.5 -33t-60.5 -12z" />
    <glyph glyph-name="q" unicode="q" horiz-adv-x="670" 
d="M477 -198h150v730h-150v-55q-13 15 -33 28.5t-44 22.5q-24 10 -50 15.5t-49 5.5q-49 0 -96.5 -21.5t-84.5 -58.5q-37 -38 -59.5 -89t-22.5 -110q0 -60 23 -111t60 -89q37 -37 84 -58t95 -21t93 20.5t84 51.5v-261zM181 270q0 32 12 60.5t33 49.5t49.5 33.5t61.5 12.5
q32 0 60.5 -12.5t49.5 -33.5t33.5 -49.5t12.5 -60.5q0 -33 -12.5 -61.5t-33.5 -49.5t-49.5 -33t-60.5 -12q-33 0 -61.5 12t-49.5 33t-33 49.5t-12 61.5z" />
    <glyph glyph-name="r" unicode="r" horiz-adv-x="380" 
d="M349 435v123q-1 0 -8 3t-19 4q-13 0 -31 -3t-42 -14q-15 -8 -28 -18.5t-22 -20.5q-10 -10 -16 -17.5l-6 -7.5v63l-147 -1v-526h147v296q0 17 17.5 48t44.5 51q18 13 37 18t35 5q16 1 26 -1t12 -2z" />
    <glyph glyph-name="s" unicode="s" horiz-adv-x="475" 
d="M295 385h145q0 24 -11 54.5t-35 58.5q-24 27 -61.5 46t-91.5 19q-42 0 -78.5 -13.5t-62.5 -35.5q-27 -23 -42 -53t-15 -63q0 -41 21 -68.5t52 -46.5q31 -18 67 -31t65 -24q31 -13 43 -26.5t12 -25.5q0 -10 -14.5 -30.5t-47.5 -20.5q-34 0 -50 21.5t-14 41.5h-146
q0 -28 12.5 -60.5t38.5 -60.5q25 -29 65 -47.5t94 -18.5q46 0 84 14.5t65 38.5q26 24 41 55t15 64q0 39 -15.5 65.5t-39.5 44.5t-52 30t-53 22q-20 7 -38 13.5t-32 13.5t-22 14t-8 17q0 18 15 31t40 13q21 0 37.5 -16.5t16.5 -35.5z" />
    <glyph glyph-name="t" unicode="t" horiz-adv-x="380" 
d="M265 434h84v121h-84v206h-150v-206h-84v-121h84v-403h150v403z" />
    <glyph glyph-name="u" unicode="u" horiz-adv-x="580" 
d="M37 206q0 -39 14.5 -76t41.5 -66t64.5 -46.5t84.5 -17.5q36 0 63.5 10t46.5 22t29 22.5t12 12.5v-49l149 1v525h-145v-316q0 -42 -32 -73t-76 -31q-45 0 -76 31.5t-31 73.5v315h-145v-338z" />
    <glyph glyph-name="v" unicode="v" horiz-adv-x="600" 
d="M38 544l186 -525h152l186 525h-162l-100 -339l-100 339h-162z" />
    <glyph glyph-name="w" unicode="w" horiz-adv-x="840" 
d="M347 544l-71 -330l-74 330h-156l145 -525h157l72 316l71 -316h158l145 525h-156l-76 -330l-68 330h-147z" />
    <glyph glyph-name="x" unicode="x" horiz-adv-x="610" 
d="M49 543l176 -252l-185 -272h158l108 159l108 -159h158l-184 272l175 252h-168l-89 -132l-90 132h-167z" />
    <glyph glyph-name="y" unicode="y" horiz-adv-x="600" 
d="M39 542l186 -533l-79 -198l157 1l260 730h-157l-103 -330l-104 330h-160z" />
    <glyph glyph-name="z" unicode="z" horiz-adv-x="520" 
d="M54 544v-127h235l-254 -275v-123h450v128h-273l254 274v123h-412z" />
    <glyph glyph-name="braceleft" unicode="{" horiz-adv-x="270" 
d="M29 307h4t10 -1q7 -1 14.5 -5t15.5 -11q14 -15 16.5 -29.5t2.5 -33.5v-129v-34.5t3 -31.5q2 -15 8.5 -28.5t18.5 -25.5q27 -30 56.5 -37t71.5 -7h31v104q-1 0 -7 -0.5t-15 -0.5q-9 1 -18 3t-15 8q-8 6 -12 14t-5 17t-0.5 19t0.5 21v112q0 13 -0.5 27t-2.5 27
q-1 13 -5.5 25t-11.5 21q-18 21 -34 27.5l-16 6.5q-1 0 3.5 1.5t12.5 5.5q7 3 16.5 10t18.5 19q7 9 11 20.5t6 25.5q1 13 1.5 27t0.5 27v113q0 20 2.5 37.5t15.5 28.5q8 7 17.5 10t17.5 4t13 1h6v103h-31q-42 0 -71 -7.5t-57 -38.5q-12 -13 -18.5 -26.5t-8.5 -27.5
q-3 -15 -3 -30.5v-33.5v-129q0 -10 -0.5 -20t-1.5 -18q-1 -9 -4 -15.5t-9 -10.5q-10 -8 -18.5 -11t-15.5 -5q-6 -1 -10 -0.5l-4 0.5v-118z" />
    <glyph glyph-name="bar" unicode="|" horiz-adv-x="270" 
d="M81 800v-864h108v864h-108z" />
    <glyph glyph-name="braceright" unicode="}" horiz-adv-x="270" 
d="M241 427q-1 0 -5 -0.5t-10 0.5q-7 2 -15.5 5t-17.5 11q-6 4 -9.5 10.5t-4.5 15.5q-1 8 -1 18v20v129q0 18 -0.5 33.5t-2.5 30.5q-3 14 -9 27.5t-18 26.5q-28 31 -57.5 38.5t-69.5 7.5h-32v-103h6t13 -1t17 -4t18 -10q12 -11 15 -28.5t3 -37.5v-113v-27t2 -27
q1 -14 5 -25.5t12 -20.5q9 -12 18 -19t16 -10q8 -4 12.5 -5.5l4.5 -1.5q-1 0 -16.5 -6.5t-33.5 -27.5q-8 -9 -12.5 -21t-5.5 -25q-2 -13 -2 -27v-27v-112v-21t-1 -19t-4.5 -17t-11.5 -14q-7 -6 -16 -8t-18 -3q-9 0 -14.5 0.5t-6.5 0.5v-104h32q40 0 70 7t57 37
q12 12 18 25.5t9 28.5q2 15 2.5 31.5t0.5 34.5v129q0 19 2 33.5t17 29.5q7 7 14.5 11t14.5 5q6 1 10 1h5v118z" />
    <glyph glyph-name="asciitilde" unicode="~" horiz-adv-x="770" 
d="M145 327q33 49 60.5 61.5t58.5 12.5q30 -2 54 -14.5t51 -27.5t62 -27t88 -12q48 -1 85.5 17.5t63.5 42.5q26 23 40 43t16 23l-103 76q-30 -49 -62 -62t-51 -13q-32 0 -56 11.5t-51 25.5t-61.5 27.5t-86.5 16.5q-47 1 -84.5 -17.5t-64.5 -41.5q-26 -24 -41 -44.5
t-16 -22.5z" />
    <glyph glyph-name="exclamdown" unicode="&#xa1;" horiz-adv-x="770" 
d="M444 243l-20 203h-75l-20 -203l1 -283h114v283zM454 652h-134v-133h134v133z" />
    <glyph glyph-name="currency" unicode="&#xa4;" horiz-adv-x="770" 
d="M235 87q31 -23 69.5 -35t80.5 -12t81 13t71 37l84 -85l58 58l-84 85q24 31 36.5 69.5t12.5 80.5q0 44 -14 83t-38 72l87 86l-58 58l-88 -87q-32 22 -69.5 35t-78.5 13q-42 0 -79 -12.5t-69 -33.5l-84 85l-58 -58l84 -85q-25 -32 -39 -72t-14 -84q0 -43 13.5 -82t37.5 -71
l-82 -82l58 -58zM385 469q35 0 66 -13.5t55 -36.5q23 -24 36.5 -55t13.5 -66q0 -36 -13.5 -67t-36.5 -54q-24 -23 -55 -36t-66 -13q-36 0 -67 13t-54 36t-36 54t-13 67q0 35 13 66t36 55q23 23 54 36.5t67 13.5z" />
    <glyph glyph-name="section" unicode="&#xa7;" horiz-adv-x="323" 
d="M65 253q22 -29 44.5 -50.5t40.5 -40.5q18 -20 29 -39t11 -42q0 -16 -10 -28.5t-19 -12.5q-5 0 -8 1.5t-6 3.5l-3.5 3.5t-1.5 2.5q3 5 3.5 7.5t0.5 14.5q-1 18 -13.5 32t-37.5 14q-16 0 -30 -13t-14 -34q0 -23 10 -40.5t26 -29.5q17 -12 37.5 -18.5t41.5 -6.5q28 0 49 11
t35 30q14 18 21 41.5t6 48.5q-1 24 -8 44.5t-22 35.5q13 3 30.5 22t16.5 68q-2 42 -23 72t-64 63q-27 20 -49 48.5t-25 64.5q-2 16 4 26t15 14q9 5 19 4t17 -5q-8 -8 -9.5 -20t2.5 -23q3 -12 12 -21t23 -12q21 -5 40 12.5t15 46.5q-6 31 -33.5 54.5t-68.5 23.5
q-48 0 -79 -27.5t-31 -81.5q0 -42 11 -69t19 -36q-23 -9 -35 -28.5t-14 -43.5q-2 -23 4.5 -46.5t20.5 -40.5zM216 254q0 -6 -3 -9t-10 0q-30 10 -57.5 35.5t-30.5 57.5q-1 7 4 11.5t13 2.5q9 -4 23 -13.5t27 -22.5q13 -14 22.5 -30t11.5 -32z" />
    <glyph glyph-name="dieresis" unicode="&#xa8;" horiz-adv-x="770" 
d="M262 538v132h-132v-132h132zM639 538v132h-132v-132h132z" />
    <glyph glyph-name="ordfeminine" unicode="&#xaa;" horiz-adv-x="770" 
d="M474 183q1 -5 3 -9.5t4 -9.5l4 -10t5 -10h110q-1 0 -5 9t-9 22t-8.5 27t-3.5 24v230q0 34 -16.5 61t-43.5 45t-61.5 28t-70.5 10q-39 0 -74.5 -10t-62.5 -31q-26 -20 -41 -51.5t-12 -74.5h108q-5 36 15 56t67 20t68.5 -19.5t21.5 -35.5q0 -15 -14 -21.5t-32 -10.5
q-12 -3 -28.5 -4t-35.5 -3q-20 -1 -40.5 -4t-41.5 -9q-51 -16 -81.5 -54.5t-22.5 -100.5q8 -63 56 -90t113 -23q46 1 80 18.5t49 30.5zM472 341v-30q0 -11 -8.5 -25t-23.5 -27t-37 -22.5t-50 -11.5q-24 -3 -45 6.5t-23 30.5q-4 21 9.5 36.5t38.5 23.5q4 1 16 2.5t29 3.5
q16 2 35 5t37 7q22 3 22 2v-1zM139 81v-87h504v87h-504z" />
    <glyph glyph-name="uni00AD" unicode="&#xad;" horiz-adv-x="385" 
d="M364 348h-338v-96h338v96z" />
    <glyph glyph-name="degree" unicode="&#xb0;" horiz-adv-x="216" 
d="M206 573q0 41 -28.5 69.5t-69.5 28.5q-42 0 -70.5 -28.5t-28.5 -69.5q0 -42 28.5 -70.5t70.5 -28.5q41 0 69.5 28.5t28.5 70.5zM144 573q0 -16 -10.5 -27t-25.5 -11q-14 0 -25 11t-11 27q0 15 11 26t25 11q15 0 25.5 -11t10.5 -26z" />
    <glyph glyph-name="plusminus" unicode="&#xb1;" horiz-adv-x="770" 
d="M123 423v-95h209v-167h107v167h208v95h-208v162h-107v-162h-209zM123 114v-94h524v94h-524z" />
    <glyph glyph-name="uni00B2" unicode="&#xb2;" horiz-adv-x="308" 
d="M137 368q1 0 2 1.5t3 3.5q1 2 4 5t8 6l66 45q10 7 22.5 16t22.5 22t17 29.5t7 39.5q0 45 -34 81t-96 36q-65 0 -98.5 -42.5t-30.5 -97.5h86q0 29 11 46t32 17q20 0 31.5 -13t9.5 -28q-1 -15 -13.5 -26.5t-25.5 -20.5l-59 -39q-27 -19 -42.5 -39.5t-22.5 -40.5
q-8 -21 -9.5 -41t-1.5 -38h261v78h-150z" />
    <glyph glyph-name="uni00B3" unicode="&#xb3;" horiz-adv-x="308" 
d="M249 472q2 2 7.5 7t10.5 13q5 9 9.5 22t4.5 31q0 43 -34.5 74.5t-90.5 31.5t-92 -34t-33 -91h88q-3 23 6.5 36t30.5 13q19 0 28.5 -11t8.5 -21q-2 -8 -7.5 -16t-10.5 -11q-6 -4 -23.5 -6.5t-32.5 -2.5v-72q11 0 30 -1.5t27 -4.5q10 -6 18.5 -15.5t8.5 -19.5
q0 -15 -13.5 -26t-33.5 -11q-22 0 -35.5 13.5t-10.5 41.5h-88q-3 -65 36.5 -99.5t97.5 -34.5q60 0 98 33t38 82q0 31 -16 52.5t-27 26.5z" />
    <glyph glyph-name="acute" unicode="&#xb4;" horiz-adv-x="770" 
d="M332 443l138 225h-121l-85 -225h68z" />
    <glyph glyph-name="paragraph" unicode="&#xb6;" horiz-adv-x="770" 
d="M493 647h-157q-31 0 -58.5 -12t-47.5 -33q-21 -20 -32.5 -47.5t-11.5 -57.5q0 -64 42.5 -107.5t118.5 -43.5v-392h30v662h85v-662h31v693z" />
    <glyph glyph-name="periodcentered" unicode="&#xb7;" horiz-adv-x="270" 
d="M451 236v132h-131v-132h131z" />
    <glyph glyph-name="cedilla" unicode="&#xb8;" horiz-adv-x="293" 
d="M215 16l-72 20l-63 -66l25 -25q8 3 16.5 4.5t14.5 1.5t17 -5t11 -15q0 -11 -14 -16.5t-29 -6.5q-10 -1 -30.5 3.5t-35.5 15.5l-16 -36q18 -15 44.5 -24t61.5 -9q45 0 75.5 24t29.5 58q-1 18 -13 35.5t-34 23.5z" />
    <glyph glyph-name="uni00B9" unicode="&#xb9;" horiz-adv-x="308" 
d="M223 282v363h-79q0 -17 -7 -29t-13 -15q-7 -6 -25 -10t-38 -4v-75h75v-230h87z" />
    <glyph glyph-name="ordmasculine" unicode="&#xba;" horiz-adv-x="770" 
d="M598 370q0 48 -15 90.5t-42 74.5q-27 31 -66 49.5t-88 18.5q-50 0 -89.5 -18.5t-66.5 -49.5q-27 -32 -41.5 -74.5t-14.5 -90.5q0 -49 14 -91.5t42 -73.5q27 -32 66 -49.5t89 -17.5q49 0 88 17.5t67 49.5q27 31 42 73.5t15 91.5zM642 -3v87h-504v-87h504zM490 370
q0 -57 -30 -98t-74 -41q-45 0 -74.5 41t-29.5 98t30 99t75 42q44 0 73.5 -42t29.5 -99z" />
    <glyph glyph-name="onequarter" unicode="&#xbc;" horiz-adv-x="770" 
d="M239 282v363h-79q0 -17 -7 -29t-13 -15q-7 -6 -25 -10t-38 -4v-75h75v-230h87zM124 -35l550 634l-56 49l-545 -629zM685 14v77h-40v234h-79l-146 -232v-79h145v-51h80v51h40zM565 178v-87h-55z" />
    <glyph glyph-name="onehalf" unicode="&#xbd;" horiz-adv-x="770" 
d="M239 282v363h-79q0 -17 -7 -29t-13 -15q-7 -6 -25 -10t-38 -4v-75h75v-230h87zM547 49q1 0 2.5 1.5t2.5 3.5q2 2 4.5 5t7.5 6l67 45q10 7 22 16.5t22 21.5q10 13 17 29.5t7 39.5q0 45 -34 81t-95 36q-65 0 -99 -42.5t-31 -97.5h87q-1 29 10.5 46.5t32.5 17.5
q19 0 30.5 -13.5t10.5 -28.5t-13.5 -26.5t-26.5 -20.5l-58 -39q-27 -19 -42.5 -39.5t-22.5 -40.5q-8 -21 -9.5 -41t-1.5 -38h261v78h-151zM124 -35l550 634l-56 49l-545 -629z" />
    <glyph glyph-name="threequarters" unicode="&#xbe;" horiz-adv-x="770" 
d="M124 -35l550 634l-56 49l-545 -629zM280 472q2 2 7.5 7t10.5 13q5 9 9.5 22t4.5 31q0 43 -34.5 74.5t-91.5 31.5q-56 0 -91.5 -34t-32.5 -91h87q-3 23 7 36t31 13q19 0 28.5 -11t8.5 -21q-2 -8 -7.5 -16t-10.5 -11q-6 -4 -24 -6.5t-33 -2.5v-72q12 0 31 -1.5t26 -4.5
q11 -6 19.5 -15.5t8.5 -19.5q0 -15 -13.5 -26t-33.5 -11q-22 0 -35.5 13.5t-10.5 41.5h-89q-3 -65 37 -99.5t98 -34.5q59 0 97.5 33t38.5 82q0 31 -16 52.5t-27 26.5zM685 14v77h-40v234h-79l-146 -232v-79h145v-51h80v51h40zM565 178v-87h-55z" />
    <glyph glyph-name="questiondown" unicode="&#xbf;" horiz-adv-x="770" 
d="M385 -38q54 0 93.5 18.5t64.5 48.5q25 31 36 69.5t9 78.5h-111q3 -39 -20 -72t-70 -33q-48 0 -69.5 26t-13.5 58q6 27 29.5 51t48.5 50t45 57t20 73v69h-117v-69q0 -29 -19.5 -50.5t-44.5 -44.5q-25 -24 -48.5 -54t-31.5 -75q-8 -40 4 -76.5t39 -64.5q27 -27 67 -43.5
t89 -16.5zM323 643v-130h130v130h-130z" />
    <glyph glyph-name="AE" unicode="&#xc6;" horiz-adv-x="770" 
d="M735 -4v100h-166l-62 158h207v101h-249l-53 138h316v100h-468l-240 -597h112l57 138h253l56 -138h237zM400 238h-171l87 214z" />
    <glyph glyph-name="Eth" unicode="&#xd0;" horiz-adv-x="770" 
d="M190 278h-121v-90h121v-193h205q64 -1 114.5 21.5t85.5 61.5q35 40 54 95t19 121q0 64 -19 119t-54 95q-35 39 -85.5 62t-114.5 23h-205v-315zM297 278v214h83q44 0 77 -16t55 -43q21 -27 32 -63t11 -76q0 -42 -11 -78t-32 -63q-22 -27 -55 -42t-77 -15h-83v92h177v90
h-177z" />
    <glyph glyph-name="multiply" unicode="&#xd7;" horiz-adv-x="770" 
d="M651 108l-197 193l182 184l-69 65l-183 -181l-180 185l-75 -71l187 -185l-192 -187l74 -69l185 189l199 -197z" />
    <glyph glyph-name="Oslash" unicode="&#xd8;" horiz-adv-x="770" 
d="M180 80l-69 -100l70 -50l64 92q26 -18 58.5 -27t83.5 -9q63 0 113.5 22t86.5 63q35 40 54.5 97.5t19.5 128.5q0 75 -18.5 129t-52.5 90l66 94l-69 50l-64 -90q-23 16 -55.5 25.5t-80.5 9.5q-63 0 -114 -22.5t-86 -62.5q-35 -41 -54 -97.5t-19 -125.5q0 -76 16.5 -128.5
t49.5 -88.5zM464 486l-216 -310q-3 3 -6.5 15.5t-7.5 29.5q-3 17 -5.5 37t-2.5 39q0 93 43 150.5t118 57.5q22 0 46.5 -8t30.5 -11zM523 420q3 -5 7 -17.5t8 -29.5q3 -17 6 -37t3 -39q0 -95 -43 -152.5t-117 -57.5q-23 0 -50 8t-33 14z" />
    <glyph glyph-name="Thorn" unicode="&#xde;" horiz-adv-x="770" 
d="M387 406q50 0 78.5 -36.5t28.5 -95.5q0 -60 -28.5 -96.5t-78.5 -36.5q-51 0 -79.5 34.5t-28.5 98.5q0 63 28.5 97.5t79.5 34.5zM279 77q8 -9 39 -23t80 -14q47 0 86 17t66 47q28 31 43.5 74t15.5 96q0 52 -15.5 95.5t-43.5 74.5q-27 30 -66 47.5t-86 17.5
q-49 0 -80 -16.5t-39 -24.5v129h-107v-599h107v79z" />
    <glyph glyph-name="germandbls" unicode="&#xdf;" horiz-adv-x="770" 
d="M209 -20h102v456q0 26 19 49t52 23q31 0 56 -17t25 -59q0 -43 -27 -62t-67 -18h-32v-93h37q17 1 35.5 -2.5t34.5 -12.5q15 -10 25.5 -27t10.5 -42q0 -27 -10 -44t-26 -27q-15 -10 -33.5 -13.5t-35.5 -3.5h-39v-93h52q97 0 148.5 49t51.5 125q-1 58 -23.5 93t-53.5 56
q8 8 18 17.5t19 23.5q8 15 14 37t6 55q0 60 -47.5 104t-125.5 44h-10q-33 0 -64.5 -9t-56.5 -29t-40 -53t-15 -81v-446z" />
    <glyph glyph-name="ae" unicode="&#xe6;" horiz-adv-x="770" 
d="M491 -24q77 0 114 45t53 111h-104q-5 -25 -20.5 -43t-39.5 -18q-26 0 -49 27.5t-24 72.5h244q0 67 -13.5 118.5t-37.5 85.5t-56.5 51.5t-68.5 17.5q-42 0 -72.5 -17.5t-39.5 -35.5q-12 18 -43 35t-74 17q-33 0 -62 -10.5t-50 -30.5q-22 -21 -34 -52.5t-10 -73.5h103
q-5 36 8.5 56t45.5 20q29 0 41.5 -19.5t12.5 -36.5q0 -16 -11.5 -23t-17.5 -8q-8 -3 -21 -4.5t-28 -3.5t-32.5 -6t-33.5 -10q-42 -15 -68 -53t-17 -98q9 -61 49 -87.5t98 -26.5q26 0 49 8.5t41 20.5t29.5 23.5t13.5 17.5q1 -6 10.5 -17.5t25.5 -23.5t38.5 -20.5t50.5 -8.5z
M315 185v-32q0 -12 -5.5 -26t-15.5 -27t-25.5 -22.5t-34.5 -10.5q-15 -2 -28.5 7t-15.5 30q-3 21 7.5 37.5t28.5 25.5q2 1 10 2t20 3q11 2 24.5 4.5t27.5 6.5q1 0 3 1t4 1zM424 262q2 34 18 60.5t45 26.5q33 0 50 -26t19 -61h-132z" />
    <glyph glyph-name="eth" unicode="&#xf0;" horiz-adv-x="770" 
d="M363 260h-198q-3 -74 14.5 -127t48.5 -87t72.5 -49.5t86.5 -15.5q51 0 92.5 18t70.5 49q30 32 46 75.5t16 94.5q0 50 -17 93.5t-47 75.5l73 61l-56 66l-91 -76q-20 8 -41.5 13t-45.5 5q-49 0 -84 -13.5t-60 -35.5t-41.5 -51t-26.5 -60h121q6 17 25 34.5t52 21.5l-51 -42z
M397 260l67 57q12 -13 19.5 -28t9.5 -29h-96zM491 163q-6 -33 -33.5 -57.5t-69.5 -24.5q-44 0 -71.5 25t-30.5 57h205z" />
    <glyph glyph-name="divide" unicode="&#xf7;" horiz-adv-x="770" 
d="M460 512q0 30 -19.5 52t-58.5 22q-33 0 -53 -23.5t-20 -50.5q0 -34 22.5 -54.5t55.5 -20.5q30 -1 51.5 22t21.5 53zM655 246v103h-539v-103h539zM460 88q0 30 -19.5 52t-58.5 22q-33 0 -53 -23t-20 -51q0 -33 22.5 -53.5t55.5 -20.5q30 -1 51.5 21.5t21.5 52.5z" />
    <glyph glyph-name="oslash" unicode="&#xf8;" horiz-adv-x="770" 
d="M217 62l-41 -58l70 -50l37 53q22 -13 49 -19.5t57 -6.5q50 0 91 18.5t71 50.5q29 32 45 75t16 93t-16 93.5t-46 75.5l45 65l-71 48l-44 -63q-20 9 -43 14t-47 5q-52 0 -93.5 -19t-70.5 -51q-29 -33 -44.5 -76t-15.5 -92q0 -45 13 -85t38 -71zM416 345l-126 -179
q-4 12 -5.5 25t-1.5 27q0 55 28 93.5t78 38.5q7 0 14 -1t13 -4zM480 287q7 -15 11 -32.5t4 -36.5q0 -55 -29 -93.5t-77 -38.5q-12 0 -23 2.5t-20 6.5z" />
    <glyph glyph-name="thorn" unicode="&#xfe;" horiz-adv-x="770" 
d="M396 355q50 0 78.5 -36.5t28.5 -94.5q0 -59 -28.5 -95t-78.5 -36q-51 0 -79.5 34t-28.5 97t28.5 97t79.5 34zM288 31q7 -9 39 -24t80 -15q47 0 86 16.5t67 47.5q27 31 42.5 73.5t15.5 94.5q0 105 -58 168.5t-153 63.5q-48 0 -80 -15t-39 -23v179h-106v-680h106v114z" />
    <glyph glyph-name="dcroat" unicode="&#x111;" horiz-adv-x="770" 
d="M383 316q49 0 76.5 -34t27.5 -86t-27.5 -85.5t-76.5 -33.5q-46 0 -75 33.5t-29 85.5t28 86t76 34zM489 434v-56q-9 8 -38 21t-78 13q-47 0 -86 -15.5t-66 -43.5q-28 -28 -43.5 -68t-15.5 -88q0 -49 16 -89t44 -69q28 -28 67 -43.5t84 -15.5q48 0 78 17t36 25v-26h110v438
h107v89h-107v72h-108v-72h-245v-89h245z" />
    <glyph glyph-name="Hbar" unicode="&#x126;" horiz-adv-x="770" 
d="M153 501h-91v-87h91v-416h107v264h251v-264h107v416h90v87h-90v95h-107v-95h-251v95h-107v-95zM260 414h251v-51h-251v51z" />
    <glyph glyph-name="hbar" unicode="&#x127;" horiz-adv-x="770" 
d="M301 507v90h-106v-90h-106v-87h106v-422h106v202q0 39 29 68.5t69 29.5t58.5 -19.5t18.5 -65.5v-215h107v247q0 24 -7.5 50t-23.5 48q-16 23 -42 39.5t-63 21.5q-66 6 -101 -10t-45 -26v52h234v87h-234z" />
    <glyph glyph-name="dotlessi" unicode="&#x131;" horiz-adv-x="770" 
d="M438 -2v441h-107v-441h107z" />
    <glyph glyph-name="IJ" unicode="&#x132;" horiz-adv-x="770" 
d="M640 597h-107v-433q0 -45 -22 -63t-49 -18q-25 0 -46.5 18t-22.5 63v53h-107v-66q-1 -42 13 -73.5t39 -53.5q24 -21 56 -32t68 -11q74 0 126 43.5t52 126.5v446zM238 -3v600h-107v-600h107z" />
    <glyph glyph-name="ij" unicode="&#x133;" horiz-adv-x="770" 
d="M318 -3v442h-108v-442h108zM318 486v110h-108v-110h108zM557 486v110h-107v-110h107zM557 439h-107v-447q0 -17 -1.5 -24.5t-5.5 -11.5q-5 -4 -24.5 -5t-28.5 -1v-94h60q32 0 51.5 8.5t32.5 26.5q15 16 19 33t4 60v455z" />
    <glyph glyph-name="kgreenlandic" unicode="&#x138;" horiz-adv-x="770" 
d="M296 160l36 31l165 -193h129l-219 257l193 181h-142l-162 -148v148h-107v-438h107v162z" />
    <glyph glyph-name="Ldot" unicode="&#x13f;" horiz-adv-x="770" 
d="M562 319q-28 0 -46.5 -19t-18.5 -47t18.5 -46t46.5 -18q27 0 46 18t19 46t-19 47t-46 19zM604 -4v104h-298v495h-111v-599h409z" />
    <glyph glyph-name="ldot" unicode="&#x140;" horiz-adv-x="770" 
d="M504 435q-28 0 -47 -19.5t-19 -46.5t19 -45.5t47 -18.5q27 0 46 18.5t19 45.5t-19 46.5t-46 19.5zM297 598v-600h108v600h-108z" />
    <glyph glyph-name="Lslash" unicode="&#x141;" horiz-adv-x="770" 
d="M194 339l-97 -82l55 -69l42 36v-230h410v104h-298v221l111 96l-54 66l-57 -48v160h-112v-254z" />
    <glyph glyph-name="lslash" unicode="&#x142;" horiz-adv-x="770" 
d="M438 415v182h-107v-270l-143 -119l55 -72l88 75v-214h107v305l152 127l-55 67z" />
    <glyph glyph-name="napostrophe" unicode="&#x149;" horiz-adv-x="770" 
d="M190 436v-438h107v247q0 40 28.5 70t70.5 30q39 0 57 -19.5t18 -66.5v-261h107v293q0 24 -7.5 50t-22.5 48q-16 23 -42 39t-63 21q-66 6 -101.5 -11.5t-44.5 -26.5v25h-107zM447 593v87h-124v-124h57l-5 -9.5t-8 -13.5q-6 -6 -18.5 -13t-30.5 -10l35 -57q21 6 38 16
t33 31q15 19 19 40.5t4 52.5z" />
    <glyph glyph-name="Eng" unicode="&#x14a;" horiz-adv-x="770" 
d="M253 405l255 -395v-28q0 -12 -1.5 -18.5t-6.5 -9.5q-6 -3 -18 -3.5t-33 -0.5v-100h62q52 0 78.5 31.5t26.5 90.5v622h-108v-386l-250 386h-113v-597h108v408z" />
    <glyph glyph-name="eng" unicode="&#x14b;" horiz-adv-x="770" 
d="M464 -14q0 -18 -1 -26t-6 -12t-24.5 -4.5t-29.5 -0.5v-94h61q32 0 52 10t35 29q7 8 11 14t6 15q2 8 2.5 21.5t0.5 36.5v316q0 24 -7.5 50t-23.5 48q-16 23 -42 39t-63 21q-33 3 -58 -1t-43 -11q-18 -8 -29 -16.5t-15 -13.5v29h-108v-438h108v248q0 40 28 69.5t70 29.5
q39 0 57.5 -19.5t18.5 -65.5v-274z" />
    <glyph glyph-name="OE" unicode="&#x152;" horiz-adv-x="770" 
d="M290 -2h439v100h-285v160h266v101h-266v136h280v101h-436q-61 0 -109 -21.5t-82 -59.5q-34 -39 -51.5 -94t-17.5 -122q0 -68 18 -123.5t52 -95.5q34 -39 82.5 -60.5t109.5 -21.5zM338 496v-398h-47q-73 0 -114 55t-41 146q0 89 41 143t114 54h47z" />
    <glyph glyph-name="oe" unicode="&#x153;" horiz-adv-x="770" 
d="M452 262q2 34 20.5 60.5t44.5 26.5q28 0 46 -30t21 -57h-132zM264 349q30 0 49.5 -41t19.5 -98q0 -58 -19.5 -98.5t-49.5 -40.5t-50 40.5t-20 98.5q0 57 20 98t50 41zM393 42q12 -24 44.5 -45t81.5 -21q76 0 112.5 44.5t53.5 111.5h-107q-6 -21 -21.5 -41t-39.5 -20
q-12 0 -24 9t-22 24q-10 14 -16 32t-6 35h243q1 70 -13 121.5t-38 85.5q-24 33 -56 49.5t-68 16.5q-49 0 -81.5 -20.5t-44.5 -44.5q-12 24 -44.5 44.5t-82.5 20.5q-41 0 -73.5 -18.5t-54.5 -50.5q-23 -32 -34.5 -74.5t-11.5 -90.5q0 -49 11.5 -91.5t34.5 -74.5
q22 -32 54.5 -50t73.5 -18q51 0 84 21t45 45z" />
    <glyph glyph-name="Tbar" unicode="&#x166;" horiz-adv-x="770" 
d="M439 374v122h186v100h-478v-100h184v-122h-194v-88h194v-287h108v287h194v88h-194z" />
    <glyph glyph-name="tbar" unicode="&#x167;" horiz-adv-x="770" 
d="M309 305h-113v-89h113v-92v-33.5t3 -20.5q2 -9 6 -16t12 -17q16 -21 32 -30.5t46 -9.5h68v95q-9 0 -29 1.5t-23 5.5q-6 4 -7 11t-1 24v82h120v89h-120v37h60v94h-60v127h-107v-127h-53v-94h53v-37z" />
    <glyph glyph-name="caron" unicode="&#x2c7;" horiz-adv-x="770" 
d="M387 505l194 115l-52 63l-142 -84l-147 83l-50 -65z" />
    <glyph glyph-name="uni02D0" unicode="&#x2d0;" horiz-adv-x="212" 
d="M191 102l-86 147l-85 -147h171zM20 498l85 -147l86 147h-171z" />
    <glyph glyph-name="breve" unicode="&#x2d8;" horiz-adv-x="770" 
d="M259 688l-74 -47q46 -60 93 -86t107 -26q57 0 106.5 26.5t94.5 86.5l-74 46q-27 -36 -62 -57t-65 -21q-31 0 -66 21t-60 57z" />
    <glyph glyph-name="dotaccent" unicode="&#x2d9;" horiz-adv-x="770" 
d="M386 670q-30 0 -50 -20.5t-20 -49.5q0 -30 20 -50.5t50 -20.5q29 0 49.5 20.5t20.5 50.5q0 29 -20.5 49.5t-49.5 20.5z" />
    <glyph glyph-name="ring" unicode="&#x2da;" horiz-adv-x="770" 
d="M485 573q0 41 -28.5 69.5t-69.5 28.5q-42 0 -70.5 -28.5t-28.5 -69.5q0 -42 28.5 -70.5t70.5 -28.5q41 0 69.5 28.5t28.5 70.5zM423 573q0 -16 -10.5 -27t-25.5 -11q-14 0 -25.5 11t-11.5 27q0 15 11.5 26t25.5 11q15 0 25.5 -11t10.5 -26z" />
    <glyph glyph-name="ogonek" unicode="&#x2db;" horiz-adv-x="293" 
d="M168 18h-83q-14 -12 -23.5 -30t-9.5 -37q-3 -30 21 -52.5t63 -22.5q33 -1 66 15.5t54 45.5l-29 25q-12 -11 -29 -18t-31 -7t-23.5 8t-9.5 21q0 9 8.5 22.5t25.5 29.5z" />
    <glyph glyph-name="hungarumlaut" unicode="&#x2dd;" horiz-adv-x="770" 
d="M276 443l137 225h-120l-85 -225h68zM413 443l138 225h-121l-85 -225h68z" />
    <glyph glyph-name="Alpha" unicode="&#x391;" horiz-adv-x="770" 
d="M679 -4l-232 597h-127l-230 -597h119l50 132h249l52 -132h119zM467 235h-166l84 216z" />
    <glyph glyph-name="Beta" unicode="&#x392;" horiz-adv-x="770" 
d="M553 315q24 15 46 52t14 92q-9 52 -58.5 93t-130.5 41h-261v-597h262q90 0 149 46.5t64 118.5q1 31 -6.5 56.5t-20.5 44.5q-13 20 -28.5 33t-29.5 20zM409 360h-130v127h131q39 0 62 -17t23 -44q0 -31 -22.5 -48.5t-63.5 -17.5zM418 102h-139v153h142q51 0 75 -23.5
t24 -52.5q0 -30 -24 -53.5t-78 -23.5z" />
    <glyph glyph-name="Gamma" unicode="&#x393;" horiz-adv-x="770" 
d="M604 594h-411v-598h115v493h296v105z" />
    <glyph glyph-name="Delta" unicode="&#x394;" horiz-adv-x="770" 
d="M560 -4h119l-232 597h-127l-230 -597h119l176 455z" />
    <glyph glyph-name="Epsilon" unicode="&#x395;" horiz-adv-x="770" 
d="M614 -4v105l-319 1v147h296v104l-296 1v133h313v106h-429v-597h435z" />
    <glyph glyph-name="Zeta" unicode="&#x396;" horiz-adv-x="770" 
d="M615 -4v107h-328l320 390v100h-443v-107h290l-312 -386v-104h473z" />
    <glyph glyph-name="Eta" unicode="&#x397;" horiz-adv-x="770" 
d="M620 -4v601h-118v-234h-239v234h-117v-601h117v260h239v-260h118z" />
    <glyph glyph-name="Theta" unicode="&#x398;" horiz-adv-x="770" 
d="M384 609q-64 0 -115 -23t-87 -64q-36 -42 -55 -99t-19 -126q0 -70 19 -128t55 -100q36 -41 87 -64t115 -23q63 0 114.5 23t88.5 64q36 42 56 100t20 128q0 69 -20 126t-56 99q-37 41 -88.5 64t-114.5 23zM384 87q-74 0 -115 58.5t-41 151.5q0 90 41 148t115 58
q73 0 116.5 -58t43.5 -148q0 -93 -43.5 -151.5t-116.5 -58.5zM283 344v-97h207v97h-207z" />
    <glyph glyph-name="Iota" unicode="&#x399;" horiz-adv-x="770" 
d="M443 -4v601h-117v-601h117z" />
    <glyph glyph-name="Kappa" unicode="&#x39a;" horiz-adv-x="770" 
d="M678 -5l-279 350q53 52 115 118.5t121 133.5h-138q-59 -68 -112 -122t-114 -114v236h-116v-601h115v223l47 47l221 -271h140z" />
    <glyph glyph-name="Lambda" unicode="&#x39b;" horiz-adv-x="770" 
d="M560 -4h119l-232 597h-127l-230 -597h119l176 455z" />
    <glyph glyph-name="Mu" unicode="&#x39c;" horiz-adv-x="770" 
d="M672 -3v597h-137l-150 -446l-152 446h-133v-597h114v337l108 -337h128l108 342v-342h114z" />
    <glyph glyph-name="Nu" unicode="&#x39d;" horiz-adv-x="770" 
d="M628 -3v600h-116v-415l-231 415h-133v-600h115v415l229 -415h136z" />
    <glyph glyph-name="Xi" unicode="&#x39e;" horiz-adv-x="770" 
d="M622 99h-480v-104h480v104zM594 593h-429v-104h429v104zM569 360h-372v-104h372v104z" />
    <glyph glyph-name="Omicron" unicode="&#x39f;" horiz-adv-x="770" 
d="M381 609q-64 0 -115 -23t-87 -64q-36 -42 -55 -99t-19 -126q0 -70 19 -128t55 -100q36 -41 87 -64t115 -23q63 0 114.5 23t88.5 64q36 42 56 100t20 128q0 69 -20 126t-56 99q-37 41 -88.5 64t-114.5 23zM381 87q-74 0 -115 58.5t-41 151.5q0 90 41 148t115 58
q73 0 116.5 -58t43.5 -148q0 -93 -43.5 -151.5t-116.5 -58.5z" />
    <glyph glyph-name="Pi" unicode="&#x3a0;" horiz-adv-x="770" 
d="M146 593v-598h114v496h230v-496h114v598h-458z" />
    <glyph glyph-name="Rho" unicode="&#x3a1;" horiz-adv-x="770" 
d="M416 593h-251v-597h115v213h136q43 0 80.5 15.5t65.5 41.5t44.5 61.5t16.5 74.5t-16.5 73.5t-44.5 60.5t-65.5 41.5t-80.5 15.5zM401 315h-121v172h121q36 0 69.5 -19t33.5 -66q0 -49 -33.5 -68t-69.5 -19z" />
    <glyph glyph-name="Sigma" unicode="&#x3a3;" horiz-adv-x="770" 
d="M594 593h-418v-100l172 -187l-179 -206v-104h437v103h-296l174 208l-162 185h272v101z" />
    <glyph glyph-name="Tau" unicode="&#x3a4;" horiz-adv-x="770" 
d="M623 488v105h-487v-105h184v-492h117v492h186z" />
    <glyph glyph-name="Upsilon" unicode="&#x3a5;" horiz-adv-x="770" 
d="M647 597h-131l-142 -258l-142 258h-130l215 -389v-212h117v215z" />
    <glyph glyph-name="Phi" unicode="&#x3a6;" horiz-adv-x="770" 
d="M440 537v57h-105v-57q-47 -5 -88.5 -25t-73.5 -51t-50.5 -71t-18.5 -86q0 -47 18.5 -87t50.5 -71q32 -32 73.5 -52t88.5 -25v-73h105v73q46 5 89 25t75 51t51.5 71.5t19.5 87.5q0 46 -19.5 86.5t-51.5 71.5q-32 32 -75 51.5t-89 23.5zM440 165v277q22 -4 44.5 -16.5
t39.5 -30.5q18 -19 29 -42.5t11 -48.5q0 -26 -11 -49.5t-29 -42.5q-17 -19 -39.5 -31.5t-44.5 -15.5zM335 442v-278q-22 3 -44 16t-39 32q-18 19 -28.5 42.5t-10.5 49.5q0 25 10.5 48.5t28.5 41.5q17 19 39 31.5t44 16.5z" />
    <glyph glyph-name="Chi" unicode="&#x3a7;" horiz-adv-x="770" 
d="M651 -4l-206 314l186 287h-138l-117 -182l-119 182h-138l188 -289l-205 -312h136l137 211l139 -211h137z" />
    <glyph glyph-name="Psi" unicode="&#x3a8;" horiz-adv-x="770" 
d="M206 594h-116v-180q0 -69 14 -111t42 -74q20 -25 42.5 -39t45.5 -21q22 -7 44 -9t40 -2v-162h116v162q31 0 58.5 5.5t67.5 28.5q55 31 78 82.5t23 140.5v179h-115v-161q0 -56 -6.5 -89t-20.5 -50q-13 -18 -34.5 -23.5t-50.5 -6.5v330h-116v-329q-32 0 -53.5 8t-34.5 27
t-18.5 51.5t-5.5 81.5v161z" />
    <glyph glyph-name="Omega" unicode="&#x3a9;" horiz-adv-x="770" 
d="M97 98v-102h262v101q-65 42 -97.5 94t-32.5 127q0 34 9.5 66t27.5 57q19 25 47 40.5t66 15.5q36 0 64.5 -15.5t47.5 -40.5t29 -57t10 -66q0 -72 -34.5 -127t-97.5 -93v-102h263v102h-112q16 13 34 35t33 51q14 30 24 65t10 76q0 52 -19 102t-54 89q-36 39 -86 62.5
t-112 23.5q-65 0 -115.5 -23.5t-85.5 -61.5q-34 -38 -52 -87.5t-18 -101.5q0 -45 9 -81t24 -64q15 -29 33 -49.5t35 -35.5h-112z" />
    <glyph glyph-name="alpha" unicode="&#x3b1;" horiz-adv-x="512" 
d="M311 380q-21 27 -52 42.5t-64 15.5q-80 0 -131.5 -59t-51.5 -165q0 -97 45 -160.5t127 -63.5q49 0 78 12.5t41 28.5q5 -11 23.5 -25t54.5 -14t65 28t48 80l-86 48q-5 -15 -12 -33.5l-7 -18.5q-7 0 -15 24t-8 58l67 234l-105 27zM191 81q-30 0 -52.5 35t-22.5 95
q0 59 22.5 96t50.5 37t47.5 -31t21.5 -101q1 -61 -19 -96t-48 -35z" />
    <glyph glyph-name="beta" unicode="&#x3b2;" horiz-adv-x="467" 
d="M150 48q22 -36 55 -48.5t75 -12.5q35 0 63 13t48 36q19 23 30 53t11 65q0 26 -8 52t-21 48t-30.5 38t-36.5 23q26 9 45 45.5t19 84.5q0 31 -13.5 58t-36.5 46q-24 20 -55 31t-67 11q-78 0 -132 -60t-54 -172v-506h108v195zM193 272q75 -1 102.5 -34.5t27.5 -81.5
q0 -34 -23 -54.5t-51 -20.5q-19 0 -41 14.5t-32 31.5q-5 7 -10 15t-8 16q-4 7 -6 15t-2 16v184q0 69 19.5 98.5t59.5 29.5q26 0 45.5 -19.5t19.5 -48.5q0 -33 -22.5 -60.5t-78.5 -27.5v-73z" />
    <glyph glyph-name="gamma" unicode="&#x3b3;" horiz-adv-x="501" 
d="M469 457h-120l-103 -203l-101 203h-121l156 -314q-17 -29 -28 -48.5t-17 -35.5q-6 -15 -8.5 -28t-2.5 -28q0 -20 7 -40.5t21 -37.5t36.5 -28t52.5 -11q59 0 91 34t32 87q0 28 -10.5 54t-42.5 76zM230 6q0 9 3.5 17t11.5 20q3 -6 6 -11t5 -9t3 -8t1 -9q0 -8 -4 -15t-10 -7
t-11 6t-5 16z" />
    <glyph glyph-name="delta" unicode="&#x3b4;" horiz-adv-x="466" 
d="M406 593h-345v-79l113 -110q-22 -4 -49.5 -20t-52.5 -49q-25 -30 -36 -62.5t-11 -71.5q0 -53 13.5 -86t43.5 -66q31 -32 65 -49t86 -17q53 0 88.5 19t65.5 52q29 32 41.5 65.5t12.5 81.5q0 62 -25 100.5t-49 62.5l-140 130h179v99zM233 317q41 0 70.5 -34t29.5 -82
q0 -51 -29.5 -85.5t-70.5 -34.5t-70.5 34.5t-29.5 85.5q0 48 29 82t71 34z" />
    <glyph glyph-name="epsilon" unicode="&#x3b5;" horiz-adv-x="412" 
d="M81 224q-9 -4 -20 -13t-21 -22t-16.5 -29t-6.5 -34q0 -68 50 -103.5t136 -35.5q73 0 124 35.5t70 116.5l-99 18q-12 -43 -38 -58.5t-57 -15.5q-39 0 -60 12.5t-21 34.5q0 18 35.5 33t106.5 15v88q-69 0 -97.5 10.5t-28.5 34.5q0 12 19 22.5t48 10.5q27 0 53.5 -15.5
t44.5 -43.5l94 41q-38 63 -87 88t-106 25q-35 0 -66 -9t-55 -25q-24 -17 -37.5 -41.5t-13.5 -55.5q0 -34 17 -55t32 -29z" />
    <glyph glyph-name="zeta" unicode="&#x3b6;" horiz-adv-x="370" 
d="M347 594h-288v-95h131q-22 -18 -38.5 -33t-31.5 -30q-14 -16 -27 -34.5t-28 -42.5q-33 -51 -42 -84t-9 -70q0 -63 31.5 -106t116.5 -55q33 -6 45 -11t12 -20q0 -14 -15 -25t-42 -8l-25 -98q56 0 93.5 11.5t60.5 31.5q22 19 32 45t10 54q0 24 -10 43.5t-33 38.5
q-15 12 -32 20t-33 13q-17 6 -30.5 9.5t-21.5 6.5q-18 4 -33 18.5t-15 44.5q0 27 14 67.5t38 76.5q10 16 29 36t42 42q23 21 48.5 41.5t50.5 37.5v75z" />
    <glyph glyph-name="eta" unicode="&#x3b7;" horiz-adv-x="416" 
d="M128 -4v247q0 45 27.5 72t55.5 27q36 0 56 -26.5t20 -74.5v-385h110v438q0 23 -11.5 49.5t-31.5 48.5q-21 22 -50 36.5t-65 14.5q-48 0 -74 -14t-37 -25v32h-110v-440h110z" />
    <glyph glyph-name="theta" unicode="&#x3b8;" horiz-adv-x="397" 
d="M15 304q0 -71 12.5 -129t36.5 -99q23 -42 57.5 -64t78.5 -22q39 0 72.5 23t57.5 64q24 42 38 99t14 126q0 60 -14 113.5t-39 93.5t-58 64t-72 24q-40 0 -74 -24t-58 -64q-25 -40 -38.5 -93t-13.5 -112zM266 255q-5 -86 -22 -132t-44 -46q-29 0 -47.5 48t-21.5 130h135z
M131 349q3 80 20.5 122t47.5 42q27 0 44.5 -41.5t22.5 -122.5h-135z" />
    <glyph glyph-name="iota" unicode="&#x3b9;" horiz-adv-x="189" 
d="M11 112q0 -46 27.5 -80.5t85.5 -34.5h55v97q-24 0 -39.5 6.5t-15.5 32.5v304h-113v-325z" />
    <glyph glyph-name="kappa" unicode="&#x3ba;" horiz-adv-x="408" 
d="M131 437h-113v-442h113v134l20 24l116 -158h133l-176 233l173 209h-134l-132 -158v158z" />
    <glyph glyph-name="lambda" unicode="&#x3bb;" horiz-adv-x="447" 
d="M318 -4h118l-218 597h-123l71 -185l-158 -412h117l101 256z" />
    <glyph glyph-name="mu" unicode="&#x3bc;" horiz-adv-x="416" 
d="M132 24q12 -18 33.5 -25t43.5 -7q23 0 46.5 8t30.5 27v-31h106v441h-114v-214q0 -78 -19.5 -105t-55.5 -27q-25 0 -48 23t-23 65v258h-114v-535h114v122z" />
    <glyph glyph-name="nu" unicode="&#x3bd;" horiz-adv-x="477" 
d="M237 140l-108 297h-117l170 -442h111l170 442h-118z" />
    <glyph glyph-name="xi" unicode="&#x3be;" horiz-adv-x="370" 
d="M135 349q-57 -36 -84.5 -80.5t-28.5 -87.5q0 -41 15.5 -70.5t46.5 -53.5q15 -11 30.5 -18t30.5 -12q14 -5 26.5 -8t22.5 -5q13 -4 26.5 -12t13.5 -10q0 -15 -17 -21t-46 -2l-26 -103q58 -2 96.5 7.5t62.5 26.5q23 17 32.5 41.5t9.5 53.5q0 48 -33 78t-81 42
q-45 12 -70 33t-25 54q0 22 12.5 43t35.5 37t54 26t68 10v96q-13 -1 -33.5 -1.5t-31.5 -0.5t-25.5 2t-28.5 8q-13 5 -22.5 13t-9.5 19q0 21 23 33.5t92 12.5h39v93h-86q-53 0 -88 -12.5t-57 -31.5q-21 -19 -30 -41.5t-9 -41.5q0 -41 23 -70.5t72 -46.5z" />
    <glyph glyph-name="omicron" unicode="&#x3bf;" horiz-adv-x="481" 
d="M18 216q0 -51 15 -94t44 -74q28 -32 69.5 -49t93.5 -17q51 0 92.5 17t69.5 49q29 31 44.5 74t15.5 94t-15.5 93.5t-44.5 73.5t-70 48.5t-92 17.5q-52 0 -93 -17.5t-70 -48.5t-44 -73.5t-15 -93.5zM240 352q48 0 78 -38.5t30 -97.5q0 -60 -30 -97.5t-78 -37.5t-78 37.5
t-30 97.5q0 59 30 97.5t78 38.5z" />
    <glyph glyph-name="pi" unicode="&#x3c0;" horiz-adv-x="593" 
d="M580 438h-566v-103h109v-339h112v339h125v-339h112v339h108v103z" />
    <glyph glyph-name="rho" unicode="&#x3c1;" horiz-adv-x="439" 
d="M126 -154v177q9 -9 17 -15.5t18 -10.5q11 -4 27 -5.5t42 -1.5q40 0 75.5 17.5t62.5 47.5q26 31 41.5 71t15.5 85q0 43 -14 84.5t-41 72.5q-26 32 -65 51.5t-88 19.5q-10 0 -30 -2.5t-45 -13.5q-26 -11 -49.5 -30t-40.5 -48q-18 -29 -28.5 -70.5t-10.5 -96.5v-332h113z
M218 343q43 0 67.5 -37t24.5 -91q0 -53 -26 -90t-68 -37t-66 33.5t-24 82.5q0 74 27.5 106.5t64.5 32.5z" />
    <glyph glyph-name="sigma" unicode="&#x3c3;" horiz-adv-x="516" 
d="M400 330h101v102h-270q-48 0 -87.5 -17t-67.5 -46q-29 -29 -44 -69.5t-15 -88.5t15 -89t43 -71q27 -30 66.5 -47t87.5 -17t87 17t66 47t42 71t15 89q0 25 -6 46.5t-12 36.5q-7 15 -13.5 24.5t-7.5 11.5zM229 331q45 0 71 -33.5t26 -86.5q0 -54 -27.5 -87t-69.5 -33
q-40 0 -68 33t-28 87q0 53 26.5 86.5t69.5 33.5z" />
    <glyph glyph-name="tau" unicode="&#x3c4;" horiz-adv-x="397" 
d="M379 438h-364v-100h127v-342h114v342h123v100z" />
    <glyph glyph-name="upsilon" unicode="&#x3c5;" horiz-adv-x="416" 
d="M19 437v-277q0 -75 44 -124.5t137 -49.5q51 0 87.5 16.5t60.5 43.5q23 27 35 61.5t14 70.5q2 40 -4.5 79t-17.5 75q-11 35 -24 65t-24 52l-102 -26q17 -32 30.5 -68t21.5 -71q9 -35 12 -66t1 -50q-6 -36 -32 -58t-59 -22q-28 0 -51 18t-23 48v283h-106z" />
    <glyph glyph-name="phi" unicode="&#x3c6;" horiz-adv-x="516" 
d="M202 446q-90 -18 -140 -82t-50 -146q0 -95 53.5 -154t140.5 -77v-126h108v126q43 8 78 29.5t60 52.5q25 32 39 70.5t16 81.5q2 40 -4.5 67.5t-25.5 60.5q-25 44 -64.5 68.5t-90.5 24.5q-36 0 -63 -16t-40 -51q-10 -27 -11.5 -55.5t-1.5 -51.5v-173q-36 9 -60.5 40
t-24.5 89q0 41 23 69.5t50 38.5zM314 268q0 48 3.5 60t20.5 12q26 0 46 -30.5t20 -81.5q0 -48 -26 -87t-64 -49v176z" />
    <glyph glyph-name="chi" unicode="&#x3c7;" horiz-adv-x="466" 
d="M169 173l-162 -276h122l100 166l100 -166h128l-164 280l154 261h-124l-91 -153l-91 153h-126z" />
    <glyph glyph-name="psi" unicode="&#x3c8;" horiz-adv-x="535" 
d="M129 437h-111v-223q0 -45 4 -70t15 -47q5 -11 15.5 -27t30.5 -32t51 -28.5t77 -15.5v-143h112v143q33 1 64.5 10t52.5 24q11 8 24.5 19t25.5 31q11 20 19 52.5t8 83.5v223h-113v-223q0 -22 -0.5 -40.5t-3.5 -26.5q-12 -25 -28 -36t-49 -14v340h-112v-340
q-49 3 -65.5 32.5t-16.5 84.5v223z" />
    <glyph glyph-name="omega" unicode="&#x3c9;" horiz-adv-x="624" 
d="M311 68q25 -44 60.5 -61t67.5 -17q38 0 70 15t56 42q23 28 35 66.5t11 86.5q-1 25 -5.5 55.5t-12.5 61.5q-8 32 -19.5 63t-25.5 58h-112q11 -25 22 -58t20 -67q8 -34 13.5 -64.5t5.5 -48.5q0 -64 -21 -89t-51 -25q-24 0 -40.5 26t-16.5 80v124h-112v-127q0 -55 -17.5 -79
t-39.5 -24q-30 0 -51.5 24t-21.5 85q0 20 5 52t14 67q8 34 19 67.5t23 56.5h-111q-11 -19 -22 -48t-19 -62q-9 -33 -14.5 -67t-5.5 -61q-5 -93 38.5 -151.5t130.5 -58.5q31 0 67 17t60 61z" />
    <glyph glyph-name="afii10023" unicode="&#x401;" horiz-adv-x="770" 
d="M606 -4v105l-320 1v147h297v104l-297 1v133h313v106h-428v-597h435zM297 729q-23 0 -38.5 -16t-15.5 -37q0 -23 15.5 -39.5t38.5 -16.5q21 0 37.5 16.5t16.5 39.5q0 21 -16.5 37t-37.5 16zM474 729q-22 0 -38 -16t-16 -37q0 -23 16 -39.5t38 -16.5q21 0 37.5 16.5
t16.5 39.5q0 21 -16.5 37t-37.5 16z" />
    <glyph glyph-name="afii10017" unicode="&#x410;" horiz-adv-x="770" 
d="M681 -4l-232 597h-127l-230 -597h118l51 132h249l51 -132h120zM469 235h-166l84 216z" />
    <glyph glyph-name="afii10018" unicode="&#x411;" horiz-adv-x="770" 
d="M285 94v162h142q45 0 70.5 -22t25.5 -58q-1 -36 -24 -59t-74 -23h-140zM176 593v-597h251q41 0 78 11t65 32t45.5 51.5t20.5 69.5q2 39 -11 74t-40 62q-28 27 -69.5 43t-96.5 16h-134v139h312v99h-421z" />
    <glyph glyph-name="afii10019" unicode="&#x412;" horiz-adv-x="770" 
d="M561 315q24 15 45.5 52t14.5 92q-9 52 -58.5 93t-130.5 41h-261v-597h262q90 0 149 46.5t64 118.5q1 31 -6.5 56.5t-20.5 44.5q-13 20 -28.5 33t-29.5 20zM417 360h-131v127h131q39 0 62.5 -17t23.5 -44q0 -31 -23 -48.5t-63 -17.5zM426 102h-140v153h143
q51 0 74.5 -23.5t23.5 -52.5q0 -30 -24 -53.5t-77 -23.5z" />
    <glyph glyph-name="afii10020" unicode="&#x413;" horiz-adv-x="770" 
d="M177 594v-598h113v497h311v101h-424z" />
    <glyph glyph-name="afii10021" unicode="&#x414;" horiz-adv-x="770" 
d="M178 94h-52v-219h107v121h304v-121h107v219h-53v499h-352q0 -60 -1 -130.5t-7 -138.5q-6 -69 -18.5 -129.5t-34.5 -100.5zM481 94h-184q19 39 29.5 93t15.5 111q4 56 5 108t1 87h133v-399z" />
    <glyph glyph-name="afii10022" unicode="&#x415;" horiz-adv-x="770" 
d="M606 -4v105l-320 1v147h297v104l-297 1v133h313v106h-428v-597h435z" />
    <glyph glyph-name="afii10024" unicode="&#x416;" horiz-adv-x="770" 
d="M331 363l-160 231h-125l182 -262l-224 -336h128l161 243l38 -55v-188h104v189l37 54l161 -243h129l-225 336l182 262h-125l-159 -229v229h-104v-231z" />
    <glyph glyph-name="afii10025" unicode="&#x417;" horiz-adv-x="770" 
d="M501 308q24 12 48.5 45t24.5 88q0 34 -14.5 65.5t-40.5 55.5q-26 23 -62.5 37.5t-79.5 14.5t-80 -14.5t-63 -39.5q-27 -26 -41 -60.5t-12 -74.5h112q-3 37 18.5 63.5t66.5 26.5t65 -26.5t18 -52.5q-2 -24 -13 -39t-26 -23q-18 -10 -41 -13t-49 -3v-104h19.5h21.5l22 -2
t22 -4q30 -9 47 -32.5t15 -50.5q-3 -36 -29.5 -60t-71.5 -24q-47 0 -75 26.5t-25 72.5h-113q-3 -47 13.5 -84.5t45.5 -64.5t69 -41.5t86 -14.5t85 14.5t68 40.5t45.5 60.5t16.5 74.5q0 47 -28 86t-65 57z" />
    <glyph glyph-name="afii10026" unicode="&#x418;" horiz-adv-x="770" 
d="M148 -3h135l229 415v-415h116v600h-134l-231 -415v415h-115v-600z" />
    <glyph glyph-name="afii10027" unicode="&#x419;" horiz-adv-x="770" 
d="M148 -3h135l229 415v-415h116v600h-134l-231 -415v415h-115v-600zM430 724q-3 -24 -15.5 -34t-26.5 -10t-27 10t-19 34h-96q15 -71 54.5 -97.5t88.5 -26.5q47 0 87 26t49 98h-95z" />
    <glyph glyph-name="afii10028" unicode="&#x41a;" horiz-adv-x="770" 
d="M677 -5l-280 350q54 52 116 118.5t121 133.5h-138q-60 -68 -112.5 -122t-113.5 -114v236h-117v-601h116v223l47 47l221 -271h140z" />
    <glyph glyph-name="afii10029" unicode="&#x41b;" horiz-adv-x="770" 
d="M307 493h187v-497h114v597h-410v-433q0 -9 -2.5 -20.5t-9.5 -22.5q-6 -10 -19 -17.5t-34 -7.5v-102q51 0 85 13.5t53 35.5q20 23 28 52t8 60v342z" />
    <glyph glyph-name="afii10030" unicode="&#x41c;" horiz-adv-x="770" 
d="M669 -3v597h-137l-150 -446l-152 446h-133v-597h114v337l108 -337h128l108 342v-342h114z" />
    <glyph glyph-name="afii10031" unicode="&#x41d;" horiz-adv-x="770" 
d="M623 -4v601h-118v-234h-239v234h-117v-601h117v260h239v-260h118z" />
    <glyph glyph-name="afii10032" unicode="&#x41e;" horiz-adv-x="770" 
d="M382 609q-64 0 -115 -23t-87 -64q-36 -42 -55.5 -99t-19.5 -126q0 -70 19.5 -128t55.5 -100q36 -41 87 -64t115 -23q63 0 114.5 23t88.5 64q36 42 56 100t20 128q0 69 -20 126t-56 99q-37 41 -88.5 64t-114.5 23zM382 87q-74 0 -115 58.5t-41 151.5q0 90 41 148t115 58
q73 0 116 -58t43 -148q0 -93 -43 -151.5t-116 -58.5z" />
    <glyph glyph-name="afii10033" unicode="&#x41f;" horiz-adv-x="770" 
d="M265 494h236v-498h114v597h-467v-597h117v498z" />
    <glyph glyph-name="afii10034" unicode="&#x420;" horiz-adv-x="770" 
d="M417 593h-251v-597h116v213h135q43 0 80.5 15.5t65.5 41.5t44.5 61.5t16.5 74.5t-16.5 73.5t-44.5 60.5t-65.5 41.5t-80.5 15.5zM403 315h-121v172h121q18 0 36 -4.5t33 -14.5t24.5 -26.5t9.5 -39.5q0 -25 -9.5 -41.5t-24.5 -26.5q-15 -11 -33 -15t-36 -4z" />
    <glyph glyph-name="afii10035" unicode="&#x421;" horiz-adv-x="770" 
d="M542 205q-7 -21 -18.5 -42t-28.5 -38t-40.5 -27.5t-53.5 -10.5q-74 0 -117 57.5t-43 152.5q0 93 43 149.5t117 56.5q31 0 54.5 -10t39.5 -26q17 -16 27 -35.5t16 -38.5h125q-7 33 -26 71t-51 70q-33 32 -80 53.5t-109 21.5q-65 0 -116 -23t-87 -64q-35 -42 -54 -99
t-19 -126q0 -70 19 -128t54 -100q36 -41 87 -64t116 -23q60 0 106 20t79 52t53.5 71.5t29.5 79.5h-123z" />
    <glyph glyph-name="afii10036" unicode="&#x422;" horiz-adv-x="770" 
d="M631 488v105h-487v-105h184v-492h116v492h187z" />
    <glyph glyph-name="afii10037" unicode="&#x423;" horiz-adv-x="770" 
d="M609 593h-122l-107 -283l-104 283h-124l169 -440l-10 -29q-5 -15 -18 -25.5t-30 -10.5h-50v-98h60q17 0 37.5 2.5t40.5 12.5q17 9 33.5 27t27.5 45z" />
    <glyph glyph-name="afii10038" unicode="&#x424;" horiz-adv-x="770" 
d="M437 442q52 -6 88 -44.5t36 -102.5q0 -66 -36.5 -103.5t-87.5 -42.5v293zM334 149q-54 6 -89.5 43t-35.5 103q0 64 35.5 102.5t89.5 44.5v-293zM334 51v-55h103v55q49 4 91 24t73 52t48.5 74.5t17.5 93.5q0 50 -18 93t-48 76q-31 32 -73 51.5t-91 24.5v54h-103v-54
q-50 -5 -92.5 -24.5t-72.5 -51.5q-31 -33 -48.5 -76t-17.5 -93q0 -51 17 -94t48 -75q31 -33 73.5 -52.5t92.5 -22.5z" />
    <glyph glyph-name="afii10039" unicode="&#x425;" horiz-adv-x="770" 
d="M661 -4l-207 314l186 287h-138l-117 -182l-119 182h-138l188 -289l-205 -312h136l137 211l139 -211h138z" />
    <glyph glyph-name="afii10040" unicode="&#x426;" horiz-adv-x="770" 
d="M278 99v495h-109v-598h383v-89h110v191h-57v496h-110v-495h-217z" />
    <glyph glyph-name="afii10041" unicode="&#x427;" horiz-adv-x="770" 
d="M621 -4v598h-107v-232q0 -18 -13 -34t-32 -28t-41.5 -19t-40.5 -7q-23 -1 -47 0.5t-43 12.5q-20 10 -32 32t-12 63v212h-107v-241q0 -49 18 -83.5t47 -56.5q29 -21 65 -31.5t72 -11.5q59 -2 102 12.5t64 32.5v-219h107z" />
    <glyph glyph-name="afii10042" unicode="&#x428;" horiz-adv-x="770" 
d="M553 94h-115v500h-105v-500h-116v500h-105v-598h546v598h-105v-500z" />
    <glyph glyph-name="afii10043" unicode="&#x429;" horiz-adv-x="770" 
d="M659 95v499h-105v-499h-115v499h-106v-499h-115v499h-106v-598h502v-89h104v188h-59z" />
    <glyph glyph-name="afii10044" unicode="&#x42a;" horiz-adv-x="770" 
d="M347 268h137q35 0 63.5 -21.5t28.5 -63.5q0 -45 -28.5 -66t-63.5 -21h-137v172zM239 496v-500h245q88 0 145 51.5t57 135.5q0 83 -57 134.5t-145 51.5h-137v224h-257v-97h149z" />
    <glyph glyph-name="afii10045" unicode="&#x42b;" horiz-adv-x="770" 
d="M564 593v-597h109v597h-109zM97 -4h246q88 0 145.5 51.5t57.5 136.5q0 41 -15.5 75.5t-42.5 58.5q-27 25 -64 38.5t-81 13.5h-137v223h-109v-597zM206 268h137q34 0 62.5 -21t28.5 -63q0 -44 -28.5 -65.5t-62.5 -21.5h-137v171z" />
    <glyph glyph-name="afii10046" unicode="&#x42c;" horiz-adv-x="770" 
d="M171 -4h245q88 0 145.5 51.5t57.5 136.5q0 41 -15.5 75.5t-42.5 58.5q-27 25 -64 38.5t-81 13.5h-137v223h-108v-597zM279 268h137q34 0 62.5 -21t28.5 -63q0 -44 -28.5 -65.5t-62.5 -21.5h-137v171z" />
    <glyph glyph-name="afii10047" unicode="&#x42d;" horiz-adv-x="770" 
d="M263 245h278q-6 -69 -47 -115t-107 -46q-50 0 -87 21t-53 72h-115q33 -105 96 -149t159 -44q62 0 111.5 22.5t84.5 63.5q34 42 53 99t19 126t-19 126t-54 98t-84.5 64t-111.5 23q-97 0 -159 -47.5t-95 -143.5h115q19 44 54.5 69t84.5 25q33 0 60 -13.5t47 -36.5
q21 -22 33 -52t15 -63h-278v-99z" />
    <glyph glyph-name="afii10048" unicode="&#x42e;" horiz-adv-x="770" 
d="M467 500q60 0 98 -57.5t38 -148.5q0 -92 -38 -149.5t-98 -57.5t-98.5 57.5t-38.5 149.5q0 91 38.5 148.5t98.5 57.5zM179 245h50q3 -54 21 -101t49 -82t73 -54.5t95 -19.5q55 0 99.5 22.5t76.5 62.5q31 41 48 97t17 124q0 67 -17 123t-48 97q-32 40 -76.5 63t-99.5 23
q-53 0 -95 -20t-73 -55t-49 -81.5t-21 -100.5h-50v251h-106v-599h106v250z" />
    <glyph glyph-name="afii10049" unicode="&#x42f;" horiz-adv-x="770" 
d="M87 -5l142 1l164 227h78v-227h116v597h-251q-43 0 -81 -14t-66 -38t-44 -57t-16 -71q0 -31 10 -60t27 -53q18 -24 41.5 -41t50.5 -24zM252 413q0 37 29.5 55.5t71.5 18.5h118v-157h-118q-42 0 -71.5 22t-29.5 61z" />
    <glyph glyph-name="afii10065" unicode="&#x430;" horiz-adv-x="770" 
d="M612 -3l-3.5 10.5t-4.5 18.5q-3 10 -4.5 22.5t-1.5 25.5v234q0 34 -17 61t-45 46q-29 18 -66.5 28t-78.5 10q-43 0 -81 -13t-65 -36q-28 -23 -43.5 -54.5t-12.5 -67.5h109q-2 32 26.5 52.5t68.5 20.5q42 0 65.5 -9.5t23.5 -23.5q0 -18 -19.5 -27t-39.5 -13
q-12 -2 -27.5 -3.5t-33.5 -3.5q-19 -3 -38.5 -6.5t-37.5 -9.5q-51 -17 -85 -59t-26 -102q7 -61 55.5 -90.5t111.5 -23.5q39 4 79 21.5t62 38.5q1 -15 4.5 -26.5t9.5 -20.5h115zM484 181q0 -13 -9 -25.5t-23 -23.5t-31.5 -20.5t-32.5 -14.5q-26 -9 -56 -8.5t-39 25.5
q-7 18 5 31.5t33 22.5q9 3 22 6t27 5t29 4.5t28 5.5q10 2 23 6t22 10z" />
    <glyph glyph-name="afii10066" unicode="&#x431;" horiz-adv-x="770" 
d="M330 447q5 6 11.5 11t13.5 11q9 7 32.5 13.5t35.5 6.5q9 -1 19.5 -2t22.5 -1t26 2t31 8q25 8 46 32.5t30 89.5h-104q-3 -21 -17.5 -30.5t-29.5 -7.5q-39 2 -78 -4.5t-74 -31.5q-39 -28 -62.5 -69t-37.5 -84q-16 -48 -19.5 -86.5t-3.5 -78.5q0 -50 14 -93t42 -75
q27 -32 66 -50t89 -18q49 0 88 18.5t66 50.5q27 33 42 76t15 93q0 47 -14 89.5t-41 74.5t-66.5 51t-89.5 19q-14 0 -27.5 -4t-25.5 -11zM383 94q-43 0 -70.5 38.5t-27.5 95.5q0 52 27.5 93t70.5 41q42 0 70.5 -40.5t28.5 -93.5q0 -57 -28.5 -95.5t-70.5 -38.5z" />
    <glyph glyph-name="afii10067" unicode="&#x432;" horiz-adv-x="770" 
d="M561 315q0 57 -42 96t-112 39h-187v-454h192q70 0 118 37.5t48 104.5q0 24 -7 41.5t-16 28.5q-9 12 -17.5 18t-12.5 9q4 3 20 23.5t16 56.5zM395 97h-67v85h76q34 0 47 -13t13 -25q-2 -22 -16 -34.5t-53 -12.5zM328 349h67q30 0 41.5 -11t11.5 -23q0 -13 -11 -23t-38 -10
h-71v67z" />
    <glyph glyph-name="afii10068" unicode="&#x433;" horiz-adv-x="770" 
d="M337 339h232v98h-340v-441h108v343z" />
    <glyph glyph-name="afii10069" unicode="&#x434;" horiz-adv-x="770" 
d="M480 -93h111v191h-42v339h-282q1 -49 0 -98t-5 -94t-11.5 -83t-19.5 -64h-49v-191h111v89h187v-89zM438 335v-237h-91q9 21 14.5 53t8.5 66q2 34 3 66t1 52h64z" />
    <glyph glyph-name="afii10070" unicode="&#x435;" horiz-adv-x="770" 
d="M609 177q2 73 -15.5 125.5t-48.5 86.5t-72 50t-86 16q-51 0 -93 -18t-71 -50t-45 -75t-16 -94t16.5 -94t46.5 -75t71.5 -50t91.5 -18q48 0 83.5 13t60.5 35q25 21 41 50t27 61h-122q-6 -20 -29.5 -39.5t-61.5 -19.5q-22 0 -40.5 8.5t-32.5 22.5t-22.5 31t-9.5 34h327z
M283 273q5 33 33.5 57.5t70.5 24.5t70 -25.5t32 -56.5h-206z" />
    <glyph glyph-name="afii10072" unicode="&#x436;" horiz-adv-x="770" 
d="M330 298l-94 139h-124l125 -186l-154 -255h123l96 158l28 -40v-118h110v118l28 40l96 -158h123l-154 255l125 186h-124l-94 -141v141h-110v-139z" />
    <glyph glyph-name="afii10073" unicode="&#x437;" horiz-adv-x="770" 
d="M496 228q12 7 27.5 28t15.5 60q0 57 -45.5 94.5t-110.5 37.5q-71 0 -115 -39t-44 -105v-23h106q0 33 11.5 50t38.5 17q20 0 34.5 -10.5t14.5 -22.5q0 -28 -24.5 -37.5t-81.5 -9.5v-87q19 0 40.5 -1.5t39.5 -6.5q17 -5 29 -15t12 -28q0 -19 -18.5 -31.5t-42.5 -12.5
q-36 0 -50.5 21t-14.5 59h-108v-24q0 -72 48.5 -114.5t123.5 -42.5q77 0 123 38t48 104q0 41 -19.5 66t-37.5 35z" />
    <glyph glyph-name="afii10074" unicode="&#x438;" horiz-adv-x="770" 
d="M460 245v-249h109v441h-113l-146 -247v247h-109v-441h113z" />
    <glyph glyph-name="afii10075" unicode="&#x439;" horiz-adv-x="770" 
d="M460 245v-249h109v441h-113l-146 -247v247h-109v-441h113zM429 566q-3 -24 -14.5 -34t-26.5 -10q-14 0 -27 10.5t-18 33.5h-97q15 -71 54 -97.5t89 -26.5q47 0 87 26.5t49 97.5h-96z" />
    <glyph glyph-name="afii10076" unicode="&#x43a;" horiz-adv-x="770" 
d="M328 437h-114v-442h114v134l21 24l119 -158h133l-179 235l174 207h-133l-135 -159v159z" />
    <glyph glyph-name="afii10077" unicode="&#x43b;" horiz-adv-x="770" 
d="M464 -5h113v442h-370v-312q0 -6 -7.5 -19t-37.5 -13v-103q52 0 83 11.5t48 29.5q16 19 21.5 43t5.5 50v212h144v-341z" />
    <glyph glyph-name="afii10078" unicode="&#x43c;" horiz-adv-x="770" 
d="M294 131l53 -136h87l53 136v-136h107v442h-99l-105 -262l-104 262h-99v-442h107v136z" />
    <glyph glyph-name="afii10079" unicode="&#x43d;" horiz-adv-x="770" 
d="M463 -4h109v441h-109v-159h-151v159h-109v-441h109v182h151v-182z" />
    <glyph glyph-name="afii10080" unicode="&#x43e;" horiz-adv-x="770" 
d="M387 452q-52 0 -93 -18t-70 -49q-29 -32 -44 -75t-15 -93q0 -51 15 -94.5t44 -75.5q29 -31 70 -49t93 -18q51 0 92.5 18t70.5 49q29 32 45 75.5t16 94.5q0 50 -16 93t-45 75q-29 31 -70.5 49t-92.5 18zM387 83q-48 0 -77 37.5t-29 96.5q0 58 29 95t77 37t77.5 -37
t29.5 -95q0 -59 -29.5 -96.5t-77.5 -37.5z" />
    <glyph glyph-name="afii10081" unicode="&#x43f;" horiz-adv-x="770" 
d="M460 -5h111v442h-372v-442h111v341h150v-341z" />
    <glyph glyph-name="afii10082" unicode="&#x440;" horiz-adv-x="770" 
d="M474 454q-40 0 -73.5 -13.5t-58.5 -37.5v33h-116v-530h116v128q25 -25 58.5 -38.5t73.5 -13.5q44 0 80.5 17t62.5 49q26 31 40.5 74.5t14.5 95.5q0 51 -14.5 94.5t-40.5 74.5q-26 32 -62.5 49.5t-80.5 17.5zM449 82q-50 0 -79 38t-29 98t29 97.5t79 37.5t78 -37.5
t28 -97.5t-28 -98t-78 -38z" />
    <glyph glyph-name="afii10083" unicode="&#x441;" horiz-adv-x="770" 
d="M493 155q-9 -28 -33 -49.5t-60 -21.5q-49 0 -78 37t-29 96q0 58 28.5 95.5t78.5 37.5q42 0 64 -24.5t30 -47.5h118q-7 33 -24 64.5t-44 56.5q-27 24 -63 39t-81 15q-53 0 -94.5 -18t-69.5 -50q-29 -31 -44 -74.5t-15 -93.5q0 -51 15 -94.5t44 -75.5q28 -32 69.5 -49.5
t94.5 -17.5q90 0 141.5 50.5t70.5 123.5z" />
    <glyph glyph-name="afii10084" unicode="&#x442;" horiz-adv-x="770" 
d="M440 338h138v99h-383v-99h136v-343h109v343z" />
    <glyph glyph-name="afii10085" unicode="&#x443;" horiz-adv-x="770" 
d="M604 437h-116l-103 -256l-101 256h-117l159 -403l-5 -14q-5 -15 -20 -21.5t-28 -6.5h-49v-95h56h24.5t20.5 2q22 3 50.5 20.5t46.5 60.5z" />
    <glyph glyph-name="afii10086" unicode="&#x444;" horiz-adv-x="770" 
d="M331 413q-14 10 -34 18t-44 8q-46 0 -80 -18.5t-57 -48.5t-34 -68.5t-11 -78.5q0 -42 11.5 -81t34.5 -69q22 -30 56.5 -47.5t79.5 -17.5q42 0 59 14t19 17v-134h109v136q0 -2 17 -17.5t58 -15.5q43 0 77.5 16.5t58.5 45.5q23 29 36 68t13 85q0 45 -12 84t-35 68
q-22 28 -54.5 45t-72.5 17q-30 0 -50.5 -11t-35.5 -24v165h-109v-156zM327 225q0 -51 -22 -86.5t-52 -35.5q-32 0 -52.5 35.5t-20.5 86.5q0 50 20.5 85.5t52.5 35.5q31 0 52.5 -35t21.5 -86zM591 225q0 -52 -21.5 -87t-51.5 -35q-32 0 -53 35t-21 87q0 50 21 85.5t53 35.5
q30 0 51.5 -35.5t21.5 -85.5z" />
    <glyph glyph-name="afii10087" unicode="&#x445;" horiz-adv-x="770" 
d="M330 221l-154 -225h129l88 132l88 -132h129l-153 225l144 217h-126l-82 -124l-83 124h-125z" />
    <glyph glyph-name="afii10088" unicode="&#x446;" horiz-adv-x="770" 
d="M511 -100h113v197h-50v340h-112v-340h-145v340h-112v-441h306v-96z" />
    <glyph glyph-name="afii10089" unicode="&#x447;" horiz-adv-x="770" 
d="M461 -5h109v442h-109v-182q0 -19 -24 -36t-56 -17q-23 0 -47 14.5t-24 55.5v165h-109v-180q0 -47 17 -77t43 -47q26 -18 57 -24.5t59 -6.5q39 0 60.5 13t23.5 16v-136z" />
    <glyph glyph-name="afii10090" unicode="&#x448;" horiz-adv-x="770" 
d="M189 -4h406v442h-108v-342h-41v342h-108v-342h-42v342h-107v-442z" />
    <glyph glyph-name="afii10091" unicode="&#x449;" horiz-adv-x="770" 
d="M638 97h-46v340h-108v-341h-43v341h-107v-341h-42v341h-108v-441h347v-90h107v191z" />
    <glyph glyph-name="afii10092" unicode="&#x44a;" horiz-adv-x="770" 
d="M631 148q0 65 -46.5 106t-137.5 41h-76v142h-219v-102h107v-339h194q70 0 122 33t56 108v11zM443 98h-72v95h73q29 0 51 -10.5t22 -34.5q-2 -27 -21.5 -38.5t-52.5 -11.5z" />
    <glyph glyph-name="afii10093" unicode="&#x44b;" horiz-adv-x="770" 
d="M509 144q0 66 -47 108.5t-137 42.5h-77v142h-112v-441h195q34 0 65 7.5t55 23.5q25 17 40 43.5t18 64.5v9zM624 -4v441h-107v-441h107zM321 98h-73v95h74q28 0 49.5 -11t21.5 -35q-1 -27 -20 -38t-52 -11z" />
    <glyph glyph-name="afii10094" unicode="&#x44c;" horiz-adv-x="770" 
d="M573 146q0 65 -47.5 107t-137.5 42h-77v142h-112v-441h196q34 0 65.5 7.5t55.5 25.5q24 17 39 43.5t18 64.5v9zM384 98h-73v95h74q28 0 50.5 -10.5t22.5 -34.5q-1 -27 -21 -38.5t-53 -11.5z" />
    <glyph glyph-name="afii10095" unicode="&#x44d;" horiz-adv-x="770" 
d="M279 268v-102h206q-1 -12 -8.5 -27.5t-20.5 -28.5q-14 -13 -32.5 -22t-40.5 -9q-38 0 -59 22t-25 40h-117q7 -32 23 -61t41 -51t59.5 -35t79.5 -13q49 0 89 18.5t68 50.5q28 31 43 74t15 91t-15 90.5t-43 74.5q-28 31 -68 50t-89 19q-51 0 -85.5 -12.5t-57.5 -33.5
q-24 -22 -38.5 -50.5t-23.5 -61.5h118q1 6 7 16t16 19q11 10 26 17t36 7q22 0 40.5 -9.5t31.5 -21.5q13 -13 20 -27t9 -24h-205z" />
    <glyph glyph-name="afii10096" unicode="&#x44e;" horiz-adv-x="770" 
d="M276 272v165h-108v-442h108v173h17q2 -35 15 -68t35 -59t53.5 -41.5t70.5 -15.5q41 0 74 19t55 52q23 32 35 74.5t12 88.5q0 45 -12 87.5t-35 75.5q-22 32 -55 52t-74 20q-39 0 -69 -15.5t-52 -40.5q-22 -26 -35.5 -58.5t-17.5 -66.5h-17zM397 218q0 57 20 97.5t50 40.5
q28 0 48 -40.5t20 -97.5q0 -56 -19.5 -97t-48.5 -41q-30 0 -50 41t-20 97z" />
    <glyph glyph-name="afii10097" unicode="&#x44f;" horiz-adv-x="770" 
d="M428 -5h113v442h-194q-69 0 -117.5 -38t-48.5 -107q0 -28 7.5 -51t19.5 -40q11 -17 24 -27.5t24 -12.5l-112 -166h132l101 149h51v-149zM428 335v-89h-64q-27 0 -48 10.5t-21 35.5q0 22 19 32.5t50 10.5h64z" />
    <glyph glyph-name="afii10071" unicode="&#x451;" horiz-adv-x="770" 
d="M609 176q2 73 -15.5 126t-48.5 87t-72 50t-86 16q-51 0 -93 -18.5t-71 -49.5q-29 -32 -45 -75.5t-16 -93.5q0 -51 16.5 -94.5t46.5 -75.5t71.5 -50t91.5 -18q48 0 83.5 13t60.5 35t41 51t27 61h-122q-6 -20 -29.5 -39t-61.5 -19q-22 0 -40.5 8.5t-32.5 22.5
q-14 13 -22.5 30t-9.5 33h327zM283 273q5 33 33.5 57.5t70.5 24.5t70 -25.5t32 -56.5h-206zM297 592q-25 0 -43 -18.5t-18 -42.5q0 -25 18 -43t43 -18q24 0 42 18t18 43q0 24 -18 42.5t-42 18.5zM472 592q-25 0 -43 -18.5t-18 -42.5q0 -25 18 -43t43 -18q24 0 42 18t18 43
q0 24 -18 42.5t-42 18.5z" />
    <glyph glyph-name="afii00208" unicode="&#x2015;" horiz-adv-x="770" 
d="M730 348h-690v-96h690v96z" />
    <glyph glyph-name="quoteleft" unicode="&#x2018;" horiz-adv-x="240" 
d="M35 475h185v165h-93l74 150h-95l-71 -150v-165z" />
    <glyph glyph-name="quoteright" unicode="&#x2019;" horiz-adv-x="240" 
d="M205 625v165h-185v-165h93l-74 -150h95z" />
    <glyph glyph-name="quotedblleft" unicode="&#x201c;" horiz-adv-x="450" 
d="M433 478v165h-93l74 150h-95l-71 -150v-165h185zM203 478v165h-93l74 150h-95l-71 -150v-165h185z" />
    <glyph glyph-name="quotedblright" unicode="&#x201d;" horiz-adv-x="450" 
d="M432 631v165h-185v-165h93l-74 -150h95zM202 631v165h-185v-165h93l-74 -150h95z" />
    <glyph glyph-name="dagger" unicode="&#x2020;" horiz-adv-x="770" 
d="M400 497q0 12 3 37.5t8 43.5q4 13 5 29.5t-2 29.5q-2 14 -9.5 23.5t-19.5 9.5q-13 0 -20.5 -9.5t-10.5 -23.5q-3 -13 -2 -29.5t5 -29.5q5 -18 9 -43.5t4 -37.5q-12 -1 -33.5 3t-39.5 9q-28 8 -56 3.5t-28 -29.5q0 -26 28 -30.5t56 3.5q18 4 39.5 8.5t33.5 4.5
q0 -18 -4 -39t-13 -33t-13 -16.5t-3 -7.5q0 -4 4.5 -10.5t11.5 -21.5q10 -25 13.5 -78t3.5 -111q1 -58 0.5 -109.5t1.5 -72.5q3 -36 13 -36t13 36q1 21 0.5 72.5t0.5 109.5t4.5 111t13.5 78q6 15 10.5 21.5t4.5 10.5q1 3 -2.5 7.5t-12.5 16.5q-10 12 -13.5 32.5t-3.5 39.5
q11 0 33 -4.5t40 -8.5q27 -8 55.5 -3.5t28.5 30.5q0 25 -28.5 29.5t-55.5 -3.5q-18 -5 -39.5 -9t-33.5 -3z" />
    <glyph glyph-name="daggerdbl" unicode="&#x2021;" horiz-adv-x="770" 
d="M370 476v-81q-12 0 -32.5 4t-38.5 9q-27 8 -55 3.5t-28 -29.5t28 -30t55 3q18 5 38.5 9t32.5 4q0 -17 -4 -37.5t-13 -32.5t-12.5 -16t-2.5 -7q1 -4 5 -10.5t10 -21.5q9 -25 12.5 -62.5t4.5 -77.5t0.5 -76t1.5 -57q1 -36 12.5 -36t13.5 36q0 21 -0.5 57t0.5 76t5 77.5
t14 62.5q5 14 9 20.5t4 9.5q1 4 -2 8.5l-11 16.5q-11 12 -14 32t-3 38q10 0 31.5 -4t39.5 -9q27 -8 55 -3t28 30t-28 29.5t-55 -3.5q-18 -5 -39 -9t-32 -4v81q10 1 31.5 -3.5t39.5 -8.5q27 -8 55 -3t28 30q0 24 -28 28.5t-55 -3.5q-18 -5 -39 -8.5t-32 -3.5q0 11 2.5 34.5
t7.5 41.5q4 13 5 29t-1 29q-3 14 -10 23t-19 9q-13 0 -20 -9t-10 -23q-3 -13 -2 -29t5 -29q5 -18 8.5 -41t3.5 -35q-12 0 -32.5 3.5t-38.5 8.5q-27 8 -55 3.5t-28 -28.5q0 -25 28 -30t55 3q18 4 38.5 8.5t32.5 3.5z" />
    <glyph glyph-name="twodotenleader" unicode="&#x2025;" horiz-adv-x="770" 
d="M262 236v132h-132v-132h132zM639 236v132h-132v-132h132z" />
    <glyph glyph-name="ellipsis" unicode="&#x2026;" horiz-adv-x="770" 
d="M686 236v132h-132v-132h132zM451 236v132h-131v-132h131zM216 236v132h-131v-132h131z" />
    <glyph glyph-name="perthousand" unicode="&#x2030;" horiz-adv-x="770" 
d="M486 608l-479 -621h89l476 621h-86zM235 595q-55 -2 -102 -40.5t-67 -95.5q-12 -29 -9.5 -55t14.5 -46q13 -20 34.5 -31t49.5 -9q53 3 97 41t65 93q24 60 0 102t-82 41zM231 521q10 0 12 -14t-7 -41q-15 -26 -42 -49.5t-42 -23.5q-10 0 -12.5 14.5t9.5 38.5q13 27 39 51
t43 24zM407 277q-56 -2 -102 -40t-67 -95q-11 -29 -9 -55.5t14 -45.5q13 -20 34.5 -31t49.5 -9q53 3 97.5 41t66.5 94q11 29 10 55.5t-12 45.5q-11 20 -32.5 30.5t-49.5 9.5zM404 204q9 0 11.5 -14.5t-8.5 -41.5q-7 -13 -17.5 -26t-22.5 -24q-12 -10 -23.5 -16.5t-19.5 -6.5
q-10 0 -12.5 14t8.5 41q14 26 40.5 50t43.5 24zM674 277q-55 -2 -101 -40t-67 -95q-11 -29 -9 -55.5t15 -45.5q13 -20 34.5 -31t49.5 -9q52 3 96.5 40.5t66.5 94.5q23 59 -1.5 101.5t-83.5 39.5zM672 204q9 0 11.5 -14.5t-8.5 -41.5q-7 -13 -17.5 -26t-22.5 -24
q-12 -10 -23.5 -16.5t-19.5 -6.5q-9 0 -12 14.5t8 40.5q15 26 41.5 50t42.5 24z" />
    <glyph glyph-name="minute" unicode="&#x2032;" horiz-adv-x="216" 
d="M74 443l138 225h-121l-85 -225h68z" />
    <glyph glyph-name="second" unicode="&#x2033;" horiz-adv-x="362" 
d="M79 443l137 225h-121l-84 -225h68zM216 443l137 225h-120l-85 -225h68z" />
    <glyph glyph-name="uni203B" unicode="&#x203b;" horiz-adv-x="770" 
d="M465 547q0 33 -23.5 56t-56.5 23q-35 0 -57.5 -23.5t-22.5 -56.5q0 -34 23 -57.5t57 -23.5t57 23.5t23 58.5zM729 569l-76 73l-268 -269l-265 272l-77 -77l269 -268l-267 -265l73 -79l267 271l269 -271l73 79l-269 265zM711 300q0 33 -23.5 56t-56.5 23
q-35 0 -58.5 -23.5t-23.5 -56.5q0 -34 24 -56.5t58 -22.5q33 0 56.5 22.5t23.5 57.5zM221 300q0 33 -24.5 56t-57.5 23q-34 0 -57 -23.5t-23 -56.5q0 -34 23.5 -56.5t56.5 -22.5q34 0 58 22.5t24 57.5zM465 54q0 33 -23.5 57t-56.5 24q-35 0 -57.5 -24.5t-22.5 -57.5t23 -56
t57 -23t57 23t23 57z" />
    <glyph glyph-name="uni2074" unicode="&#x2074;" horiz-adv-x="308" 
d="M286 333v77h-40v235h-79l-146 -233v-79h145v-51h80v51h40zM166 497v-87h-55z" />
    <glyph glyph-name="uni207F" unicode="&#x207f;" horiz-adv-x="308" 
d="M99 619v19h-92v-346h90v205q0 27 17.5 48t44.5 21t38 -19t11 -44v-211h93v232q0 21 -7.5 42.5t-22.5 39.5q-16 18 -40 29.5t-57 11.5q-26 0 -44.5 -8t-30.5 -20z" />
    <glyph glyph-name="uni2081" unicode="&#x2081;" horiz-adv-x="308" 
d="M223 -44v362h-79q0 -16 -7 -28t-13 -15q-7 -6 -25 -10t-38 -4v-76h75v-229h87z" />
    <glyph glyph-name="uni2082" unicode="&#x2082;" horiz-adv-x="308" 
d="M135 41q1 1 2 2.5t3 3.5q1 2 4 4.5t8 5.5l66 45q10 7 22 16.5t22 21.5q10 13 17 29.5t7 39.5q0 45 -34 81t-95 36q-65 0 -98.5 -42t-30.5 -98h86q-1 29 10.5 46.5t32.5 17.5q19 0 30.5 -13.5t10.5 -28.5t-13.5 -26.5t-25.5 -20.5l-59 -39q-27 -19 -42.5 -39.5
t-22.5 -40.5q-8 -21 -9.5 -40.5t-1.5 -37.5h261v77h-150z" />
    <glyph glyph-name="uni2083" unicode="&#x2083;" horiz-adv-x="308" 
d="M249 145q2 2 7.5 7t10.5 14q5 8 9.5 21t4.5 31q0 43 -34.5 75t-90.5 32t-92 -34.5t-33 -91.5h88q-3 24 6.5 36.5t30.5 12.5q19 0 28.5 -10.5t8.5 -21.5q-2 -8 -7.5 -16t-10.5 -11q-6 -3 -23.5 -5.5t-32.5 -2.5v-73q11 0 30 -1t27 -4q10 -6 18.5 -16t8.5 -20
q0 -15 -13.5 -25.5t-33.5 -10.5q-22 0 -35.5 13t-10.5 41h-88q-3 -64 36.5 -99t97.5 -35q60 0 98 33t38 83q0 30 -16 51.5t-27 26.5z" />
    <glyph glyph-name="uni2084" unicode="&#x2084;" horiz-adv-x="308" 
d="M286 7v77h-40v234h-79l-146 -232v-79h145v-51h80v51h40zM166 171v-87h-55z" />
    <glyph glyph-name="uni2103" unicode="&#x2103;" horiz-adv-x="770" 
d="M705 186l-111 -1q-10 -43 -43.5 -76.5t-88.5 -33.5q-65 0 -105 53.5t-40 137.5t40 138t105 54q28 0 50 -9.5t38 -24.5q17 -14 28 -31.5t17 -33.5h109q-8 34 -26.5 68.5t-47.5 62.5q-30 28 -72 45.5t-97 17.5q-59 0 -105.5 -21.5t-79.5 -59.5q-32 -38 -49.5 -90.5
t-17.5 -115.5q0 -64 17.5 -116.5t49.5 -90.5q33 -38 79.5 -59t105.5 -21q55 0 96.5 17t71.5 46q29 28 48 65.5t28 78.5zM268 535q0 41 -28.5 69.5t-70.5 28.5t-70 -28.5t-28 -69.5q0 -42 28 -70.5t70 -28.5t70.5 28.5t28.5 70.5zM206 535q0 -16 -11 -27t-26 -11
q-13 0 -24.5 11t-11.5 27q0 15 11.5 26.5t24.5 11.5q15 0 26 -11.5t11 -26.5z" />
    <glyph glyph-name="uni2109" unicode="&#x2109;" horiz-adv-x="770" 
d="M255 543q0 42 -28.5 70.5t-70.5 28.5t-70 -28.5t-28 -70.5t28 -70t70 -28t70.5 28t28.5 70zM193 543q0 -15 -11 -26t-26 -11q-13 0 -24.5 11t-11.5 26t11.5 26.5t24.5 11.5q15 0 26 -11.5t11 -26.5zM285 542v-554h110v233h247v101h-247v120h280v100h-390z" />
    <glyph glyph-name="afii61289" unicode="&#x2113;" horiz-adv-x="770" 
d="M557 64l-70 56q-13 -30 -26 -46.5t-22 -19.5q-9 -5 -20.5 -2.5t-17.5 12.5q33 31 65.5 92.5t47.5 168.5q8 63 5.5 117.5t-17.5 95.5q-14 40 -39.5 62.5t-62.5 21.5q-34 -3 -63 -25.5t-50 -61.5q-22 -38 -34.5 -90t-13.5 -112q-3 -66 3 -126t31 -110q-3 -1 -12.5 -2.5
t-21.5 -3.5t-24 -3.5t-19 -1.5l33 -83q34 0 53 5t34 14q25 -36 63 -51t71 -6q35 9 58 30t49 69zM399 533q12 0 18.5 -18t9.5 -46q2 -29 1 -64.5t-4 -71.5q-7 -62 -29 -116t-42 -75q-4 6 -8.5 27t-7.5 48q-3 28 -5 58.5t-1 56.5q1 33 7.5 68t15.5 64t21 48t24 21z" />
    <glyph glyph-name="afii61352" unicode="&#x2116;" horiz-adv-x="770" 
d="M109 396l149 -365h104v539h-88v-365l-149 365h-103v-539h87v365zM682 213q0 38 -10.5 72.5t-30.5 59.5q-20 26 -48 41t-64 15t-64.5 -15t-47.5 -41q-20 -25 -30 -59.5t-10 -72.5q0 -39 10 -73.5t30 -59.5q19 -26 47.5 -40.5t64.5 -14.5t64 14.5t48 40.5q20 25 30.5 59.5
t10.5 73.5zM599 213q0 -47 -18.5 -77t-51.5 -30q-34 0 -51.5 30t-17.5 77q0 44 18 75.5t51 31.5t51.5 -31.5t18.5 -75.5zM761 60q0 21 -16.5 37.5t-37.5 16.5q-23 0 -39 -16.5t-16 -37.5q0 -23 16 -38t39 -15q21 0 37.5 15t16.5 38z" />
    <glyph glyph-name="uni2121" unicode="&#x2121;" horiz-adv-x="770" 
d="M174 509v-513h89v513h150v85h-390v-85h151zM456 442q-41 0 -73 -18.5t-54 -49.5q-23 -31 -34.5 -72t-11.5 -87q0 -47 12.5 -88.5t35.5 -72.5q22 -31 54.5 -49t71.5 -18q76 0 112.5 42t50.5 100h-92q-6 -22 -23.5 -41.5t-48.5 -19.5q-16 0 -30.5 9.5t-26.5 25.5
t-19.5 36.5t-7.5 41.5h258q0 66 -13.5 115t-37.5 81q-24 33 -56 49t-67 16zM375 258q3 43 25 72t56 29q36 0 57.5 -32t23.5 -69h-162zM646 594v-598h89v598h-89z" />
    <glyph glyph-name="trademark" unicode="&#x2122;" horiz-adv-x="770" 
d="M428 447l64 -177h56l63 182v-182h70v334h-91l-70 -202l-75 202h-86v-334h69v177zM168 539v-269h73v269h103v65h-281v-65h105z" />
    <glyph glyph-name="uni2126" unicode="&#x2126;" horiz-adv-x="770" 
d="M623 349q0 56 -18.5 104t-50.5 83q-32 36 -77 56t-99 20t-99 -21t-78 -57q-32 -37 -50.5 -85.5t-17.5 -103.5q0 -97 42.5 -159.5t105.5 -83.5v-25h-107v-81h159q21 0 27.5 11.5t6.5 26.5l1 93v10t-3 13q-2 7 -8 13.5t-18 11.5q-60 24 -86 66t-26 106q0 79 42.5 128
t108.5 49q69 0 111 -47t42 -128q0 -70 -32 -114t-75 -56q-22 -7 -27 -18t-5 -33v-94q0 -17 7 -27.5t26 -10.5h166v81h-114v27q28 10 54.5 32.5t46.5 53.5q20 32 32.5 72t12.5 87z" />
    <glyph glyph-name="uni212B" unicode="&#x212b;" horiz-adv-x="770" 
d="M484 604q0 42 -28.5 70.5t-69.5 28.5q-42 0 -70.5 -28.5t-28.5 -70.5t28.5 -70t70.5 -28q41 0 69.5 28t28.5 70zM422 604q0 -16 -10.5 -27t-25.5 -11q-14 0 -25 11t-11 27q0 15 11 26.5t25 11.5q15 0 25.5 -11.5t10.5 -26.5zM317 186l69 176l68 -176h-137zM282 97h208
l43 -110h102l-196 495h-107l-195 -495h101z" />
    <glyph glyph-name="onethird" unicode="&#x2153;" horiz-adv-x="770" 
d="M662 152q2 2 7.5 7t10.5 14q5 8 9.5 21t4.5 31q0 43 -34.5 75t-91.5 32q-56 0 -91.5 -34.5t-32.5 -91.5h87q-3 24 7 36.5t31 12.5q19 0 28.5 -10.5t8.5 -21.5q-2 -8 -7.5 -16t-10.5 -11q-6 -4 -24 -6t-33 -2v-73q12 0 31 -1t26 -4q11 -6 19.5 -16t8.5 -20
q0 -15 -13.5 -26t-33.5 -11q-22 0 -35.5 13.5t-10.5 41.5h-89q-3 -64 37 -99t98 -35q59 0 97.5 33t38.5 83q0 30 -16 51.5t-27 26.5zM124 -35l550 634l-56 49l-545 -629zM239 282v363h-79q0 -17 -7 -29t-13 -15q-7 -6 -25 -10t-38 -4v-75h75v-230h87z" />
    <glyph glyph-name="twothirds" unicode="&#x2154;" horiz-adv-x="770" 
d="M149 368q1 0 2 1.5t3 3.5q1 2 4 5t8 6l66 45q10 7 22 16t22 22t17 29.5t7 39.5q0 45 -34 81t-95 36q-65 0 -98.5 -42.5t-30.5 -97.5h86q-1 29 10.5 46t32.5 17q19 0 30.5 -13t10.5 -28t-13.5 -26.5t-26.5 -20.5l-58 -39q-27 -19 -42.5 -39.5t-22.5 -40.5q-8 -21 -9.5 -41
t-1.5 -38h261v78h-150zM662 152q2 2 7.5 7t10.5 14q5 8 9.5 21t4.5 31q0 43 -34.5 75t-91.5 32q-56 0 -91.5 -34.5t-32.5 -91.5h87q-3 24 7 36.5t31 12.5q19 0 28.5 -10.5t8.5 -21.5q-2 -8 -7.5 -16t-10.5 -11q-6 -4 -24 -6t-33 -2v-73q12 0 31 -1t26 -4q11 -6 19.5 -16
t8.5 -20q0 -15 -13.5 -26t-33.5 -11q-22 0 -35.5 13.5t-10.5 41.5h-89q-3 -64 37 -99t98 -35q59 0 97.5 33t38.5 83q0 30 -16 51.5t-27 26.5zM124 -35l550 634l-56 49l-545 -629z" />
    <glyph glyph-name="oneeighth" unicode="&#x215b;" horiz-adv-x="770" 
d="M662 154q12 7 22.5 26.5t10.5 46.5q0 43 -37.5 74t-93.5 31t-93 -31t-37 -74q0 -27 11 -46.5t23 -27.5q-18 -9 -31.5 -30.5t-13.5 -52.5q0 -49 40.5 -81.5t100.5 -32.5t102 32.5t42 81.5q0 31 -14.5 52.5t-31.5 31.5zM124 -35l550 634l-56 49l-545 -629zM239 282v363h-79
q0 -17 -7 -29t-13 -15q-7 -6 -25 -10t-38 -4v-75h75v-230h87zM564 190q-22 0 -31.5 10t-9.5 22q0 11 9.5 22t31.5 11q21 0 32 -10.5t11 -22.5t-11 -22t-32 -10zM564 34q-24 0 -37 12.5t-13 27.5q0 14 13 27t37 13t38.5 -13t14.5 -27q0 -15 -14.5 -27.5t-38.5 -12.5z" />
    <glyph glyph-name="threeeighths" unicode="&#x215c;" horiz-adv-x="770" 
d="M662 154q12 7 22.5 26.5t10.5 46.5q0 43 -37.5 74t-93.5 31t-93 -31t-37 -74q0 -27 11 -46.5t23 -27.5q-18 -9 -31.5 -30.5t-13.5 -52.5q0 -49 40.5 -81.5t100.5 -32.5t102 32.5t42 81.5q0 31 -14.5 52.5t-31.5 31.5zM280 472q2 2 7.5 7t10.5 13q5 9 9.5 22t4.5 31
q0 43 -34.5 74.5t-91.5 31.5q-56 0 -91.5 -34t-32.5 -91h87q-3 23 7 36t31 13q19 0 28.5 -11t8.5 -21q-2 -8 -7.5 -16t-10.5 -11q-6 -4 -24 -6.5t-33 -2.5v-72q12 0 31 -1.5t26 -4.5q11 -6 19.5 -15.5t8.5 -19.5q0 -15 -13.5 -26t-33.5 -11q-22 0 -35.5 13.5t-10.5 41.5h-89
q-3 -65 37 -99.5t98 -34.5q59 0 97.5 33t38.5 82q0 31 -16 52.5t-27 26.5zM124 -35l550 634l-56 49l-545 -629zM564 190q-22 0 -31.5 10t-9.5 22q0 11 9.5 22t31.5 11q21 0 32 -10.5t11 -22.5t-11 -22t-32 -10zM564 34q-24 0 -37 12.5t-13 27.5q0 14 13 27t37 13t38.5 -13
t14.5 -27q0 -15 -14.5 -27.5t-38.5 -12.5z" />
    <glyph glyph-name="fiveeighths" unicode="&#x215d;" horiz-adv-x="770" 
d="M662 154q12 7 22.5 26.5t10.5 46.5q0 43 -37.5 74t-93.5 31t-93 -31t-37 -74q0 -27 11 -46.5t23 -27.5q-18 -9 -31.5 -30.5t-13.5 -52.5q0 -49 40.5 -81.5t100.5 -32.5t102 32.5t42 81.5q0 31 -14.5 52.5t-31.5 31.5zM240 529q-24 7 -46.5 3t-27.5 -6l6 33h140v80h-217
l-30 -199h89q6 9 17.5 14t22.5 5q19 0 33 -14.5t12 -36.5q-3 -22 -16 -35.5t-30 -13.5q-18 0 -31 11.5t-16 34.5h-87q3 -51 38.5 -88.5t95.5 -37.5q25 0 49 8.5t43 25.5t31 41t12 55q0 57 -27 83.5t-61 36.5zM124 -35l550 634l-56 49l-545 -629zM564 190q-22 0 -31.5 10
t-9.5 22q0 11 9.5 22t31.5 11q21 0 32 -10.5t11 -22.5t-11 -22t-32 -10zM564 34q-24 0 -37 12.5t-13 27.5q0 14 13 27t37 13t38.5 -13t14.5 -27q0 -15 -14.5 -27.5t-38.5 -12.5z" />
    <glyph glyph-name="seveneighths" unicode="&#x215e;" horiz-adv-x="770" 
d="M662 154q12 7 22.5 26.5t10.5 46.5q0 43 -37.5 74t-93.5 31t-93 -31t-37 -74q0 -27 11 -46.5t23 -27.5q-18 -9 -31.5 -30.5t-13.5 -52.5q0 -49 40.5 -81.5t100.5 -32.5t102 32.5t42 81.5q0 31 -14.5 52.5t-31.5 31.5zM124 -35l550 634l-56 49l-545 -629zM353 639h-266
v-82h162q-6 -7 -13 -14.5t-15 -18.5q-8 -12 -17.5 -28t-20.5 -38q-25 -50 -36 -102t-12 -76h96q0 15 3.5 37.5t9.5 48.5q6 25 14.5 50t17.5 46q17 36 41 63.5t36 39.5v74zM564 190q-22 0 -31.5 10t-9.5 22q0 11 9.5 22t31.5 11q21 0 32 -10.5t11 -22.5t-11 -22t-32 -10z
M564 34q-24 0 -37 12.5t-13 27.5q0 14 13 27t37 13t38.5 -13t14.5 -27q0 -15 -14.5 -27.5t-38.5 -12.5z" />
    <glyph glyph-name="uni2160" unicode="&#x2160;" horiz-adv-x="770" 
d="M438 -2v605h-107v-605h107z" />
    <glyph glyph-name="uni2161" unicode="&#x2161;" horiz-adv-x="770" 
d="M578 -2v605h-106v-605h106zM299 -2v605h-106v-605h106z" />
    <glyph glyph-name="uni2162" unicode="&#x2162;" horiz-adv-x="770" 
d="M332 603v-605h106v605h-106zM159 603v-605h105v605h-105zM506 603v-605h105v605h-105z" />
    <glyph glyph-name="uni2163" unicode="&#x2163;" horiz-adv-x="770" 
d="M685 603h-114l-108 -437l-110 437h-114l162 -604h123zM223 -1v604h-107v-604h107z" />
    <glyph glyph-name="uni2164" unicode="&#x2164;" horiz-adv-x="770" 
d="M663 604h-118l-158 -469l-158 469h-118l215 -604h122z" />
    <glyph glyph-name="uni2165" unicode="&#x2165;" horiz-adv-x="770" 
d="M665 -1v604h-108v-604h108zM541 603h-114l-109 -437l-109 437h-114l161 -604h123z" />
    <glyph glyph-name="uni2166" unicode="&#x2166;" horiz-adv-x="770" 
d="M703 -1v604h-99v-604h99zM574 -1v604h-99v-604h99zM457 603h-114l-85 -429l-87 429h-114l139 -604h123z" />
    <glyph glyph-name="uni2167" unicode="&#x2167;" horiz-adv-x="770" 
d="M498 603h-90v-604h90v604zM148 -1h122l116 604h-98l-79 -433l-80 433h-97zM620 603h-90v-604h90v604zM741 603h-91v-604h91v604z" />
    <glyph glyph-name="uni2168" unicode="&#x2168;" horiz-adv-x="770" 
d="M514 301l178 307h-119l-119 -205l-119 205h-119l178 -307l-178 -309h119l119 206l120 -206h120zM77 608v-616h108v616h-108z" />
    <glyph glyph-name="uni2169" unicode="&#x2169;" horiz-adv-x="770" 
d="M452 312l202 296h-120l-141 -209l-143 209h-119l202 -296l-217 -320h119l158 232l158 -232h120z" />
    <glyph glyph-name="uni2170" unicode="&#x2170;" horiz-adv-x="770" 
d="M438 498v106h-107v-106h107zM438 0v439h-107v-439h107z" />
    <glyph glyph-name="uni2171" unicode="&#x2171;" horiz-adv-x="770" 
d="M578 498v106h-107v-106h107zM298 498v106h-106v-106h106zM578 0v439h-107v-439h107zM298 0v439h-106v-439h106z" />
    <glyph glyph-name="uni2172" unicode="&#x2172;" horiz-adv-x="770" 
d="M438 0v439h-106v-439h106zM438 498v106h-106v-106h106zM618 0v439h-105v-439h105zM618 498v106h-105v-106h105zM256 0v439h-105v-439h105zM256 498v106h-105v-106h105z" />
    <glyph glyph-name="uni2173" unicode="&#x2173;" horiz-adv-x="770" 
d="M233 497v106h-107v-106h107zM661 437h-117l-91 -294l-92 294h-116l147 -430h122zM233 -1v438h-107v-438h107z" />
    <glyph glyph-name="uni2174" unicode="&#x2174;" horiz-adv-x="770" 
d="M591 436h-115l-92 -295l-92 295h-116l147 -431h121z" />
    <glyph glyph-name="uni2175" unicode="&#x2175;" horiz-adv-x="770" 
d="M643 497v106h-106v-106h106zM524 437h-116l-91 -294l-92 294h-116l147 -430h121zM643 -1v438h-106v-438h106z" />
    <glyph glyph-name="uni2176" unicode="&#x2176;" horiz-adv-x="770" 
d="M688 497v106h-98v-106h98zM560 497v106h-100v-106h100zM450 438h-109l-80 -290l-81 290h-108l127 -431h122zM688 -1v439h-98v-439h98zM560 -1v439h-100v-439h100z" />
    <glyph glyph-name="uni2177" unicode="&#x2177;" horiz-adv-x="770" 
d="M480 -1v439h-90v-439h90zM480 497v106h-90v-106h90zM602 -1v439h-91v-439h91zM602 497v106h-91v-106h91zM144 7h121l105 431h-100l-66 -295l-65 295h-100zM722 -1v439h-90v-439h90zM722 497v106h-90v-106h90z" />
    <glyph glyph-name="uni2178" unicode="&#x2178;" horiz-adv-x="770" 
d="M233 496v107h-106v-107h106zM665 -2l-140 223l133 215h-125l-72 -114l-72 114h-126l135 -215l-141 -223h126l78 122l78 -122h126zM233 -2v438h-106v-438h106z" />
    <glyph glyph-name="uni2179" unicode="&#x2179;" horiz-adv-x="770" 
d="M601 4l-151 221l143 209h-125l-82 -118l-83 118h-125l144 -209l-152 -221h125l91 129l90 -129h125z" />
    <glyph glyph-name="arrowleft" unicode="&#x2190;" horiz-adv-x="770" 
d="M770 263v73h-621l40 98l-189 -135l189 -137l-40 101h621z" />
    <glyph glyph-name="arrowup" unicode="&#x2191;" horiz-adv-x="770" 
d="M350 -85h74v621l97 -40l-134 189l-138 -189l101 40v-621z" />
    <glyph glyph-name="arrowright" unicode="&#x2192;" horiz-adv-x="770" 
d="M0 263h621l-40 -101l189 137l-189 135l40 -98h-621v-73z" />
    <glyph glyph-name="arrowdown" unicode="&#x2193;" horiz-adv-x="770" 
d="M350 685v-621l-101 40l138 -189l134 189l-97 -40v621h-74z" />
    <glyph glyph-name="arrowboth" unicode="&#x2194;" horiz-adv-x="770" 
d="M150 336l39 98l-188 -135l188 -136l-40 100h470l-39 -100l188 136l-189 135l39 -98h-468z" />
    <glyph glyph-name="arrowupdn" unicode="&#x2195;" horiz-adv-x="770" 
d="M422 533l98 -40l-135 189l-136 -188l100 39v-469l-100 39l136 -188l135 189l-98 -40v469z" />
    <glyph glyph-name="uni2196" unicode="&#x2196;" horiz-adv-x="770" 
d="M703 -75l52 52l-609 607l97 41l-229 38l36 -230l43 100z" />
    <glyph glyph-name="uni2197" unicode="&#x2197;" horiz-adv-x="770" 
d="M15 -25l52 -52l608 610l40 -97l39 228l-230 -36l99 -43z" />
    <glyph glyph-name="uni2198" unicode="&#x2198;" horiz-adv-x="770" 
d="M65 672l-51 -52l609 -607l-97 -41l229 -39l-37 231l-43 -100z" />
    <glyph glyph-name="uni2199" unicode="&#x2199;" horiz-adv-x="770" 
d="M760 621l-52 52l-607 -609l-41 97l-38 -229l230 36l-100 43z" />
    <glyph glyph-name="arrowdblright" unicode="&#x21d2;" horiz-adv-x="770" 
d="M0 264v-77l543 1l-68 -71l58 -56l235 238l-237 239l-56 -57l68 -70l-543 -1v-77l618 1l33 -35l-33 -34z" />
    <glyph glyph-name="arrowdblboth" unicode="&#x21d4;" horiz-adv-x="770" 
d="M228 411l68 70l-60 58l-234 -240l235 -241l59 60l-68 70h316l-68 -70l60 -59l233 240l-235 238l-58 -56l68 -70h-316zM618 265h-465l-34 34l34 35h465l34 -35z" />
    <glyph glyph-name="universal" unicode="&#x2200;" horiz-adv-x="770" 
d="M685 592h-120l-51 -132h-249l-51 132h-119l231 -597h127zM473 353l-83 -216l-84 216h167z" />
    <glyph glyph-name="partialdiff" unicode="&#x2202;" horiz-adv-x="354" 
d="M163 392q22 2 34.5 -5.5t18.5 -17.5q5 -11 6.5 -20l1.5 -9q-11 0 -25.5 -2t-37.5 -8q-48 -15 -75.5 -35t-41.5 -42t-16.5 -43t1.5 -36q15 -48 56 -58.5t88 5.5q46 16 87 54t56 88q10 40 6.5 75.5t-19.5 62.5t-43 43.5t-61 19.5q-36 2 -67 -12.5t-52 -34.5
q-20 -21 -26.5 -41.5t8.5 -30.5t26 -3.5t22 17.5q9 10 22 20t31 13zM218 273q-6 -18 -14.5 -32t-24.5 -29q-11 -12 -31.5 -22.5t-25.5 -2.5q-5 6 3 26t26 35q21 17 43 21t24 4z" />
    <glyph glyph-name="existential" unicode="&#x2203;" horiz-adv-x="770" 
d="M164 -4h435v597h-428v-106h313v-133l-297 -1v-104h297v-147l-320 -1v-105z" />
    <glyph glyph-name="gradient" unicode="&#x2207;" horiz-adv-x="770" 
d="M385 56l292 499h-585zM385 123l-235 399h468z" />
    <glyph glyph-name="element" unicode="&#x2208;" horiz-adv-x="770" 
d="M160 251h507v81h-506q6 47 47 82t98 35h359v83h-364q-41 0 -82.5 -16t-74.5 -47q-33 -30 -54 -75.5t-21 -104.5q0 -55 18.5 -98.5t50.5 -73.5q32 -31 74 -47t90 -16h366v81h-360q-28 0 -54 9t-46 25t-33 37t-15 45z" />
    <glyph glyph-name="suchthat" unicode="&#x220b;" horiz-adv-x="770" 
d="M593 251q-5 -48 -48 -81t-100 -33h-360v-83h366q48 0 90.5 16t73.5 47q32 30 50.5 73.5t18.5 98.5q0 59 -21 104.5t-55 75.5q-33 31 -74.5 47t-81.5 16h-364v-83h359q57 0 98 -35t47 -82h-506v-81h507z" />
    <glyph glyph-name="product" unicode="&#x220f;" horiz-adv-x="770" 
d="M268 108v421h249v-421l-2 -37q-1 -9 -6 -14t-14 -5l-48 -1v-55h241v55l-47 1q-14 0 -18.5 4.5t-4.5 17.5v405v39q0 12 2.5 14t20.5 4l47 4v53h-591v-53l47 -4q15 -3 19 -11.5t4 -45.5v-375q0 -33 -4 -42.5t-17 -9.5l-49 -1v-55h242v55l-51 1q-8 0 -12 0.5t-6 6.5
q-2 5 -2 16v33z" />
    <glyph glyph-name="summation" unicode="&#x2211;" horiz-adv-x="770" 
d="M126 75v-80h494v159h-59l-7 -55q-2 -7 -8 -11t-15 -4h-298l251 210l-211 233h254q12 0 14.5 -2t2.5 -9l6 -57h57v135h-463v-61l229 -251z" />
    <glyph glyph-name="radical" unicode="&#x221a;" horiz-adv-x="770" 
d="M103 216l46 -64l33 48l148 -294l291 714h148v64h-194l-249 -603l-131 266z" />
    <glyph glyph-name="proportional" unicode="&#x221d;" horiz-adv-x="770" 
d="M259 401q29 1 50 -12.5t35 -30.5q13 -18 20 -33.5t8 -16.5q-6 -12 -15 -28.5t-22 -31.5q-14 -16 -33 -26t-45 -7q-30 3 -54.5 30t-23.5 67q0 35 26 61t54 28zM682 436q-8 4 -18 11.5t-25 14.5t-34.5 12t-45.5 5q-30 0 -52.5 -8.5t-39.5 -21.5t-28.5 -27t-18.5 -26
q-2 3 -12 17t-31 30q-20 16 -50.5 27.5t-70.5 9.5q-34 -2 -63 -15.5t-51 -36.5q-21 -22 -34 -51.5t-13 -62.5q-3 -70 38.5 -120.5t110.5 -59.5q36 -5 66 4.5t52 25.5q22 15 35.5 31.5t18.5 25.5q6 -12 17.5 -27t28.5 -29q18 -13 40.5 -23t51.5 -11q26 -2 48.5 4t38.5 14
q17 8 26.5 15t11.5 8l-41 73q-13 -13 -35 -23.5t-41 -8.5q-39 3 -60.5 27.5t-41.5 64.5q6 12 14.5 27t19.5 29q11 13 25 23.5t32 12.5q31 3 53.5 -7t29.5 -19z" />
    <glyph glyph-name="infinity" unicode="&#x221e;" horiz-adv-x="770" 
d="M385 376q-1 2 -8 14t-23 26q-15 14 -40 25.5t-61 11.5q-32 0 -59.5 -12t-48.5 -33q-21 -20 -32.5 -48t-11.5 -60q0 -33 11.5 -61t32.5 -48q21 -21 48.5 -32.5t59.5 -11.5q36 0 60.5 11t40.5 26q15 14 22.5 26.5t8.5 14.5q0 -2 8 -14.5t24 -26.5q16 -15 40.5 -26t59.5 -11
q31 0 58.5 11.5t48.5 32.5q21 20 33 48t12 61q0 32 -12 60t-33 48q-21 21 -48.5 33t-58.5 12q-36 0 -61 -11.5t-40 -25.5q-16 -14 -23.5 -26t-7.5 -14zM180 300q0 31 22 53.5t51 22.5q21 0 37 -11.5t26 -25.5q11 -13 16.5 -25.5t6.5 -13.5q-1 -2 -6.5 -14.5t-16.5 -25.5
q-10 -14 -26 -25t-37 -11q-29 0 -51 22t-22 54zM591 300q0 -32 -22.5 -53.5t-51.5 -21.5q-22 0 -38 11t-26 24q-11 14 -16.5 26t-5.5 14q0 1 5.5 13.5t16.5 25.5q10 14 26 25.5t38 11.5q29 0 51.5 -22.5t22.5 -53.5z" />
    <glyph glyph-name="angle" unicode="&#x2220;" horiz-adv-x="770" 
d="M255 122l392 394l-65 63l-462 -464l-5 -5t-8 -10q-4 -7 -7 -16t0 -19q6 -18 15.5 -23.5t27.5 -5.5h535v86h-423z" />
    <glyph glyph-name="uni2225" unicode="&#x2225;" horiz-adv-x="770" 
d="M420 668v-745h82v745h-82zM263 668v-745h83v745h-83z" />
    <glyph glyph-name="logicaland" unicode="&#x2227;" horiz-adv-x="770" 
d="M109 64l73 -44l201 409l198 -402l78 37l-235 471q-6 12 -17.5 18.5t-24.5 6.5q-12 0 -23.5 -6.5t-16.5 -18.5z" />
    <glyph glyph-name="logicalor" unicode="&#x2228;" horiz-adv-x="770" 
d="M109 543l234 -471q6 -12 17.5 -18t23.5 -6q13 0 24 6.5t17 18.5l235 471l-78 36l-198 -401l-202 408z" />
    <glyph glyph-name="intersection" unicode="&#x2229;" horiz-adv-x="770" 
d="M229 4v358q0 31 11.5 57.5t32.5 46.5q20 20 48 31.5t61 11.5q34 0 62.5 -12t49.5 -33q20 -20 32 -47.5t12 -57.5v-359h83v374q0 43 -17 83t-49 70q-31 30 -75 48.5t-98 18.5q-50 0 -93 -17.5t-75 -48.5q-31 -31 -49 -72.5t-18 -89.5v-362h82z" />
    <glyph glyph-name="union" unicode="&#x222a;" horiz-adv-x="770" 
d="M229 588h-82v-363q0 -48 18 -89.5t50 -72.5t75.5 -48t93.5 -17q54 0 98 18.5t74 49.5q31 31 48 70.5t17 81.5v373h-83v-358q0 -31 -11.5 -58.5t-31.5 -48.5q-21 -21 -49 -33t-62 -12q-32 0 -60.5 11.5t-49.5 31.5t-33 47t-12 58v359z" />
    <glyph glyph-name="integral" unicode="&#x222b;" horiz-adv-x="770" 
d="M529 551q15 33 -5.5 54.5t-50.5 21.5q-50 -1 -75.5 -35t-40.5 -83q-13 -42 -19.5 -77t-9.5 -69q-3 -33 -4.5 -67.5t-2.5 -74.5q-2 -26 -2.5 -51.5t-2.5 -46.5t-6.5 -34.5t-11.5 -16.5q-1 0 -2.5 1.5l-4.5 4.5q-4 2 -9 5t-12 6q-15 3 -30 -2t-26 -30q-7 -12 -5.5 -26.5
t10.5 -26.5t24.5 -19t37.5 -2q60 10 88.5 70.5t40.5 157.5q3 24 4.5 45.5t3.5 42.5q1 21 2 43t3 47q1 26 3 52t5 47t6.5 35t8.5 17q0 -1 5.5 -5.5t20.5 -10.5t30.5 -2.5t26.5 29.5z" />
    <glyph glyph-name="uni222C" unicode="&#x222c;" horiz-adv-x="770" 
d="M639 551q7 16 5 30t-11 24q-9 11 -23 16.5t-28 5.5q-49 -1 -74.5 -35t-40.5 -83q-13 -42 -19.5 -77t-9.5 -69q-3 -33 -4.5 -67.5t-3.5 -74.5q-2 -26 -2.5 -51.5t-2.5 -46.5t-6 -35t-11 -16q-1 0 -2.5 1.5l-4.5 4.5q-4 2 -9 5t-12 6q-15 3 -29.5 -2t-26.5 -30
q-7 -12 -5.5 -26.5t9.5 -26.5q9 -12 24.5 -19t37.5 -2q60 10 89 70t42 158q2 24 3.5 45.5t2.5 42.5t2.5 42.5t3.5 46.5q1 25 3 51.5t5 47.5q3 22 6.5 36t8.5 17q0 -1 5.5 -5.5t20.5 -10.5t30.5 -2.5t26.5 29.5zM430 551q15 33 -6 54.5t-51 21.5q-49 -1 -74.5 -34.5
t-41.5 -83.5q-12 -42 -18 -77t-9 -69t-4 -68t-3 -74q-2 -26 -3 -51.5t-3 -46.5q-2 -20 -6 -34t-12 -16l-6 5t-21 9q-15 5 -30.5 -0.5t-26.5 -29.5q-6 -12 -4.5 -26.5t10.5 -26.5q8 -12 23.5 -19t37.5 -2q60 10 88.5 71t39.5 157q3 24 5 45.5t3 42.5q2 21 3 42.5t3 47.5
q1 25 3 51t5 48q3 21 6.5 35t8.5 17q0 -1 5.5 -5.5t20.5 -10.5t30.5 -2.5t26.5 29.5z" />
    <glyph glyph-name="uni222E" unicode="&#x222e;" horiz-adv-x="770" 
d="M291 29q0 15 -7.5 29t-26.5 18q-26 5 -40 -7.5t-20 -36.5q-6 -27 11 -49.5t45 -27.5q60 -12 97 33.5t60 134.5q48 3 86.5 38.5t48.5 93.5q9 54 -17 99.5t-65 64.5l7 76q1 14 3.5 23.5t5.5 16.5t6.5 11.5t6.5 9.5q-3 -8 -4 -18.5t1 -14.5q2 -7 11 -19.5t27 -15.5
q21 -3 36.5 7t21.5 37q5 29 -13 48.5t-46 25.5q-57 10 -95.5 -30t-59.5 -138q-45 -4 -85 -38.5t-49 -91.5q-11 -54 14.5 -101t68.5 -63l-13 -77q-3 -21 -8.5 -38.5t-13.5 -23.5q1 2 2 4.5t2 5.5t1 6t1 8zM359 374l-29 -168q-13 5 -24 31t-5 61q5 32 24 53t34 23zM452 356
q11 -7 23 -33t6 -58q-5 -36 -25 -56.5t-32 -20.5z" />
    <glyph glyph-name="therefore" unicode="&#x2234;" horiz-adv-x="770" 
d="M382 524q-29 0 -48 -19.5t-19 -47.5q0 -29 19 -48t48 -19q28 0 47.5 19t19.5 48q0 28 -19.5 47.5t-47.5 19.5zM581 195q-29 0 -48 -20t-19 -47q0 -29 19 -48t48 -19q27 0 47 19t20 48q0 27 -20 47t-47 20zM189 195q-29 0 -48 -20t-19 -47q0 -29 19 -48t48 -19q27 0 47 19
t20 48q0 27 -20 47t-47 20z" />
    <glyph glyph-name="uni2235" unicode="&#x2235;" horiz-adv-x="770" 
d="M382 67q28 0 47.5 19t19.5 48q0 27 -19.5 47t-47.5 20q-29 0 -48 -20t-19 -47q0 -29 19 -48t48 -19zM581 396q27 0 47 19.5t20 47.5t-20 47.5t-47 19.5q-29 0 -48 -19.5t-19 -47.5t19 -47.5t48 -19.5zM189 396q27 0 47 19.5t20 47.5t-20 47.5t-47 19.5q-29 0 -48 -19.5
t-19 -47.5t19 -47.5t48 -19.5z" />
    <glyph glyph-name="similar" unicode="&#x223c;" horiz-adv-x="770" 
d="M61 243h107q6 52 31.5 77t64.5 22q20 -2 42.5 -19t49.5 -42q25 -25 60.5 -50.5t81.5 -28.5q49 -3 86 11.5t62 41.5t40 65.5t22 83.5h-106q-8 -47 -27.5 -76t-64.5 -25q-21 1 -46 20t-51 43q-27 24 -60 48t-81 28q-44 3 -81 -10.5t-64 -40.5q-28 -27 -45.5 -65t-20.5 -83z
" />
    <glyph glyph-name="uni223D" unicode="&#x223d;" horiz-adv-x="770" 
d="M310 364l39 68q-16 18 -44 33.5t-75 15.5q-38 0 -68 -14t-52 -37t-33.5 -52.5t-11.5 -59.5q0 -45 13 -78.5t36 -55.5q22 -22 51.5 -33.5t62.5 -11.5q51 -2 87.5 21.5t61.5 54.5q24 31 38.5 61t20.5 42q21 40 47.5 61t62.5 20q36 -3 58.5 -29t22.5 -60q0 -31 -18.5 -61
t-63.5 -30q-15 -1 -30 3t-27 9t-20.5 9.5t-10.5 6.5l-40 -69q2 -2 13.5 -9.5t29.5 -15.5q19 -7 43 -12.5t51 -2.5q44 3 77.5 24.5t53.5 52.5q20 32 25 70t-6 76q-20 53 -60.5 84.5t-100.5 34.5q-72 3 -112.5 -35.5t-70.5 -95.5q-9 -19 -21.5 -42t-27.5 -43
q-16 -21 -35 -34.5t-42 -11.5q-40 3 -64 31.5t-19 70.5q3 33 27 57.5t51 25.5q27 0 49.5 -13t31.5 -26z" />
    <glyph glyph-name="uni2252" unicode="&#x2252;" horiz-adv-x="770" 
d="M101 188h568v84h-568v-84zM233 554q-23 0 -38.5 -16t-15.5 -39t15.5 -38.5t38.5 -15.5t39 15.5t16 38.5t-16 39t-39 16zM537 158q-23 0 -38.5 -16.5t-15.5 -38.5q0 -23 15.5 -39t38.5 -16q22 0 38.5 16t16.5 39q0 22 -16.5 38.5t-38.5 16.5zM101 328h568v84h-568v-84z
" />
    <glyph glyph-name="notequal" unicode="&#x2260;" horiz-adv-x="770" 
d="M299 246h-183v-95h150l-40 -114l108 -20l46 134h290v95h-257l38 111h219v95h-186l39 113l-103 24l-48 -137h-256v-95h222z" />
    <glyph glyph-name="equivalence" unicode="&#x2261;" horiz-adv-x="770" 
d="M101 383h568v73h-568v-73zM101 264h568v72h-568v-72zM101 144h568v73h-568v-73z" />
    <glyph glyph-name="lessequal" unicode="&#x2264;" horiz-adv-x="770" 
d="M661 218l-378 157l371 154l-32 80l-483 -204q-18 -8 -22.5 -12.5t-4.5 -17.5q0 -16 6.5 -22.5t21.5 -10.5l481 -202zM668 40v87h-566v-87h566z" />
    <glyph glyph-name="greaterequal" unicode="&#x2265;" horiz-adv-x="770" 
d="M666 375q0 7 -1 11t-4 7t-8.5 5.5t-14.5 7.5l-482 204l-32 -80l371 -154l-378 -158l40 -77l481 201q15 5 21.5 11.5t6.5 21.5zM675 39v86h-566v-86h566z" />
    <glyph glyph-name="uni226A" unicode="&#x226a;" horiz-adv-x="770" 
d="M484 573l-422 -273l416 -280l41 56l-331 224l335 217zM663 573l-422 -273l417 -280l40 56l-331 224l335 217z" />
    <glyph glyph-name="uni226B" unicode="&#x226b;" horiz-adv-x="770" 
d="M279 573l-40 -56l335 -217l-331 -224l41 -56l417 280zM99 573l-39 -56l335 -217l-331 -224l41 -56l416 280z" />
    <glyph glyph-name="propersubset" unicode="&#x2282;" horiz-adv-x="770" 
d="M683 446v83h-363q-48 0 -90 -18.5t-72 -50.5q-31 -32 -48.5 -75.5t-17.5 -92.5q0 -55 18.5 -99t49.5 -74q31 -31 71 -47.5t82 -16.5h373v83h-358q-30 0 -57.5 11t-47.5 31q-20 21 -32 49t-12 63q0 31 11 59t30 49q20 21 46.5 33.5t57.5 12.5h359z" />
    <glyph glyph-name="propersuperset" unicode="&#x2283;" horiz-adv-x="770" 
d="M94 446h359q30 0 56.5 -12.5t46.5 -33.5q19 -21 30.5 -49t11.5 -59q0 -35 -12.5 -63t-32.5 -49q-20 -20 -47 -31t-57 -11h-358v-83h373q41 0 81 16.5t71 47.5q31 30 50 74t19 99q0 49 -18 92.5t-48 75.5q-31 32 -72.5 50.5t-89.5 18.5h-363v-83z" />
    <glyph glyph-name="reflexsubset" unicode="&#x2286;" horiz-adv-x="770" 
d="M685 512v78h-364q-47 0 -88.5 -15.5t-72.5 -43.5t-48.5 -68t-17.5 -89q0 -51 17.5 -91t46.5 -67q30 -28 68.5 -42t80.5 -14h381v78h-359q-63 0 -105 37t-42 100q0 30 11.5 55t31.5 43t46 28.5t55 10.5h359zM89 109v-77h608v77h-608z" />
    <glyph glyph-name="reflexsuperset" unicode="&#x2287;" horiz-adv-x="770" 
d="M101 512h359q28 0 53.5 -10.5t45.5 -28.5t32 -43t12 -55q0 -63 -42 -100t-104 -37h-360v-78h381q42 0 80.5 14t67.5 42q29 27 47 67t18 91q0 49 -18 89t-49 68t-72.5 43.5t-87.5 15.5h-363v-78zM697 109h-608v-77h608v77z" />
    <glyph glyph-name="uni2299" unicode="&#x2299;" horiz-adv-x="770" 
d="M386 614q-66 0 -124 -24.5t-101 -67.5t-67.5 -100t-24.5 -123t24.5 -123.5t67.5 -99.5q43 -43 101 -67t124 -24q65 0 122.5 24.5t99.5 67.5q43 42 68 99.5t25 122.5t-25 122.5t-68 99.5q-42 43 -99.5 68t-122.5 25zM386 578q57 0 108 -22t89 -60t60 -89t22 -108
q0 -59 -22 -109.5t-60 -88.5t-89 -59.5t-108 -21.5q-59 0 -110 21.5t-89 59.5t-60 88.5t-22 109.5q0 58 22 109t60 89q38 37 89 59t110 22zM386 420q-50 0 -85.5 -36t-35.5 -86q0 -49 35.5 -84.5t85.5 -35.5q24 0 46 9.5t39 26.5q16 16 26 38t10 46q0 50 -36 86t-85 36z" />
    <glyph glyph-name="perpendicular" unicode="&#x22a5;" horiz-adv-x="770" 
d="M101 121v-90h568v90h-237v433h-94v-433h-237z" />
    <glyph glyph-name="uni2312" unicode="&#x2312;" horiz-adv-x="770" 
d="M179 293q15 90 73.5 142t130.5 52q36 0 69.5 -14t61.5 -39q27 -26 46.5 -61.5t27.5 -79.5h92q-11 65 -38 117t-66 89q-39 36 -88.5 56t-104.5 20q-57 0 -106 -20t-88 -57q-39 -36 -65 -88.5t-35 -116.5h90z" />
    <glyph glyph-name="uni2460" unicode="&#x2460;" horiz-adv-x="770" 
d="M440 64v477h-77q0 -19 -8.5 -35t-20.5 -24q-16 -10 -36 -15.5t-43 -5.5v-76h98v-321h87zM748 300q0 75 -29 141t-78 115t-115 78t-141 29t-141.5 -29t-115.5 -78t-77.5 -115t-28.5 -141t28.5 -141.5t77.5 -115.5t115.5 -77.5t141.5 -28.5t141 28.5t115 77.5t78 115.5
t29 141.5zM385 606q63 0 118 -24.5t96 -65.5q41 -42 65 -97.5t24 -118.5q0 -64 -24 -119.5t-65 -97.5q-41 -41 -96 -65t-118 -24t-118.5 24t-96.5 65q-41 42 -64.5 97.5t-23.5 119.5q0 63 23.5 118.5t64.5 97.5q41 41 96.5 65.5t118.5 24.5z" />
    <glyph glyph-name="uni2461" unicode="&#x2461;" horiz-adv-x="770" 
d="M546 72v76h-216q5 14 16 33.5t27 32.5l87 69q13 12 28 25t27 30q13 16 21 37.5t8 49.5q0 55 -39.5 98t-112.5 43q-39 0 -68.5 -13.5t-49.5 -35.5q-21 -22 -31 -51t-8 -59h87q-2 36 15.5 61t53.5 25q33 0 49.5 -21.5t16.5 -48.5q-3 -29 -19.5 -47.5t-34.5 -32.5l-77 -61
q-64 -51 -81.5 -105t-17.5 -105h319zM748 300q0 75 -29 141t-78 115t-115 78t-141 29t-141.5 -29t-115.5 -78t-77.5 -115t-28.5 -141t28.5 -141.5t77.5 -115.5t115.5 -77.5t141.5 -28.5t141 28.5t115 77.5t78 115.5t29 141.5zM385 606q63 0 118 -24.5t96 -65.5
q41 -42 65 -97.5t24 -118.5q0 -64 -24 -119.5t-65 -97.5q-41 -41 -96 -65t-118 -24t-118.5 24t-96.5 65q-41 42 -64.5 97.5t-23.5 119.5q0 63 23.5 118.5t64.5 97.5q41 41 96.5 65.5t118.5 24.5z" />
    <glyph glyph-name="uni2462" unicode="&#x2462;" horiz-adv-x="770" 
d="M548 198q0 35 -20.5 66.5t-48.5 45.5q18 11 36.5 38t18.5 68q0 26 -11 50.5t-31 43.5t-48 31t-61 12t-61 -12t-49 -32q-20 -20 -31 -47t-9 -58h87q-3 28 13.5 50t49.5 22q35 0 50 -22t14 -41q-3 -18 -11 -32t-19 -20q-14 -7 -31 -9.5t-38 -2.5v-81q16 0 32.5 -1t32.5 -4
q22 -6 35 -25.5t12 -39.5q-3 -28 -22.5 -47.5t-54.5 -19.5q-36 0 -56 21.5t-17 55.5h-89q-2 -36 10.5 -65.5t34.5 -50.5t52.5 -32.5t65.5 -11.5q34 0 64 11.5t52 32.5q22 20 35 47.5t13 58.5zM748 300q0 75 -29 141t-78 115t-115 78t-141 29t-141.5 -29t-115.5 -78
t-77.5 -115t-28.5 -141t28.5 -141.5t77.5 -115.5t115.5 -77.5t141.5 -28.5t141 28.5t115 77.5t78 115.5t29 141.5zM385 606q63 0 118 -24.5t96 -65.5q41 -42 65 -97.5t24 -118.5q0 -64 -24 -119.5t-65 -97.5q-41 -41 -96 -65t-118 -24t-118.5 24t-96.5 65q-41 42 -64.5 97.5
t-23.5 119.5q0 63 23.5 118.5t64.5 97.5q41 41 96.5 65.5t118.5 24.5z" />
    <glyph glyph-name="uni2463" unicode="&#x2463;" horiz-adv-x="770" 
d="M549 126v82h-58v328h-86l-212 -319v-91h210v-68h88v68h58zM403 208h-117l117 177v-177zM748 300q0 75 -29 141t-78 115t-115 78t-141 29t-141.5 -29t-115.5 -78t-77.5 -115t-28.5 -141t28.5 -141.5t77.5 -115.5t115.5 -77.5t141.5 -28.5t141 28.5t115 77.5t78 115.5
t29 141.5zM385 606q63 0 118 -24.5t96 -65.5q41 -42 65 -97.5t24 -118.5q0 -64 -24 -119.5t-65 -97.5q-41 -41 -96 -65t-118 -24t-118.5 24t-96.5 65q-41 42 -64.5 97.5t-23.5 119.5q0 63 23.5 118.5t64.5 97.5q41 41 96.5 65.5t118.5 24.5z" />
    <glyph glyph-name="uni2464" unicode="&#x2464;" horiz-adv-x="770" 
d="M748 300q0 75 -29 141t-78 115t-115 78t-141 29t-141.5 -29t-115.5 -78t-77.5 -115t-28.5 -141t28.5 -141.5t77.5 -115.5t115.5 -77.5t141.5 -28.5t141 28.5t115 77.5t78 115.5t29 141.5zM385 606q63 0 118 -24.5t96 -65.5q41 -42 65 -97.5t24 -118.5q0 -64 -24 -119.5
t-65 -97.5q-41 -41 -96 -65t-118 -24t-118.5 24t-96.5 65q-41 42 -64.5 97.5t-23.5 119.5q0 63 23.5 118.5t64.5 97.5q41 41 96.5 65.5t118.5 24.5zM428 367q-5 0 -17 1t-27 0t-31.5 -4t-29.5 -10l17 93h186v82h-260l-40 -257h91q1 2 8.5 8t19.5 12q12 5 28 6.5t34 -4.5
q17 -7 27 -18.5t15 -23.5q5 -13 6.5 -23t1.5 -13q0 -6 -2.5 -20t-10.5 -29q-7 -15 -21 -27t-36 -15q-23 -3 -38.5 4.5t-25.5 19.5q-10 11 -15 23t-5 19h-87q0 -2 1.5 -17t10.5 -35q10 -21 30 -43.5t58 -39.5q36 -18 69 -15t59 15q26 13 44 29.5t26 27.5q14 21 25.5 55.5
t-2.5 94.5q-7 28 -23 47.5t-34 31.5t-33 18t-19 7z" />
    <glyph glyph-name="uni2465" unicode="&#x2465;" horiz-adv-x="770" 
d="M554 213q0 33 -11.5 64t-31.5 55t-47.5 38.5t-58.5 14.5q-38 0 -61.5 -11.5t-37.5 -24.5q0 12 2 29t10 38q9 22 26 40.5t51 18.5t51 -20t22 -43h82q-3 27 -15.5 52.5t-32.5 44.5q-21 20 -48 31.5t-58 11.5q-59 0 -99.5 -32t-61.5 -86q-10 -25 -15.5 -59t-6.5 -69
q0 -36 3.5 -70t11.5 -58q17 -54 58 -90.5t107 -36.5q34 0 63.5 12t51.5 34q21 22 33.5 51.5t12.5 64.5zM467 215q0 -40 -21 -61t-57 -21t-56.5 21.5t-20.5 60.5q-2 40 19.5 64.5t57.5 24.5t57 -25t21 -64zM748 300q0 75 -29 141t-78 115t-115 78t-141 29t-141.5 -29
t-115.5 -78t-77.5 -115t-28.5 -141t28.5 -141.5t77.5 -115.5t115.5 -77.5t141.5 -28.5t141 28.5t115 77.5t78 115.5t29 141.5zM385 606q63 0 118 -24.5t96 -65.5q41 -42 65 -97.5t24 -118.5q0 -64 -24 -119.5t-65 -97.5q-41 -41 -96 -65t-118 -24t-118.5 24t-96.5 65
q-41 42 -64.5 97.5t-23.5 119.5q0 63 23.5 118.5t64.5 97.5q41 41 96.5 65.5t118.5 24.5z" />
    <glyph glyph-name="uni2466" unicode="&#x2466;" horiz-adv-x="770" 
d="M547 519h-325v-88h241q-16 -19 -49.5 -64t-60.5 -100q-33 -65 -47 -123.5t-16 -91.5h98q0 19 4 46t11 57q8 31 18.5 63.5t25.5 63.5q27 57 56 96t44 56v85zM748 300q0 75 -29 141t-78 115t-115 78t-141 29t-141.5 -29t-115.5 -78t-77.5 -115t-28.5 -141t28.5 -141.5
t77.5 -115.5t115.5 -77.5t141.5 -28.5t141 28.5t115 77.5t78 115.5t29 141.5zM385 606q63 0 118 -24.5t96 -65.5q41 -42 65 -97.5t24 -118.5q0 -64 -24 -119.5t-65 -97.5q-41 -41 -96 -65t-118 -24t-118.5 24t-96.5 65q-41 42 -64.5 97.5t-23.5 119.5q0 63 23.5 118.5
t64.5 97.5q41 41 96.5 65.5t118.5 24.5z" />
    <glyph glyph-name="uni2467" unicode="&#x2467;" horiz-adv-x="770" 
d="M561 194q0 35 -20.5 67.5t-53.5 53.5q27 17 42.5 44.5t15.5 59.5q0 29 -13 53.5t-35 42.5t-51 28t-61 10q-33 0 -62 -10.5t-51 -28.5t-34.5 -42.5t-12.5 -52.5q0 -32 15.5 -59.5t42.5 -45.5q-33 -20 -53.5 -52.5t-20.5 -67.5q0 -32 14 -59.5t38 -47.5t56 -31t68 -11
q35 0 67 11.5t56 31.5t38.5 47t14.5 59zM456 412q0 -24 -19 -40.5t-52 -16.5q-35 0 -53 16.5t-18 40.5q0 22 18 39.5t53 17.5q33 0 52 -17.5t19 -39.5zM470 198q0 -28 -23 -48t-62 -20t-62 20t-23 48q0 27 23 48.5t62 21.5t62 -21.5t23 -48.5zM748 300q0 75 -29 141t-78 115
t-115 78t-141 29t-141.5 -29t-115.5 -78t-77.5 -115t-28.5 -141t28.5 -141.5t77.5 -115.5t115.5 -77.5t141.5 -28.5t141 28.5t115 77.5t78 115.5t29 141.5zM385 606q63 0 118 -24.5t96 -65.5q41 -42 65 -97.5t24 -118.5q0 -64 -24 -119.5t-65 -97.5q-41 -41 -96 -65
t-118 -24t-118.5 24t-96.5 65q-41 42 -64.5 97.5t-23.5 119.5q0 63 23.5 118.5t64.5 97.5q41 41 96.5 65.5t118.5 24.5z" />
    <glyph glyph-name="uni2468" unicode="&#x2468;" horiz-adv-x="770" 
d="M748 300q0 75 -29 141t-78 115t-115 78t-141 29t-141.5 -29t-115.5 -78t-77.5 -115t-28.5 -141t28.5 -141.5t77.5 -115.5t115.5 -77.5t141.5 -28.5t141 28.5t115 77.5t78 115.5t29 141.5zM688 300q0 -64 -24 -119.5t-65 -97.5q-41 -41 -96 -65t-118 -24t-118.5 24
t-96.5 65q-41 42 -64.5 97.5t-23.5 119.5q0 63 23.5 118.5t64.5 97.5q41 41 96.5 65.5t118.5 24.5t118 -24.5t96 -65.5q41 -42 65 -97.5t24 -118.5zM551 422q-18 53 -59.5 90t-106.5 37q-35 0 -64.5 -12.5t-50.5 -34.5t-33 -51.5t-12 -63.5t11 -65t31 -55q19 -24 46.5 -38
t59.5 -14q38 0 61.5 11t38.5 25q0 -12 -3 -29.5t-10 -37.5q-9 -23 -26 -41t-51 -18q-35 0 -52 19.5t-21 43.5h-81q1 -28 13.5 -53.5t33.5 -44.5q20 -20 47.5 -31t59.5 -11q57 0 98.5 32t62.5 86q9 24 14 58t6 70q1 35 -2.5 69t-10.5 59zM467 385q0 -41 -21 -65t-56 -24
q-36 0 -57 25t-21 64t21 60.5t57 21.5q35 0 55 -21.5t22 -60.5z" />
    <glyph glyph-name="uni2469" unicode="&#x2469;" horiz-adv-x="770" 
d="M648 302q0 51 -11 95t-32 76q-20 32 -50.5 50.5t-69.5 18.5q-40 0 -70.5 -18.5t-51.5 -50.5t-31.5 -76t-10.5 -95q0 -53 10.5 -97t31.5 -76t51.5 -50t70.5 -18q39 0 69.5 18t50.5 50q21 32 32 76t11 97zM303 71v460h-73q0 -19 -9 -34t-19 -22q-15 -11 -34.5 -16t-41.5 -5
v-74h93v-309h84zM559 302q0 -69 -19.5 -115t-54.5 -46q-36 0 -55.5 46t-19.5 115q0 67 19.5 113.5t55.5 46.5q35 0 54.5 -46.5t19.5 -113.5zM748 300q0 75 -29 141t-78 115t-115 78t-141 29t-141.5 -29t-115.5 -78t-77.5 -115t-28.5 -141t28.5 -141.5t77.5 -115.5
t115.5 -77.5t141.5 -28.5t141 28.5t115 77.5t78 115.5t29 141.5zM688 300q0 -64 -24 -119.5t-65 -97.5q-41 -41 -96 -65t-118 -24t-118.5 24t-96.5 65q-41 42 -64.5 97.5t-23.5 119.5q0 63 23.5 118.5t64.5 97.5q41 41 96.5 65.5t118.5 24.5t118 -24.5t96 -65.5
q41 -42 65 -97.5t24 -118.5z" />
    <glyph glyph-name="uni246A" unicode="&#x246a;" horiz-adv-x="770" 
d="M547 73v458h-74q0 -19 -9 -33.5t-20 -22.5q-15 -10 -34.5 -15.5t-40.5 -5.5v-73h93v-308h85zM330 73v458h-73q0 -19 -9 -33.5t-19 -22.5q-15 -10 -35 -15.5t-41 -5.5v-73h93v-308h84zM748 300q0 75 -29 141t-78 115t-115 78t-141 29t-141.5 -29t-115.5 -78t-77.5 -115
t-28.5 -141t28.5 -141.5t77.5 -115.5t115.5 -77.5t141.5 -28.5t141 28.5t115 77.5t78 115.5t29 141.5zM688 300q0 -64 -24 -119.5t-65 -97.5q-41 -41 -96 -65t-118 -24t-118.5 24t-96.5 65q-41 42 -64.5 97.5t-23.5 119.5q0 63 23.5 118.5t64.5 97.5q41 41 96.5 65.5
t118.5 24.5t118 -24.5t96 -65.5q41 -42 65 -97.5t24 -118.5z" />
    <glyph glyph-name="uni246B" unicode="&#x246b;" horiz-adv-x="770" 
d="M303 78v458h-72q0 -18 -9.5 -33.5t-19.5 -22.5q-15 -10 -32.5 -15.5t-39.5 -5.5v-73h89v-308h84zM594 80v71h-172q3 9 12.5 27.5t18.5 26.5l71 65q8 8 20.5 21t24.5 30t20.5 39t8.5 48q0 52 -33.5 93.5t-100.5 41.5q-38 0 -65 -13.5t-43 -34.5q-17 -22 -24.5 -49.5
t-5.5 -55.5h84q-2 31 12 53t41 22q25 0 36.5 -18.5t10.5 -40.5q-2 -24 -16.5 -43.5t-24.5 -28.5l-63 -59q-36 -33 -61.5 -84.5t-25.5 -111.5h275q-41 -39 -94.5 -62t-114.5 -23q-63 0 -118.5 24t-96.5 65q-41 42 -64.5 97.5t-23.5 119.5q0 63 23.5 118.5t64.5 97.5
q41 41 96.5 65.5t118.5 24.5t118 -24.5t96 -65.5q41 -42 65 -97.5t24 -118.5q0 -65 -25.5 -122t-68.5 -98zM748 300q0 75 -29 141t-78 115t-115 78t-141 29t-141.5 -29t-115.5 -78t-77.5 -115t-28.5 -141t28.5 -141.5t77.5 -115.5t115.5 -77.5t141.5 -28.5t141 28.5
t115 77.5t78 115.5t29 141.5z" />
    <glyph glyph-name="uni246C" unicode="&#x246c;" horiz-adv-x="770" 
d="M637 204q0 34 -20.5 63t-47.5 44q17 10 35.5 35.5t18.5 64.5q0 24 -11 47.5t-31 41.5q-19 18 -46 29t-58 11t-58 -11t-47 -30t-31 -45t-9 -55h87q-2 25 13.5 45t45.5 20q31 0 45.5 -20t13.5 -36q-2 -17 -10.5 -29t-18.5 -18q-12 -6 -29 -8.5t-36 -2.5v-83h14.5h15.5
q8 -1 15.5 -1.5t15.5 -1.5q20 -7 33 -24t12 -35q-3 -25 -22 -42.5t-49 -17.5q-32 0 -51.5 18.5t-16.5 51.5h-88q-2 -35 9.5 -62.5t33.5 -47.5q21 -20 50.5 -30.5t63.5 -10.5q33 0 61.5 10.5t50.5 29.5q21 19 33.5 44.5t12.5 55.5zM302 70v459h-73q0 -18 -9 -33t-20 -23
q-15 -10 -34 -15.5t-41 -5.5v-73h93v-309h84zM748 300q0 75 -29 141t-78 115t-115 78t-141 29t-141.5 -29t-115.5 -78t-77.5 -115t-28.5 -141t28.5 -141.5t77.5 -115.5t115.5 -77.5t141.5 -28.5t141 28.5t115 77.5t78 115.5t29 141.5zM688 300q0 -64 -24 -119.5t-65 -97.5
q-41 -41 -96 -65t-118 -24t-118.5 24t-96.5 65q-41 42 -64.5 97.5t-23.5 119.5q0 63 23.5 118.5t64.5 97.5q41 41 96.5 65.5t118.5 24.5t118 -24.5t96 -65.5q41 -42 65 -97.5t24 -118.5z" />
    <glyph glyph-name="uni246D" unicode="&#x246d;" horiz-adv-x="770" 
d="M298 68v461h-72q0 -19 -9 -34.5t-20 -22.5q-15 -10 -32.5 -15t-38.5 -5v-73h89v-311h83zM637 138v78h-57v311h-82l-185 -301v-88h184v-71h83v71h57zM497 216h-97l97 166v-166zM748 300q0 75 -29 141t-78 115t-115 78t-141 29t-141.5 -29t-115.5 -78t-77.5 -115
t-28.5 -141t28.5 -141.5t77.5 -115.5t115.5 -77.5t141.5 -28.5t141 28.5t115 77.5t78 115.5t29 141.5zM688 300q0 -64 -24 -119.5t-65 -97.5q-41 -41 -96 -65t-118 -24t-118.5 24t-96.5 65q-41 42 -64.5 97.5t-23.5 119.5q0 63 23.5 118.5t64.5 97.5q41 41 96.5 65.5
t118.5 24.5t118 -24.5t96 -65.5q41 -42 65 -97.5t24 -118.5z" />
    <glyph glyph-name="uni246E" unicode="&#x246e;" horiz-adv-x="770" 
d="M297 66v460h-71q0 -18 -9.5 -33.5t-20.5 -23.5q-15 -10 -32 -15t-39 -5v-74h89v-309h83zM617 218q0 66 -32.5 100t-67.5 46q-25 8 -54.5 4.5t-48.5 -13.5l14 87h163v80h-232l-35 -245h85q9 11 23.5 16t32.5 5q28 0 46.5 -24t15.5 -58q-3 -33 -20.5 -54t-44.5 -21t-44 16
t-21 43h-83q2 -25 13.5 -50.5t30.5 -45.5q20 -21 47 -33.5t61 -12.5q27 0 53.5 11t48.5 32t35.5 50.5t13.5 66.5zM748 300q0 75 -29 141t-78 115t-115 78t-141 29t-141.5 -29t-115.5 -78t-77.5 -115t-28.5 -141t28.5 -141.5t77.5 -115.5t115.5 -77.5t141.5 -28.5t141 28.5
t115 77.5t78 115.5t29 141.5zM688 300q0 -64 -24 -119.5t-65 -97.5q-41 -41 -96 -65t-118 -24t-118.5 24t-96.5 65q-41 42 -64.5 97.5t-23.5 119.5q0 63 23.5 118.5t64.5 97.5q41 41 96.5 65.5t118.5 24.5t118 -24.5t96 -65.5q41 -42 65 -97.5t24 -118.5z" />
    <glyph glyph-name="uni2474" unicode="&#x2474;" horiz-adv-x="770" 
d="M443 60v483h-78q0 -20 -9.5 -36t-21.5 -25q-17 -11 -38 -16.5t-44 -5.5v-78h101v-322h90zM757 300q0 58 -11.5 107t-29.5 89q-17 39 -37.5 69.5t-38.5 52.5h-56q55 -73 77 -155t22 -163q0 -84 -22.5 -164t-76.5 -154h56q18 20 38.5 50t37.5 70t29 89t12 109zM186 -18
q-55 74 -77 154t-22 164q0 81 21.5 163t77.5 155h-56q-19 -22 -39.5 -52.5t-37.5 -69.5q-18 -40 -29 -89t-11 -107q0 -60 11.5 -109t28.5 -89t38 -70t39 -50h56z" />
    <glyph glyph-name="uni2475" unicode="&#x2475;" horiz-adv-x="770" 
d="M551 57v78h-225q5 14 16.5 30.5t29.5 30.5l90 70q14 12 29.5 25t27.5 29q13 17 21.5 38.5t8.5 50.5q0 28 -10.5 55t-30.5 48t-49 34t-67 13q-40 0 -71 -14.5t-52 -37.5q-21 -24 -31.5 -54t-8.5 -61h89q-2 37 17 63t56 26q34 0 52 -23t17 -50q-3 -30 -20.5 -48.5
t-35.5 -32.5l-80 -62q-66 -52 -84.5 -103.5t-18.5 -104.5h330zM757 300q0 58 -11.5 107t-29.5 89q-17 39 -37.5 69.5t-38.5 52.5h-56q55 -73 77 -155t22 -163q0 -84 -22.5 -164t-76.5 -154h56q18 20 38.5 50t37.5 70t29 89t12 109zM186 -18q-55 74 -77 154t-22 164
q0 81 21.5 163t77.5 155h-56q-19 -22 -39.5 -52.5t-37.5 -69.5q-18 -40 -29 -89t-11 -107q0 -60 11.5 -109t28.5 -89t38 -70t39 -50h56z" />
    <glyph glyph-name="uni2476" unicode="&#x2476;" horiz-adv-x="770" 
d="M554 196q0 37 -22 68t-52 45q19 11 39 37.5t20 69.5q0 27 -11.5 52t-32.5 43q-20 19 -49 30.5t-63 11.5t-63 -11.5t-50 -31.5t-33 -47.5t-10 -58.5h89q-3 29 14 50.5t53 21.5q37 0 52.5 -21t14.5 -42q-3 -19 -11.5 -32t-20.5 -19q-14 -8 -32 -10.5t-39 -2.5v-83h16.5
t16.5 -1q8 0 16.5 -1t17.5 -2q24 -8 37.5 -26.5t12.5 -39.5q-3 -29 -24 -47.5t-57 -18.5q-37 0 -59 20.5t-19 56.5h-90q-2 -37 11 -67t36 -51t54.5 -32t67.5 -11t67 11.5t54 31.5q22 20 35.5 47.5t13.5 59.5zM757 300q0 58 -11.5 107t-29.5 89q-17 39 -37.5 69.5t-38.5 52.5
h-56q55 -73 77 -155t22 -163q0 -84 -22.5 -164t-76.5 -154h56q18 20 38.5 50t37.5 70t29 89t12 109zM186 -18q-55 74 -77 154t-22 164q0 81 21.5 163t77.5 155h-56q-19 -22 -39.5 -52.5t-37.5 -69.5q-18 -40 -29 -89t-11 -107q0 -60 11.5 -109t28.5 -89t38 -70t39 -50h56z
" />
    <glyph glyph-name="uni2477" unicode="&#x2477;" horiz-adv-x="770" 
d="M567 123v83h-60v334l-88 -1l-213 -323v-93h211v-66h90v66h60zM417 206h-117l117 181v-181zM757 300q0 58 -11.5 107t-29.5 89q-17 39 -37.5 69.5t-38.5 52.5h-56q55 -73 77 -155t22 -163q0 -84 -22.5 -164t-76.5 -154h56q18 20 38.5 50t37.5 70t29 89t12 109zM186 -18
q-55 74 -77 154t-22 164q0 81 21.5 163t77.5 155h-56q-19 -22 -39.5 -52.5t-37.5 -69.5q-18 -40 -29 -89t-11 -107q0 -60 11.5 -109t28.5 -89t38 -70t39 -50h56z" />
    <glyph glyph-name="uni2478" unicode="&#x2478;" horiz-adv-x="770" 
d="M552 218q0 36 -10 62.5t-26 44.5q-16 19 -35 30.5t-38 17.5q-28 9 -62 5t-56 -16l16 92h191v84h-267l-38 -258l93 1q9 12 27 19t40 7q34 0 56 -25t19 -66q-4 -38 -25.5 -61t-53.5 -23q-33 0 -53 18t-24 48h-90q2 -27 14.5 -54t34.5 -48q22 -22 52 -35t67 -13
q30 0 60 11.5t54 33.5t39 53.5t15 71.5zM757 300q0 58 -11.5 107t-29.5 89q-17 39 -37.5 69.5t-38.5 52.5h-56q55 -73 77 -155t22 -163q0 -84 -22.5 -164t-76.5 -154h56q18 20 38.5 50t37.5 70t29 89t12 109zM186 -18q-55 74 -77 154t-22 164q0 81 21.5 163t77.5 155h-56
q-19 -22 -39.5 -52.5t-37.5 -69.5q-18 -40 -29 -89t-11 -107q0 -60 11.5 -109t28.5 -89t38 -70t39 -50h56z" />
    <glyph glyph-name="uni2479" unicode="&#x2479;" horiz-adv-x="770" 
d="M560 215q0 34 -11.5 64.5t-32.5 52.5q-20 23 -48 36t-61 13q-40 0 -64.5 -12t-39.5 -27q0 14 2 32t11 42q9 23 27 42t54 19t53.5 -21t23.5 -45h83q-3 28 -16 54t-34 46t-49 32t-60 12q-62 0 -103.5 -33.5t-62.5 -89.5q-10 -26 -15.5 -59t-6.5 -67q-1 -35 2.5 -68
t12.5 -58q18 -57 60 -95t110 -38q35 0 65.5 13t52.5 35q22 23 34.5 53.5t12.5 66.5zM468 215q0 -39 -21.5 -61.5t-56.5 -22.5t-56 22.5t-21 61.5q0 37 21 60t56 23t56.5 -23t21.5 -60zM757 300q0 58 -11.5 107t-29.5 89q-17 39 -37.5 69.5t-38.5 52.5h-56q55 -73 77 -155
t22 -163q0 -84 -22.5 -164t-76.5 -154h56q18 20 38.5 50t37.5 70t29 89t12 109zM186 -18q-55 74 -77 154t-22 164q0 81 21.5 163t77.5 155h-56q-19 -22 -39.5 -52.5t-37.5 -69.5q-18 -40 -29 -89t-11 -107q0 -60 11.5 -109t28.5 -89t38 -70t39 -50h56z" />
    <glyph glyph-name="uni247A" unicode="&#x247a;" horiz-adv-x="770" 
d="M557 534h-328v-90h242q-8 -10 -21 -26t-28 -38t-31.5 -48t-30.5 -55q-33 -67 -47.5 -124t-16.5 -91h100q0 39 15.5 103t45.5 127q27 62 55 99.5t44 54.5zM757 300q0 58 -11.5 107t-29.5 89q-17 39 -37.5 69.5t-38.5 52.5h-56q55 -73 77 -155t22 -163q0 -84 -22.5 -164
t-76.5 -154h56q18 20 38.5 50t37.5 70t29 89t12 109zM186 -18q-55 74 -77 154t-22 164q0 81 21.5 163t77.5 155h-56q-19 -22 -39.5 -52.5t-37.5 -69.5q-18 -40 -29 -89t-11 -107q0 -60 11.5 -109t28.5 -89t38 -70t39 -50h56z" />
    <glyph glyph-name="uni247B" unicode="&#x247b;" horiz-adv-x="770" 
d="M564 193q0 36 -21 68.5t-55 53.5q27 18 43.5 45t16.5 59q0 28 -13 52.5t-35 42.5t-52 29t-63 11q-34 0 -64 -11t-52 -29t-34.5 -42.5t-12.5 -52.5q0 -32 16.5 -59t43.5 -45q-35 -21 -55.5 -53.5t-20.5 -68.5q0 -31 14 -58t38 -48q24 -20 56.5 -31.5t70.5 -11.5
q37 0 69.5 11.5t56.5 31.5q24 21 38.5 48t14.5 58zM457 412q0 -24 -18 -40.5t-54 -16.5q-37 0 -54.5 16.5t-17.5 40.5q0 23 17.5 40t54.5 17q36 0 54 -17t18 -40zM472 197q0 -29 -23 -48t-64 -19q-42 0 -64.5 19t-22.5 48t22.5 49.5t64.5 20.5q41 0 64 -20.5t23 -49.5z
M757 300q0 58 -11.5 107t-29.5 89q-17 39 -37.5 69.5t-38.5 52.5h-56q55 -73 77 -155t22 -163q0 -84 -22.5 -164t-76.5 -154h56q18 20 38.5 50t37.5 70t29 89t12 109zM186 -18q-55 74 -77 154t-22 164q0 81 21.5 163t77.5 155h-56q-19 -22 -39.5 -52.5t-37.5 -69.5
q-18 -40 -29 -89t-11 -107q0 -60 11.5 -109t28.5 -89t38 -70t39 -50h56z" />
    <glyph glyph-name="uni247C" unicode="&#x247c;" horiz-adv-x="770" 
d="M547 419q-18 57 -60.5 95.5t-109.5 38.5q-36 0 -66 -13.5t-51 -35.5q-22 -23 -34.5 -53.5t-13.5 -65.5q-3 -75 41 -121t111 -46q35 -1 62.5 11.5t42.5 27.5q0 -15 -2 -32.5t-10 -39.5q-9 -24 -28 -43t-55 -19t-54 20.5t-23 44.5h-83q2 -28 15.5 -54t35.5 -46
q21 -20 50 -31.5t62 -11.5q60 0 101 33t63 90q9 25 14 58t6 67q1 35 -3 67.5t-11 58.5zM459 385q0 -38 -22 -60.5t-56 -22.5q-35 0 -56.5 22.5t-21.5 60.5t21.5 61t56.5 23q34 0 56 -23t22 -61zM757 300q0 58 -11.5 107t-29.5 89q-17 39 -37.5 69.5t-38.5 52.5h-56
q55 -73 77 -155t22 -163q0 -84 -22.5 -164t-76.5 -154h56q18 20 38.5 50t37.5 70t29 89t12 109zM186 -18q-55 74 -77 154t-22 164q0 81 21.5 163t77.5 155h-56q-19 -22 -39.5 -52.5t-37.5 -69.5q-18 -40 -29 -89t-11 -107q0 -60 11.5 -109t28.5 -89t38 -70t39 -50h56z" />
    <glyph glyph-name="uni247D" unicode="&#x247d;" horiz-adv-x="770" 
d="M654 302q0 108 -43 176t-124 68q-82 0 -125 -68t-43 -176t43 -176t125 -68q81 0 124 68t43 176zM304 70v464h-75q0 -19 -9 -34.5t-21 -23.5q-15 -11 -35.5 -16.5t-42.5 -5.5v-75h97v-309h86zM564 302q0 -71 -20 -116t-57 -45q-38 0 -58 45t-20 116q0 70 19.5 116.5
t58.5 46.5q37 0 57 -46.5t20 -116.5zM757 300q0 58 -11.5 107t-29.5 89q-17 39 -37.5 69.5t-38.5 52.5h-56q55 -73 77 -155t22 -163q0 -84 -22.5 -164t-76.5 -154h56q18 20 38.5 50t37.5 70t29 89t12 109zM186 -18q-55 74 -77 154t-22 164q0 81 21.5 163t77.5 155h-56
q-19 -22 -39.5 -52.5t-37.5 -69.5q-18 -40 -29 -89t-11 -107q0 -60 11.5 -109t28.5 -89t38 -70t39 -50h56z" />
    <glyph glyph-name="uni247E" unicode="&#x247e;" horiz-adv-x="770" 
d="M561 70v464h-74q0 -19 -9.5 -34.5t-20.5 -23.5q-16 -11 -36.5 -16.5t-42.5 -5.5v-75h97v-309h86zM336 70v464h-74q0 -19 -9.5 -34.5t-20.5 -23.5q-16 -11 -36.5 -16.5t-42.5 -5.5v-75h97v-309h86zM757 300q0 58 -11.5 107t-29.5 89q-17 39 -37.5 69.5t-38.5 52.5h-56
q55 -73 77 -155t22 -163q0 -84 -22.5 -164t-76.5 -154h56q18 20 38.5 50t37.5 70t29 89t12 109zM186 -18q-55 74 -77 154t-22 164q0 81 21.5 163t77.5 155h-56q-19 -22 -39.5 -52.5t-37.5 -69.5q-18 -40 -29 -89t-11 -107q0 -60 11.5 -109t28.5 -89t38 -70t39 -50h56z" />
    <glyph glyph-name="uni247F" unicode="&#x247f;" horiz-adv-x="770" 
d="M621 77v73h-188q2 10 12.5 26t21.5 25l75 67q9 8 22 20.5t26 30.5q13 17 22 39t9 49t-9 52t-27 45t-44.5 32t-62.5 12q-41 0 -69 -14t-45 -36q-18 -22 -25.5 -50.5t-5.5 -57.5h87q-3 33 12 55.5t45 22.5q27 0 39.5 -20t10.5 -43q-1 -25 -16 -43.5t-27 -27.5l-67 -62
q-38 -34 -65 -83.5t-27 -111.5h296zM304 76v464h-75q0 -19 -9 -34.5t-21 -23.5q-15 -11 -35.5 -16.5t-42.5 -5.5v-75h97v-309h86zM757 300q0 58 -11.5 107t-29.5 89q-17 39 -37.5 69.5t-38.5 52.5h-56q55 -73 77 -155t22 -163q0 -84 -22.5 -164t-76.5 -154h56q18 20 38.5 50
t37.5 70t29 89t12 109zM186 -18q-55 74 -77 154t-22 164q0 81 21.5 163t77.5 155h-56q-19 -22 -39.5 -52.5t-37.5 -69.5q-18 -40 -29 -89t-11 -107q0 -60 11.5 -109t28.5 -89t38 -70t39 -50h56z" />
    <glyph glyph-name="uni2480" unicode="&#x2480;" horiz-adv-x="770" 
d="M651 202q0 36 -20 65t-49 43q18 10 37 35t19 67q0 25 -11 48.5t-31 41.5q-19 18 -46.5 29t-60.5 11q-32 0 -59.5 -11t-47.5 -31q-21 -19 -32 -45t-9 -56h89q-3 27 12.5 46t47.5 19q33 0 47 -19t13 -37q-3 -18 -10 -29.5t-19 -16.5q-12 -7 -28.5 -9.5t-35.5 -2.5v-85h14.5
h15.5q7 -1 14.5 -1.5t15.5 -1.5q21 -7 33.5 -23.5t11.5 -35.5q-3 -27 -21.5 -43t-50.5 -16q-33 0 -53 18.5t-17 52.5l-90 -2q-2 -35 10 -63.5t34 -48.5t52 -30.5t64 -10.5q69 0 115 41t46 101zM306 68v465h-75q0 -20 -9.5 -35t-20.5 -24q-16 -11 -36.5 -16.5t-42.5 -5.5v-74
h97v-310h87zM757 300q0 58 -11.5 107t-29.5 89q-17 39 -37.5 69.5t-38.5 52.5h-56q55 -73 77 -155t22 -163q0 -84 -22.5 -164t-76.5 -154h56q18 20 38.5 50t37.5 70t29 89t12 109zM186 -18q-55 74 -77 154t-22 164q0 81 21.5 163t77.5 155h-56q-19 -22 -39.5 -52.5
t-37.5 -69.5q-18 -40 -29 -89t-11 -107q0 -60 11.5 -109t28.5 -89t38 -70t39 -50h56z" />
    <glyph glyph-name="uni2481" unicode="&#x2481;" horiz-adv-x="770" 
d="M655 134v79h-55v318l-83 -1l-202 -307v-89h200v-67h85v67h55zM296 67v464h-75q0 -19 -9.5 -34.5t-20.5 -24.5q-16 -10 -36.5 -15.5t-42.5 -5.5v-75h97v-309h87zM515 213h-112l112 172v-172zM757 300q0 58 -11.5 107t-29.5 89q-17 39 -37.5 69.5t-38.5 52.5h-56
q55 -73 77 -155t22 -163q0 -84 -22.5 -164t-76.5 -154h56q18 20 38.5 50t37.5 70t29 89t12 109zM186 -18q-55 74 -77 154t-22 164q0 81 21.5 163t77.5 155h-56q-19 -22 -39.5 -52.5t-37.5 -69.5q-18 -40 -29 -89t-11 -107q0 -60 11.5 -109t28.5 -89t38 -70t39 -50h56z" />
    <glyph glyph-name="uni2482" unicode="&#x2482;" horiz-adv-x="770" 
d="M300 64v464h-74q0 -19 -9.5 -34.5t-20.5 -24.5q-16 -10 -36.5 -15.5t-42.5 -5.5v-75h97v-309h86zM642 212q0 34 -9.5 59t-24.5 43q-15 17 -33.5 28t-36.5 17q-27 9 -58.5 4.5t-52.5 -14.5l16 96h180v80h-254l-36 -254h89q9 10 24.5 15.5t35.5 5.5q30 0 50 -22.5t17 -58.5
q-3 -35 -22.5 -55.5t-47.5 -20.5q-30 0 -48 15t-23 42h-85q1 -26 13 -51t33 -45t49.5 -32.5t64.5 -12.5q28 0 56.5 10.5t51.5 31.5q22 21 36.5 51t14.5 68zM757 300q0 58 -11.5 107t-29.5 89q-17 39 -37.5 69.5t-38.5 52.5h-56q55 -73 77 -155t22 -163q0 -84 -22.5 -164
t-76.5 -154h56q18 20 38.5 50t37.5 70t29 89t12 109zM186 -18q-55 74 -77 154t-22 164q0 81 21.5 163t77.5 155h-56q-19 -22 -39.5 -52.5t-37.5 -69.5q-18 -40 -29 -89t-11 -107q0 -60 11.5 -109t28.5 -89t38 -70t39 -50h56z" />
    <glyph glyph-name="uni249C" unicode="&#x249c;" horiz-adv-x="770" 
d="M575 116q-1 1 -8 20t-7 42v197q0 53 -47 85.5t-115 32.5q-36 0 -67 -11t-53 -29q-22 -19 -33.5 -44.5t-8.5 -55.5h90q-3 27 17.5 43t52.5 16q34 0 52.5 -9.5t18.5 -24.5q0 -10 -5 -15.5t-12 -9.5t-15.5 -6t-15.5 -3q-10 -3 -22.5 -5t-27.5 -4q-14 -3 -30 -6t-32 -7
q-41 -14 -68.5 -47t-20.5 -83q6 -51 45 -72t90 -15q33 3 65 17t49 29q2 -11 5 -20t8 -14zM467 269q0 -24 -26.5 -42t-50.5 -27q-21 -7 -47 -7.5t-29 11.5q-6 13 3.5 23t25.5 16q7 3 17.5 5.5t22.5 4.5q12 3 24 5t23 5q4 1 9 3l10 4q5 1 9.5 3t8.5 5v-9zM757 300
q0 58 -11.5 107t-29.5 89q-17 39 -37.5 69.5t-38.5 52.5h-56q55 -73 77 -155t22 -163q0 -84 -22.5 -164t-76.5 -154h56q18 20 38.5 50t37.5 70t29 89t12 109zM186 -18q-55 74 -77 154t-22 164q0 81 21.5 163t77.5 155h-56q-19 -22 -39.5 -52.5t-37.5 -69.5q-18 -40 -29 -89
t-11 -107q0 -60 11.5 -109t28.5 -89t38 -70t39 -50h56z" />
    <glyph glyph-name="uni249D" unicode="&#x249d;" horiz-adv-x="770" 
d="M581 231q0 84 -44.5 139.5t-117.5 55.5q-32 0 -59.5 -11.5t-47.5 -32.5v167h-94v-501h94v32q20 -21 47.5 -32.5t59.5 -11.5q73 0 117.5 55t44.5 140zM486 231q0 -49 -23 -81t-63 -32t-64 32t-24 81t24 81t64 32t63 -32t23 -81zM757 300q0 58 -11.5 107t-29.5 89
q-17 39 -37.5 69.5t-38.5 52.5h-56q55 -73 77 -155t22 -163q0 -84 -22.5 -164t-76.5 -154h56q18 20 38.5 50t37.5 70t29 89t12 109zM186 -18q-55 74 -77 154t-22 164q0 81 21.5 163t77.5 155h-56q-19 -22 -39.5 -52.5t-37.5 -69.5q-18 -40 -29 -89t-11 -107q0 -60 11.5 -109
t28.5 -89t38 -70t39 -50h56z" />
    <glyph glyph-name="uni249E" unicode="&#x249e;" horiz-adv-x="770" 
d="M564 238h-100q-6 -15 -23.5 -32t-47.5 -17q-42 0 -65 32t-23 77t22.5 78t65.5 33q33 0 50 -18t21 -32h100q-5 22 -19 45.5t-36 43.5t-52 33t-66 13q-42 0 -75 -16t-57 -42q-23 -27 -35 -62.5t-12 -75.5q0 -41 12 -76.5t35 -61.5q24 -27 57 -42t75 -15q36 0 65.5 11.5
t50.5 30.5q22 19 36.5 43t20.5 50zM757 300q0 58 -11.5 107t-29.5 89q-17 39 -37.5 69.5t-38.5 52.5h-56q55 -73 77 -155t22 -163q0 -84 -22.5 -164t-76.5 -154h56q18 20 38.5 50t37.5 70t29 89t12 109zM186 -18q-55 74 -77 154t-22 164q0 81 21.5 163t77.5 155h-56
q-19 -22 -39.5 -52.5t-37.5 -69.5q-18 -40 -29 -89t-11 -107q0 -60 11.5 -109t28.5 -89t38 -70t39 -50h56z" />
    <glyph glyph-name="uni249F" unicode="&#x249f;" horiz-adv-x="770" 
d="M553 51v502h-94v-165q-20 19 -46.5 30t-59.5 11q-75 0 -119 -55.5t-44 -139.5q0 -85 44 -140t119 -55q33 0 59.5 10.5t46.5 31.5v-30h94zM459 234q0 -49 -21 -81t-65 -32t-65 32t-21 81t21 81t65 32t65 -32t21 -81zM757 300q0 58 -11.5 107t-29.5 89q-17 39 -37.5 69.5
t-38.5 52.5h-56q55 -73 77 -155t22 -163q0 -84 -22.5 -164t-76.5 -154h56q18 20 38.5 50t37.5 70t29 89t12 109zM186 -18q-55 74 -77 154t-22 164q0 81 21.5 163t77.5 155h-56q-19 -22 -39.5 -52.5t-37.5 -69.5q-18 -40 -29 -89t-11 -107q0 -60 11.5 -109t28.5 -89t38 -70
t39 -50h56z" />
    <glyph glyph-name="uni24A0" unicode="&#x24a0;" horiz-adv-x="770" 
d="M563 264q4 58 -10 101.5t-39 72.5q-26 28 -59.5 42.5t-69.5 14.5q-41 0 -74.5 -15.5t-56.5 -42.5q-24 -27 -36.5 -63t-12.5 -76q0 -41 13 -76.5t37 -61.5q24 -27 57.5 -42t74.5 -15q37 0 65 10.5t48 27.5q19 17 31.5 38t20.5 42h-103q-6 -8 -22 -19.5t-41 -11.5
q-20 0 -35.5 7.5t-25.5 19.5q-11 11 -16.5 24t-5.5 23h260zM463 344h-157q6 25 26 44.5t54 19.5q30 0 49.5 -20.5t27.5 -43.5zM757 300q0 58 -11.5 107t-29.5 89q-17 39 -37.5 69.5t-38.5 52.5h-56q55 -73 77 -155t22 -163q0 -84 -22.5 -164t-76.5 -154h56q18 20 38.5 50
t37.5 70t29 89t12 109zM186 -18q-55 74 -77 154t-22 164q0 81 21.5 163t77.5 155h-56q-19 -22 -39.5 -52.5t-37.5 -69.5q-18 -40 -29 -89t-11 -107q0 -60 11.5 -109t28.5 -89t38 -70t39 -50h56z" />
    <glyph glyph-name="uni24A1" unicode="&#x24a1;" horiz-adv-x="770" 
d="M476 330v80h-49v22q0 12 1 18.5t9 11.5q3 1 6.5 2t8.5 1q4 1 10 1h14v80h-49q-23 0 -40 -7t-28 -17q-14 -14 -20 -30.5t-6 -40.5v-41h-43v-80h43v-278h94v278h49zM757 300q0 58 -11.5 107t-29.5 89q-17 39 -37.5 69.5t-38.5 52.5h-56q55 -73 77 -155t22 -163
q0 -84 -22.5 -164t-76.5 -154h56q18 20 38.5 50t37.5 70t29 89t12 109zM186 -18q-55 74 -77 154t-22 164q0 81 21.5 163t77.5 155h-56q-19 -22 -39.5 -52.5t-37.5 -69.5q-18 -40 -29 -89t-11 -107q0 -60 11.5 -109t28.5 -89t38 -70t39 -50h56z" />
    <glyph glyph-name="uni24A2" unicode="&#x24a2;" horiz-adv-x="770" 
d="M560 211v327h-93v-26q-21 18 -48.5 28t-59.5 10q-73 0 -117 -50t-44 -126q0 -77 44 -126.5t117 -49.5q32 0 59.5 9.5t48.5 29.5v-33q0 -36 -24 -52.5t-60 -16.5q-32 0 -55.5 13t-23.5 34h-95q3 -51 48.5 -89t125.5 -38q30 0 61 7t57 25t42.5 48t16.5 76zM467 374
q0 -42 -24 -68t-64 -26q-41 0 -63.5 26t-22.5 68t22.5 68.5t63.5 26.5q40 0 64 -26.5t24 -68.5zM757 300q0 58 -11.5 107t-29.5 89q-17 39 -37.5 69.5t-38.5 52.5h-56q55 -73 77 -155t22 -163q0 -84 -22.5 -164t-76.5 -154h56q18 20 38.5 50t37.5 70t29 89t12 109zM186 -18
q-55 74 -77 154t-22 164q0 81 21.5 163t77.5 155h-56q-19 -22 -39.5 -52.5t-37.5 -69.5q-18 -40 -29 -89t-11 -107q0 -60 11.5 -109t28.5 -89t38 -70t39 -50h56z" />
    <glyph glyph-name="uni24A3" unicode="&#x24a3;" horiz-adv-x="770" 
d="M551 49v251q0 19 -7 40.5t-21 39.5t-34.5 30.5t-48.5 15.5q-40 3 -69.5 -9.5t-47.5 -30.5v164h-93v-501h93v201q0 39 20 62.5t54 23.5q32 0 47 -19.5t15 -58.5v-209h92zM757 300q0 58 -11.5 107t-29.5 89q-17 39 -37.5 69.5t-38.5 52.5h-56q55 -73 77 -155t22 -163
q0 -84 -22.5 -164t-76.5 -154h56q18 20 38.5 50t37.5 70t29 89t12 109zM186 -18q-55 74 -77 154t-22 164q0 81 21.5 163t77.5 155h-56q-19 -22 -39.5 -52.5t-37.5 -69.5q-18 -40 -29 -89t-11 -107q0 -60 11.5 -109t28.5 -89t38 -70t39 -50h56z" />
    <glyph glyph-name="uni24A4" unicode="&#x24a4;" horiz-adv-x="770" 
d="M432 456v93h-93v-93h93zM432 48v365h-93v-365h93zM757 300q0 58 -11.5 107t-29.5 89q-17 39 -37.5 69.5t-38.5 52.5h-56q55 -73 77 -155t22 -163q0 -84 -22.5 -164t-76.5 -154h56q18 20 38.5 50t37.5 70t29 89t12 109zM186 -18q-55 74 -77 154t-22 164q0 81 21.5 163
t77.5 155h-56q-19 -22 -39.5 -52.5t-37.5 -69.5q-18 -40 -29 -89t-11 -107q0 -60 11.5 -109t28.5 -89t38 -70t39 -50h56z" />
    <glyph glyph-name="uni24A5" unicode="&#x24a5;" horiz-adv-x="770" 
d="M445 514v93h-94v-93h94zM445 94v362h-94v-345q0 -12 -2 -18.5t-9 -11.5q-3 -3 -6 -4t-8 -1q-4 -1 -10 -0.5t-14 0.5v-81h49q21 0 38 6.5t30 18.5q12 12 19 30.5t7 43.5zM757 300q0 58 -11.5 107t-29.5 89q-17 39 -37.5 69.5t-38.5 52.5h-56q55 -73 77 -155t22 -163
q0 -84 -22.5 -164t-76.5 -154h56q18 20 38.5 50t37.5 70t29 89t12 109zM186 -18q-55 74 -77 154t-22 164q0 81 21.5 163t77.5 155h-56q-19 -22 -39.5 -52.5t-37.5 -69.5q-18 -40 -29 -89t-11 -107q0 -60 11.5 -109t28.5 -89t38 -70t39 -50h56z" />
    <glyph glyph-name="uni24A6" unicode="&#x24a6;" horiz-adv-x="770" 
d="M569 51l-162 224l140 141h-117l-114 -114v250h-93v-501h93v134l27 26l118 -159zM757 300q0 58 -11.5 107t-29.5 89q-17 39 -37.5 69.5t-38.5 52.5h-56q55 -73 77 -155t22 -163q0 -84 -22.5 -164t-76.5 -154h56q18 20 38.5 50t37.5 70t29 89t12 109zM186 -18
q-55 74 -77 154t-22 164q0 81 21.5 163t77.5 155h-56q-19 -22 -39.5 -52.5t-37.5 -69.5q-18 -40 -29 -89t-11 -107q0 -60 11.5 -109t28.5 -89t38 -70t39 -50h56z" />
    <glyph glyph-name="uni24A7" unicode="&#x24a7;" horiz-adv-x="770" 
d="M431 50v500h-93v-500h93zM757 300q0 58 -11.5 107t-29.5 89q-17 39 -37.5 69.5t-38.5 52.5h-56q55 -73 77 -155t22 -163q0 -84 -22.5 -164t-76.5 -154h56q18 20 38.5 50t37.5 70t29 89t12 109zM186 -18q-55 74 -77 154t-22 164q0 81 21.5 163t77.5 155h-56
q-19 -22 -39.5 -52.5t-37.5 -69.5q-18 -40 -29 -89t-11 -107q0 -60 11.5 -109t28.5 -89t38 -70t39 -50h56z" />
    <glyph glyph-name="uni24A8" unicode="&#x24a8;" horiz-adv-x="770" 
d="M623 111v252q0 46 -23.5 83t-73.5 42q-54 4 -78 -13t-36 -31q-11 19 -31.5 32t-50.5 13q-35 0 -57 -14.5t-34 -28.5v30h-93v-365h93v209q0 39 14.5 59.5t41.5 22.5q27 0 35.5 -22.5t8.5 -52.5v-216h92v209q0 39 14 59.5t42 22.5q27 0 35 -22.5t8 -52.5v-216h93zM757 300
q0 58 -11.5 107t-29.5 89q-17 39 -37.5 69.5t-38.5 52.5h-56q55 -73 77 -155t22 -163q0 -84 -22.5 -164t-76.5 -154h56q18 20 38.5 50t37.5 70t29 89t12 109zM186 -18q-55 74 -77 154t-22 164q0 81 21.5 163t77.5 155h-56q-19 -22 -39.5 -52.5t-37.5 -69.5q-18 -40 -29 -89
t-11 -107q0 -60 11.5 -109t28.5 -89t38 -70t39 -50h56z" />
    <glyph glyph-name="uni24A9" unicode="&#x24a9;" horiz-adv-x="770" 
d="M544 108v249q0 20 -7 41.5t-21 39.5t-34.5 31t-48.5 16q-40 3 -69.5 -10t-47.5 -30v27h-93v-364h93v200q0 40 20 63.5t54 23.5q32 0 47 -20.5t15 -59.5v-207h92zM757 300q0 58 -11.5 107t-29.5 89q-17 39 -37.5 69.5t-38.5 52.5h-56q55 -73 77 -155t22 -163
q0 -84 -22.5 -164t-76.5 -154h56q18 20 38.5 50t37.5 70t29 89t12 109zM186 -18q-55 74 -77 154t-22 164q0 81 21.5 163t77.5 155h-56q-19 -22 -39.5 -52.5t-37.5 -69.5q-18 -40 -29 -89t-11 -107q0 -60 11.5 -109t28.5 -89t38 -70t39 -50h56z" />
    <glyph glyph-name="uni24AA" unicode="&#x24aa;" horiz-adv-x="770" 
d="M566 298q0 40 -13 76t-36 63q-23 26 -56.5 42t-74.5 16q-42 0 -75.5 -16t-56.5 -42q-23 -27 -35.5 -63t-12.5 -76q0 -41 12.5 -76.5t35.5 -61.5q23 -27 56.5 -42t75.5 -15q41 0 74.5 15t56.5 42q23 26 36 61.5t13 76.5zM470 298q0 -45 -22.5 -77.5t-61.5 -32.5
q-40 0 -62.5 32.5t-22.5 77.5t22.5 77.5t62.5 32.5q39 0 61.5 -32.5t22.5 -77.5zM757 300q0 58 -11.5 107t-29.5 89q-17 39 -37.5 69.5t-38.5 52.5h-56q55 -73 77 -155t22 -163q0 -84 -22.5 -164t-76.5 -154h56q18 20 38.5 50t37.5 70t29 89t12 109zM186 -18q-55 74 -77 154
t-22 164q0 81 21.5 163t77.5 155h-56q-19 -22 -39.5 -52.5t-37.5 -69.5q-18 -40 -29 -89t-11 -107q0 -60 11.5 -109t28.5 -89t38 -70t39 -50h56z" />
    <glyph glyph-name="uni24AB" unicode="&#x24ab;" horiz-adv-x="770" 
d="M586 356q0 85 -44.5 140t-117.5 55q-33 0 -60 -11.5t-48 -31.5v30h-93v-477h93v144q21 -23 48 -34t60 -11q73 0 117.5 55.5t44.5 140.5zM490 356q0 -50 -22.5 -81t-62.5 -31t-64.5 31t-24.5 81q0 48 24.5 80.5t64.5 32.5t62.5 -32.5t22.5 -80.5zM757 300q0 58 -11.5 107
t-29.5 89q-17 39 -37.5 69.5t-38.5 52.5h-56q55 -73 77 -155t22 -163q0 -84 -22.5 -164t-76.5 -154h56q18 20 38.5 50t37.5 70t29 89t12 109zM186 -18q-55 74 -77 154t-22 164q0 81 21.5 163t77.5 155h-56q-19 -22 -39.5 -52.5t-37.5 -69.5q-18 -40 -29 -89t-11 -107
q0 -60 11.5 -109t28.5 -89t38 -70t39 -50h56z" />
    <glyph glyph-name="uni24AC" unicode="&#x24ac;" horiz-adv-x="770" 
d="M544 62v477h-94v-31q-21 21 -48.5 32.5t-58.5 11.5q-74 0 -118 -55.5t-44 -140.5t44 -140t118 -55q31 0 58.5 11.5t48.5 32.5v-143h94zM450 356q0 -48 -24.5 -80t-63.5 -32q-42 0 -64 32t-22 80q0 49 22 81t64 32q39 0 63.5 -32t24.5 -81zM757 300q0 58 -11.5 107
t-29.5 89q-17 39 -37.5 69.5t-38.5 52.5h-56q55 -73 77 -155t22 -163q0 -84 -22.5 -164t-76.5 -154h56q18 20 38.5 50t37.5 70t29 89t12 109zM186 -18q-55 74 -77 154t-22 164q0 81 21.5 163t77.5 155h-56q-19 -22 -39.5 -52.5t-37.5 -69.5q-18 -40 -29 -89t-11 -107
q0 -60 11.5 -109t28.5 -89t38 -70t39 -50h56z" />
    <glyph glyph-name="uni24AD" unicode="&#x24ad;" horiz-adv-x="770" 
d="M503 402v92q-2 0 -22 -3.5t-38 -9.5q-20 -9 -32.5 -19t-21.5 -22v42h-93v-365h93v172q0 34 11 56t33 38q15 11 33.5 15t36.5 4zM757 300q0 58 -11.5 107t-29.5 89q-17 39 -37.5 69.5t-38.5 52.5h-56q55 -73 77 -155t22 -163q0 -84 -22.5 -164t-76.5 -154h56
q18 20 38.5 50t37.5 70t29 89t12 109zM186 -18q-55 74 -77 154t-22 164q0 81 21.5 163t77.5 155h-56q-19 -22 -39.5 -52.5t-37.5 -69.5q-18 -40 -29 -89t-11 -107q0 -60 11.5 -109t28.5 -89t38 -70t39 -50h56z" />
    <glyph glyph-name="uni24AE" unicode="&#x24ae;" horiz-adv-x="770" 
d="M543 220q1 34 -18.5 58t-44.5 37q-14 6 -30 11t-32 9q-16 5 -30.5 8.5t-24.5 6.5q-20 6 -28 14t-5 21q2 15 16.5 21.5t41.5 6.5q24 0 40.5 -12t16.5 -28h87q1 45 -39 82.5t-110 37.5q-33 0 -59.5 -10t-44.5 -25q-19 -16 -29 -35t-11 -38q-3 -36 14 -61t57 -40
q11 -5 25 -9t29 -8l30 -8t28 -9q12 -6 20 -14.5t8 -17.5q-2 -12 -17 -22.5t-46 -10.5q-34 0 -52 16.5t-19 36.5h-88q0 -18 8.5 -41t27.5 -44t50 -35t77 -14q29 -1 56 8t48 25q20 16 33 37.5t15 45.5zM757 300q0 58 -11.5 107t-29.5 89q-17 39 -37.5 69.5t-38.5 52.5h-56
q55 -73 77 -155t22 -163q0 -84 -22.5 -164t-76.5 -154h56q18 20 38.5 50t37.5 70t29 89t12 109zM186 -18q-55 74 -77 154t-22 164q0 81 21.5 163t77.5 155h-56q-19 -22 -39.5 -52.5t-37.5 -69.5q-18 -40 -29 -89t-11 -107q0 -60 11.5 -109t28.5 -89t38 -70t39 -50h56z" />
    <glyph glyph-name="uni24AF" unicode="&#x24af;" horiz-adv-x="770" 
d="M476 61v81q-16 0 -24.5 0.5t-14.5 5.5q-7 5 -8.5 11t-1.5 19v167h49v81h-49v111h-94v-111h-43v-81h43v-184q0 -25 7 -44t19 -30q12 -12 28.5 -19t39.5 -7h49zM757 300q0 58 -11.5 107t-29.5 89q-17 39 -37.5 69.5t-38.5 52.5h-56q55 -73 77 -155t22 -163
q0 -84 -22.5 -164t-76.5 -154h56q18 20 38.5 50t37.5 70t29 89t12 109zM186 -18q-55 74 -77 154t-22 164q0 81 21.5 163t77.5 155h-56q-19 -22 -39.5 -52.5t-37.5 -69.5q-18 -40 -29 -89t-11 -107q0 -60 11.5 -109t28.5 -89t38 -70t39 -50h56z" />
    <glyph glyph-name="uni24B0" unicode="&#x24b0;" horiz-adv-x="770" 
d="M544 124v365h-94v-201q0 -40 -18.5 -63t-52.5 -23q-32 0 -45 18.5t-13 60.5v208h-93v-248q0 -48 27.5 -87.5t84.5 -42.5q35 -3 63.5 9.5t46.5 30.5v-27h94zM757 300q0 58 -11.5 107t-29.5 89q-17 39 -37.5 69.5t-38.5 52.5h-56q55 -73 77 -155t22 -163q0 -84 -22.5 -164
t-76.5 -154h56q18 20 38.5 50t37.5 70t29 89t12 109zM186 -18q-55 74 -77 154t-22 164q0 81 21.5 163t77.5 155h-56q-19 -22 -39.5 -52.5t-37.5 -69.5q-18 -40 -29 -89t-11 -107q0 -60 11.5 -109t28.5 -89t38 -70t39 -50h56z" />
    <glyph glyph-name="uni24B1" unicode="&#x24b1;" horiz-adv-x="770" 
d="M574 479h-102l-85 -237l-85 237h-103l136 -358h103zM757 300q0 58 -11.5 107t-29.5 89q-17 39 -37.5 69.5t-38.5 52.5h-56q55 -73 77 -155t22 -163q0 -84 -22.5 -164t-76.5 -154h56q18 20 38.5 50t37.5 70t29 89t12 109zM186 -18q-55 74 -77 154t-22 164q0 81 21.5 163
t77.5 155h-56q-19 -22 -39.5 -52.5t-37.5 -69.5q-18 -40 -29 -89t-11 -107q0 -60 11.5 -109t28.5 -89t38 -70t39 -50h56z" />
    <glyph glyph-name="uni24B2" unicode="&#x24b2;" horiz-adv-x="770" 
d="M624 476h-92l-50 -219l-50 219h-96l-49 -219l-51 219h-92l93 -358h99l48 198l49 -198h98zM757 300q0 58 -11.5 107t-29.5 89q-17 39 -37.5 69.5t-38.5 52.5h-56q55 -73 77 -155t22 -163q0 -84 -22.5 -164t-76.5 -154h56q18 20 38.5 50t37.5 70t29 89t12 109zM186 -18
q-55 74 -77 154t-22 164q0 81 21.5 163t77.5 155h-56q-19 -22 -39.5 -52.5t-37.5 -69.5q-18 -40 -29 -89t-11 -107q0 -60 11.5 -109t28.5 -89t38 -70t39 -50h56z" />
    <glyph glyph-name="uni24B3" unicode="&#x24b3;" horiz-adv-x="770" 
d="M569 118l-129 184l121 175h-108l-67 -97l-67 97h-108l121 -175l-129 -184h110l73 106l72 -106h111zM757 300q0 58 -11.5 107t-29.5 89q-17 39 -37.5 69.5t-38.5 52.5h-56q55 -73 77 -155t22 -163q0 -84 -22.5 -164t-76.5 -154h56q18 20 38.5 50t37.5 70t29 89t12 109z
M186 -18q-55 74 -77 154t-22 164q0 81 21.5 163t77.5 155h-56q-19 -22 -39.5 -52.5t-37.5 -69.5q-18 -40 -29 -89t-11 -107q0 -60 11.5 -109t28.5 -89t38 -70t39 -50h56z" />
    <glyph glyph-name="uni24B4" unicode="&#x24b4;" horiz-adv-x="770" 
d="M576 549h-102l-86 -236l-85 236h-102l140 -368l-9 -25q-4 -10 -15.5 -18t-23.5 -8h-41v-81h48q15 0 31.5 2t31.5 10q15 7 28.5 21t22.5 38zM757 300q0 58 -11.5 107t-29.5 89q-17 39 -37.5 69.5t-38.5 52.5h-56q55 -73 77 -155t22 -163q0 -84 -22.5 -164t-76.5 -154h56
q18 20 38.5 50t37.5 70t29 89t12 109zM186 -18q-55 74 -77 154t-22 164q0 81 21.5 163t77.5 155h-56q-19 -22 -39.5 -52.5t-37.5 -69.5q-18 -40 -29 -89t-11 -107q0 -60 11.5 -109t28.5 -89t38 -70t39 -50h56z" />
    <glyph glyph-name="uni24B5" unicode="&#x24b5;" horiz-adv-x="770" 
d="M548 117v81h-195l184 206v78h-285v-80h163l-182 -206v-79h315zM757 300q0 58 -11.5 107t-29.5 89q-17 39 -37.5 69.5t-38.5 52.5h-56q55 -73 77 -155t22 -163q0 -84 -22.5 -164t-76.5 -154h56q18 20 38.5 50t37.5 70t29 89t12 109zM186 -18q-55 74 -77 154t-22 164
q0 81 21.5 163t77.5 155h-56q-19 -22 -39.5 -52.5t-37.5 -69.5q-18 -40 -29 -89t-11 -107q0 -60 11.5 -109t28.5 -89t38 -70t39 -50h56z" />
    <glyph glyph-name="uni24D0" unicode="&#x24d0;" horiz-adv-x="770" 
d="M538 190v189q0 50 -45 80t-108 30q-33 0 -62 -10t-50 -27t-32.5 -40.5t-8.5 -50.5h81q-3 24 17 40.5t53 16.5q35 0 53 -10.5t18 -25.5q0 -10 -5 -16.5t-12 -9.5q-7 -4 -15.5 -6.5t-15.5 -3.5q-9 -3 -21 -4.5t-26 -4.5q-15 -2 -30 -5t-29 -7q-40 -13 -65.5 -44.5
t-19.5 -77.5q6 -47 42 -67t85 -14q33 3 65 17t47 31q1 -13 4 -22.5t8 -15.5h85q-1 1 -7 18.5t-6 39.5zM454 292v-15q0 -24 -25.5 -42t-49.5 -27q-22 -8 -48 -7.5t-29 12.5q-6 14 3 24.5t27 17.5q7 3 17 5.5t22 4.5q11 2 23 4.5t22 5.5t21 7t17 10zM748 300q0 75 -29 141
t-78 115t-115 78t-141 29t-141.5 -29t-115.5 -78t-77.5 -115t-28.5 -141t28.5 -141.5t77.5 -115.5t115.5 -77.5t141.5 -28.5t141 28.5t115 77.5t78 115.5t29 141.5zM385 606q63 0 118 -24.5t96 -65.5q41 -42 65 -97.5t24 -118.5q0 -64 -24 -119.5t-65 -97.5q-41 -41 -96 -65
t-118 -24t-118.5 24t-96.5 65q-41 42 -64.5 97.5t-23.5 119.5q0 63 23.5 118.5t64.5 97.5q41 41 96.5 65.5t118.5 24.5z" />
    <glyph glyph-name="uni24D1" unicode="&#x24d1;" horiz-adv-x="770" 
d="M585 237q0 79 -41 132t-110 53q-33 0 -60.5 -12.5t-47.5 -34.5v164h-83v-475h83v34q20 -22 47.5 -34.5t60.5 -12.5q69 0 110 52.5t41 133.5zM501 237q0 -50 -23.5 -81.5t-63.5 -31.5q-39 0 -63.5 31.5t-24.5 81.5q0 48 24.5 79.5t63.5 31.5q40 0 63.5 -31.5t23.5 -79.5z
M748 300q0 75 -29 141t-78 115t-115 78t-141 29t-141.5 -29t-115.5 -78t-77.5 -115t-28.5 -141t28.5 -141.5t77.5 -115.5t115.5 -77.5t141.5 -28.5t141 28.5t115 77.5t78 115.5t29 141.5zM385 606q63 0 118 -24.5t96 -65.5q41 -42 65 -97.5t24 -118.5q0 -64 -24 -119.5
t-65 -97.5q-41 -41 -96 -65t-118 -24t-118.5 24t-96.5 65q-41 42 -64.5 97.5t-23.5 119.5q0 63 23.5 118.5t64.5 97.5q41 41 96.5 65.5t118.5 24.5z" />
    <glyph glyph-name="uni24D2" unicode="&#x24d2;" horiz-adv-x="770" 
d="M552 238h-91q-5 -15 -22.5 -31t-47.5 -16q-42 0 -65 31t-23 76t23 77t65 32q33 0 50 -17.5t21 -29.5h90q-5 19 -17.5 40.5t-33.5 40.5q-21 18 -49 30t-62 12q-41 0 -72.5 -15t-53.5 -40t-33.5 -58.5t-11.5 -71.5t11.5 -71.5t33.5 -58.5t53.5 -39.5t72.5 -14.5
q34 0 61.5 10.5t47.5 28.5t33.5 40t19.5 45zM748 300q0 75 -29 141t-78 115t-115 78t-141 29t-141.5 -29t-115.5 -78t-77.5 -115t-28.5 -141t28.5 -141.5t77.5 -115.5t115.5 -77.5t141.5 -28.5t141 28.5t115 77.5t78 115.5t29 141.5zM385 606q63 0 118 -24.5t96 -65.5
q41 -42 65 -97.5t24 -118.5q0 -64 -24 -119.5t-65 -97.5q-41 -41 -96 -65t-118 -24t-118.5 24t-96.5 65q-41 42 -64.5 97.5t-23.5 119.5q0 63 23.5 118.5t64.5 97.5q41 41 96.5 65.5t118.5 24.5z" />
    <glyph glyph-name="uni24D3" unicode="&#x24d3;" horiz-adv-x="770" 
d="M528 64v476h-83v-162q-20 21 -46.5 32.5t-58.5 11.5q-72 0 -113 -52.5t-41 -131.5q0 -81 41 -133.5t113 -52.5q32 0 58.5 12t46.5 33v-33h83zM445 238q0 -50 -21.5 -81.5t-64.5 -31.5t-64.5 31.5t-21.5 81.5q0 48 21.5 79.5t64.5 31.5t64.5 -31.5t21.5 -79.5zM748 300
q0 75 -29 141t-78 115t-115 78t-141 29t-141.5 -29t-115.5 -78t-77.5 -115t-28.5 -141t28.5 -141.5t77.5 -115.5t115.5 -77.5t141.5 -28.5t141 28.5t115 77.5t78 115.5t29 141.5zM385 606q63 0 118 -24.5t96 -65.5q41 -42 65 -97.5t24 -118.5q0 -64 -24 -119.5t-65 -97.5
q-41 -41 -96 -65t-118 -24t-118.5 24t-96.5 65q-41 42 -64.5 97.5t-23.5 119.5q0 63 23.5 118.5t64.5 97.5q41 41 96.5 65.5t118.5 24.5z" />
    <glyph glyph-name="uni24D4" unicode="&#x24d4;" horiz-adv-x="770" 
d="M554 268q4 54 -9 94.5t-37 67.5t-56 41t-66 14q-39 0 -70.5 -15t-53.5 -40q-22 -26 -34 -60t-12 -72t12.5 -71.5t34.5 -58.5q23 -25 54.5 -39.5t69.5 -14.5q36 0 62.5 9.5t45.5 25.5t30.5 35t17.5 37h-94q-5 -8 -21 -19t-41 -11q-21 0 -37 8t-26 20t-15 25.5t-5 23.5h250
zM464 339h-158q6 27 25.5 47.5t55.5 20.5q32 0 51.5 -22t25.5 -46zM748 300q0 75 -29 141t-78 115t-115 78t-141 29t-141.5 -29t-115.5 -78t-77.5 -115t-28.5 -141t28.5 -141.5t77.5 -115.5t115.5 -77.5t141.5 -28.5t141 28.5t115 77.5t78 115.5t29 141.5zM385 606
q63 0 118 -24.5t96 -65.5q41 -42 65 -97.5t24 -118.5q0 -64 -24 -119.5t-65 -97.5q-41 -41 -96 -65t-118 -24t-118.5 24t-96.5 65q-41 42 -64.5 97.5t-23.5 119.5q0 63 23.5 118.5t64.5 97.5q41 41 96.5 65.5t118.5 24.5z" />
    <glyph glyph-name="uni24D5" unicode="&#x24d5;" horiz-adv-x="770" 
d="M464 326v72h-47v24q0 12 2 18.5t9 11.5q3 2 6.5 3t8.5 1q4 1 9 1h12v72h-44q-21 0 -36.5 -7t-26.5 -17q-13 -12 -18.5 -28t-5.5 -38v-41h-40v-72h40v-267h84v267h47zM748 300q0 75 -29 141t-78 115t-115 78t-141 29t-141.5 -29t-115.5 -78t-77.5 -115t-28.5 -141
t28.5 -141.5t77.5 -115.5t115.5 -77.5t141.5 -28.5t141 28.5t115 77.5t78 115.5t29 141.5zM385 606q63 0 118 -24.5t96 -65.5q41 -42 65 -97.5t24 -118.5q0 -64 -24 -119.5t-65 -97.5q-41 -41 -96 -65t-118 -24t-118.5 24t-96.5 65q-41 42 -64.5 97.5t-23.5 119.5
q0 63 23.5 118.5t64.5 97.5q41 41 96.5 65.5t118.5 24.5z" />
    <glyph glyph-name="uni24D6" unicode="&#x24d6;" horiz-adv-x="770" 
d="M543 210v311h-83v-29q-20 18 -47.5 29.5t-59.5 11.5q-70 0 -111 -47.5t-41 -119.5q0 -73 41 -119.5t111 -46.5q32 0 59.5 10.5t47.5 30.5v-38q0 -36 -24 -52.5t-59 -16.5q-33 0 -56.5 13t-23.5 31h-84q3 -45 45.5 -80t117.5 -35q28 0 57.5 6.5t53.5 23.5q24 16 40 44.5
t16 72.5zM460 366q0 -42 -24.5 -67.5t-63.5 -25.5q-41 0 -63.5 25.5t-22.5 67.5t22.5 68.5t63.5 26.5q39 0 63.5 -26.5t24.5 -68.5zM748 300q0 75 -29 141t-78 115t-115 78t-141 29t-141.5 -29t-115.5 -78t-77.5 -115t-28.5 -141t28.5 -141.5t77.5 -115.5t115.5 -77.5
t141.5 -28.5t141 28.5t115 77.5t78 115.5t29 141.5zM385 606q63 0 118 -24.5t96 -65.5q41 -42 65 -97.5t24 -118.5q0 -64 -24 -119.5t-65 -97.5q-41 -41 -96 -65t-118 -24t-118.5 24t-96.5 65q-41 42 -64.5 97.5t-23.5 119.5q0 63 23.5 118.5t64.5 97.5q41 41 96.5 65.5
t118.5 24.5z" />
    <glyph glyph-name="uni24D7" unicode="&#x24d7;" horiz-adv-x="770" 
d="M537 61v238q0 18 -6.5 38t-19.5 38q-13 17 -32.5 28.5t-45.5 14.5q-42 3 -70.5 -11t-46.5 -32v162h-83v-476h83v191q0 39 21 62.5t54 23.5q32 0 47.5 -20t15.5 -59v-198h83zM748 300q0 75 -29 141t-78 115t-115 78t-141 29t-141.5 -29t-115.5 -78t-77.5 -115t-28.5 -141
t28.5 -141.5t77.5 -115.5t115.5 -77.5t141.5 -28.5t141 28.5t115 77.5t78 115.5t29 141.5zM385 606q63 0 118 -24.5t96 -65.5q41 -42 65 -97.5t24 -118.5q0 -64 -24 -119.5t-65 -97.5q-41 -41 -96 -65t-118 -24t-118.5 24t-96.5 65q-41 42 -64.5 97.5t-23.5 119.5
q0 63 23.5 118.5t64.5 97.5q41 41 96.5 65.5t118.5 24.5z" />
    <glyph glyph-name="uni24D8" unicode="&#x24d8;" horiz-adv-x="770" 
d="M427 450v83h-84v-83h84zM427 57v346h-84v-346h84zM748 300q0 75 -29 141t-78 115t-115 78t-141 29t-141.5 -29t-115.5 -78t-77.5 -115t-28.5 -141t28.5 -141.5t77.5 -115.5t115.5 -77.5t141.5 -28.5t141 28.5t115 77.5t78 115.5t29 141.5zM385 606q63 0 118 -24.5
t96 -65.5q41 -42 65 -97.5t24 -118.5q0 -64 -24 -119.5t-65 -97.5q-41 -41 -96 -65t-118 -24t-118.5 24t-96.5 65q-41 42 -64.5 97.5t-23.5 119.5q0 63 23.5 118.5t64.5 97.5q41 41 96.5 65.5t118.5 24.5z" />
    <glyph glyph-name="uni24D9" unicode="&#x24d9;" horiz-adv-x="770" 
d="M440 501v83h-84v-83h84zM440 109v344h-84v-328q0 -13 -3 -19t-9 -12q-3 -3 -6.5 -4.5t-8.5 -1.5q-4 -1 -9.5 -0.5t-11.5 0.5v-71h45q20 0 35 6t27 17q12 10 18.5 27.5t6.5 41.5zM748 300q0 75 -29 141t-78 115t-115 78t-141 29t-141.5 -29t-115.5 -78t-77.5 -115
t-28.5 -141t28.5 -141.5t77.5 -115.5t115.5 -77.5t141.5 -28.5t141 28.5t115 77.5t78 115.5t29 141.5zM385 606q63 0 118 -24.5t96 -65.5q41 -42 65 -97.5t24 -118.5q0 -64 -24 -119.5t-65 -97.5q-41 -41 -96 -65t-118 -24t-118.5 24t-96.5 65q-41 42 -64.5 97.5
t-23.5 119.5q0 63 23.5 118.5t64.5 97.5q41 41 96.5 65.5t118.5 24.5z" />
    <glyph glyph-name="uni24DA" unicode="&#x24da;" horiz-adv-x="770" 
d="M556 63l-154 214l132 132h-104l-115 -115v245h-83v-476h83v128l29 28l116 -156h96zM748 300q0 75 -29 141t-78 115t-115 78t-141 29t-141.5 -29t-115.5 -78t-77.5 -115t-28.5 -141t28.5 -141.5t77.5 -115.5t115.5 -77.5t141.5 -28.5t141 28.5t115 77.5t78 115.5t29 141.5
zM385 606q63 0 118 -24.5t96 -65.5q41 -42 65 -97.5t24 -118.5q0 -64 -24 -119.5t-65 -97.5q-41 -41 -96 -65t-118 -24t-118.5 24t-96.5 65q-41 42 -64.5 97.5t-23.5 119.5q0 63 23.5 118.5t64.5 97.5q41 41 96.5 65.5t118.5 24.5z" />
    <glyph glyph-name="uni24DB" unicode="&#x24db;" horiz-adv-x="770" 
d="M427 62v476h-84v-476h84zM748 300q0 75 -29 141t-78 115t-115 78t-141 29t-141.5 -29t-115.5 -78t-77.5 -115t-28.5 -141t28.5 -141.5t77.5 -115.5t115.5 -77.5t141.5 -28.5t141 28.5t115 77.5t78 115.5t29 141.5zM385 606q63 0 118 -24.5t96 -65.5q41 -42 65 -97.5
t24 -118.5q0 -64 -24 -119.5t-65 -97.5q-41 -41 -96 -65t-118 -24t-118.5 24t-96.5 65q-41 42 -64.5 97.5t-23.5 119.5q0 63 23.5 118.5t64.5 97.5q41 41 96.5 65.5t118.5 24.5z" />
    <glyph glyph-name="uni24DC" unicode="&#x24dc;" horiz-adv-x="770" 
d="M612 124v240q0 42 -22 77.5t-68 38.5q-27 2 -45.5 -2.5t-31.5 -11.5q-12 -8 -20 -16l-14 -14q-9 19 -29 32t-49 13q-36 0 -58.5 -16.5t-31.5 -28.5v33h-83v-345h83v198q0 39 15 59.5t42 21.5q27 0 36 -22t9 -53v-204h83v198q0 39 14.5 59.5t41.5 21.5q27 0 36 -22t9 -53
v-204h83zM748 300q0 75 -29 141t-78 115t-115 78t-141 29t-141.5 -29t-115.5 -78t-77.5 -115t-28.5 -141t28.5 -141.5t77.5 -115.5t115.5 -77.5t141.5 -28.5t141 28.5t115 77.5t78 115.5t29 141.5zM385 606q63 0 118 -24.5t96 -65.5q41 -42 65 -97.5t24 -118.5
q0 -64 -24 -119.5t-65 -97.5q-41 -41 -96 -65t-118 -24t-118.5 24t-96.5 65q-41 42 -64.5 97.5t-23.5 119.5q0 63 23.5 118.5t64.5 97.5q41 41 96.5 65.5t118.5 24.5z" />
    <glyph glyph-name="uni24DD" unicode="&#x24dd;" horiz-adv-x="770" 
d="M537 118v237q0 18 -6.5 38.5t-19.5 37.5q-12 17 -31.5 29t-45.5 14q-42 3 -71 -10.5t-46 -31.5v31h-83v-345h83v190q0 40 20.5 63t54.5 23q32 0 47 -20t15 -59v-197h83zM748 300q0 75 -29 141t-78 115t-115 78t-141 29t-141.5 -29t-115.5 -78t-77.5 -115t-28.5 -141
t28.5 -141.5t77.5 -115.5t115.5 -77.5t141.5 -28.5t141 28.5t115 77.5t78 115.5t29 141.5zM385 606q63 0 118 -24.5t96 -65.5q41 -42 65 -97.5t24 -118.5q0 -64 -24 -119.5t-65 -97.5q-41 -41 -96 -65t-118 -24t-118.5 24t-96.5 65q-41 42 -64.5 97.5t-23.5 119.5
q0 63 23.5 118.5t64.5 97.5q41 41 96.5 65.5t118.5 24.5z" />
    <glyph glyph-name="uni24DE" unicode="&#x24de;" horiz-adv-x="770" 
d="M555 298q0 38 -12 72t-34 59t-53 40t-70 15q-40 0 -71.5 -15t-53.5 -40t-33.5 -59t-11.5 -72t11.5 -71.5t33.5 -58.5t53.5 -39.5t71.5 -14.5q39 0 70 14.5t53 39.5t34 58.5t12 71.5zM470 298q0 -45 -22.5 -76.5t-61.5 -31.5q-40 0 -62.5 31.5t-22.5 76.5t22.5 76.5
t62.5 31.5q39 0 61.5 -31.5t22.5 -76.5zM748 300q0 75 -29 141t-78 115t-115 78t-141 29t-141.5 -29t-115.5 -78t-77.5 -115t-28.5 -141t28.5 -141.5t77.5 -115.5t115.5 -77.5t141.5 -28.5t141 28.5t115 77.5t78 115.5t29 141.5zM385 606q63 0 118 -24.5t96 -65.5
q41 -42 65 -97.5t24 -118.5q0 -64 -24 -119.5t-65 -97.5q-41 -41 -96 -65t-118 -24t-118.5 24t-96.5 65q-41 42 -64.5 97.5t-23.5 119.5q0 63 23.5 118.5t64.5 97.5q41 41 96.5 65.5t118.5 24.5z" />
    <glyph glyph-name="uni24DF" unicode="&#x24df;" horiz-adv-x="770" 
d="M578 351q0 81 -41 133t-110 52q-33 0 -60 -13t-47 -34v34h-84v-452h84v142q20 -24 47 -35.5t60 -11.5q69 0 110 52.5t41 132.5zM494 351q0 -50 -23.5 -80.5t-63.5 -30.5q-39 0 -63 30.5t-24 80.5q0 48 24 80t63 32q40 0 63.5 -32t23.5 -80zM748 300q0 75 -29 141t-78 115
t-115 78t-141 29t-141.5 -29t-115.5 -78t-77.5 -115t-28.5 -141t28.5 -141.5t77.5 -115.5t115.5 -77.5t141.5 -28.5t141 28.5t115 77.5t78 115.5t29 141.5zM385 606q63 0 118 -24.5t96 -65.5q41 -42 65 -97.5t24 -118.5q0 -64 -24 -119.5t-65 -97.5q-41 -41 -96 -65
t-118 -24t-118.5 24t-96.5 65q-41 42 -64.5 97.5t-23.5 119.5q0 63 23.5 118.5t64.5 97.5q41 41 96.5 65.5t118.5 24.5z" />
    <glyph glyph-name="uni24E0" unicode="&#x24e0;" horiz-adv-x="770" 
d="M527 73v452h-83v-34q-21 22 -48 34.5t-60 12.5q-69 0 -110 -52.5t-41 -133.5q0 -80 41 -132t110 -52q33 0 60 12t48 35v-142h83zM444 352q0 -48 -24.5 -79.5t-63.5 -31.5q-41 0 -63.5 31.5t-22.5 79.5q0 50 22.5 81.5t63.5 31.5q39 0 63.5 -31.5t24.5 -81.5zM748 300
q0 75 -29 141t-78 115t-115 78t-141 29t-141.5 -29t-115.5 -78t-77.5 -115t-28.5 -141t28.5 -141.5t77.5 -115.5t115.5 -77.5t141.5 -28.5t141 28.5t115 77.5t78 115.5t29 141.5zM385 606q63 0 118 -24.5t96 -65.5q41 -42 65 -97.5t24 -118.5q0 -64 -24 -119.5t-65 -97.5
q-41 -41 -96 -65t-118 -24t-118.5 24t-96.5 65q-41 42 -64.5 97.5t-23.5 119.5q0 63 23.5 118.5t64.5 97.5q41 41 96.5 65.5t118.5 24.5z" />
    <glyph glyph-name="uni24E1" unicode="&#x24e1;" horiz-adv-x="770" 
d="M504 385v84q-2 0 -19 -3.5t-33 -9.5q-22 -11 -35 -21.5t-22 -23.5v45h-83v-345h83v163q0 34 11 55.5t32 36.5q16 12 33.5 15.5t32.5 3.5zM748 300q0 75 -29 141t-78 115t-115 78t-141 29t-141.5 -29t-115.5 -78t-77.5 -115t-28.5 -141t28.5 -141.5t77.5 -115.5
t115.5 -77.5t141.5 -28.5t141 28.5t115 77.5t78 115.5t29 141.5zM385 606q63 0 118 -24.5t96 -65.5q41 -42 65 -97.5t24 -118.5q0 -64 -24 -119.5t-65 -97.5q-41 -41 -96 -65t-118 -24t-118.5 24t-96.5 65q-41 42 -64.5 97.5t-23.5 119.5q0 63 23.5 118.5t64.5 97.5
q41 41 96.5 65.5t118.5 24.5z" />
    <glyph glyph-name="uni24E2" unicode="&#x24e2;" horiz-adv-x="770" 
d="M534 223q1 32 -17.5 54t-42.5 34q-13 6 -28.5 11t-30.5 9t-29 7.5t-24 6.5q-21 6 -29 15t-5 22q1 15 16.5 22.5t42.5 7.5q25 0 41.5 -12.5t16.5 -26.5h77q1 41 -36.5 75.5t-103.5 34.5q-62 0 -97.5 -32.5t-38.5 -68.5q-3 -34 13 -57.5t54 -36.5q10 -5 24 -9t29 -8
q14 -3 28.5 -7.5t26.5 -8.5q14 -6 21.5 -15t7.5 -19q-2 -12 -17 -23.5t-46 -11.5q-36 0 -54 16.5t-19 34.5h-78q0 -15 7.5 -36t25.5 -41q18 -19 47.5 -32.5t73.5 -13.5q27 0 52.5 8.5t45.5 23.5q19 15 31.5 34.5t14.5 42.5zM748 300q0 75 -29 141t-78 115t-115 78t-141 29
t-141.5 -29t-115.5 -78t-77.5 -115t-28.5 -141t28.5 -141.5t77.5 -115.5t115.5 -77.5t141.5 -28.5t141 28.5t115 77.5t78 115.5t29 141.5zM385 606q63 0 118 -24.5t96 -65.5q41 -42 65 -97.5t24 -118.5q0 -64 -24 -119.5t-65 -97.5q-41 -41 -96 -65t-118 -24t-118.5 24
t-96.5 65q-41 42 -64.5 97.5t-23.5 119.5q0 63 23.5 118.5t64.5 97.5q41 41 96.5 65.5t118.5 24.5z" />
    <glyph glyph-name="uni24E3" unicode="&#x24e3;" horiz-adv-x="770" 
d="M467 74v71q-13 0 -21.5 0.5t-14.5 6.5q-7 6 -9 11.5t-2 20.5v164h47v71h-47v107h-84v-107h-40v-71h40v-181q0 -24 6 -41.5t18 -28.5t27 -17t36 -6h44zM748 300q0 75 -29 141t-78 115t-115 78t-141 29t-141.5 -29t-115.5 -78t-77.5 -115t-28.5 -141t28.5 -141.5
t77.5 -115.5t115.5 -77.5t141.5 -28.5t141 28.5t115 77.5t78 115.5t29 141.5zM385 606q63 0 118 -24.5t96 -65.5q41 -42 65 -97.5t24 -118.5q0 -64 -24 -119.5t-65 -97.5q-41 -41 -96 -65t-118 -24t-118.5 24t-96.5 65q-41 42 -64.5 97.5t-23.5 119.5q0 63 23.5 118.5
t64.5 97.5q41 41 96.5 65.5t118.5 24.5z" />
    <glyph glyph-name="uni24E4" unicode="&#x24e4;" horiz-adv-x="770" 
d="M534 134v345h-84v-191q0 -40 -19 -62.5t-53 -22.5q-32 0 -45.5 18.5t-13.5 60.5v197h-83v-237q0 -43 25 -80.5t79 -40.5q36 -3 65 11t45 32v-30h84zM748 300q0 75 -29 141t-78 115t-115 78t-141 29t-141.5 -29t-115.5 -78t-77.5 -115t-28.5 -141t28.5 -141.5t77.5 -115.5
t115.5 -77.5t141.5 -28.5t141 28.5t115 77.5t78 115.5t29 141.5zM385 606q63 0 118 -24.5t96 -65.5q41 -42 65 -97.5t24 -118.5q0 -64 -24 -119.5t-65 -97.5q-41 -41 -96 -65t-118 -24t-118.5 24t-96.5 65q-41 42 -64.5 97.5t-23.5 119.5q0 63 23.5 118.5t64.5 97.5
q41 41 96.5 65.5t118.5 24.5z" />
    <glyph glyph-name="uni24E5" unicode="&#x24e5;" horiz-adv-x="770" 
d="M561 449h-90l-84 -234l-84 234h-91l127 -339h95zM748 300q0 75 -29 141t-78 115t-115 78t-141 29t-141.5 -29t-115.5 -78t-77.5 -115t-28.5 -141t28.5 -141.5t77.5 -115.5t115.5 -77.5t141.5 -28.5t141 28.5t115 77.5t78 115.5t29 141.5zM385 606q63 0 118 -24.5
t96 -65.5q41 -42 65 -97.5t24 -118.5q0 -64 -24 -119.5t-65 -97.5q-41 -41 -96 -65t-118 -24t-118.5 24t-96.5 65q-41 42 -64.5 97.5t-23.5 119.5q0 63 23.5 118.5t64.5 97.5q41 41 96.5 65.5t118.5 24.5z" />
    <glyph glyph-name="uni24E6" unicode="&#x24e6;" horiz-adv-x="770" 
d="M612 449h-83l-51 -216l-50 216h-88l-49 -216l-52 216h-83l90 -338h89l49 200l50 -200h89zM748 300q0 75 -29 141t-78 115t-115 78t-141 29t-141.5 -29t-115.5 -78t-77.5 -115t-28.5 -141t28.5 -141.5t77.5 -115.5t115.5 -77.5t141.5 -28.5t141 28.5t115 77.5t78 115.5
t29 141.5zM385 606q63 0 118 -24.5t96 -65.5q41 -42 65 -97.5t24 -118.5q0 -64 -24 -119.5t-65 -97.5q-41 -41 -96 -65t-118 -24t-118.5 24t-96.5 65q-41 42 -64.5 97.5t-23.5 119.5q0 63 23.5 118.5t64.5 97.5q41 41 96.5 65.5t118.5 24.5z" />
    <glyph glyph-name="uni24E7" unicode="&#x24e7;" horiz-adv-x="770" 
d="M554 127l-120 173l114 165h-97l-66 -94l-65 94h-98l114 -165l-120 -173h97l72 102l72 -102h97zM748 300q0 75 -29 141t-78 115t-115 78t-141 29t-141.5 -29t-115.5 -78t-77.5 -115t-28.5 -141t28.5 -141.5t77.5 -115.5t115.5 -77.5t141.5 -28.5t141 28.5t115 77.5
t78 115.5t29 141.5zM385 606q63 0 118 -24.5t96 -65.5q41 -42 65 -97.5t24 -118.5q0 -64 -24 -119.5t-65 -97.5q-41 -41 -96 -65t-118 -24t-118.5 24t-96.5 65q-41 42 -64.5 97.5t-23.5 119.5q0 63 23.5 118.5t64.5 97.5q41 41 96.5 65.5t118.5 24.5z" />
    <glyph glyph-name="uni24E8" unicode="&#x24e8;" horiz-adv-x="770" 
d="M571 519h-91l-84 -234l-85 234h-91l133 -352l-9 -24q-3 -12 -14.5 -20.5t-26.5 -8.5h-36v-72h43q15 0 30 2t30 10q14 7 26.5 20.5t21.5 34.5zM748 300q0 75 -29 141t-78 115t-115 78t-141 29t-141.5 -29t-115.5 -78t-77.5 -115t-28.5 -141t28.5 -141.5t77.5 -115.5
t115.5 -77.5t141.5 -28.5t141 28.5t115 77.5t78 115.5t29 141.5zM385 606q63 0 118 -24.5t96 -65.5q41 -42 65 -97.5t24 -118.5q0 -64 -24 -119.5t-65 -97.5q-41 -41 -96 -65t-118 -24t-118.5 24t-96.5 65q-41 42 -64.5 97.5t-23.5 119.5q0 63 23.5 118.5t64.5 97.5
q41 41 96.5 65.5t118.5 24.5z" />
    <glyph glyph-name="uni24E9" unicode="&#x24e9;" horiz-adv-x="770" 
d="M534 128v70h-192l180 203v71h-267v-71h160l-179 -203v-70h298zM748 300q0 75 -29 141t-78 115t-115 78t-141 29t-141.5 -29t-115.5 -78t-77.5 -115t-28.5 -141t28.5 -141.5t77.5 -115.5t115.5 -77.5t141.5 -28.5t141 28.5t115 77.5t78 115.5t29 141.5zM385 606
q63 0 118 -24.5t96 -65.5q41 -42 65 -97.5t24 -118.5q0 -64 -24 -119.5t-65 -97.5q-41 -41 -96 -65t-118 -24t-118.5 24t-96.5 65q-41 42 -64.5 97.5t-23.5 119.5q0 63 23.5 118.5t64.5 97.5q41 41 96.5 65.5t118.5 24.5z" />
    <glyph glyph-name="SF100000" unicode="&#x2500;" horiz-adv-x="770" 
d="M0 315v-30h770v30h-770z" />
    <glyph glyph-name="uni2501" unicode="&#x2501;" horiz-adv-x="770" 
d="M0 331v-62h770v62h-770z" />
    <glyph glyph-name="SF110000" unicode="&#x2502;" horiz-adv-x="770" 
d="M369 685v-770h32v770h-32z" />
    <glyph glyph-name="uni2503" unicode="&#x2503;" horiz-adv-x="770" 
d="M353 685v-770h64v770h-64z" />
    <glyph glyph-name="SF010000" unicode="&#x250c;" horiz-adv-x="770" 
d="M401 285h369v30h-401v-400h32v370z" />
    <glyph glyph-name="uni250D" unicode="&#x250d;" horiz-adv-x="770" 
d="M401 269h369v62h-401v-416h32v354z" />
    <glyph glyph-name="uni250E" unicode="&#x250e;" horiz-adv-x="770" 
d="M417 285h353v30h-417v-400h64v370z" />
    <glyph glyph-name="uni250F" unicode="&#x250f;" horiz-adv-x="770" 
d="M353 331v-416h64v354h353v62h-417z" />
    <glyph glyph-name="SF030000" unicode="&#x2510;" horiz-adv-x="770" 
d="M369 285v-370h32v400h-401v-30h369z" />
    <glyph glyph-name="uni2511" unicode="&#x2511;" horiz-adv-x="770" 
d="M369 269v-354h32v416h-401v-62h369z" />
    <glyph glyph-name="uni2512" unicode="&#x2512;" horiz-adv-x="770" 
d="M353 285v-370h64v400h-417v-30h353z" />
    <glyph glyph-name="uni2513" unicode="&#x2513;" horiz-adv-x="770" 
d="M417 331h-417v-62h353v-354h64v416z" />
    <glyph glyph-name="SF020000" unicode="&#x2514;" horiz-adv-x="770" 
d="M401 315v370h-32v-400h401v30h-369z" />
    <glyph glyph-name="uni2515" unicode="&#x2515;" horiz-adv-x="770" 
d="M401 331v354h-32v-416h401v62h-369z" />
    <glyph glyph-name="uni2516" unicode="&#x2516;" horiz-adv-x="770" 
d="M417 315v370h-64v-400h417v30h-353z" />
    <glyph glyph-name="uni2517" unicode="&#x2517;" horiz-adv-x="770" 
d="M353 269h417v62h-353v354h-64v-416z" />
    <glyph glyph-name="SF040000" unicode="&#x2518;" horiz-adv-x="770" 
d="M369 315h-369v-30h401v400h-32v-370z" />
    <glyph glyph-name="uni2519" unicode="&#x2519;" horiz-adv-x="770" 
d="M369 331h-369v-62h401v416h-32v-354z" />
    <glyph glyph-name="uni251A" unicode="&#x251a;" horiz-adv-x="770" 
d="M353 315h-353v-30h417v400h-64v-370z" />
    <glyph glyph-name="uni251B" unicode="&#x251b;" horiz-adv-x="770" 
d="M417 269v416h-64v-354h-353v-62h417z" />
    <glyph glyph-name="SF080000" unicode="&#x251c;" horiz-adv-x="770" 
d="M401 315v370h-32v-770h32v370h369v30h-369z" />
    <glyph glyph-name="uni251D" unicode="&#x251d;" horiz-adv-x="770" 
d="M401 331v354h-32v-770h32v354h369v62h-369z" />
    <glyph glyph-name="uni251E" unicode="&#x251e;" horiz-adv-x="770" 
d="M417 315v370h-64v-385h16v-385h32l-1 370h370v30h-353z" />
    <glyph glyph-name="uni251F" unicode="&#x251f;" horiz-adv-x="770" 
d="M401 315v370h-32v-385h-16v-385h64v370h353v30h-369z" />
    <glyph glyph-name="uni2520" unicode="&#x2520;" horiz-adv-x="770" 
d="M353 -85h64v370h353v30h-353v370h-64v-770z" />
    <glyph glyph-name="uni2521" unicode="&#x2521;" horiz-adv-x="770" 
d="M417 331v354h-64v-385h16v-385h32v354h369v62h-353z" />
    <glyph glyph-name="uni2522" unicode="&#x2522;" horiz-adv-x="770" 
d="M401 331v354h-32v-385h-16v-385h64v354h353v62h-369z" />
    <glyph glyph-name="uni2523" unicode="&#x2523;" horiz-adv-x="770" 
d="M353 -85h64v354h353v62h-353v354h-64v-770z" />
    <glyph glyph-name="SF090000" unicode="&#x2524;" horiz-adv-x="770" 
d="M369 285v-369h32v769h-32v-370h-369v-30h369z" />
    <glyph glyph-name="uni2525" unicode="&#x2525;" horiz-adv-x="770" 
d="M369 269v-353h32v769h-32v-354h-369v-62h369z" />
    <glyph glyph-name="uni2526" unicode="&#x2526;" horiz-adv-x="770" 
d="M369 285v-370h32v385h16v385h-64v-370h-353v-30h369z" />
    <glyph glyph-name="uni2527" unicode="&#x2527;" horiz-adv-x="770" 
d="M353 285v-370h64v385h-16v385h-32v-370h-369v-30h353z" />
    <glyph glyph-name="uni2528" unicode="&#x2528;" horiz-adv-x="770" 
d="M417 -85v770h-64v-370h-353v-30h353v-370h64z" />
    <glyph glyph-name="uni2529" unicode="&#x2529;" horiz-adv-x="770" 
d="M369 269v-353h32v384h16v385h-64v-354h-353v-62h369z" />
    <glyph glyph-name="uni252A" unicode="&#x252a;" horiz-adv-x="770" 
d="M353 269v-354h64v385h-16v385h-32v-354h-369v-62h353z" />
    <glyph glyph-name="uni252B" unicode="&#x252b;" horiz-adv-x="770" 
d="M417 -85v770h-64v-354h-353v-62h353v-354h64z" />
    <glyph glyph-name="SF060000" unicode="&#x252c;" horiz-adv-x="770" 
d="M401 285h369v30h-770v-30h369v-370h32v370z" />
    <glyph glyph-name="uni252D" unicode="&#x252d;" horiz-adv-x="770" 
d="M401 285h369v30h-385v16h-385v-62h369v-354h32v370z" />
    <glyph glyph-name="uni252E" unicode="&#x252e;" horiz-adv-x="770" 
d="M401 269h369v62h-385v-16h-385v-30h369v-370h32v354z" />
    <glyph glyph-name="uni252F" unicode="&#x252f;" horiz-adv-x="770" 
d="M369 -85h32v354h369v62h-770v-62h369v-354z" />
    <glyph glyph-name="uni2530" unicode="&#x2530;" horiz-adv-x="770" 
d="M417 285h353v30h-770v-30h353v-370h64v370z" />
    <glyph glyph-name="uni2531" unicode="&#x2531;" horiz-adv-x="770" 
d="M417 285h353v30h-385v16h-385v-62h353v-354h64v370z" />
    <glyph glyph-name="uni2532" unicode="&#x2532;" horiz-adv-x="770" 
d="M353 285v-370h64v354h353v62h-385v-16h-385v-30h353z" />
    <glyph glyph-name="uni2533" unicode="&#x2533;" horiz-adv-x="770" 
d="M353 -85h64v354h353v62h-770v-62h353v-354z" />
    <glyph glyph-name="SF070000" unicode="&#x2534;" horiz-adv-x="770" 
d="M369 315h-369v-30h770v30h-369v369h-32v-369z" />
    <glyph glyph-name="uni2535" unicode="&#x2535;" horiz-adv-x="770" 
d="M369 331h-369v-62h385v16h385v30h-369v369h-32v-353z" />
    <glyph glyph-name="uni2536" unicode="&#x2536;" horiz-adv-x="770" 
d="M401 331v353h-32v-369h-369v-30h385v-16h385v62h-369z" />
    <glyph glyph-name="uni2537" unicode="&#x2537;" horiz-adv-x="770" 
d="M369 685v-354h-369v-62h770v62h-369v354h-32z" />
    <glyph glyph-name="uni2538" unicode="&#x2538;" horiz-adv-x="770" 
d="M353 315h-353v-30h770v30h-353v370h-64v-370z" />
    <glyph glyph-name="uni2539" unicode="&#x2539;" horiz-adv-x="770" 
d="M353 331h-353v-62h385v16h385v30h-353v370h-64v-354z" />
    <glyph glyph-name="uni253A" unicode="&#x253a;" horiz-adv-x="770" 
d="M417 331v354h-64v-370h-353v-30h385v-16h385v62h-353z" />
    <glyph glyph-name="uni253B" unicode="&#x253b;" horiz-adv-x="770" 
d="M353 685v-354h-353v-62h770v62h-353v354h-64z" />
    <glyph glyph-name="SF050000" unicode="&#x253c;" horiz-adv-x="770" 
d="M369 285v-370h32v370h369v30h-369v370h-32v-370h-369v-30h369z" />
    <glyph glyph-name="uni253D" unicode="&#x253d;" horiz-adv-x="770" 
d="M369 269v-354h32v370h369v30h-369v370h-32v-351h-369v-65h369z" />
    <glyph glyph-name="uni253E" unicode="&#x253e;" horiz-adv-x="770" 
d="M369 285v-370h32v354h369v62h-369v354h-32v-370h-369v-30h369z" />
    <glyph glyph-name="uni253F" unicode="&#x253f;" horiz-adv-x="770" 
d="M369 685v-354h-369v-62h369v-354h32v354h369v62h-369v354h-32z" />
    <glyph glyph-name="uni2540" unicode="&#x2540;" horiz-adv-x="770" 
d="M369 285v-370h32v370h369v30h-353v370h-64v-370h-353v-30h369z" />
    <glyph glyph-name="uni2541" unicode="&#x2541;" horiz-adv-x="770" 
d="M369 315h-369v-30h353v-370h64v370h353v30h-369v370h-32v-370z" />
    <glyph glyph-name="uni2542" unicode="&#x2542;" horiz-adv-x="770" 
d="M353 285v-370h64v370h353v30h-353v370h-64v-370h-353v-30h353z" />
    <glyph glyph-name="uni2543" unicode="&#x2543;" horiz-adv-x="770" 
d="M401 285h369v30h-353v370h-64v-354h-353v-62h369v-354h32v370z" />
    <glyph glyph-name="uni2544" unicode="&#x2544;" horiz-adv-x="770" 
d="M369 285v-370h32v354h369v62h-353v354h-64v-370h-353v-30h369z" />
    <glyph glyph-name="uni2545" unicode="&#x2545;" horiz-adv-x="770" 
d="M401 315v370h-32v-354h-369v-62h353v-354h64v370h353v30h-369z" />
    <glyph glyph-name="uni2546" unicode="&#x2546;" horiz-adv-x="770" 
d="M369 315h-369v-30h353v-370h64v354h353v62h-369v354h-32v-370z" />
    <glyph glyph-name="uni2547" unicode="&#x2547;" horiz-adv-x="770" 
d="M369 269v-354h32v354h369v62h-353v354h-64v-354h-353v-62h369z" />
    <glyph glyph-name="uni2548" unicode="&#x2548;" horiz-adv-x="770" 
d="M369 331h-369v-62h353v-354h64v354h353v62h-369v354h-32v-354z" />
    <glyph glyph-name="uni2549" unicode="&#x2549;" horiz-adv-x="770" 
d="M417 285h353v30h-353v370h-64v-354h-353v-62h353v-354h64v370z" />
    <glyph glyph-name="uni254A" unicode="&#x254a;" horiz-adv-x="770" 
d="M353 285v-370h64v354h353v62h-353v354h-64v-370h-353v-30h353z" />
    <glyph glyph-name="uni254B" unicode="&#x254b;" horiz-adv-x="770" 
d="M353 685v-354h-353v-62h353v-354h64v354h353v62h-353v354h-64z" />
    <glyph glyph-name="shade" unicode="&#x2592;" horiz-adv-x="770" 
d="M704 -16v633h-638v-633h638z" />
    <glyph glyph-name="filledbox" unicode="&#x25a0;" horiz-adv-x="770" 
d="M554 130v348h-350v-348h350z" />
    <glyph glyph-name="H22073" unicode="&#x25a1;" horiz-adv-x="770" 
d="M554 130v348h-350v-348h350zM246 169v270h267v-270h-267z" />
    <glyph glyph-name="uni25A3" unicode="&#x25a3;" horiz-adv-x="770" 
d="M100 585v-570h570v570h-570zM634 550v-500h-498v500h498zM239 446v-292h292v292h-292z" />
    <glyph glyph-name="uni25A4" unicode="&#x25a4;" horiz-adv-x="770" 
d="M701 -15v630h-632v-630h632zM678 73v-63h-586v63h586zM678 159v-62h-586v62h586zM678 245v-62h-586v62h586zM678 332v-63h-586v63h586zM678 418v-63h-586v63h586zM678 504v-62h-586v62h586zM678 590v-62h-586v62h586z" />
    <glyph glyph-name="uni25A5" unicode="&#x25a5;" horiz-adv-x="770" 
d="M700 616h-630v-632h630v632zM612 593h63v-586h-63v586zM526 593h62v-586h-62v586zM440 593h62v-586h-62v586zM353 593h63v-586h-63v586zM267 593h63v-586h-63v586zM181 593h62v-586h-62v586zM95 593h62v-586h-62v586z" />
    <glyph glyph-name="uni25A6" unicode="&#x25a6;" horiz-adv-x="770" 
d="M701 -15v630h-632v-630h632zM353 73h64v-63h-64v63zM591 73v-63h-64v63h64zM440 10v63h64v-63h-64zM179 10v63h64v-63h-64zM92 10v63h64v-63h-64zM266 10v63h64v-63h-64zM678 73v-63h-64v63h64zM353 159h64v-62h-64v62zM591 159v-62h-64v62h64zM440 97v62h64v-62h-64z
M179 97v62h64v-62h-64zM92 97v62h64v-62h-64zM266 97v62h64v-62h-64zM678 159v-62h-64v62h64zM353 245h64v-62h-64v62zM591 245v-62h-64v62h64zM440 183v62h64v-62h-64zM179 183v62h64v-62h-64zM92 183v62h64v-62h-64zM266 183v62h64v-62h-64zM678 245v-62h-64v62h64z
M353 332h64v-63h-64v63zM591 332v-63h-64v63h64zM440 269v63h64v-63h-64zM179 269v63h64v-63h-64zM92 269v63h64v-63h-64zM266 269v63h64v-63h-64zM678 332v-63h-64v63h64zM353 418h64v-63h-64v63zM591 418v-63h-64v63h64zM440 355v63h64v-63h-64zM179 355v63h64v-63h-64z
M92 355v63h64v-63h-64zM266 355v63h64v-63h-64zM678 418v-63h-64v63h64zM353 504h64v-62h-64v62zM591 504v-62h-64v62h64zM440 442v62h64v-62h-64zM179 442v62h64v-62h-64zM92 442v62h64v-62h-64zM266 442v62h64v-62h-64zM678 504v-62h-64v62h64zM353 590h64v-62h-64v62z
M591 590v-62h-64v62h64zM440 528v62h64v-62h-64zM179 528v62h64v-62h-64zM92 528v62h64v-62h-64zM266 528v62h64v-62h-64zM678 590v-62h-64v62h64z" />
    <glyph glyph-name="uni25A7" unicode="&#x25a7;" horiz-adv-x="770" 
d="M69 615v-631h630v631h-630zM192 591l486 -486v-79l-566 565h80zM581 7l-486 486v80l565 -566h-79zM95 457l449 -450h-79l-370 371v79zM95 111l103 -104h-103v104zM234 7l-139 140v79l218 -219h-79zM429 7h-79l-255 255v80zM675 488l-104 103h104v-103zM535 591l140 -139
v-80l-219 219h79zM340 591h80l255 -255v-79zM678 141l-450 450h79l371 -370v-80z" />
    <glyph glyph-name="uni25A8" unicode="&#x25a8;" horiz-adv-x="770" 
d="M700 616h-630v-632h630v632zM578 592h79l-565 -565v79zM189 8h-80l566 565v-79zM675 458v-79l-371 -371h-79zM675 111v-103h-104zM535 8h-79l219 219v-79zM340 8l335 334v-79l-255 -255h-80zM95 489v103h103zM234 592h79l-218 -219v79zM429 592l-334 -334v79l255 255h79z
M92 142v79l370 371h79z" />
    <glyph glyph-name="uni25A9" unicode="&#x25a9;" horiz-adv-x="770" 
d="M704 -16v633h-638v-633h638zM608 373l55 54l11 -9v-87l-13 -12zM661 173l-55 55l55 54l13 -13v-84zM393 590h107l11 -11l-53 -53zM161 375l-56 -56l-12 13v86l13 11zM93 125l14 13l46 -48l-60 -62v97zM105 173l-12 12v84l13 13l55 -54zM209 590l10 -10l-47 -49l-60 59h97
zM312 526l-54 54l8 10h89l10 -10zM534 11l60 60l60 -60h-120zM93 477v95l60 -60l-47 -48zM312 75l53 -54l-10 -10h-89l-8 9zM210 11h-97l59 60l47 -51zM393 11l64 66l54 -54l-11 -12h-107zM674 125v-97l-60 62l46 48zM534 590h120l-60 -60zM674 477l-13 -13l-47 48l60 60
v-95zM239 561l54 -54l-49 -48l-54 54zM171 494l55 -54l-48 -48l-54 55zM384 561l55 -55l-54 -54l-54 54zM312 488l54 -55l-48 -48l-55 54zM244 421l55 -55l-47 -48l-55 55zM179 355l55 -54l-55 -55l-54 55zM457 489l47 -49l-54 -54l-46 48zM385 416l46 -49l-48 -48l-47 48z
M317 349l47 -49l-47 -48l-47 49zM253 283l47 -48l-55 -54l-47 47zM524 422l47 -49l-54 -54l-46 48zM452 349l46 -49l-48 -48l-47 48zM384 282l47 -49l-47 -48l-47 49zM320 217l47 -49l-55 -55l-47 49zM591 355l54 -53l-54 -54l-54 53zM518 282l54 -54l-48 -47l-54 53z
M450 215l55 -54l-47 -47l-55 54zM386 150l54 -54l-54 -55l-55 54zM590 210l54 -54l-48 -48l-55 53zM522 143l55 -54l-47 -48l-55 54zM530 561l47 -48l-54 -54l-46 47zM597 494l47 -48l-54 -54l-46 47zM179 210l47 -49l-55 -54l-47 48zM246 143l47 -49l-55 -54l-47 48z" />
    <glyph glyph-name="triagup" unicode="&#x25b2;" horiz-adv-x="770" 
d="M385 567l-293 -499h585z" />
    <glyph glyph-name="uni25B3" unicode="&#x25b3;" horiz-adv-x="770" 
d="M385 567l-293 -499h585zM385 500l233 -399h-468z" />
    <glyph glyph-name="uni25B6" unicode="&#x25b6;" horiz-adv-x="770" 
d="M651 300l-497 291v-584z" />
    <glyph glyph-name="uni25B7" unicode="&#x25b7;" horiz-adv-x="770" 
d="M651 300l-497 291v-584zM592 300l-410 -241v480z" />
    <glyph glyph-name="triagdn" unicode="&#x25bc;" horiz-adv-x="770" 
d="M385 32l292 499h-585z" />
    <glyph glyph-name="uni25BD" unicode="&#x25bd;" horiz-adv-x="770" 
d="M385 32l292 499h-585zM385 99l-235 399h468z" />
    <glyph glyph-name="uni25C0" unicode="&#x25c0;" horiz-adv-x="770" 
d="M119 300l497 -293v584z" />
    <glyph glyph-name="uni25C1" unicode="&#x25c1;" horiz-adv-x="770" 
d="M119 300l497 -293v584zM178 300l410 239v-480z" />
    <glyph glyph-name="uni25C6" unicode="&#x25c6;" horiz-adv-x="770" 
d="M383 557l-254 -256l256 -258l256 257z" />
    <glyph glyph-name="uni25C7" unicode="&#x25c7;" horiz-adv-x="770" 
d="M383 557l-254 -256l256 -258l256 257zM182 302l203 200l205 -203l-203 -202z" />
    <glyph glyph-name="uni25C8" unicode="&#x25c8;" horiz-adv-x="770" 
d="M385 656l-356 -357l356 -355l356 356zM696 299l-311 -310l-311 310l311 312zM385 489l-190 -190l190 -190l190 190z" />
    <glyph glyph-name="circle" unicode="&#x25cb;" horiz-adv-x="770" 
d="M385 531q-47 0 -87.5 -18t-70.5 -48q-31 -30 -48 -70.5t-17 -86.5q0 -47 17 -87.5t48 -71.5q30 -30 70.5 -47.5t87.5 -17.5q46 0 86.5 17.5t71.5 47.5q30 31 47.5 71.5t17.5 87.5q0 46 -17.5 86.5t-47.5 70.5q-31 30 -71.5 48t-86.5 18zM385 493q38 0 71.5 -15t58.5 -40
t40 -58.5t15 -71.5q0 -39 -15 -73t-40 -59t-58.5 -39.5t-71.5 -14.5q-39 0 -72.5 14.5t-58.5 39.5t-39.5 59t-14.5 73q0 38 14.5 71.5t39.5 58.5t58.5 40t72.5 15z" />
    <glyph glyph-name="uni25CE" unicode="&#x25ce;" horiz-adv-x="770" 
d="M374 632q-67 -3 -125.5 -29t-101.5 -71q-44 -44 -69 -102.5t-26 -125.5q-2 -68 23 -128t69 -106q44 -45 103 -72.5t127 -28.5q70 -2 133 23t111 70q47 45 74 107.5t26 134.5q-1 70 -29 131t-75 105t-109 68.5t-131 23.5zM89 302q1 59 23 111.5t61 91.5q38 39 89.5 62.5
t111.5 25.5q61 1 116.5 -20.5t97.5 -60.5q41 -40 65.5 -94t25.5 -116q0 -63 -24 -118t-66 -95q-41 -40 -96.5 -62.5t-118.5 -19.5q-61 1 -113.5 25.5t-90.5 64.5q-39 40 -60.5 92.5t-20.5 112.5zM163 302q-1 -45 15.5 -84.5t44.5 -69.5q29 -30 67.5 -47.5t82.5 -18.5
q47 -2 88.5 14.5t71.5 46.5q31 30 49 70.5t18 88.5q0 46 -18.5 85.5t-50.5 68.5q-31 29 -72 45t-86 15q-44 -2 -82 -19t-67 -46q-28 -29 -44.5 -67.5t-16.5 -81.5zM373 479q38 1 72 -12.5t60 -38.5q25 -24 40.5 -57t15.5 -71q0 -39 -15 -72.5t-40 -58.5q-26 -25 -60 -38.5
t-73 -12.5q-37 1 -68.5 15.5t-55.5 39.5q-23 25 -36.5 57.5t-13.5 69.5q0 36 13.5 68t36.5 56q24 24 55.5 38.5t68.5 16.5z" />
    <glyph glyph-name="H18533" unicode="&#x25cf;" horiz-adv-x="770" 
d="M385 531q-47 0 -87.5 -18t-70.5 -48q-31 -30 -48 -70.5t-17 -86.5q0 -47 17 -87.5t48 -71.5q30 -30 70.5 -47.5t87.5 -17.5q46 0 86.5 17.5t71.5 47.5q30 31 47.5 71.5t17.5 87.5q0 46 -17.5 86.5t-47.5 70.5q-31 30 -71.5 48t-86.5 18z" />
    <glyph glyph-name="uni25D0" unicode="&#x25d0;" horiz-adv-x="770" 
d="M386 615q-66 0 -124 -24.5t-101 -67.5q-44 -43 -68.5 -100t-24.5 -123t24.5 -123.5t68.5 -100.5q43 -43 101 -67.5t124 -24.5q64 0 121.5 25t100.5 68t68 100.5t25 122.5q0 64 -25 121.5t-68 100.5t-100.5 68t-121.5 25zM386 17v565q57 -2 107.5 -24.5t88.5 -60.5
t60.5 -89t22.5 -108q0 -59 -22.5 -110t-60.5 -89t-88.5 -60.5t-107.5 -23.5z" />
    <glyph glyph-name="uni25D1" unicode="&#x25d1;" horiz-adv-x="770" 
d="M383 615q-65 0 -122.5 -25t-99.5 -68q-43 -43 -67.5 -100.5t-24.5 -121.5q0 -65 24.5 -122.5t67.5 -100.5q42 -43 99.5 -68t122.5 -25q66 0 123.5 24.5t101.5 67.5q43 43 68 100.5t25 123.5t-25 123t-68 100q-44 43 -101.5 67.5t-123.5 24.5zM383 17q-58 1 -108.5 23.5
t-88.5 60.5t-59.5 89t-21.5 110q0 57 21.5 108t59.5 89t88.5 60.5t108.5 24.5v-565z" />
    <glyph glyph-name="uni2605" unicode="&#x2605;" horiz-adv-x="770" 
d="M394 596l-74 -218h-238l190 -141l-79 -227l201 141l201 -141l-79 227l190 141h-238z" />
    <glyph glyph-name="uni2606" unicode="&#x2606;" horiz-adv-x="770" 
d="M394 596l-74 -218h-238l190 -141l-79 -227l201 141l201 -141l-79 227l190 141h-238zM532 92l-138 98l-140 -99l57 157l-137 98h169l51 150l51 -150h169l-137 -98z" />
    <glyph glyph-name="uni260E" unicode="&#x260e;" horiz-adv-x="770" 
d="M601 333l61 -2q19 0 32.5 4t13.5 25q-11 -3 -32.5 -4t-37.5 -1q-27 1 -45.5 3.5t-38.5 10.5q2 -21 14.5 -28.5t32.5 -7.5zM171 333q18 0 31 7.5t16 28.5q-21 -8 -39.5 -10.5t-45.5 -3.5q-16 0 -37.5 1t-32.5 4q0 -21 13 -25t33 -4zM175 67h422h8t5 3l1 8t3 18
q1 10 2.5 20t1.5 16l-58 170q-4 9 -8 14.5t-9 10.5q-5 4 -10.5 9t-12.5 13q-8 7 -12.5 11.5t-7.5 9.5q-2 4 -3 9.5t-1 15.5v40q20 -4 36.5 -18.5t18.5 -32.5q23 -7 39.5 -10t43.5 -3q16 -1 38 0t34 4q-3 25 -7 43.5t-13 31.5q-8 14 -23.5 23.5t-41.5 17.5
q-57 15 -117.5 22.5t-117.5 7.5q-56 0 -117.5 -7.5t-117.5 -22.5q-27 -8 -42.5 -17.5t-24.5 -23.5q-9 -13 -12.5 -31.5t-6.5 -43.5q11 -3 33.5 -4t38.5 0q27 0 43.5 3t40.5 10q1 18 17.5 32.5t37.5 18.5v-40q0 -10 -1.5 -15.5t-3.5 -9.5q-3 -5 -7.5 -9.5l-11.5 -11.5
q-8 -8 -13.5 -13t-10.5 -9q-5 -5 -9 -10.5t-7 -14.5l-59 -170q0 -6 1 -16t3 -20q1 -10 2.5 -18t2.5 -8q0 -3 4 -3h9zM386 354q40 0 68.5 -29.5t28.5 -68.5q0 -42 -29 -71t-71 -29t-69 31t-27 71t29.5 68t69.5 28zM385 446q11 0 22 -0.5t21 -1.5t18.5 -2t16.5 -1l-10 -57
l-68 3l-68 -4l-10 57q7 0 15.5 1t18.5 2t21 2t23 1z" />
    <glyph glyph-name="uni260F" unicode="&#x260f;" horiz-adv-x="770" 
d="M175 69h422q1 0 3.5 -0.5t4.5 -0.5t3.5 0.5t1.5 2.5q0 1 1 8.5t3 17.5q1 10 2.5 19.5t1.5 15.5l-58 170q-4 9 -8 15.5t-9 11.5t-11 9.5t-12 10.5q-17 12 -20.5 19.5t-3.5 26.5v40q26 -7 38.5 -19.5t16.5 -31.5q5 -33 16.5 -42t33.5 -9l61 -2q19 -1 34 5t10 39
q-6 51 -24.5 76.5t-60.5 37.5q-55 15 -116.5 23.5t-118.5 8.5q-56 0 -118.5 -8.5t-116.5 -23.5q-44 -12 -62 -37.5t-24 -76.5q-5 -33 9.5 -39t34.5 -5l62 2q21 0 32.5 9t17.5 42q3 19 15.5 31.5t39.5 19.5v-40q0 -19 -4.5 -26.5t-19.5 -19.5q-8 -6 -13.5 -10.5t-10.5 -9.5
t-9 -11.5t-7 -15.5l-59 -170q0 -6 1 -15.5t3 -19.5q1 -10 2.5 -17.5t2.5 -8.5q0 -2 1 -2.5t3 -0.5t4 0.5t5 0.5zM386 499q45 0 99 -5.5t101 -17.5q43 -12 65.5 -29t29.5 -56q3 -26 -1.5 -34t-22.5 -7l-49 2q-17 0 -24.5 8t-12.5 38q-6 30 -34 43t-60 19q-41 6 -91.5 6
t-91.5 -6q-32 -6 -60.5 -19t-33.5 -43q-6 -30 -13 -38t-23 -8l-49 -2q-20 -1 -24.5 7t0.5 34q6 39 28 56t67 29t99 17.5t101 5.5zM181 92l-5 35l53 158q4 13 9.5 21t11.5 14t12 10.5t14 9.5q15 11 19 25t4 34v42l10 1l8 -55l6.5 0.5t16.5 1.5q9 0 21 1t24 1q11 0 22.5 -0.5
t21.5 -1.5t16.5 -1h7.5l10 54q1 0 2 -0.5t3 -0.5h2h3v-42q0 -20 3.5 -34t19.5 -25q6 -5 12.5 -9.5t12.5 -10.5t11 -14t10 -21l54 -158l-5 -35h-410zM385 410q-12 0 -26.5 -1t-22.5 -1l-7 38h8t13 1q8 1 17 1.5t18 0.5q8 0 16.5 -0.5t16.5 -1.5t14 -1h9l-7 -38q-8 0 -22.5 1
t-26.5 1zM386 354q-40 0 -69.5 -28t-29.5 -68t27 -71t69 -31t71 29t29 71q0 39 -28.5 68.5t-68.5 29.5zM386 332q30 0 52.5 -23t22.5 -53q0 -33 -22.5 -55.5t-55.5 -22.5t-54 24t-21 56q0 31 23 52.5t55 21.5z" />
    <glyph glyph-name="uni261C" unicode="&#x261c;" horiz-adv-x="770" 
d="M280 342q-18 -3 -34 -10.5t-16 -23.5q0 -18 11.5 -22.5t12.5 -4.5q-1 -1 -5.5 -11t5.5 -24q6 -10 12.5 -12t7.5 -2q-1 0 -6 -5.5t-2 -17.5q3 -15 16.5 -21t28.5 -6q1 -1 19 -1.5t42 -1.5q24 0 49 0.5t40 2.5q31 4 53.5 10.5t38.5 13.5q16 6 25 11t13 7h2h4h4.5h3.5v-16
h80v187h-79v-24q-1 0 -5.5 -0.5t-10.5 0.5q-6 0 -12 1t-9 4q-26 19 -52.5 28.5t-50.5 13.5q-25 3 -47 3h-40q-32 0 -66.5 -0.5t-64.5 -1.5q-31 0 -54.5 -0.5t-33.5 -0.5q-7 -1 -22.5 -1.5t-31.5 -3.5q-15 -3 -27.5 -9t-13.5 -18q-2 -16 10 -24t28 -11q17 -3 34 -3.5t27 -0.5
q16 -1 32.5 -2t32.5 -1q16 -1 29 -1.5t22 -0.5zM339 402q-6 -3 -12.5 -8t-10.5 -11q-7 -9 -11 -16l-4 -7q-2 0 -15 0.5t-33 0.5q-20 1 -44 2l-48 2q-43 2 -58.5 5t-14.5 14q0 9 18 11.5t55 3.5q21 1 47.5 1.5t51.5 0.5t46.5 0.5t32.5 0.5zM526 382l15 -10t11 -7q4 -3 7.5 -5
t7.5 -3q5 -2 9.5 -3t9.5 -1q4 -1 9 -0.5t11 0.5v-109h-19q-2 -2 -12.5 -8t-30.5 -14q-19 -8 -45.5 -15t-59.5 -9q-8 -1 -12.5 -1h-9.5q1 1 3 2.5t3 4.5q2 2 2.5 6t0.5 11q-2 14 -12.5 19l-10.5 5l6.5 5.5t3.5 17.5q-3 11 -12 15.5l-9 4.5q3 3 6 10.5t-1 20.5q-2 6 -7.5 9.5
t-11.5 6.5q-7 2 -13.5 3.5t-11.5 3.5l7 6l1.5 -1t5.5 -2q3 -1 8 -1.5t13 -0.5q1 0 3.5 0.5t4.5 1.5q2 0 3.5 1t2.5 1q0 -2 19 -22.5t58 -32.5q21 -6 46.5 -7.5t25.5 7.5q0 4 -6 6t-16 3t-23.5 3t-27.5 8q-13 3 -22.5 8.5t-16.5 10.5q-6 5 -10 9t-4 5l3.5 8.5t3.5 13.5
q-1 3 -4.5 2.5t-9.5 -2.5q-5 -2 -11.5 -4.5t-12.5 -3.5q-2 -1 -6 -0.5t-8 0.5q-4 1 -7 1.5l-3 0.5l0.5 1.5t0.5 3.5t-0.5 4t-2.5 3q-6 1 -10 -2t-8 -7l-10 -10t-11 -7q-12 -6 -15.5 -4l-3.5 2q6 5 9.5 10.5t6.5 10.5q3 6 6 10.5t8 8.5q4 3 9.5 5.5t11.5 4.5q5 2 10 3.5
t10 3.5q42 4 82.5 -2t62.5 -18zM404 219q2 -11 -9 -15.5t-16 -4.5q-1 -1 -11.5 -1h-24.5q-14 1 -27.5 2t-19.5 3q-8 2 -7.5 13.5t10.5 11.5l49 1h38q3 0 10 -2t8 -8zM392 261q-2 -8 -16.5 -10.5t-20.5 -2.5q-1 0 -12 -0.5t-24 0.5q-14 0 -26 0.5t-14 2.5q-14 7 -8.5 16.5
t17.5 9.5h75q10 0 20 -4t9 -12zM360 323q16 -3 18.5 -11.5t-5.5 -14.5q-3 -2 -22 -2h-41h-30.5t-9.5 1q-11 0 -16.5 7.5t2.5 13.5q6 5 19 7t19 2h6.5h16.5q9 0 20.5 -1t22.5 -2zM650 379v-154h-25v154h25z" />
    <glyph glyph-name="uni261E" unicode="&#x261e;" horiz-adv-x="770" 
d="M489 342q8 0 21 0.5t28 1.5q16 0 32.5 1t33.5 2q10 0 27 0.5t33 3.5q17 3 28.5 11t10.5 24q-1 12 -13.5 18t-28.5 9t-31.5 3.5t-21.5 1.5q-11 0 -34.5 0.5t-53.5 0.5q-31 1 -65 1.5t-65 0.5h-41t-47 -3q-25 -4 -51 -13.5t-52 -28.5q-3 -3 -9 -4t-12 -1q-6 -1 -10.5 -0.5
t-5.5 0.5v24h-79v-187h80v16h3h4h5h3q3 -2 12 -7t25 -11q15 -7 38 -13.5t54 -10.5q15 -2 39.5 -2.5t48.5 -0.5q24 1 42 1.5t20 1.5q15 0 28 6t17 21q3 12 -2.5 17.5l-5.5 5.5l6.5 2t13.5 12q9 14 4.5 24t-4.5 11q1 0 12.5 4.5t11.5 22.5q0 16 -16 23.5t-33 10.5zM430 402
q10 0 31 -0.5t47 -0.5q25 0 51.5 -0.5t48.5 -1.5q36 -1 54 -3.5t19 -11.5q0 -11 -15.5 -14t-57.5 -5q-24 -1 -48.5 -2t-44.5 -2q-21 0 -34 -0.5t-14 -0.5l-4 7t-10 16q-5 6 -11.5 11t-11.5 8zM243 382q21 12 61 18t83 2q4 -2 9.5 -3.5t10.5 -3.5t10.5 -4.5t10.5 -5.5
q4 -4 7 -8.5t6 -10.5q3 -5 7 -10.5t10 -10.5l-3 -2t-15 4q-7 2 -12 7l-10 10q-4 4 -8.5 7t-9.5 2q-3 -1 -3.5 -3t-0.5 -4t1 -3.5l1 -1.5q-1 0 -4 -0.5t-7 -1.5q-3 0 -7 -0.5t-6 0.5q-6 1 -12.5 3.5t-12.5 4.5q-5 2 -9 2.5t-4 -2.5q0 -5 3.5 -13.5l3.5 -8.5q-1 -2 -15 -14
t-38 -19q-15 -6 -28.5 -8t-23.5 -3t-15.5 -3t-5.5 -6q0 -9 26 -7.5t47 7.5q19 6 33 15t24 17q9 9 14 15.5t6 7.5l4.5 -2t8.5 -2q7 0 12 0.5t9 1.5q3 1 4.5 2t2.5 1l7 -6q-6 -2 -12.5 -3.5t-12.5 -3.5q-7 -3 -12 -6.5t-7 -9.5q-4 -13 -1 -20.5t7 -10.5q-1 0 -9.5 -4.5
t-11.5 -15.5q-3 -12 2.5 -17.5t6.5 -5.5q-1 0 -11.5 -5t-10.5 -19q-1 -7 -0.5 -11t1.5 -6q2 -3 4 -4.5t4 -2.5h-10.5t-11.5 1q-33 2 -60 9t-46 15q-20 8 -30.5 14t-11.5 8h-20v109q6 0 10.5 -0.5t9.5 0.5q4 0 9 1t11 3q3 1 6.5 3t7.5 5t10.5 7t16.5 10zM364 219q0 6 7.5 8
t11.5 2h37l50 -1q9 0 9.5 -11.5t-7.5 -13.5q-7 -2 -20.5 -3t-27.5 -2h-24t-10 1q-6 0 -17 4.5t-9 15.5zM377 261q-3 8 7.5 12t21.5 4h74q12 0 17 -9.5t-7 -16.5q-3 -2 -15.5 -2.5t-25.5 -0.5q-14 -1 -25 -0.5l-11 0.5q-6 0 -20.5 2.5t-15.5 10.5zM408 323q10 1 21.5 2
t21.5 1h16h7q6 0 19 -2t20 -7q6 -6 0.5 -13.5t-15.5 -7.5q0 -1 -9.5 -1h-29.5h-42.5t-21.5 2q-9 6 -6 14.5t19 11.5zM119 379h24v-154h-24v154z" />
    <glyph glyph-name="female" unicode="&#x2640;" horiz-adv-x="770" 
d="M434 331q23 1 45 15t40 37q17 23 27.5 52.5t10.5 62.5q0 34 -13.5 65.5t-37.5 54.5q-23 23 -54 37t-66 14q-36 0 -67.5 -13.5t-54.5 -37.5q-23 -23 -36 -54t-13 -66q0 -33 10 -62.5t27 -52.5q17 -22 39 -36t46 -15v-35h-217v-97h217v-265h97v265h217v97h-217v34zM457 498
q0 -30 -20.5 -51t-50.5 -21q-31 0 -51 21t-20 51q0 27 20 49t51 22q30 0 50.5 -21.5t20.5 -49.5z" />
    <glyph glyph-name="male" unicode="&#x2642;" horiz-adv-x="770" 
d="M337 268q-23 -3 -45.5 -17t-39.5 -36q-17 -23 -27.5 -51.5t-10.5 -60.5q0 -36 13 -67.5t36 -53.5q24 -23 55 -36t67 -13q35 0 66 13t55 36q23 23 36.5 54t13.5 67q0 32 -11 60.5t-28 51.5q-17 22 -39.5 36t-44.5 17v201l121 -149l70 73l-239 288l-239 -289l71 -67
l120 146v-203zM457 103q0 -30 -21 -51t-51 -21q-31 0 -51.5 21t-20.5 51q0 29 21 50.5t51 21.5q29 0 50.5 -21.5t21.5 -50.5z" />
    <glyph glyph-name="spade" unicode="&#x2660;" horiz-adv-x="770" 
d="M578 -14l-4 11q-40 3 -69.5 10t-49.5 23q-19 16 -28.5 45.5t-9.5 78.5q13 -13 42.5 -20t69.5 -7q46 0 76 32t30 80q0 51 -29.5 88.5t-67.5 70.5q-53 42 -97 103.5t-56 133.5q-12 -72 -56.5 -133.5t-96.5 -103.5q-39 -33 -68 -70.5t-29 -88.5q0 -48 29.5 -80t76.5 -32
q39 0 68.5 7t43.5 20q0 -49 -10 -78.5t-29 -45.5q-20 -16 -49.5 -23t-68.5 -10l-3 -11h385z" />
    <glyph glyph-name="uni2661" unicode="&#x2661;" horiz-adv-x="770" 
d="M385 7q8 33 24.5 62t38.5 58q22 28 47 56t51 58q18 21 36.5 46t33.5 52t24 55.5t9 58.5q-1 54 -37.5 89t-90.5 35q-44 0 -81 -23.5t-55 -67.5q-17 45 -54 68t-82 23q-54 0 -91 -35.5t-37 -88.5q-1 -30 8 -58.5t24 -55.5t33.5 -52t37.5 -46q25 -30 50 -58.5t47 -56.5
t38.5 -57.5t25.5 -61.5zM385 79q-11 23 -26 44t-33 43q-18 21 -38.5 44t-41.5 49q-33 39 -63.5 85.5t-30.5 97.5q0 46 27 76t80 30q24 -1 45 -14t37 -31q17 -19 28 -41.5t16 -42.5q4 20 15 42t27 41q16 18 37 30.5t47 14.5q54 3 80.5 -28t26.5 -77q0 -51 -31 -97.5
t-63 -85.5q-22 -26 -42 -49t-38 -44q-17 -22 -32 -43.5t-27 -43.5z" />
    <glyph glyph-name="club" unicode="&#x2663;" horiz-adv-x="770" 
d="M416 185q13 -26 47.5 -38t70.5 -12q28 0 52.5 10.5t42.5 28.5q18 19 28.5 43t10.5 51t-11 50.5t-28 41.5q-17 17 -38.5 27.5t-43.5 12.5q-17 1 -29 -1t-21 -5q10 13 15.5 29.5t5.5 42.5q0 27 -11.5 51t-30.5 41t-42.5 27t-47.5 10q-25 0 -49 -10t-43 -28
q-19 -17 -30.5 -41t-11.5 -51q0 -23 4 -38t16 -32q-10 4 -23.5 5t-25.5 1q-54 -6 -87.5 -45.5t-33.5 -87.5q0 -55 39.5 -93.5t97.5 -38.5q34 0 67.5 12t47.5 37q0 -56 -10 -90.5t-30 -55.5q-19 -20 -49 -29.5t-69 -12.5l-3 -11h385l-4 11q-40 3 -70 12.5t-49 30.5
q-20 20 -29.5 55t-9.5 90z" />
    <glyph glyph-name="uni2664" unicode="&#x2664;" horiz-adv-x="770" 
d="M578 -14l-4 11q-40 3 -67 9.5t-43 23.5q-17 16 -23.5 45t-6.5 79q11 -9 35.5 -18t59.5 -9q46 0 76 32t30 80q0 51 -29.5 88.5t-67.5 69.5q-53 42 -97 104t-56 134q-12 -72 -56.5 -134t-96.5 -104q-39 -32 -68 -69.5t-29 -88.5q0 -48 29.5 -80t76.5 -32q34 0 58.5 9
t36.5 18q0 -50 -7 -79t-24 -45q-16 -17 -43 -23.5t-66 -9.5l-3 -11h385zM457 6h-143l5 3q28 15 36 63.5t8 132.5q-12 -20 -37.5 -31t-50.5 -15q-42 -11 -75 10.5t-33 61.5q0 29 8 51.5t21 40.5q14 18 30 32t33 27q45 36 80.5 82t45.5 80q11 -34 46.5 -80t80.5 -82
q15 -13 31.5 -27t29.5 -32q14 -18 22.5 -40.5t8.5 -51.5q0 -40 -33 -61.5t-75 -10.5q-26 4 -51.5 15t-37.5 31q0 -84 8.5 -132.5t36.5 -63.5z" />
    <glyph glyph-name="heart" unicode="&#x2665;" horiz-adv-x="770" 
d="M385 7q8 33 24.5 62t38.5 58q22 28 47 56t51 58q36 43 69.5 97.5t33.5 114.5q0 54 -37 89t-91 35q-51 0 -88 -36.5t-48 -84.5q-12 47 -48.5 83.5t-87.5 36.5q-54 0 -91 -35t-37 -89q0 -60 33 -114.5t70 -97.5q25 -30 50 -58t47 -56t38.5 -57.5t25.5 -61.5z" />
    <glyph glyph-name="uni2667" unicode="&#x2667;" horiz-adv-x="770" 
d="M431 185q19 -24 46 -37t57 -13q28 0 52.5 10.5t42.5 28.5q18 19 28.5 43t10.5 51t-11 50.5t-28 41.5q-17 17 -38.5 27.5t-43.5 12.5q-17 1 -29 -1t-21 -5q10 13 15.5 29.5t5.5 42.5q0 27 -11.5 51t-30.5 41t-42.5 27t-47.5 10q-25 0 -49 -10t-43 -28q-19 -17 -30.5 -41
t-11.5 -51q0 -22 4 -37.5t16 -32.5q-10 4 -23.5 5t-25.5 1q-54 -6 -87.5 -45.5t-33.5 -87.5q0 -55 39.5 -93.5t97.5 -38.5q30 0 57 14t43 35q0 -56 -7.5 -90.5t-24.5 -55.5q-17 -20 -44.5 -29.5t-66.5 -12.5l-3 -11h385l-4 11q-40 3 -67.5 12.5t-44.5 30.5q-17 20 -24 55
t-7 90zM321 384q-17 13 -27.5 34t-10.5 45q0 42 30 72.5t72 30.5t72 -30.5t30 -72.5q0 -24 -11 -45.5t-29 -35.5l27 -33q12 9 27.5 14.5t32.5 5.5q42 0 73 -30.5t31 -71.5q0 -42 -31 -72t-73 -30q-30 0 -55 16.5t-36 40.5h-39q0 -78 8 -132.5t35 -75.5l5 -3h-133l5 3
q27 21 35 75.5t8 132.5h-40q-13 -26 -37 -41t-54 -15q-42 0 -72 29.5t-30 72.5q0 41 30 71.5t72 30.5q16 0 31.5 -5t28.5 -14z" />
    <glyph glyph-name="uni2668" unicode="&#x2668;" horiz-adv-x="770" 
d="M295 613q-3 -1 -5.5 -7t-5.5 -15t-6.5 -19t-7.5 -19q-26 -49 -33 -103t15 -111q10 -27 12 -54t0 -52q-3 -24 -8.5 -44.5t-9.5 -33.5q-7 -18 -8 -34.5t2 -29.5q2 -13 6 -20.5t7 -6.5q5 1 6.5 4.5t3.5 10.5q1 8 5 19t14 27q21 35 34 75t10 67t-10 55.5t-13 56.5
q-7 27 -11 51.5t1 45.5q15 69 12.5 103.5t-10.5 33.5zM227 255q-18 -3 -48.5 -12.5t-58.5 -26.5q-29 -16 -50 -41.5t-21 -59.5q0 -41 31.5 -70t80.5 -48q50 -19 110.5 -27.5t118.5 -8.5q54 0 112 9t107 28q49 20 80.5 50.5t31.5 74.5q0 31 -16.5 54t-39.5 39
q-24 16 -48.5 25t-40.5 12q-9 1 -11 -5.5t8 -9.5q9 -3 25 -10.5t31 -19.5q16 -12 27.5 -29.5t11.5 -39.5q0 -27 -27 -47.5t-68 -33.5q-42 -14 -90.5 -20.5t-91.5 -6.5q-51 -1 -101 6t-90 21q-39 14 -63.5 34t-24.5 46q0 22 16 40t36 31t39.5 20.5t25.5 9.5q12 3 9.5 10.5
t-11.5 5.5zM403 654q-4 -1 -5 -8.5t-2 -20.5q-1 -12 -3.5 -28.5t-9.5 -33.5q-8 -19 -18 -40.5t-15 -46.5t-3 -55.5t18 -66.5q12 -30 18.5 -75t-20.5 -111q-9 -23 -11.5 -44t-1.5 -36q2 -16 5.5 -25t8.5 -7q4 1 6 6t5 13t8 21t17 32q7 11 15.5 30t16.5 41q7 22 11 45t1 43
q-6 34 -14 61t-14 52q-6 24 -7 49t8 55q8 28 9 55t-3 48t-10 34t-10 13zM521 613q-3 -1 -5.5 -7t-4.5 -15q-3 -9 -6.5 -19t-7.5 -19q-26 -49 -33.5 -103t14.5 -111q10 -27 12 -54t0 -52q-3 -24 -8.5 -44.5t-9.5 -33.5q-7 -18 -7.5 -34.5t1.5 -29.5q3 -13 7 -20.5t7 -6.5
q5 1 6.5 4.5t2.5 10.5q2 8 5.5 19t13.5 27q21 35 34 75t11 67q-3 27 -10 55.5t-14 56.5q-6 27 -10 51.5t1 45.5q14 69 11.5 103.5t-10.5 33.5z" />
    <glyph glyph-name="uni2669" unicode="&#x2669;" horiz-adv-x="770" 
d="M405 640v-486q-9 2 -24 1t-33 -5q-18 -5 -36.5 -13.5t-33.5 -20.5q-16 -12 -28.5 -28.5t-19.5 -34.5q-6 -19 -4 -38.5t17 -37.5q11 -15 30 -22.5t41 -7.5q23 0 45.5 6.5t41.5 20.5q27 19 45 45t18 58l-1 563h-58z" />
    <glyph glyph-name="musicalnote" unicode="&#x266a;" horiz-adv-x="770" 
d="M363 640v-486q-9 2 -24.5 1t-33.5 -5q-18 -5 -36 -13.5t-33 -20.5q-16 -12 -29 -28.5t-19 -34.5q-6 -19 -4 -38.5t17 -37.5q11 -15 30 -22.5t41 -7.5q23 0 45.5 6.5t41.5 20.5q27 19 44.5 45t17.5 58v345q2 -1 24.5 -17t37.5 -33q4 -6 8.5 -17t8.5 -24q4 -12 7 -24.5
t4 -19.5q1 -20 -4.5 -44.5t-13.5 -49.5t-16.5 -47t-13.5 -35h44q7 14 19.5 35t23.5 46t19.5 53.5t8.5 58.5q0 39 -12 67.5t-40 63.5q-10 13 -20 24.5t-19 20.5q-9 10 -18 19t-17 18q-9 11 -14.5 27t-8.5 33q-4 17 -6.5 33.5t-4.5 29.5h-55z" />
    <glyph glyph-name="uni266C" unicode="&#x266c;" horiz-adv-x="770" 
d="M332 409v40l244 54v-41zM269 523v-335q-20 3 -54 -3t-69 -34q-40 -30 -48.5 -73.5t21.5 -70.5q26 -25 68.5 -23.5t82.5 26.5q29 18 45.5 46t16.5 62v202l244 53v-120q-24 6 -56 0t-68 -33q-16 -12 -28.5 -29t-18.5 -36q-5 -18 -2 -38t18 -38q13 -17 32.5 -24t40.5 -6
t42 8t39 19q28 18 45.5 46.5t17.5 58.5v423z" />
    <glyph glyph-name="uni266D" unicode="&#x266d;" horiz-adv-x="770" 
d="M300 -60q13 12 30.5 30.5t36.5 36.5q18 19 35.5 36t29.5 28q13 9 30 25t32 37q16 20 26.5 45t11.5 53q0 42 -27 76.5t-69 35.5q-36 1 -53 -9.5t-17 -11.5v291h-66v-673zM366 255q0 5 12 13.5t34 7.5q11 -1 20 -15t9 -36q0 -41 -22.5 -75.5t-52.5 -64.5v170z" />
    <glyph glyph-name="uni3000" unicode="&#x3000;" horiz-adv-x="770" 
 />
    <glyph glyph-name="uni3001" unicode="&#x3001;" horiz-adv-x="293" 
d="M199 -68l77 89q-15 13 -25 22.5t-19 17.5q-10 8 -21 17.5t-28 23.5q-25 18 -45 31t-35 21q-14 9 -22.5 12.5t-8.5 4.5l-59 -62q1 -1 11.5 -9t25.5 -19l32.5 -26l32.5 -26q9 -9 21.5 -23t24.5 -28t22.5 -27t15.5 -19z" />
    <glyph glyph-name="uni3002" unicode="&#x3002;" horiz-adv-x="231" 
d="M214 19q0 41 -28.5 70t-69.5 29q-42 0 -70.5 -29t-28.5 -70q0 -42 28.5 -70.5t70.5 -28.5q41 0 69.5 28.5t28.5 70.5zM152 19q0 -16 -10.5 -27t-25.5 -11q-14 0 -25.5 11t-11.5 27q0 15 11.5 26.5t25.5 11.5q15 0 25.5 -11.5t10.5 -26.5z" />
    <glyph glyph-name="uni3003" unicode="&#x3003;" horiz-adv-x="770" 
d="M270 163l152 233l-90 54l-125 -245zM414 163l152 233l-90 54l-125 -245z" />
    <glyph glyph-name="uni3008" unicode="&#x3008;" horiz-adv-x="430" 
d="M153 300l263 423l-103 54l-291 -477l292 -475l100 57z" />
    <glyph glyph-name="uni3009" unicode="&#x3009;" horiz-adv-x="430" 
d="M279 300l-261 -418l100 -57l292 475l-291 477l-103 -54z" />
    <glyph glyph-name="uni300A" unicode="&#x300a;" horiz-adv-x="385" 
d="M256 667h-77l-161 -367l161 -367h77l-158 367zM369 667h-78l-160 -367l160 -367h79l-160 367z" />
    <glyph glyph-name="uni300B" unicode="&#x300b;" horiz-adv-x="385" 
d="M131 667l158 -367l-159 -367h78l161 367l-161 367h-77zM18 667l158 -367l-159 -367h78l161 367l-161 367h-77z" />
    <glyph glyph-name="uni300C" unicode="&#x300c;" horiz-adv-x="308" 
d="M45 327h50v299h184v43h-234v-342z" />
    <glyph glyph-name="uni300D" unicode="&#x300d;" horiz-adv-x="308" 
d="M265 271h-50v-299h-184v-43h234v342z" />
    <glyph glyph-name="uni300E" unicode="&#x300e;" horiz-adv-x="308" 
d="M138 325v254h145v89h-238v-343h93zM104 359h-25v277h168v-23h-143v-254z" />
    <glyph glyph-name="uni300F" unicode="&#x300f;" horiz-adv-x="308" 
d="M174 273v-254h-145v-89h238v343h-93zM208 239h25v-277h-168v23h143v254z" />
    <glyph glyph-name="uni3010" unicode="&#x3010;" horiz-adv-x="450" 
d="M411 -180q-59 38 -107.5 89.5t-82.5 112.5q-34 62 -52.5 132t-18.5 146q0 75 18.5 145t52.5 131q34 62 82 113.5t107 89.5h-360v-959h361z" />
    <glyph glyph-name="uni3011" unicode="&#x3011;" horiz-adv-x="450" 
d="M39 -179h361v959h-360q58 -38 106 -89.5t82 -113.5q34 -61 53 -131t19 -145q0 -76 -19 -146t-53 -132q-34 -61 -82.5 -112.5t-106.5 -89.5z" />
    <glyph glyph-name="uni3013" unicode="&#x3013;" horiz-adv-x="770" 
d="M101 188h568v84h-568v-84zM101 328h568v84h-568v-84z" />
    <glyph glyph-name="uni3014" unicode="&#x3014;" horiz-adv-x="254" 
d="M238 680l-204 -132v-498l204 -131v98l-119 74v415l119 77v97z" />
    <glyph glyph-name="uni3015" unicode="&#x3015;" horiz-adv-x="254" 
d="M15 680v-97l119 -77v-415l-119 -74v-98l204 131v498z" />
    <glyph glyph-name="uni3041" unicode="&#x3041;" horiz-adv-x="770" 
d="M618 111q0 47 -20.5 81t-67.5 55q-2 0 -3.5 0.5t-2.5 0.5q-2 1 -3.5 1.5t-2.5 1.5l4 10t4 11l-77 26q-2 -8 -3.5 -15.5t-3.5 -14.5q-16 0 -31 -1t-28 -2v30l50 8t45 7t32.5 5t14.5 3l-15 81l-127 -20v77h-91v-92l-39 -6q-26 -4 -48 -3t-37 7l14 -82q22 -8 40 -7.5t41 3.5
h2t6 1t9 1.5t12 2.5v-43q-50 -25 -90 -68t-40 -101q0 -21 8.5 -35t22.5 -21q14 -8 31 -10t34 1q27 4 52 13t46 21l5.5 0.5t12.5 1.5l12 2t7 1q-2 1 -2.5 2.5t-1.5 3.5t-1.5 4.5t-0.5 5.5q34 25 58.5 57t42.5 65q21 -10 34 -27t13 -40q0 -28 -15.5 -47t-39.5 -29
q-10 -5 -25 -8t-31 -5t-29 -2t-18 3l70 -59q78 0 124.5 42t46.5 102zM405 191q-3 -5 -6 -9t-5 -7l-6 -8t-5 -7v28q5 0 10.5 1t11.5 2zM293 86q-8 -4 -16 -7t-15 -3q-13 0 -15.5 6.5t0.5 18.5q3 14 16 28t29 26v-35.5t1 -33.5z" />
    <glyph glyph-name="uni3042" unicode="&#x3042;" horiz-adv-x="770" 
d="M687 156q0 63 -31 108.5t-87 72.5q-2 0 -4 1l-4 2q-3 1 -5 1.5t-2 1.5q1 3 2 6.5t2 7.5t2 7.5t3 7.5l-94 32l-4 -20t-5 -19q-27 2 -52 0t-46 -5v50q35 6 70 11.5t63 10.5q28 4 46.5 7t20.5 3l-21 88l-179 -28v114h-100v-130l-63 -10q-35 -6 -63.5 -4t-49.5 9l18 -89
q30 -10 54.5 -9.5t54.5 4.5l13.5 2t35.5 6v-65q-35 -16 -68 -39t-59 -52t-41.5 -63.5t-15.5 -74.5q0 -28 11.5 -46.5t30.5 -28.5q19 -11 41.5 -13.5t44.5 1.5q36 6 69 18t61 29l39 5q-2 3 -3.5 6.5t-1.5 8.5q51 36 88 84t61 97q31 -15 50 -40.5t19 -59.5q0 -42 -23.5 -70
t-60.5 -43q-14 -6 -32.5 -10t-37.5 -6t-34.5 -1.5t-22.5 4.5l80 -70q52 0 94.5 15t72.5 41q30 25 46.5 60t16.5 74zM422 278q-13 -23 -28.5 -44t-31.5 -39v77q13 2 28 3.5t32 2.5zM264 120q-15 -8 -30.5 -12.5t-30.5 -6.5q-21 0 -25 11t2 29q6 25 29.5 50t52.5 43v-59.5
t2 -54.5z" />
    <glyph glyph-name="uni3043" unicode="&#x3043;" horiz-adv-x="770" 
d="M623 131q-6 24 -18 53t-29 56q-18 27 -39 49.5t-44 36.5l-75 -45q39 -40 71.5 -88.5t43.5 -97.5zM382 49l-27 98q-6 -18 -20 -42.5t-36 -33.5q-15 -6 -25 -2.5t-17 16.5q-17 28 -23.5 68t-5.5 83q1 42 8 81.5t18 67.5l-89 34q-8 -23 -13.5 -53.5t-8.5 -62.5
q-3 -33 -3.5 -65.5t2.5 -58.5q6 -58 23.5 -107.5t64.5 -82.5q14 -10 33 -12t37 4q28 9 51 28t31 40z" />
    <glyph glyph-name="uni3044" unicode="&#x3044;" horiz-adv-x="770" 
d="M707 174q-8 33 -24.5 71t-38.5 74q-23 36 -51.5 67t-59.5 49l-79 -50q53 -53 95.5 -117.5t57.5 -129.5zM396 71l-30 104q-8 -24 -30 -53.5t-52 -41.5q-19 -9 -35.5 -3.5t-25.5 21.5q-26 38 -37 96t-11 120q0 61 9 118t25 93l-104 38q-10 -30 -17.5 -70t-11.5 -83
q-4 -44 -4.5 -87t4.5 -78q5 -39 12 -75.5t20 -68.5q13 -33 34 -61t53 -49q18 -12 42.5 -14t48.5 4q38 9 68.5 36t41.5 54z" />
    <glyph glyph-name="uni3045" unicode="&#x3045;" horiz-adv-x="770" 
d="M494 416q-27 30 -69.5 47t-78.5 14l-48 -74q48 -2 82 -15t67 -46zM527 188q0 46 -25 80.5t-65 48.5q-11 3 -34.5 5.5t-45.5 -3.5l-114 -30l33 -78q4 1 15.5 4.5t24.5 7.5l28 8t25 6q15 3 29 -1t23 -17q8 -11 9.5 -28.5t-0.5 -29.5q-5 -23 -21.5 -45.5t-40.5 -41.5
t-52.5 -32.5t-56.5 -17.5l82 -51q39 9 73 29.5t59 48.5q25 29 39.5 63.5t14.5 73.5z" />
    <glyph glyph-name="uni3046" unicode="&#x3046;" horiz-adv-x="770" 
d="M533 562q-36 39 -92.5 61.5t-105.5 19.5l-63 -80q64 -1 109.5 -18.5t89.5 -62.5zM578 255q0 63 -33.5 109.5t-87.5 64.5q-15 5 -46 7.5t-61 -4.5l-151 -41l39 -90q6 1 21.5 6t34.5 11q18 5 38 10.5t37 8.5q23 3 45 -3t37 -25q12 -18 14.5 -41.5t-1.5 -42.5
q-7 -35 -28.5 -68.5t-52.5 -60.5q-32 -28 -72 -47t-83 -26l102 -53q52 12 97.5 39.5t78.5 65.5q33 37 52.5 83t19.5 97z" />
    <glyph glyph-name="uni3047" unicode="&#x3047;" horiz-adv-x="770" 
d="M484 352v87h-234l36 -87h198zM627 81q-18 -9 -49 -13t-61 -4h-16t-16 2q-10 0 -16 5.5t-6 17.5v9t1 10q0 6 0.5 10.5t0.5 9.5q0 17 -16.5 32t-37.5 20l107 107l-34 43l-321 -28l26 -83l161 19l-204 -211l58 -60l136 141q12 0 24.5 -10t12.5 -22v-21t1 -21
q1 -21 14.5 -32.5t34.5 -17.5q7 -3 27.5 -5t27.5 -2q34 -1 59.5 2t55.5 9z" />
    <glyph glyph-name="uni3048" unicode="&#x3048;" horiz-adv-x="770" 
d="M514 506v94h-311l48 -94h263zM701 105q-23 -12 -68 -18t-83 -6q-12 0 -27 1t-27 4q-13 3 -21 10t-8 19v12.5t1 13.5q0 6 0.5 13t0.5 14q0 22 -21 42t-49 26l162 163l-47 57l-427 -37l35 -89l256 25l-303 -306l67 -75l186 188q15 0 29.5 -14.5t14.5 -29.5v-27.5t1 -27.5
q3 -29 21 -44t46 -23q4 -2 14.5 -3.5t21.5 -2.5q11 -2 21.5 -2.5t15.5 -0.5q45 -3 79 1t73 13z" />
    <glyph glyph-name="uni3049" unicode="&#x3049;" horiz-adv-x="770" 
d="M624 312q-24 31 -57 54t-76 25l-42 -67q36 -5 70.5 -26t58.5 -57zM613 105q0 35 -17 69.5t-66 55.5q-42 18 -90 16.5t-81 -7.5v34q18 3 38 9t33 15v92q-15 -12 -33 -19.5t-38 -11.5v98h-89v-108q-3 0 -5 -0.5t-4 -0.5h-5h-4l-106 -6l11 -83l113 7v-54
q-42 -21 -74.5 -53.5t-34.5 -68.5q-3 -36 8 -56t41 -38q17 -10 39 -15.5t40 -6.5q20 -3 37 -3t33 3v188q36 11 69 12t57 -8t35 -25.5t11 -28.5q0 -26 -13 -37.5t-31 -9.5q-15 0 -23 8t-11 21q-3 12 -2.5 27.5t3.5 30.5l-76 -16q-6 -22 -3.5 -45.5t12.5 -43.5
q11 -21 28.5 -36t41.5 -20q30 -7 58 -1t50 22t35 40t13 54zM270 53q-3 0 -7 1.5t-7 3.5q-10 6 -12 15.5t1 19.5q3 8 9.5 15.5t15.5 14.5v-70z" />
    <glyph glyph-name="uni304A" unicode="&#x304a;" horiz-adv-x="770" 
d="M703 419q-32 42 -75.5 72t-101.5 32l-51 -74q48 -6 95 -34t78 -75zM694 148q0 47 -22.5 93t-88.5 74q-56 23 -119.5 21.5t-108.5 -10.5v62q25 4 51 11.5t43 19.5v101q-20 -15 -44 -24.5t-50 -15.5v136h-101v-149q-6 -1 -11 -1h-10q-6 -1 -11 -1h-9l-143 -7l15 -90l169 10
v-82q-31 -13 -60 -31t-51 -40q-23 -22 -37 -47t-15 -51q-3 -48 11 -74.5t55 -50.5q21 -14 50.5 -21t54.5 -9q26 -3 49 -3.5t44 2.5v264q48 12 88 13t79 -8q36 -9 54 -35.5t18 -47.5q0 -39 -20 -57.5t-48 -16.5q-25 0 -37.5 12t-17.5 30q-4 19 -2.5 42t5.5 47l-94 -26
q-8 -29 -4 -60.5t17 -58.5q14 -27 37.5 -47t56.5 -27q40 -9 77 -1t66 29t46.5 53.5t17.5 71.5zM254 67q-12 0 -23 2t-19 8q-17 10 -20.5 25.5t2.5 30.5q6 19 22.5 35t37.5 28v-129z" />
    <glyph glyph-name="uni304B" unicode="&#x304b;" horiz-adv-x="770" 
d="M464 336q0 45 -32.5 74t-72.5 29h-33l46 139l-92 40l-59 -179h-159l31 -94h98l-116 -356l98 -20l123 376h30q14 0 23.5 -11.5t9.5 -23.5q0 -42 -4 -101t-25 -107q-12 -25 -37.5 -36.5t-42.5 -11.5l67 -74q44 6 72 32.5t40 59.5q11 32 18 67.5t11 70.5q3 34 4.5 66.5
t1.5 59.5zM706 183q-3 23 -21 73.5t-51 100.5q-22 31 -38 48.5t-41 35.5l-83 -44q55 -54 92.5 -126.5t52.5 -146.5z" />
    <glyph glyph-name="uni304C" unicode="&#x304c;" horiz-adv-x="770" 
d="M746 520q-16 26 -45.5 56.5t-58.5 41.5l-50 -35q13 -6 28.5 -19.5t29.5 -29.5t25.5 -32.5t16.5 -28.5zM666 474q-15 26 -44 56.5t-58 42.5l-52 -37q13 -8 28 -21t29 -29q14 -15 25.5 -31.5t16.5 -29.5zM454 327q0 44 -32 72.5t-71 28.5h-31l44 136l-91 39l-57 -175h-156
l31 -92h95l-114 -349l97 -20l121 369h30q12 0 21.5 -11t9.5 -23q0 -42 -3.5 -99.5t-24.5 -105.5q-12 -24 -37 -35t-41 -11l65 -73q43 6 70.5 32t39.5 58q22 63 28 135t6 124zM691 177q-3 22 -20 71.5t-50 99.5q-21 30 -37 47t-40 34l-82 -42q54 -54 90.5 -125t51.5 -143z
" />
    <glyph glyph-name="uni304D" unicode="&#x304d;" horiz-adv-x="770" 
d="M641 336l-12 86l-145 -12l-6 24l-6 24l110 8l-12 86l-119 -10q-5 16 -8 29.5l-5 22.5q-2 10 -3.5 15.5t-1.5 6.5h-100l20 -83l-71 -6q-18 -2 -34.5 -3.5t-31.5 -1.5q-14 -1 -27.5 -1t-25.5 2l36 -87l175 14l12 -48l-147 -12q-36 -3 -66 -1.5t-54 10.5l37 -92
q30 -6 55.5 -5t60.5 4l40 3t95 8l13 -52q-37 2 -77.5 -2.5t-69.5 -14.5q-51 -17 -86.5 -54t-35.5 -82q0 -51 34 -83.5t88 -45.5q21 -6 45.5 -9.5t47.5 -4.5q22 -2 40.5 -2h27.5q10 0 29 1t41 4q22 2 44 6t40 10l-20 95q-27 -12 -62.5 -18t-73.5 -7q-37 -2 -73 2t-63 13
q-15 4 -27 15t-12 26t11 26.5t23 17.5q24 12 54 16.5t60 4.5q29 0 56 -4.5t45 -10.5l33 34q-1 2 -11 38t-22 89q27 2 51 4t42 3q18 2 29 3t13 1z" />
    </font>
</defs>
</svg>
