<?xml version="1.0" standalone="no"?>
<!DOCTYPE svg PUBLIC "-//W3C//DTD SVG 1.1//EN" "http://www.w3.org/Graphics/SVG/1.1/DTD/svg11.dtd" >
<svg xmlns="http://www.w3.org/2000/svg" xmlns:xlink="http://www.w3.org/1999/xlink" version="1.1">
<metadata>
Created by FontForge 20200427 at Sat Apr 14 14:45:23 2012
 By www
Copyright c 1989-2012 YoonDesign Inc. All rights reserved. The Font Software is protected by copyright laws of Korea, international copyright treaties. It may not be reproduced, copied, distributed, resold, rented, transferred without the written expression of YoonDesign Inc.
</metadata>
<defs>
<font id="YDYooncheM" horiz-adv-x="820" >
  <font-face 
    font-family="YDYooncheM"
    font-weight="400"
    font-stretch="normal"
    units-per-em="1000"
    panose-1="2 2 6 3 2 1 1 2 1 1"
    ascent="800"
    descent="-200"
    x-height="534"
    cap-height="600"
    bbox="-77 -200 900 829"
    underline-thickness="25"
    underline-position="-212"
    unicode-range="U+0020-FFE6"
  />
<missing-glyph horiz-adv-x="1000" 
d="M100 -100v800h800v-800h-800zM150 -50h700v700h-700v-700z" />
    <glyph glyph-name=".notdef" horiz-adv-x="1000" 
d="M100 -100v800h800v-800h-800zM150 -50h700v700h-700v-700z" />
    <glyph glyph-name="glyph1" horiz-adv-x="0" 
 />
    <glyph glyph-name="glyph2" horiz-adv-x="1000" 
 />
    <glyph glyph-name="space" unicode=" " horiz-adv-x="330" 
 />
    <glyph glyph-name="exclam" unicode="!" horiz-adv-x="440" 
d="M153 799v-252l36 -301h63l36 301v252h-135zM154 98v-122h132v122h-132z" />
    <glyph glyph-name="quotedbl" unicode="&#x22;" horiz-adv-x="354" 
d="M41 798v-252h108v252h-108zM203 798v-252h108v252h-108z" />
    <glyph glyph-name="numbersign" unicode="#" horiz-adv-x="770" 
d="M522 258h129v92h-113l24 140h125v92h-109l32 189h-103l-32 -189h-125l32 189h-102l-33 -189h-127v-92h112l-24 -140h-124v-92h108l-32 -189h103l31 189h126l-32 -189h102zM435 350h-125l25 140h125z" />
    <glyph glyph-name="dollar" unicode="$" horiz-adv-x="770" 
d="M420 800h-72v-31q-88 -9 -143.5 -63t-55.5 -134q0 -52 25.5 -84.5t63.5 -54.5q38 -21 82 -35t81 -28q21 -10 40 -18.5t34 -19.5q14 -11 23.5 -25.5t11.5 -34.5q4 -43 -34.5 -73.5t-94.5 -30.5q-60 0 -94.5 37.5t-34.5 85.5h-123q0 -38 14 -75.5t41 -67.5q28 -31 69 -51.5
t95 -25.5v-55h72v56q44 5 82 22.5t66 44.5q28 26 44.5 60.5t16.5 74.5q0 44 -16.5 74.5t-42.5 51.5q-25 21 -56.5 35.5t-61.5 26.5q-26 10 -56.5 19t-58.5 22q-27 12 -46.5 29.5t-20.5 44.5q-3 36 25 65.5t86 29.5q55 0 81.5 -32.5t26.5 -66.5h126q-3 33 -17.5 65t-39.5 59
q-25 26 -60 45t-78 26v32z" />
    <glyph glyph-name="percent" unicode="%" horiz-adv-x="770" 
d="M532 789l-415 -738h120l411 738h-116zM-1 600q0 -36 13 -67t36 -54q24 -23 55 -36.5t67 -13.5q35 0 66 13.5t54 36.5q24 23 37.5 54t13.5 67q0 35 -13.5 66t-37.5 55q-23 23 -54 36.5t-66 13.5q-36 0 -67 -13.5t-55 -36.5q-23 -24 -36 -55t-13 -66zM430 239
q0 -36 13.5 -67t36.5 -54t54 -36.5t67 -13.5q35 0 66 13.5t55 36.5q23 23 36.5 54t13.5 67q0 35 -13.5 66t-36.5 55q-24 23 -55 36.5t-66 13.5q-36 0 -67 -13.5t-54 -36.5q-23 -24 -36.5 -55t-13.5 -66zM169 686q34 0 60 -26t26 -60q0 -35 -26 -60t-60 -25q-35 0 -60 25
t-25 60q0 34 25 60t60 26zM601 326q34 0 60 -26t26 -60q0 -35 -26 -60t-60 -25q-35 0 -60 25t-25 60q0 34 25 60t60 26z" />
    <glyph glyph-name="ampersand" unicode="&#x26;" horiz-adv-x="770" 
d="M476 619q0 -32 -24.5 -59t-52.5 -44q-23 21 -43.5 50t-20.5 62q-1 29 17 50.5t53 21.5q40 0 55.5 -26.5t15.5 -54.5zM494 218q-26 -27 -62 -44t-74 -17q-41 0 -73 29.5t-35 68.5q-3 48 28.5 84t76.5 57zM606 69h140l-118 149q30 40 46 91t22 99h-107q0 -15 -8 -48.5
t-20 -54.5l-101 129q22 14 44.5 32t39.5 41q18 22 29 48.5t11 58.5q0 85 -53.5 130t-131.5 45q-35 0 -67 -12.5t-57 -34.5t-40 -52.5t-15 -67.5q0 -44 23.5 -81.5t51.5 -72.5q-30 -17 -59 -37t-52 -45t-37.5 -56t-14.5 -68q0 -51 17 -90t47 -66t70 -41t87 -14q54 0 107.5 26
t93.5 65z" />
    <glyph glyph-name="quotesingle" unicode="'" horiz-adv-x="270" 
d="M77 800v-252h117v252h-117z" />
    <glyph glyph-name="parenleft" unicode="(" horiz-adv-x="270" 
d="M134 800q-71 -101 -104 -212t-32 -223q1 -113 35.5 -222.5t101.5 -206.5h133q-78 105 -116.5 216t-38.5 222t38.5 219t115.5 207h-133z" />
    <glyph glyph-name="parenright" unicode=")" horiz-adv-x="270" 
d="M2 800q76 -99 115 -207t39 -219t-39 -222t-116 -216h133q66 97 101 206.5t36 222.5q1 112 -32.5 223t-103.5 212h-133z" />
    <glyph glyph-name="asterisk" unicode="*" horiz-adv-x="334" 
d="M135 578l-6 -113h75l-5 114l97 -60l37 64l-102 53l101 51l-35 66l-98 -58l7 105h-76l6 -107l-93 57l-35 -63l99 -50l-102 -51l36 -66z" />
    <glyph glyph-name="plus" unicode="+" horiz-adv-x="470" 
d="M289 366h169v99h-169v180h-108v-180h-169v-99h169v-180h108v180z" />
    <glyph glyph-name="comma" unicode="," horiz-adv-x="270" 
d="M26 67v-126h70l-41 -116h67l51 116v126h-147z" />
    <glyph glyph-name="hyphen" unicode="-" horiz-adv-x="470" 
d="M11 468v-108h446v108h-446z" />
    <glyph glyph-name="period" unicode="." horiz-adv-x="270" 
d="M24 82v-135h144v135h-144z" />
    <glyph glyph-name="slash" unicode="/" horiz-adv-x="402" 
d="M113 -64l290 864h-116l-289 -864h115z" />
    <glyph glyph-name="zero" unicode="0" horiz-adv-x="760" 
d="M-6 394q0 -81 30.5 -152.5t83.5 -124.5t124.5 -83.5t152.5 -30.5t152 30.5t125 83.5q53 53 84 124.5t31 152.5t-31 152t-84 125q-54 53 -125 84t-152 31t-152.5 -31t-124.5 -84q-53 -54 -83.5 -125t-30.5 -152zM385 678q58 0 110 -22.5t90 -61.5q39 -38 61.5 -90
t22.5 -110q0 -59 -22.5 -111t-61.5 -90q-38 -38 -90 -60t-110 -22q-59 0 -111 22t-90 60t-60 90t-22 111q0 58 22 110t60 90q38 39 90 61.5t111 22.5z" />
    <glyph glyph-name="one" unicode="1" horiz-adv-x="440" 
d="M363 767h-286v-110h157v-635h129v745z" />
    <glyph glyph-name="two" unicode="2" horiz-adv-x="580" 
d="M161 518q-8 24 -2.5 52.5t21.5 52.5q17 24 44.5 40.5t64.5 16.5q30 0 55 -12.5t43 -32.5t27 -46.5t6 -53.5q-3 -20 -8 -33.5t-15 -26.5q-10 -14 -27 -30t-43 -41l-295 -269v-113h515v116h-335l216 199q70 64 95.5 119.5t22.5 100.5q-4 47 -24.5 88.5t-54.5 73.5
q-34 31 -79.5 49.5t-97.5 18.5q-67 0 -116.5 -27t-82.5 -68q-32 -40 -47 -87t-12 -86z" />
    <glyph glyph-name="three" unicode="3" horiz-adv-x="580" 
d="M33 251q-1 -52 18.5 -97.5t54.5 -78.5q34 -34 81 -53t102 -19q51 0 98 18t82 51q36 32 57 78t21 102q0 53 -30.5 99t-69.5 67q12 10 26.5 23.5t26.5 31.5q12 17 20.5 40.5t8.5 54.5q0 38 -17.5 76.5t-48.5 70.5q-32 31 -76 51t-97 20q-58 0 -102.5 -19.5t-74.5 -50.5
q-30 -32 -45.5 -71t-15.5 -79h125q0 45 30 78.5t80 33.5q51 0 81.5 -35.5t30.5 -77.5q0 -52 -42 -83t-116 -22v-92q38 4 71 -3t58 -23q24 -17 38 -42t14 -56q0 -30 -11.5 -54.5t-29.5 -42.5q-18 -17 -42 -26.5t-49 -9.5q-52 0 -91 36.5t-39 104.5z" />
    <glyph glyph-name="four" unicode="4" horiz-adv-x="580" 
d="M354 766l-325 -544v-104h319v-97h129v97h77v114h-77v534h-123zM347 546v-315h-188z" />
    <glyph glyph-name="five" unicode="5" horiz-adv-x="580" 
d="M137 766l-75 -402l119 -39q0 1 5.5 13t19.5 26q13 14 35 25.5t55 11.5q23 0 46.5 -8.5t43.5 -26.5q19 -17 31.5 -45t12.5 -67q0 -44 -14.5 -72t-35.5 -45q-21 -16 -44 -22.5t-40 -6.5q-20 0 -42.5 7t-41.5 24q-18 17 -31 44t-13 67h-126q-3 -33 11.5 -76t45.5 -81
q31 -39 79.5 -65t114.5 -26q56 0 103 21.5t80 57.5q34 36 53 83t19 98q0 44 -13 81t-33 66t-44 48.5t-45 29.5q-48 20 -86.5 20t-66.5 -8q-27 -8 -42.5 -19t-16.5 -12l35 183h274v115h-373z" />
    <glyph glyph-name="six" unicode="6" horiz-adv-x="580" 
d="M406 766h-134l-213 -397q-12 -26 -18.5 -51.5t-6.5 -58.5q-1 -54 19 -100.5t55 -81.5t82 -55t101 -20q52 0 100 20.5t84 55.5q35 35 55 81.5t18 99.5q-3 68 -30.5 117t-68.5 79q-41 31 -89.5 43t-92.5 7zM290 397q29 0 54.5 -11.5t44.5 -30.5q19 -20 30.5 -45.5
t11.5 -54.5t-11.5 -55t-30.5 -45t-44.5 -30t-53.5 -11q-30 0 -55.5 11t-45.5 30q-19 19 -30 44.5t-11 55.5q0 29 11 54.5t30 45.5q19 19 44.5 30.5t55.5 11.5z" />
    <glyph glyph-name="seven" unicode="7" horiz-adv-x="580" 
d="M44 765v-115h357l-302 -629h138l302 629v115h-495z" />
    <glyph glyph-name="eight" unicode="8" horiz-adv-x="580" 
d="M529 568q0 45 -20.5 84.5t-53.5 68.5q-34 30 -77 47t-88 17q-46 0 -89 -17t-76 -46q-33 -30 -53 -69.5t-20 -85.5q0 -54 28 -94t55 -55q-42 -26 -72 -70.5t-30 -101.5q0 -53 20 -97.5t55 -76.5q34 -33 81 -51t100 -18q52 0 99 18t82 51q36 32 56.5 76.5t20.5 97.5
q0 57 -29.5 101.5t-71.5 70.5q28 15 55.5 56t27.5 94zM290 686q45 -2 77 -34t35 -78q1 -47 -32.5 -79t-79.5 -32q-47 0 -79.5 32t-32.5 79q0 46 32.5 79t79.5 33zM290 368q54 0 92.5 -38.5t38.5 -92.5q0 -56 -38.5 -94t-92.5 -38q-55 0 -93 38t-38 94q0 54 38 92.5t93 38.5z
" />
    <glyph glyph-name="nine" unicode="9" horiz-adv-x="580" 
d="M174 22h134l213 397q12 25 18.5 51t6.5 59q0 53 -20 99.5t-55 81.5t-82 55.5t-100 20.5t-101 -21t-83 -56q-36 -35 -56 -81.5t-17 -98.5q2 -69 29.5 -118t69.5 -79q41 -31 89.5 -43t93.5 -6zM285 391q-29 0 -55 11t-45 30q-19 20 -30 46t-11 56q0 28 11 53.5t30 44.5
t45 30.5t55 11.5t55 -11.5t45 -30.5q20 -19 31.5 -44.5t11.5 -53.5q0 -30 -11.5 -56t-30.5 -46q-20 -19 -46 -30t-55 -11z" />
    <glyph glyph-name="colon" unicode=":" horiz-adv-x="270" 
d="M65 243v-128h139v128h-139zM65 650v-128h139v128h-139z" />
    <glyph glyph-name="semicolon" unicode=";" horiz-adv-x="270" 
d="M66 229v-121h63l-42 -131h68l50 131v121h-139zM66 645v-122h139v122h-139z" />
    <glyph glyph-name="less" unicode="&#x3c;" horiz-adv-x="316" 
d="M231 801l-236 -425l237 -426l92 51l-207 375l207 374z" />
    <glyph glyph-name="equal" unicode="=" horiz-adv-x="470" 
d="M12 577v-99h446v99h-446zM12 361v-99h446v99h-446z" />
    <glyph glyph-name="greater" unicode="&#x3e;" horiz-adv-x="318" 
d="M321 376l-236 425l-93 -51l207 -374l-207 -375l92 -51z" />
    <glyph glyph-name="question" unicode="?" horiz-adv-x="710" 
d="M122 555h123q-1 2 -2 22t7 44q7 23 28.5 44t66.5 25q32 2 55 -8.5t37 -27.5q14 -18 19.5 -39t2.5 -39q-4 -21 -13 -35t-23 -26t-32 -25t-39 -31q-33 -29 -48 -61.5t-15 -68.5v-116h126v99q0 28 9 45t25 31q15 14 36.5 30t46.5 44q43 48 50 106.5t-18 109.5t-79 85.5
t-133 34.5q-69 -2 -114 -25.5t-71 -58.5q-27 -36 -37 -78.5t-8 -80.5zM287 98v-121h131v121h-131z" />
    <glyph glyph-name="at" unicode="@" horiz-adv-x="770" 
d="M283 415q-1 21 7.5 45t24.5 45q15 20 36 33t47 13q28 -1 50 -24.5t22 -56.5q0 -26 -9 -50.5t-24 -43.5t-35.5 -30.5t-43.5 -11.5q-31 0 -53 21.5t-22 59.5zM571 614h-65l-15 -49q-15 35 -44.5 48.5t-56.5 13.5q-43 0 -78 -19.5t-60 -50.5q-24 -31 -37.5 -71t-13.5 -80
q0 -30 10.5 -57t29.5 -47q18 -21 43 -32.5t53 -11.5q27 0 52.5 12t41.5 38h2q0 -21 18 -35t45 -14q20 0 54.5 14t67.5 44t57.5 77.5t24.5 114.5q0 60 -25 109t-67 83q-42 35 -96.5 54t-113.5 19q-68 0 -128 -25t-105 -68q-45 -44 -70.5 -103t-25.5 -128q0 -70 26 -129.5
t71 -102.5q45 -44 105.5 -68.5t130.5 -24.5q45 0 89.5 12t82.5 35q38 22 68.5 54t47.5 71h-67q-13 -24 -36 -44t-52 -34q-30 -14 -63.5 -22t-66.5 -7q-56 1 -103.5 19.5t-82.5 52.5q-34 34 -53.5 80.5t-19.5 103.5q0 54 17 102t50 84q32 36 78.5 56.5t105.5 20.5
q49 -1 92.5 -14.5t76.5 -40.5q33 -28 52 -68.5t19 -94.5q0 -34 -10.5 -64t-25.5 -52q-16 -23 -35.5 -36t-38.5 -11q-16 1 -17 14.5t3 30.5z" />
    <glyph glyph-name="A" unicode="A" 
d="M344 768l-302 -737h124l79 193h331l78 -193h123l-301 737h-132zM410 626l118 -297h-236z" />
    <glyph glyph-name="B" unicode="B" horiz-adv-x="580" 
d="M35 769v-738h269q33 0 75 11.5t79 38.5t62.5 71t25.5 109q0 48 -18 81.5t-39 54.5q-22 21 -39.5 30.5t-17.5 10.5q1 1 13 11.5t26 29.5q14 18 25.5 43.5t11.5 56.5q0 36 -14.5 70t-42.5 61q-29 26 -70 42.5t-95 16.5h-251zM154 665h128q47 0 71 -29t24 -61
q0 -33 -24.5 -61t-69.5 -28h-129v179zM153 383h142q22 0 43.5 -9t38.5 -26q17 -16 28 -38.5t11 -49.5q0 -29 -11 -52t-28 -39q-17 -17 -38.5 -25.5t-42.5 -8.5h-143v248z" />
    <glyph glyph-name="C" unicode="C" horiz-adv-x="840" 
d="M792 513q-17 59 -52 109.5t-83 86.5q-48 37 -107 57.5t-124 20.5q-80 0 -150.5 -31t-123.5 -83q-52 -53 -82.5 -123.5t-30.5 -149.5q0 -80 30.5 -150.5t82.5 -123.5q53 -52 123.5 -82.5t150.5 -30.5q65 0 124 20t107 57q48 36 83 86.5t52 110.5l-121 -1q-12 -27 -32 -56
t-50 -53t-70 -39.5t-90 -15.5q-55 0 -105.5 21t-88.5 58q-39 38 -62 88.5t-23 110.5q0 59 23 109.5t61 88.5q39 37 89.5 58.5t105.5 21.5q51 0 91.5 -17t70.5 -42t50 -53.5t30 -52.5h121z" />
    <glyph glyph-name="D" unicode="D" horiz-adv-x="700" 
d="M42 768v-737h283q47 0 106 18.5t111 61.5t87.5 113.5t35.5 174.5q0 103 -37 173.5t-90 113.5q-52 44 -111 63t-102 19h-283zM162 667h103q61 0 112 -19.5t88 -54.5q36 -35 57 -84.5t21 -110.5q0 -62 -21 -111.5t-58 -83.5q-37 -35 -88 -53t-111 -18h-103v535z" />
    <glyph glyph-name="E" unicode="E" horiz-adv-x="560" 
d="M32 768v-737h492v108h-370v229h350v103h-350v188h360v109h-482z" />
    <glyph glyph-name="F" unicode="F" horiz-adv-x="550" 
d="M33 769v-737h120v337h351v103h-351v188h362v109h-482z" />
    <glyph glyph-name="G" unicode="G" horiz-adv-x="860" 
d="M798 514q-18 60 -54 110t-84 87q-49 37 -108 57.5t-124 20.5q-81 0 -151.5 -31t-123.5 -83q-52 -53 -82.5 -123.5t-30.5 -150.5t30.5 -150.5t82.5 -123.5q53 -52 123.5 -82.5t151.5 -30.5q65 0 133.5 24.5t124.5 75.5q57 52 92.5 131t34.5 189h-426v-112h296
q-8 -35 -28 -70.5t-52 -63.5q-33 -29 -77 -47t-99 -18q-60 0 -111 22.5t-88 60.5q-38 39 -58.5 89t-20.5 106q0 55 20.5 105t57.5 89q37 38 88 61t112 23q45 0 84 -14t71 -37q31 -23 55 -52.5t40 -60.5z" />
    <glyph glyph-name="H" unicode="H" horiz-adv-x="640" 
d="M37 768v-737l125 1v338h316v-338l126 -1v737h-126v-300h-316v300h-125z" />
    <glyph glyph-name="I" unicode="I" horiz-adv-x="180" 
d="M24 769v-738h132v738h-132z" />
    <glyph glyph-name="J" unicode="J" horiz-adv-x="560" 
d="M396 242q1 -27 -9 -49.5t-27 -38.5q-17 -17 -39.5 -26t-44.5 -9q-23 0 -46 9.5t-40 28.5q-18 18 -27.5 44.5t-5.5 60.5h-125q0 -54 20.5 -99.5t54.5 -79.5q34 -33 78 -52t92 -19q47 0 91.5 18t78.5 50q35 33 56 78t21 100v510l-128 -1v-525z" />
    <glyph glyph-name="K" unicode="K" horiz-adv-x="610" 
d="M37 769v-737h125v330l269 -330h145l-293 368l293 369l-145 1l-269 -333v333z" />
    <glyph glyph-name="L" unicode="L" horiz-adv-x="540" 
d="M35 768v-737h473v110h-345v627h-128z" />
    <glyph glyph-name="M" unicode="M" horiz-adv-x="840" 
d="M42 768v-737h125v526l199 -526h109l198 528v-528h125v737h-170l-208 -557l-208 557h-170z" />
    <glyph glyph-name="N" unicode="N" horiz-adv-x="660" 
d="M38 767v-736h121v545l333 -545h131v736h-122v-545l-333 545h-130z" />
    <glyph glyph-name="O" unicode="O" horiz-adv-x="860" 
d="M43 400q0 -80 30.5 -150.5t82.5 -123.5q53 -52 123.5 -82.5t150.5 -30.5q79 0 149.5 30.5t123.5 82.5q52 53 83 123.5t31 150.5q0 79 -31 149.5t-83 123.5q-53 52 -123.5 83t-149.5 31q-80 0 -150.5 -31t-123.5 -83q-52 -53 -82.5 -123.5t-30.5 -149.5zM430 678
q57 0 107.5 -22t88.5 -60t60 -88.5t22 -107.5q0 -58 -22 -108.5t-60 -88.5t-88.5 -59.5t-107.5 -21.5q-58 0 -108.5 21.5t-88.5 59.5t-59.5 88.5t-21.5 108.5q0 57 21.5 107.5t59.5 88.5t88.5 60t108.5 22z" />
    <glyph glyph-name="P" unicode="P" horiz-adv-x="600" 
d="M163 660h159q22 0 43.5 -8.5t38.5 -24.5t27.5 -38.5t10.5 -49.5q0 -26 -10.5 -47.5t-27.5 -37.5q-17 -15 -38.5 -23.5t-43.5 -8.5h-159v238zM340 768h-303v-737h126v283h171q42 0 83.5 16t74.5 46t54 71.5t21 91.5q0 51 -20 93t-52 72t-72.5 47t-82.5 17z" />
    <glyph glyph-name="Q" unicode="Q" horiz-adv-x="860" 
d="M491 374l-80 -95l144 -117q-29 -16 -63 -26t-70 -10q-58 0 -108.5 22t-87.5 60q-38 38 -59.5 88.5t-21.5 108.5q0 57 21.5 107t59.5 88q37 38 87.5 60t108.5 22q57 0 107.5 -22t88.5 -60q37 -38 59.5 -88t22.5 -107q0 -45 -13 -85.5t-37 -73.5zM736 171q36 48 56 106.5
t20 123.5q0 79 -31 149.5t-83 123.5q-53 52 -123.5 83t-149.5 31q-81 0 -151.5 -31t-123.5 -83q-52 -53 -82.5 -123.5t-30.5 -149.5q0 -80 30.5 -151t82.5 -123q53 -53 123.5 -83.5t151.5 -30.5q62 0 119.5 20.5t105.5 53.5l86 -71l76 92z" />
    <glyph glyph-name="R" unicode="R" horiz-adv-x="600" 
d="M161 32v335l268 -336h137l-219 284q46 1 86.5 20.5t69.5 51.5q29 31 46 71t17 83q0 50 -20 92t-52 72t-72.5 47t-82.5 17h-303v-737h125zM161 661h160q22 0 43.5 -8.5t38.5 -24.5t27.5 -38t10.5 -49t-10.5 -48.5t-27.5 -37.5q-17 -15 -38.5 -23.5t-43.5 -8.5h-160v238z
" />
    <glyph glyph-name="S" unicode="S" horiz-adv-x="600" 
d="M418 571h127q-3 40 -22 79t-50 70q-32 30 -76 49t-97 19q-50 0 -94.5 -18.5t-77.5 -48.5t-52.5 -69.5t-19.5 -81.5q0 -60 26 -96t65 -59q39 -22 85.5 -36.5t87.5 -30.5q47 -22 81 -45.5t34 -66.5q0 -20 -9.5 -39.5t-27.5 -35.5q-17 -16 -42 -25.5t-56 -9.5
q-55 0 -97.5 35t-42.5 98h-125q0 -42 17 -86t51 -79q33 -36 83 -58.5t115 -22.5q53 -1 100 18.5t82 51.5q36 31 56.5 72t20.5 85q0 54 -15.5 87.5t-41.5 54.5q-25 21 -57.5 34.5t-65.5 29.5q-27 12 -62 22.5t-65 23.5q-31 14 -52 33.5t-21 49.5q0 40 31 72.5t88 32.5
q27 0 49 -11t37 -28q16 -16 24.5 -35t8.5 -35z" />
    <glyph glyph-name="T" unicode="T" horiz-adv-x="590" 
d="M232 31h126v628h197v109h-520v-109h197v-628z" />
    <glyph glyph-name="U" unicode="U" horiz-adv-x="620" 
d="M46 768v-482q0 -47 18 -96t54 -88q35 -40 85.5 -65t115.5 -25t116.5 25t86.5 65q35 39 54 88t19 96v482h-126v-484q0 -30 -11.5 -56.5t-31.5 -46.5t-47.5 -32t-58.5 -12q-32 0 -59 12t-47 32t-31 46.5t-11 56.5v484h-126z" />
    <glyph glyph-name="V" unicode="V" horiz-adv-x="800" 
d="M629 769l-229 -585l-228 585l-132 -1l294 -737h133l292 737z" />
    <glyph glyph-name="W" unicode="W" horiz-adv-x="920" 
d="M515 768h-110l-115 -514l-113 514l-133 1l170 -737l127 1l119 498l119 -498l127 -1l170 737l-132 -1l-114 -514z" />
    <glyph glyph-name="X" unicode="X" horiz-adv-x="770" 
d="M56 770l260 -359l-270 -379h152l206 274l198 -274h155l-274 379l265 359h-153l-194 -256l-194 256h-151z" />
    <glyph glyph-name="Y" unicode="Y" horiz-adv-x="720" 
d="M39 770l260 -472v-265h122v265l260 472l-143 -1l-178 -339l-175 339z" />
    <glyph glyph-name="Z" unicode="Z" horiz-adv-x="580" 
d="M54 768l1 -105h336l-356 -535v-96h511l2 105h-378l358 535l-1 96h-473z" />
    <glyph glyph-name="bracketleft" unicode="[" horiz-adv-x="270" 
d="M53 800v-864h229v104h-121v657h121v103h-229z" />
    <glyph glyph-name="backslash" unicode="\" horiz-adv-x="402" 
d="M289 -64l-290 864h116l289 -864h-115z" />
    <glyph glyph-name="bracketright" unicode="]" horiz-adv-x="270" 
d="M216 -64v864h-229v-103h121v-657h-121v-104h229z" />
    <glyph glyph-name="asciicircum" unicode="^" horiz-adv-x="405" 
d="M-4 421h104l103 272l104 -272h104l-149 378h-117z" />
    <glyph glyph-name="underscore" unicode="_" horiz-adv-x="454" 
d="M1 2v-108h450v108h-450z" />
    <glyph glyph-name="grave" unicode="`" horiz-adv-x="216" 
d="M148 447l-133 217h111l82 -217h-60z" />
    <glyph glyph-name="a" unicode="a" horiz-adv-x="670" 
d="M509 18h118v524h-118v-77q-48 60 -104.5 77t-103.5 17q-49 0 -96.5 -21.5t-84.5 -58.5q-38 -38 -60.5 -89t-22.5 -110q0 -60 23 -111t60 -88q38 -37 85 -58.5t95 -21.5q48 -1 107 20t102 70v-73zM157 280q0 37 14 69.5t38 57.5q25 24 57.5 38.5t70.5 14.5
q37 0 69.5 -14.5t57.5 -38.5q24 -25 38.5 -57.5t14.5 -69.5q0 -38 -14.5 -70.5t-38.5 -57.5q-25 -24 -57.5 -38t-69.5 -14q-38 0 -70.5 14t-57.5 38q-24 25 -38 57.5t-14 70.5z" />
    <glyph glyph-name="b" unicode="b" horiz-adv-x="670" 
d="M165 30v70q42 -49 101.5 -68.5t107.5 -18.5q47 0 94 21t85 58q37 38 60.5 89t23.5 111q0 59 -23 110t-61 89q-37 37 -84 58.5t-95 21.5t-104.5 -20t-104.5 -80v289h-118v-730h118zM342 111q-38 0 -70.5 14t-57.5 39q-24 25 -38 57.5t-14 70.5q0 37 14 69.5t38 57.5
q25 24 57.5 38.5t70.5 14.5q37 0 69.5 -14.5t57.5 -38.5q24 -25 38.5 -57.5t14.5 -69.5q0 -38 -14.5 -70.5t-38.5 -57.5q-25 -25 -57.5 -39t-69.5 -14z" />
    <glyph glyph-name="c" unicode="c" horiz-adv-x="623" 
d="M582 367q-15 41 -40.5 76.5t-59.5 62.5q-33 26 -75 41.5t-90 15.5q-58 0 -109 -22.5t-90 -60.5q-38 -38 -60 -89t-22 -109q0 -59 22 -110t60 -89q39 -38 90 -60t109 -22q48 0 91 14.5t78 41.5q34 26 59 62t38 78h-119q-17 -33 -50.5 -61.5t-92.5 -28.5q-32 0 -63.5 12
t-56.5 35q-25 22 -40.5 54.5t-15.5 73.5q0 40 15.5 73t40.5 56t56.5 35t63.5 11q58 -3 90.5 -32t52.5 -59z" />
    <glyph glyph-name="d" unicode="d" horiz-adv-x="670" 
d="M509 28h118v731h-118v-283q-48 59 -104.5 76.5t-103.5 17.5q-49 0 -96.5 -21.5t-84.5 -59.5q-38 -37 -60.5 -88t-22.5 -110q0 -60 23 -111t60 -89q38 -37 85 -58t95 -21q48 -1 107 20t102 70v-74zM157 291q0 37 14 69.5t38 57.5q25 24 57.5 38.5t70.5 14.5
q37 0 69.5 -14.5t57.5 -38.5q24 -25 38.5 -57.5t14.5 -69.5q0 -38 -14.5 -70.5t-38.5 -57.5q-25 -25 -57.5 -39t-69.5 -14q-38 0 -70.5 14t-57.5 39q-24 25 -38 57.5t-14 70.5z" />
    <glyph glyph-name="e" unicode="e" horiz-adv-x="640" 
d="M155 342q18 49 61 84.5t103 35.5q56 0 103 -32t63 -88h-330zM597 250q9 76 -14 133.5t-63 96.5q-42 42 -97 62.5t-104 20.5q-59 0 -110 -22.5t-89 -60.5t-60 -89.5t-22 -108.5q0 -59 22 -110t60 -89t89 -60t110 -22q96 0 163 51.5t100 135.5h-116q-8 -14 -21 -29.5
t-32 -27.5q-19 -13 -42.5 -21.5t-51.5 -8.5q-70 0 -114.5 44.5t-56.5 104.5h449z" />
    <glyph glyph-name="f" unicode="f" horiz-adv-x="380" 
d="M126 464v-432h116v432h106v93h-106l-0.5 7.5t1.5 18.5q3 11 8.5 24t17.5 25q14 14 28 20t25 8q11 1 18 0t8 -1v103q-2 0 -18 1t-39 -3q-23 -5 -51 -18t-55 -41q-24 -25 -36 -50.5t-18 -46.5q-5 -21 -5 -34v-13h-96v-93h96z" />
    <glyph glyph-name="g" unicode="g" horiz-adv-x="660" 
d="M501 68q0 -35 -14.5 -65.5t-38.5 -53.5t-56 -36t-67 -13q-43 0 -74 14.5t-51 32.5t-29.5 34t-10.5 18h-121q1 -4 14.5 -35.5t46.5 -68.5q33 -36 89 -65.5t142 -29.5q66 0 119.5 25t90.5 64t57 85t20 88v469h-117v-76q-49 59 -105.5 75.5t-103.5 16.5q-49 0 -96 -21
t-84 -57q-38 -37 -60.5 -87t-22.5 -108q0 -59 23 -109t60 -86q38 -37 84.5 -57.5t94.5 -20.5q48 -1 107.5 19.5t102.5 68.5v-21zM143 274q0 36 14 68t39 56t57.5 38t70.5 14q37 0 69.5 -14t57.5 -38q24 -24 38.5 -56t14.5 -68q0 -37 -14.5 -69t-38.5 -56
q-25 -24 -57.5 -37.5t-69.5 -13.5q-38 0 -70.5 13.5t-57.5 37.5t-39 56t-14 69z" />
    <glyph glyph-name="h" unicode="h" horiz-adv-x="580" 
d="M544 369q0 38 -15 75t-42 66t-65 47t-84 18q-44 0 -78 -13t-57 -29t-35.5 -29.5t-13.5 -14.5v273h-116v-731h116v310q0 24 9.5 48t27.5 43q17 20 42.5 32t57.5 12q31 0 56 -12.5t43 -32.5q18 -19 27.5 -43.5t9.5 -47.5v-309h117v338z" />
    <glyph glyph-name="i" unicode="i" horiz-adv-x="170" 
d="M146 536h-122v-505h122v505zM146 760h-122v-102h122v102z" />
    <glyph glyph-name="j" unicode="j" horiz-adv-x="280" 
d="M130 43q0 -19 -6 -39.5t-22 -37.5q-23 -24 -48.5 -27.5t-26.5 -3.5v-122l17.5 0.5t43.5 7.5q26 8 56 24.5t56 49.5q18 23 35 56.5t17 96.5v477h-122v-482zM252 646v103h-122v-103h122z" />
    <glyph glyph-name="k" unicode="k" horiz-adv-x="600" 
d="M157 32v235l255 -235h150l-279 262l263 263h-151l-238 -233v438h-118v-730h118z" />
    <glyph glyph-name="l" unicode="l" horiz-adv-x="170" 
d="M146 31v731h-122v-731h122z" />
    <glyph glyph-name="m" unicode="m" horiz-adv-x="840" 
d="M795 379q0 36 -14.5 70t-39.5 60t-59 41.5t-74 15.5q-38 0 -65.5 -12t-46.5 -26q-18 -15 -27.5 -27.5t-10.5 -13.5q-2 1 -11.5 13.5t-27.5 27.5q-18 14 -43.5 26t-56.5 12q-37 0 -65.5 -11.5t-48.5 -25.5t-30.5 -26t-11.5 -13v57h-116v-525h117v342q0 16 6 34t18 33
q13 14 31.5 24t44.5 10q25 0 43.5 -10t31.5 -24q13 -15 19.5 -32.5t6.5 -33.5v-343h111v343q0 13 5.5 30.5t18.5 32.5q12 16 31.5 26.5t47.5 10.5q39 0 69 -29t30 -71v-343h117v357z" />
    <glyph glyph-name="n" unicode="n" horiz-adv-x="580" 
d="M544 358q0 38 -15 75t-42 66t-65 47t-84 18q-44 0 -77.5 -13.5t-56.5 -29.5q-24 -17 -36 -31t-13 -15v70h-117v-525h116v306q0 24 9.5 47.5t27.5 43.5q17 19 42.5 31t57.5 12q31 0 56 -12.5t43 -32.5q18 -19 27.5 -43t9.5 -47v-305h117v338z" />
    <glyph glyph-name="o" unicode="o" horiz-adv-x="640" 
d="M36 286q0 -59 22 -111t61 -90q38 -39 90 -61t111 -22q58 0 110 22t90 61q39 38 61.5 90t22.5 111q0 58 -22.5 110t-61.5 90q-38 39 -90 61.5t-110 22.5q-59 0 -111 -22.5t-90 -61.5q-39 -38 -61 -90t-22 -110zM320 465q36 0 68.5 -14.5t57.5 -38.5q24 -25 38.5 -57.5
t14.5 -68.5q0 -37 -14.5 -69.5t-38.5 -57.5q-25 -24 -57.5 -38t-68.5 -14q-37 0 -69.5 14t-57.5 38q-24 25 -38 57.5t-14 69.5q0 36 14 68.5t38 57.5q25 24 57.5 38.5t69.5 14.5z" />
    <glyph glyph-name="p" unicode="p" horiz-adv-x="670" 
d="M161 -198v279q42 -48 101.5 -69.5t107.5 -20.5q47 0 94 21.5t85 58.5q37 37 60.5 88t23.5 111q0 59 -23 110t-61 89q-37 37 -84 58.5t-95 21.5t-104.5 -17t-104.5 -77v77h-118v-730h118zM338 90q-38 0 -70.5 14t-57.5 38q-24 25 -38 57.5t-14 70.5q0 37 14 69.5t38 57.5
q25 24 57.5 38.5t70.5 14.5q37 0 69.5 -14.5t57.5 -38.5q24 -25 38.5 -57.5t14.5 -69.5q0 -38 -14.5 -70.5t-38.5 -57.5q-25 -24 -57.5 -38t-69.5 -14z" />
    <glyph glyph-name="q" unicode="q" horiz-adv-x="670" 
d="M509 -198h118v730h-118v-77q-48 60 -104.5 77t-103.5 17q-49 0 -96.5 -21.5t-84.5 -58.5q-38 -38 -60.5 -89t-22.5 -110q0 -60 23 -111t60 -88q38 -37 85 -58.5t95 -21.5q48 -1 107 20.5t102 69.5v-279zM152 270q0 37 14 69.5t38 57.5q25 24 57.5 38.5t70.5 14.5
q37 0 69.5 -14.5t57.5 -38.5q24 -25 38.5 -57.5t14.5 -69.5q0 -38 -14.5 -70.5t-38.5 -57.5q-25 -24 -57.5 -38t-69.5 -14q-38 0 -70.5 14t-57.5 38q-24 25 -38 57.5t-14 70.5z" />
    <glyph glyph-name="r" unicode="r" horiz-adv-x="380" 
d="M349 459v97q-2 0 -12 2.5t-27 3.5q-17 0 -38.5 -4t-45.5 -17q-42 -23 -59.5 -47.5t-17.5 -25.5v77h-117v-525h117v301q0 8 4 23t14 33q9 17 25 34.5t39 31.5q18 10 38.5 14t37.5 5q17 0 28.5 -1.5t13.5 -1.5z" />
    <glyph glyph-name="s" unicode="s" horiz-adv-x="475" 
d="M319 385h121q0 24 -11 54.5t-35 58.5q-24 27 -61.5 46t-91.5 19q-42 0 -78.5 -13t-62.5 -35q-27 -22 -42 -52t-15 -63q0 -41 21 -67.5t52 -44.5t67 -30t65 -23q31 -13 53.5 -28.5t25.5 -36.5q4 -26 -20 -47.5t-66 -21.5q-48 0 -70.5 28.5t-22.5 59.5h-117
q0 -28 12.5 -60.5t38.5 -61.5q25 -28 65 -47t94 -19q46 0 84 14t65 38q26 23 41 54t15 64q0 36 -15.5 61.5t-39.5 43.5q-23 18 -51.5 29.5t-53.5 21.5q-20 7 -41.5 15.5t-39.5 17.5t-30.5 19t-12.5 19q-5 27 17.5 46t61.5 19q38 -2 58 -26.5t20 -51.5z" />
    <glyph glyph-name="t" unicode="t" horiz-adv-x="380" 
d="M253 463h96v93h-96v205h-126v-205h-96v-93h96v-432h126v432z" />
    <glyph glyph-name="u" unicode="u" horiz-adv-x="580" 
d="M36 205q0 -39 14.5 -76t41.5 -66q27 -28 65 -45.5t85 -17.5q43 0 76.5 13t56.5 29q24 16 36 30t14 16v-70h117v525l-116 -1v-300q0 -24 -10 -48t-27 -43q-18 -20 -43.5 -31.5t-56.5 -11.5q-32 0 -57 12t-43 32q-18 19 -27 43t-9 48v299l-117 1v-338z" />
    <glyph glyph-name="v" unicode="v" horiz-adv-x="600" 
d="M38 545l203 -526h119l202 526h-129l-133 -377l-132 377h-130z" />
    <glyph glyph-name="w" unicode="w" horiz-adv-x="840" 
d="M478 544h-117l-85 -370l-107 370h-123l162 -525h132l80 351l80 -351h132l162 525h-122l-110 -369z" />
    <glyph glyph-name="x" unicode="x" horiz-adv-x="610" 
d="M49 543l188 -252l-197 -272h137l129 180l130 -180h136l-198 272l189 252h-144l-113 -157l-113 157h-144z" />
    <glyph glyph-name="y" unicode="y" horiz-adv-x="600" 
d="M39 533l204 -525l-81 -205h120l281 731h-125l-137 -377l-135 376h-127z" />
    <glyph glyph-name="z" unicode="z" horiz-adv-x="520" 
d="M54 544l1 -98h268l-287 -332l-1 -95h450v99h-307l287 331l1 95h-412z" />
    <glyph glyph-name="braceleft" unicode="{" horiz-adv-x="270" 
d="M39 321h3t9 -1q5 -2 13 -5t19 -10q14 -12 16.5 -28.5t2.5 -35.5v-143v-34.5t2 -31.5q3 -15 9 -28.5t18 -25.5q27 -30 56.5 -37t71.5 -7h23v72q-1 0 -11 -0.5t-22 -0.5q-13 1 -26 3.5t-19 8.5q-8 6 -12 14t-5 17t-0.5 18.5t0.5 20.5v144q0 13 -0.5 27t-2.5 27
q-1 13 -5.5 25t-11.5 21q-18 21 -32.5 27.5l-14.5 6.5l4 1.5t11 5.5q6 3 15 10t18 19q7 9 11 20.5t6 25.5q1 13 1.5 27t0.5 27v144q0 21 2.5 38t15.5 29q8 7 21 10t25 4h21h10v72h-23q-42 0 -71 -7.5t-57 -38.5q-12 -13 -18 -26.5t-9 -27.5q-2 -15 -2 -30.5v-33.5v-141
q0 -20 -2 -37.5t-14 -26.5q-10 -8 -18.5 -11t-14.5 -5q-7 -1 -10.5 -0.5l-3.5 0.5v-92z" />
    <glyph glyph-name="bar" unicode="|" horiz-adv-x="270" 
d="M90 800v-864h90v864h-90z" />
    <glyph glyph-name="braceright" unicode="}" horiz-adv-x="270" 
d="M232 414q-1 0 -5 -0.5t-10 0.5q-7 2 -15.5 5t-17.5 11q-6 4 -9.5 11t-4.5 15q-1 9 -1 18.5v19.5v141q0 18 -0.5 33.5t-3.5 30.5q-3 14 -9 27.5t-17 26.5q-29 31 -58 38.5t-70 7.5h-22v-72h10.5h20.5q12 -1 24 -4t21 -10q12 -12 15 -29t3 -38v-144v-27t2 -27
q1 -14 5 -25.5t12 -20.5q9 -12 17.5 -19t15.5 -10q7 -4 11 -5.5l4 -1.5q-1 0 -15 -6.5t-32 -27.5q-8 -9 -12.5 -21t-5.5 -25q-2 -13 -2 -27v-27v-144v-20.5t-1 -18.5t-4.5 -17t-11.5 -14q-7 -6 -19 -8.5t-25 -3.5q-12 0 -21.5 0.5t-11.5 0.5v-72h22q41 0 71 7t57 37
q11 12 17 25.5t9 28.5t3.5 31.5t0.5 34.5v143v18t1 18q2 8 5.5 15t11.5 13q10 7 18 10t14 5q6 1 9 1h4v92z" />
    <glyph glyph-name="asciitilde" unicode="~" horiz-adv-x="770" 
d="M123 324q30 47 59.5 75t80.5 28q37 0 62.5 -15t52.5 -33q27 -17 60 -31t86 -11q48 1 83.5 23.5t59.5 49.5q24 26 36.5 49t14.5 26l-73 41q-25 -52 -57.5 -77t-80.5 -25q-40 0 -65.5 14.5t-51.5 31.5q-25 17 -57.5 30.5t-86.5 12.5q-48 -1 -84 -23t-60 -49
q-25 -26 -37.5 -49t-13.5 -25z" />
    <glyph glyph-name="exclamdown" unicode="&#xa1;" horiz-adv-x="770" 
d="M440 262l-23 204h-61l-23 -204v-302h107v302zM447 648h-121v-118h121v118z" />
    <glyph glyph-name="currency" unicode="&#xa4;" horiz-adv-x="770" 
d="M146 4l85 87q26 -23 64 -37t92 -14q51 0 90.5 13.5t65.5 37.5l85 -87l52 51l-86 86q24 30 37.5 67.5t13.5 91.5q0 52 -14 90.5t-39 68.5l88 88l-52 51l-87 -88q-27 21 -64.5 35.5t-89.5 14.5q-54 0 -92 -14.5t-62 -36.5l-87 89l-52 -51l87 -88q-26 -30 -39 -68.5
t-13 -90.5q0 -54 13 -91.5t39 -67.5l-87 -86zM568 300q0 -39 -15 -73t-40 -59q-24 -26 -57 -40.5t-69 -14.5q-37 0 -70 14.5t-57 39.5q-25 26 -39.5 60t-14.5 73q0 38 14.5 72t39.5 60q24 25 57 40.5t70 15.5q36 0 69 -15.5t57 -41.5q25 -25 40 -59.5t15 -71.5z" />
    <glyph glyph-name="section" unicode="&#xa7;" horiz-adv-x="323" 
d="M68 257q21 -27 43.5 -48.5t40.5 -41.5t30 -40.5t12 -45.5q0 -19 -11.5 -33t-23.5 -14q-6 0 -10.5 1.5t-7.5 4.5q-4 2 -6 4l-3 3q3 7 4 12.5t1 13.5q-1 15 -12 27.5t-33 12.5q-13 0 -25 -11.5t-12 -29.5q0 -21 9.5 -37.5t24.5 -28.5q16 -11 35 -17t39 -6q26 0 46.5 10.5
t33.5 28.5q14 17 20.5 39.5t5.5 46.5q-2 21 -9.5 42.5t-26.5 39.5q18 6 36 24.5t17 63.5q-3 40 -23.5 69.5t-61.5 61.5q-30 22 -51.5 50.5t-24.5 65.5q-2 19 5 30.5t18 16.5q11 4 23.5 2.5t22.5 -8.5q-15 -18 -9.5 -42t31.5 -29q17 -4 33.5 11.5t13.5 40.5q-6 29 -32 51
t-64 22q-45 0 -75 -26t-30 -77q0 -40 13 -68.5t22 -39.5q-24 -10 -37 -29t-15 -41q-3 -22 3 -44t20 -38zM220 255q0 -9 -5.5 -14.5t-16.5 -1.5q-32 12 -60.5 38t-31.5 60q-1 11 7 17.5t19 3.5q10 -4 24.5 -14t28.5 -24q13 -14 23 -30.5t12 -34.5z" />
    <glyph glyph-name="dieresis" unicode="&#xa8;" horiz-adv-x="770" 
d="M634 552v118h-117v-118h117zM253 552v118h-117v-118h117z" />
    <glyph glyph-name="ordfeminine" unicode="&#xaa;" horiz-adv-x="770" 
d="M138 68v-78h506v78h-506zM573 224v237q0 33 -16.5 59.5t-42.5 44.5q-27 18 -61.5 28t-70.5 10q-39 0 -75 -10t-62 -30q-27 -20 -41.5 -50t-11.5 -70h98q-5 34 17.5 57t74.5 23q51 0 74.5 -22.5t23.5 -41.5q0 -20 -16.5 -27.5t-35.5 -11.5q-15 -3 -32.5 -4.5t-36.5 -3.5
q-20 -1 -40.5 -4t-41.5 -9q-49 -15 -79 -53.5t-22 -99.5q7 -60 55.5 -87.5t111.5 -24.5q54 3 91 21.5t46 29.5q0 -12 0 -8.5t2 -2.5q1 -4 2.5 -7t3.5 -6q1 -3 3.5 -7t5.5 -9h99q-1 0 -4.5 8.5t-7.5 20.5q-5 11 -8 24.5t-3 25.5zM480 354v-42q0 -13 -8.5 -28.5t-25.5 -30.5
q-16 -14 -40 -24.5t-54 -12.5q-27 -3 -50 7.5t-26 36.5q-5 25 10 42.5t44 26.5q6 1 19 3t30 4t35.5 5t35.5 7q21 3 25.5 4.5z" />
    <glyph glyph-name="uni00AD" unicode="&#xad;" horiz-adv-x="385" 
d="M360 342h-326v-84h326v84z" />
    <glyph glyph-name="degree" unicode="&#xb0;" horiz-adv-x="216" 
d="M204 573q0 40 -28 68.5t-68 28.5q-41 0 -68.5 -28.5t-27.5 -68.5q0 -41 27.5 -68.5t68.5 -27.5q40 0 68 27.5t28 68.5zM146 573q0 -17 -11.5 -28.5t-26.5 -11.5t-27 11.5t-12 28.5t12 28.5t27 11.5t26.5 -11.5t11.5 -28.5z" />
    <glyph glyph-name="plusminus" unicode="&#xb1;" horiz-adv-x="770" 
d="M647 331v83h-215v166h-94v-166h-215v-83h215v-171h94v171h215zM647 26v82h-524v-82h524z" />
    <glyph glyph-name="uni00B2" unicode="&#xb2;" horiz-adv-x="308" 
d="M156 640q-64 0 -94.5 -37.5t-30.5 -90.5h75q0 27 11.5 44.5t38.5 17.5q22 0 33.5 -12t11.5 -32q0 -13 -13 -28.5t-23 -21.5l-61 -37q-52 -35 -66.5 -69t-14.5 -80h257v65h-164l3.5 3.5t9.5 7.5q5 5 10.5 9.5t9.5 6.5l58 38q10 6 23.5 15.5t24.5 22.5t19 30t8 40
q0 42 -32 75t-94 33z" />
    <glyph glyph-name="uni00B3" unicode="&#xb3;" horiz-adv-x="308" 
d="M247 466q3 1 15.5 19.5t12.5 51.5q0 40 -35 70.5t-87 30.5q-50 0 -87 -29.5t-34 -89.5h73q0 25 11 39.5t36 14.5q21 0 33 -11.5t12 -25.5q-1 -10 -8 -19.5t-17 -14.5q-3 -2 -23.5 -3.5t-32.5 -1.5v-65q11 0 32 -2t24 -2q12 -4 23 -14t11 -23q-1 -17 -15 -30.5t-38 -13.5
q-27 0 -42 16.5t-14 44.5h-75q-2 -58 36.5 -92.5t95.5 -34.5q58 0 95.5 30.5t37.5 78.5q0 28 -13.5 49t-26.5 27z" />
    <glyph glyph-name="acute" unicode="&#xb4;" horiz-adv-x="770" 
d="M330 447l133 217h-111l-82 -217h60z" />
    <glyph glyph-name="paragraph" unicode="&#xb6;" horiz-adv-x="770" 
d="M493 647h-157q-31 0 -58.5 -12t-47.5 -33q-21 -20 -32.5 -47.5t-11.5 -57.5q0 -64 42.5 -107.5t118.5 -43.5v-392h30v662h85v-662h31v693z" />
    <glyph glyph-name="periodcentered" unicode="&#xb7;" horiz-adv-x="270" 
d="M195 242v118h-118v-118h118z" />
    <glyph glyph-name="cedilla" unicode="&#xb8;" horiz-adv-x="293" 
d="M210 14l-67 19l-59 -63l23 -23q1 -1 4 -0.5t7 1.5q3 1 7 2.5t8 1.5q9 0 20.5 -4.5t11.5 -16.5t-13.5 -18.5t-30.5 -6.5q-9 -1 -30 2.5t-34 12.5l-15 -29q17 -13 43.5 -22t59.5 -9q45 0 74 23t28 56q-1 18 -13 34.5t-35 22.5z" />
    <glyph glyph-name="uni00B9" unicode="&#xb9;" horiz-adv-x="308" 
d="M217 292v344h-67q-1 -16 -7.5 -28t-9.5 -15q-7 -5 -27 -9.5t-38 -4.5v-63h72v-224h77z" />
    <glyph glyph-name="ordmasculine" unicode="&#xba;" horiz-adv-x="770" 
d="M598 372q0 49 -15 91.5t-42 74.5q-27 31 -66 49.5t-88 18.5q-50 0 -89.5 -18.5t-66.5 -49.5q-28 -32 -42.5 -74.5t-14.5 -91.5t14.5 -92t41.5 -74q27 -32 66.5 -50t89.5 -18q49 0 88 18t67 50q27 31 42 74t15 92zM644 -6v77h-508v-77h508zM500 372q0 -31 -9 -58t-24 -48
q-15 -20 -36 -32t-45 -12q-50 0 -81.5 44.5t-31.5 105.5q0 62 31.5 106.5t82.5 44.5q48 0 80.5 -44.5t32.5 -106.5z" />
    <glyph glyph-name="onequarter" unicode="&#xbc;" horiz-adv-x="770" 
d="M231 288v345h-65q0 -15 -6 -28t-9 -14q-7 -5 -24 -9.5t-36 -4.5v-66h67v-223h73zM124 -26l541 624l-46 42l-537 -621zM680 18v68h-42v222h-67l-144 -221v-69h139v-56h72v56h42zM565 178v-87h-55z" />
    <glyph glyph-name="onehalf" unicode="&#xbd;" horiz-adv-x="770" 
d="M231 287v346h-65q-1 -16 -7 -28t-9 -14q-6 -5 -23.5 -9.5t-36.5 -4.5v-66h67v-224h74zM568 328q-59 0 -86.5 -38t-27.5 -92h71q0 27 9.5 44.5t33.5 17.5q19 0 29.5 -11.5t10.5 -30.5q0 -14 -12 -29t-21 -21l-54 -36q-48 -36 -61 -70t-13 -83h236v68h-146l8.5 9.5
t16.5 15.5l55 38q19 13 43.5 38t24.5 70q0 43 -29.5 76.5t-87.5 33.5zM124 -26l541 624l-46 42l-537 -621z" />
    <glyph glyph-name="threequarters" unicode="&#xbe;" horiz-adv-x="770" 
d="M124 -26l541 624l-46 42l-537 -621zM275 469q2 0 13.5 17.5t11.5 52.5q0 41 -32.5 71.5t-80.5 30.5q-46 0 -80.5 -30.5t-32.5 -91.5h72q-1 25 8.5 39.5t31.5 14.5q18 0 28 -11t10 -23q-1 -10 -7 -20t-15 -14q-3 -2 -21 -3t-29 -1v-69q9 0 28 -1.5t23 -2.5q12 -3 21 -13
t9 -22q-1 -16 -13 -29.5t-33 -13.5q-24 0 -37 16.5t-12 44.5h-73q0 -60 34.5 -95t88.5 -35q53 0 87.5 31.5t34.5 79.5q0 28 -12 49t-23 28zM680 18v68h-42v222h-67l-144 -221v-69h139v-56h72v56h42zM565 178v-87h-55z" />
    <glyph glyph-name="questiondown" unicode="&#xbf;" horiz-adv-x="770" 
d="M383 -40q52 0 90 17t62 45q24 29 34.5 65.5t9.5 76.5h-99q3 -47 -21 -77t-72 -30t-71 28.5t-15 62.5q5 27 27 47.5t47 43.5q24 24 43.5 55t19.5 79l-1 96h-100l-1 -97q0 -32 -19 -53t-43 -43q-24 -21 -47 -49t-32 -73q-8 -39 3.5 -74t37.5 -62t63.5 -42.5t83.5 -15.5z
M328 646v-117h118v117h-118z" />
    <glyph glyph-name="AE" unicode="&#xc6;" horiz-adv-x="770" 
d="M734 -4v91h-169l-69 175h216v91h-254l-61 155h330v92h-473l-242 -604h103l57 143h270l58 -143h234zM404 233h-195l99 244z" />
    <glyph glyph-name="Eth" unicode="&#xd0;" horiz-adv-x="770" 
d="M191 271h-125v-80h125v-200h205q64 -1 115 21.5t87 63.5q35 40 54 95.5t19 121.5q0 64 -19 119.5t-54 96.5q-36 40 -87 63.5t-115 23.5h-205v-325zM289 271v233h91q47 0 82 -17t59 -46q23 -29 34.5 -67.5t11.5 -80.5q0 -44 -11.5 -82t-34.5 -67q-24 -28 -59 -44.5
t-82 -16.5h-91v108h182v80h-182z" />
    <glyph glyph-name="multiply" unicode="&#xd7;" horiz-adv-x="770" 
d="M647 104l-201 196l185 188l-60 57l-187 -185l-185 189l-64 -62l190 -189l-196 -191l64 -60l191 192l203 -200z" />
    <glyph glyph-name="Oslash" unicode="&#xd8;" horiz-adv-x="770" 
d="M182 74l-71 -102l62 -45l66 95q28 -19 62.5 -29t85.5 -10q63 0 114.5 22t87.5 63t55.5 99t19.5 130q0 75 -20 131t-56 94l68 97l-62 44l-66 -93q-25 18 -59.5 28t-81.5 10q-64 0 -115 -22.5t-87 -62.5q-35 -41 -54 -98.5t-19 -127.5q0 -75 17.5 -130t52.5 -93zM475 493
l-232 -332q-10 15 -19 54.5t-9 81.5q0 99 45.5 159.5t126.5 60.5q25 0 51 -8t37 -16zM527 434q12 -15 21.5 -55t9.5 -82q0 -101 -46 -162t-125 -61q-27 0 -54.5 8.5t-39.5 18.5z" />
    <glyph glyph-name="Thorn" unicode="&#xde;" horiz-adv-x="770" 
d="M387 416q54 0 85 -39.5t31 -103.5t-31 -103t-85 -39q-56 0 -86.5 36.5t-30.5 105.5t30.5 106t86.5 37zM270 79q15 -16 47.5 -28.5t80.5 -12.5q47 0 86 17t67 48t43.5 74t15.5 96q0 52 -15.5 95.5t-43.5 74.5t-67 48.5t-86 17.5q-48 0 -80.5 -14t-47.5 -29v134h-98v-605
h98v84z" />
    <glyph glyph-name="germandbls" unicode="&#xdf;" horiz-adv-x="770" 
d="M209 -23h94v463q0 29 20.5 55t57.5 26q35 0 62.5 -18.5t27.5 -65.5q0 -48 -29.5 -69t-73.5 -19h-26v-84h31q19 1 39 -3t37 -15t28 -29.5t11 -46.5q0 -30 -10.5 -48.5t-27.5 -29.5q-16 -11 -36.5 -15t-39.5 -4h-33v-84h47q97 0 147 47.5t52 122.5q0 44 -11 73.5t-25 47.5
t-28.5 26t-21.5 11q11 7 23.5 14.5t22.5 21.5q9 14 15 38t5 63q-3 60 -49 103t-123 43h-10q-33 0 -64.5 -9t-56.5 -29t-40 -52.5t-15 -80.5v-453z" />
    <glyph glyph-name="ae" unicode="&#xe6;" horiz-adv-x="770" 
d="M495 -25q37 0 64.5 11.5t47.5 32.5q19 20 31 47t20 58h-94q-4 -25 -21 -44t-46 -19q-30 0 -55 30t-25 84h251q0 66 -14 116.5t-38 84.5t-56 51.5t-67 17.5q-41 0 -71 -16t-44 -39q-15 22 -47.5 38t-74.5 16q-32 0 -61 -10t-50 -30t-33 -49.5t-10 -69.5h93q-5 35 11 56
t51 21q34 0 48.5 -22t14.5 -42q0 -19 -13 -27.5t-22 -9.5q-10 -3 -23.5 -5t-29.5 -4q-15 -2 -32 -6t-33 -10q-42 -15 -67.5 -53t-16.5 -96q9 -60 48.5 -86t97.5 -26q25 0 48.5 7t41.5 17q19 11 31.5 23t16.5 22q7 -21 40 -45t88 -24zM320 194v-43q0 -13 -6 -28.5t-17 -29.5
q-12 -14 -28.5 -24.5t-38.5 -11.5q-17 -3 -33 7.5t-18 35.5q-4 25 7.5 43t32.5 28q4 1 13 2.5l21 3.5t25.5 4.5t25.5 6.5q4 1 8.5 2.5t7.5 3.5zM419 257q3 43 21 72.5t51 29.5q36 0 55 -33t22 -69h-149z" />
    <glyph glyph-name="eth" unicode="&#xf0;" horiz-adv-x="770" 
d="M376 254h-212q-3 -73 15 -125t49 -85q31 -34 72.5 -49.5t86.5 -15.5q51 0 92.5 18t71.5 50q29 32 45.5 75.5t16.5 95.5t-18 96.5t-51 77.5l75 63l-49 59l-93 -77q-21 9 -43.5 14t-46.5 5q-49 0 -84.5 -13.5t-60.5 -34.5q-25 -22 -41 -49t-25 -55h113q6 18 31 38.5
t68 20.5h2l-62 -51zM379 254l88 74q15 -15 24.5 -34.5t11.5 -39.5h-124zM501 167q-6 -42 -37 -69.5t-76 -27.5q-48 0 -78 28.5t-34 68.5h225z" />
    <glyph glyph-name="divide" unicode="&#xf7;" horiz-adv-x="770" 
d="M383 580q-30 0 -49 -21t-19 -48q0 -30 20.5 -48.5t50.5 -18.5q28 -1 48 19.5t20 47.5q0 28 -18 48.5t-53 20.5zM655 253v90h-539v-90h539zM455 87q0 27 -18.5 48t-53.5 21q-30 0 -49.5 -21t-19.5 -48q0 -30 21 -49t51 -19q28 0 48.5 20.5t20.5 47.5z" />
    <glyph glyph-name="oslash" unicode="&#xf8;" horiz-adv-x="770" 
d="M485 434q-19 10 -40.5 15t-56.5 5q-52 0 -93.5 -17.5t-69.5 -48.5q-29 -32 -44 -74.5t-15 -93.5q0 -54 13.5 -94.5t40.5 -67.5l-42 -60l62 -44l39 56q21 -12 45.5 -18.5t63.5 -6.5q52 0 93 17.5t70 48.5t44.5 74.5t15.5 94.5q0 58 -17 101t-47 70l46 66l-63 43zM282 148
q-2 2 -6.5 26.5t-4.5 45.5q0 64 31.5 104.5t85.5 40.5q5 0 12 -1.5t14 -2.5q6 -1 10.5 -2t5.5 -1zM333 87l154 218q5 -6 11.5 -32.5t6.5 -52.5q0 -65 -32 -105.5t-85 -40.5q-16 0 -34 5t-21 8z" />
    <glyph glyph-name="thorn" unicode="&#xfe;" horiz-adv-x="770" 
d="M396 365q54 0 85 -39.5t31 -102.5t-31 -102.5t-85 -39.5q-55 0 -86 36.5t-31 105.5q0 68 31 105t86 37zM279 31q13 -16 46.5 -28.5t81.5 -12.5q47 0 86 17t67 48q28 30 43.5 73t15.5 95q0 105 -58.5 169t-153.5 64q-48 0 -81.5 -13t-46.5 -28v187h-98v-690h98v119z" />
    <glyph glyph-name="dcroat" unicode="&#x111;" horiz-adv-x="770" 
d="M383 321q52 0 81.5 -36t29.5 -90q0 -56 -29.5 -91t-81.5 -35q-49 0 -79.5 35t-30.5 91q0 54 29.5 90t80.5 36zM495 423v-54q-14 14 -45 25t-77 11q-90 0 -147 -57.5t-57 -152.5q0 -48 15 -86.5t43 -66.5q27 -27 64.5 -42t81.5 -15q45 0 76.5 12.5t44.5 27.5v-25h97v423
h107v77h-107v98h-96v-98h-245v-77h245z" />
    <glyph glyph-name="Hbar" unicode="&#x126;" horiz-adv-x="770" 
d="M152 501h-93v-77h93v-429h98v273h271v-273h97v429h93v77h-93v98h-97v-98h-271v98h-98v-98zM250 424h271v-65h-271v65z" />
    <glyph glyph-name="hbar" unicode="&#x127;" horiz-adv-x="770" 
d="M294 500v100h-98v-100h-108v-77h108v-428h98v202q0 43 31 75.5t76 32.5q44 0 65 -22t21 -72v-216h97v248q0 23 -7.5 49t-23.5 49q-16 22 -41.5 38.5t-61.5 21.5q-65 6 -103 -12.5t-53 -33.5v68h241v77h-241z" />
    <glyph glyph-name="dotlessi" unicode="&#x131;" horiz-adv-x="770" 
d="M434 -3v443h-98v-443h98z" />
    <glyph glyph-name="IJ" unicode="&#x132;" horiz-adv-x="770" 
d="M641 600h-97v-440q0 -50 -25 -69.5t-55 -19.5q-28 0 -52 19.5t-25 69.5v48h-97v-62q-1 -41 13 -72.5t38 -52.5q24 -22 55.5 -32.5t67.5 -10.5q73 0 125 43t52 125v454zM227 -6v606h-98v-606h98z" />
    <glyph glyph-name="ij" unicode="&#x133;" horiz-adv-x="770" 
d="M310 -3v442h-99v-442h99zM310 500v101h-99v-101h99zM556 500v101h-98v-101h98zM556 439h-98v-454q0 -18 -1.5 -27t-8.5 -15q-6 -6 -24 -6.5t-28 -0.5v-86h56q30 0 49.5 9t32.5 26q13 15 17.5 33t4.5 58v463z" />
    <glyph glyph-name="kgreenlandic" unicode="&#x138;" horiz-adv-x="770" 
d="M287 161l43 37l173 -201h117l-221 261l192 178h-129l-175 -159v159h-98v-439h98v164z" />
    <glyph glyph-name="Ldot" unicode="&#x13f;" horiz-adv-x="770" 
d="M567 314q-26 0 -43.5 -18t-17.5 -45q0 -25 17.5 -42t43.5 -17q25 0 43 17t18 42q0 27 -18 45t-43 18zM604 -7v94h-308v511h-102v-605h410z" />
    <glyph glyph-name="ldot" unicode="&#x140;" horiz-adv-x="770" 
d="M506 432q-27 0 -44.5 -18t-17.5 -42q0 -26 17.5 -43t44.5 -17q25 0 43 17t18 43q0 24 -18 42t-43 18zM300 601v-606h98v606h-98z" />
    <glyph glyph-name="Lslash" unicode="&#x141;" horiz-adv-x="770" 
d="M196 337l-98 -82l48 -62l50 42v-244h410v95h-308v236l113 97l-49 59l-64 -54v172h-102v-259z" />
    <glyph glyph-name="lslash" unicode="&#x142;" horiz-adv-x="770" 
d="M434 405v195h-98v-275l-146 -121l49 -63l97 81v-228h98v311l154 128l-49 60z" />
    <glyph glyph-name="napostrophe" unicode="&#x149;" horiz-adv-x="770" 
d="M190 433v-439h98v248q0 45 31.5 77.5t76.5 32.5q43 0 63.5 -22t20.5 -73v-263h98v295q0 23 -7.5 49t-23.5 49t-41.5 39t-61.5 21q-65 6 -103 -12.5t-53 -33.5v32h-98zM444 593v84h-116v-115h59q-2 -10 -6.5 -19.5t-10.5 -15.5q-8 -9 -19 -15t-25 -9l30 -47q15 4 32 15
t32 30q13 17 18.5 40.5t5.5 51.5z" />
    <glyph glyph-name="Eng" unicode="&#x14a;" horiz-adv-x="770" 
d="M243 432l275 -426v-32q0 -16 -3 -24t-10 -11t-18.5 -3h-29.5v-92h58q51 0 76.5 31.5t25.5 88.5v636h-99v-413l-267 413h-107v-604h99v436z" />
    <glyph glyph-name="eng" unicode="&#x14b;" horiz-adv-x="770" 
d="M473 -20q0 -18 -1.5 -27.5t-8.5 -15.5t-25 -6.5t-28 -0.5v-84h56q30 0 51 9.5t34 27.5q13 15 16.5 30t3.5 57v325q0 24 -7.5 50t-23.5 48q-16 23 -42 39t-62 20q-65 7 -103 -11t-53 -34v32h-98v-439h98v249q0 44 31.5 76.5t76.5 32.5q44 0 64.5 -22t20.5 -73v-283z" />
    <glyph glyph-name="OE" unicode="&#x152;" horiz-adv-x="770" 
d="M287 -5h447v91h-294v176h274v92h-274v153h288v92h-443q-61 0 -109.5 -21.5t-82.5 -61.5q-34 -39 -52 -94.5t-18 -122.5q0 -69 18 -125t52 -96q35 -40 83.5 -61.5t110.5 -21.5zM343 508v-422h-55q-78 0 -122 58.5t-44 154.5q0 95 44 152t122 57h55z" />
    <glyph glyph-name="oe" unicode="&#x153;" horiz-adv-x="770" 
d="M447 257q3 43 23.5 72.5t50.5 29.5q33 0 53.5 -33t23.5 -69h-151zM260 359q34 0 56 -44t22 -105q0 -62 -22 -105.5t-56 -43.5t-56 43.5t-22 105.5q0 61 22 105t56 44zM392 50q16 -30 49.5 -52.5t81.5 -22.5q37 0 64.5 11.5t46.5 32.5q20 20 32 47t20 58h-98
q-6 -22 -22.5 -42.5t-44.5 -20.5q-14 0 -27.5 10t-24.5 26t-18 36.5t-7 41.5h251q1 69 -13 119.5t-38 84.5q-24 33 -56 49.5t-67 16.5q-48 0 -81.5 -22t-48.5 -51q-16 29 -49 51t-82 22q-41 0 -73 -19t-54 -51q-23 -32 -34.5 -74.5t-11.5 -90.5q0 -49 11.5 -91.5t34.5 -74.5
q22 -32 54 -50.5t73 -18.5q49 0 83 22.5t49 52.5z" />
    <glyph glyph-name="Tbar" unicode="&#x166;" horiz-adv-x="770" 
d="M434 370v138h193v92h-481v-92h190v-138h-200v-78h200v-296h98v296h200v78h-200z" />
    <glyph glyph-name="tbar" unicode="&#x167;" horiz-adv-x="770" 
d="M313 311h-117v-80h117v-111q0 -40 3 -54t18 -32q14 -19 30.5 -29t45.5 -10h63v85q-10 0 -28 1.5t-24 7.5q-8 6 -9 14.5t-1 26.5v101h124v80h-124v39h62v85h-62v131h-98v-131h-54v-85h54v-39z" />
    <glyph glyph-name="caron" unicode="&#x2c7;" horiz-adv-x="770" 
d="M387 509l188 112l-47 58l-141 -85l-146 83l-45 -59z" />
    <glyph glyph-name="uni02D0" unicode="&#x2d0;" horiz-adv-x="212" 
d="M184 106l-79 135l-78 -135h157zM27 494l78 -135l79 135h-157z" />
    <glyph glyph-name="breve" unicode="&#x2d8;" horiz-adv-x="770" 
d="M258 683l-67 -43q43 -57 89.5 -82t104.5 -25q56 0 104.5 26t90.5 82l-67 42q-25 -35 -61 -56t-67 -21q-32 0 -67.5 21t-59.5 56z" />
    <glyph glyph-name="dotaccent" unicode="&#x2d9;" horiz-adv-x="770" 
d="M386 666q-28 0 -47 -19.5t-19 -46.5q0 -28 19 -47.5t47 -19.5q27 0 46.5 19.5t19.5 47.5q0 27 -19.5 46.5t-46.5 19.5z" />
    <glyph glyph-name="ring" unicode="&#x2da;" horiz-adv-x="770" 
d="M482 573q0 40 -28 68.5t-68 28.5q-41 0 -68.5 -28.5t-27.5 -68.5q0 -41 27.5 -68.5t68.5 -27.5q40 0 68 27.5t28 68.5zM424 573q0 -17 -11.5 -28.5t-26.5 -11.5t-27 11.5t-12 28.5t12 28.5t27 11.5t26.5 -11.5t11.5 -28.5z" />
    <glyph glyph-name="ogonek" unicode="&#x2db;" horiz-adv-x="293" 
d="M157 15h-73q-12 -10 -22 -28t-10 -36q-3 -29 20 -50.5t60 -21.5q33 -1 65.5 15t50.5 43l-24 20q-12 -10 -28.5 -17t-31.5 -6q-15 0 -25.5 8.5t-10.5 23.5q0 10 7.5 22.5t21.5 26.5z" />
    <glyph glyph-name="hungarumlaut" unicode="&#x2dd;" horiz-adv-x="770" 
d="M280 447l133 217h-111l-82 -217h60zM411 447l133 217h-111l-82 -217h60z" />
    <glyph glyph-name="Alpha" unicode="&#x391;" horiz-adv-x="770" 
d="M513 132l52 -138h110l-231 609h-124l-230 -609h109l53 138h261zM476 230h-187l94 246z" />
    <glyph glyph-name="Beta" unicode="&#x392;" horiz-adv-x="770" 
d="M162 -6h264q44 0 82 12t67 34q28 21 45 51.5t19 67.5q1 34 -8.5 61.5t-24.5 47.5t-32 32.5t-30 17.5q12 6 25.5 18.5t24.5 31.5q11 18 17 42.5t2 55.5q-9 54 -58.5 95.5t-129.5 41.5h-263v-609zM270 361v142h140q42 0 66.5 -20t24.5 -50q0 -34 -23.5 -53t-67.5 -19h-140z
M270 93v169h152q56 0 80.5 -26.5t24.5 -57.5q0 -33 -25 -59t-83 -26h-149z" />
    <glyph glyph-name="Gamma" unicode="&#x393;" horiz-adv-x="770" 
d="M604 602h-411v-608h106v512h305v96z" />
    <glyph glyph-name="Delta" unicode="&#x394;" horiz-adv-x="770" 
d="M679 -6l-231 609h-124l-230 -609h585zM533 91h-293l147 385z" />
    <glyph glyph-name="Epsilon" unicode="&#x395;" horiz-adv-x="770" 
d="M179 603v-609h434v99h-328v163h304v98h-304v149h320v100h-426z" />
    <glyph glyph-name="Zeta" unicode="&#x396;" horiz-adv-x="770" 
d="M168 603v-100h306l-328 -410v-99h472v99h-340l331 410v100h-441z" />
    <glyph glyph-name="Eta" unicode="&#x397;" horiz-adv-x="770" 
d="M511 264v-270h107v609h-107v-240h-258v240h-107v-609h107v270h258z" />
    <glyph glyph-name="Theta" unicode="&#x398;" horiz-adv-x="770" 
d="M108 298q0 -71 19.5 -129.5t55.5 -100.5q36 -43 87.5 -66t115.5 -23q63 0 114.5 23t87.5 66q36 42 56 100.5t20 129.5q0 70 -20 129t-56 101t-87.5 66t-114.5 24q-64 0 -115.5 -24t-87.5 -66t-55.5 -101t-19.5 -129zM552 298q0 -98 -45 -159.5t-121 -61.5
q-78 0 -122 61.5t-44 159.5q0 96 44 158.5t122 62.5q76 0 121 -62.5t45 -158.5zM286 339v-88h201v88h-201z" />
    <glyph glyph-name="Iota" unicode="&#x399;" horiz-adv-x="770" 
d="M330 603v-609h107v609h-107z" />
    <glyph glyph-name="Kappa" unicode="&#x39a;" horiz-adv-x="770" 
d="M259 221q5 5 12 11t15 13q7 7 15.5 14.5t16.5 15.5l226 -281h125l-278 352q54 53 116.5 120t118.5 137h-128q-26 -32 -56 -65t-62 -66q-31 -33 -62.5 -63.5t-58.5 -56.5v251h-107v-609h107v227z" />
    <glyph glyph-name="Lambda" unicode="&#x39b;" horiz-adv-x="770" 
d="M450 603h-124l-231 -609h110l183 482l183 -482h110z" />
    <glyph glyph-name="Mu" unicode="&#x39c;" horiz-adv-x="770" 
d="M446 -5l118 355v-355h106v608h-129l-158 -477l-157 477h-130v-608h107v355l119 -355h124z" />
    <glyph glyph-name="Nu" unicode="&#x39d;" horiz-adv-x="770" 
d="M497 -6h129v609h-107v-440l-243 440h-130v-609h107v439z" />
    <glyph glyph-name="Xi" unicode="&#x39e;" horiz-adv-x="770" 
d="M624 88h-484v-94h484v94zM595 602h-431v-94h431v94zM568 356h-370v-95h370v95z" />
    <glyph glyph-name="Omicron" unicode="&#x39f;" horiz-adv-x="770" 
d="M104 298q0 -71 19.5 -129.5t55.5 -100.5q36 -43 87.5 -66t115.5 -23q63 0 114.5 23t87.5 66q36 42 56 100.5t20 129.5q0 70 -20 129t-56 101t-87.5 66t-114.5 24q-64 0 -115.5 -24t-87.5 -66t-55.5 -101t-19.5 -129zM548 298q0 -98 -45 -159.5t-121 -61.5
q-77 0 -121.5 61.5t-44.5 159.5q0 96 44.5 158.5t121.5 62.5q76 0 121 -62.5t45 -158.5z" />
    <glyph glyph-name="Pi" unicode="&#x3a0;" horiz-adv-x="770" 
d="M146 602v-608h104v515h251v-515h103v608h-458z" />
    <glyph glyph-name="Rho" unicode="&#x3a1;" horiz-adv-x="770" 
d="M165 602v-609h107v221h145q42 0 79.5 15t64.5 42q28 26 44 61.5t16 75.5q0 39 -16 74.5t-44 61.5q-27 27 -64.5 42.5t-79.5 15.5h-252zM272 312v191h130q39 0 74 -22t35 -73q0 -27 -10 -45.5t-25 -29.5q-16 -11 -35.5 -16t-38.5 -5h-130z" />
    <glyph glyph-name="Sigma" unicode="&#x3a3;" horiz-adv-x="770" 
d="M594 602h-418v-95l179 -200l-186 -215v-98h438v93h-313l185 221l-173 201h288v93z" />
    <glyph glyph-name="Tau" unicode="&#x3a4;" horiz-adv-x="770" 
d="M326 502v-510h106v510h191v98h-487v-98h190z" />
    <glyph glyph-name="Upsilon" unicode="&#x3a5;" horiz-adv-x="770" 
d="M372 339l-149 262h-118l214 -380v-228h106v228l213 380h-117z" />
    <glyph glyph-name="Phi" unicode="&#x3a6;" horiz-adv-x="770" 
d="M435 541v61h-95v-61q-49 -6 -92.5 -26t-75.5 -51q-33 -32 -51.5 -72.5t-18.5 -86.5q0 -47 18.5 -87.5t51.5 -71.5q32 -31 75.5 -51.5t92.5 -25.5v-75h95v75q49 5 93 25t77 52q33 31 52.5 71.5t19.5 87.5q0 46 -19.5 87t-52.5 73q-33 31 -77 51t-93 25zM435 156v299
q27 -5 52.5 -18.5t44.5 -33.5q20 -20 32 -45.5t12 -52.5q0 -28 -12 -53t-32 -45q-19 -20 -44.5 -33.5t-52.5 -17.5zM340 456v-301q-27 4 -52 17.5t-44 34.5q-19 20 -30.5 45t-11.5 53q0 27 11.5 52.5t30.5 45.5t44 34t52 19z" />
    <glyph glyph-name="Chi" unicode="&#x3a7;" horiz-adv-x="770" 
d="M376 221l142 -220h123l-203 313l181 280h-124l-118 -186l-120 186h-126l184 -282l-202 -311h123z" />
    <glyph glyph-name="Psi" unicode="&#x3a8;" horiz-adv-x="770" 
d="M194 602h-106v-181q0 -69 14 -113t42 -74q19 -24 42.5 -38t47.5 -21t47 -9t42 -2v-168h106v168q33 0 63.5 5.5t69.5 28.5q55 30 78 82.5t23 141.5v180h-106v-161q0 -60 -7.5 -95t-22.5 -54t-39.5 -25t-58.5 -7v342h-106v-341q-38 0 -63 8.5t-39 29.5q-15 21 -21 55.5
t-6 86.5v161z" />
    <glyph glyph-name="Omega" unicode="&#x3a9;" horiz-adv-x="770" 
d="M95 87v-93h257v95q-66 44 -100 97.5t-34 134.5q0 35 10 69t30 61t50 43.5t71 16.5q39 0 69.5 -16.5t50.5 -42.5q21 -27 31.5 -61t10.5 -70q0 -77 -35.5 -134.5t-100.5 -96.5v-96h258v93h-118q42 34 74.5 97t32.5 144q0 52 -19.5 102t-54.5 89t-85.5 63t-113.5 24
q-66 0 -117 -23.5t-86 -61.5q-35 -39 -53 -88.5t-18 -101.5q0 -91 32.5 -149t74.5 -95h-117z" />
    <glyph glyph-name="alpha" unicode="&#x3b1;" horiz-adv-x="512" 
d="M323 371q-17 28 -51.5 47t-70.5 19q-80 0 -131.5 -59t-51.5 -166q0 -49 11.5 -90t33.5 -71t53.5 -47t72.5 -17q49 0 79 14t45 35q7 -16 26.5 -31t53.5 -15t62.5 27.5t45.5 73.5l-77 44q-5 -15 -13 -33t-11 -18q-11 0 -20 27t-9 66l67 235l-95 25zM197 69q-35 0 -59.5 38
t-24.5 103q0 63 24.5 102.5t57.5 39.5q32 0 53.5 -33t23.5 -108q1 -66 -21 -104t-54 -38z" />
    <glyph glyph-name="beta" unicode="&#x3b2;" horiz-adv-x="467" 
d="M141 49q31 -36 66 -49t75 -13q34 0 62.5 13t47.5 36q20 22 31 52t11 64q0 26 -8.5 52.5t-21.5 49.5q-14 23 -32.5 39.5t-39.5 24.5q14 6 26 20t21 33q9 18 14.5 39.5t5.5 41.5q0 32 -13.5 58.5t-36.5 45.5q-24 19 -55 30t-66 11q-78 0 -132 -60t-54 -174v-515h99v201z
M196 282q66 -1 98.5 -38t32.5 -90q0 -38 -22.5 -60.5t-55.5 -22.5q-23 0 -45.5 15.5t-34.5 34.5l-10 16t-9 16t-6.5 17t-2.5 19v190q0 75 21.5 106t66.5 31q30 0 51.5 -21t21.5 -54q0 -37 -29 -66.5t-77 -29.5v-63z" />
    <glyph glyph-name="gamma" unicode="&#x3b3;" horiz-adv-x="501" 
d="M466 459h-110l-110 -216l-108 216h-111l158 -317q-18 -30 -29 -50.5t-18 -36.5t-9.5 -29.5t-2.5 -27.5q0 -19 7 -39.5t21 -37.5t35.5 -27.5t51.5 -10.5q57 0 89 33.5t32 84.5q0 27 -12 56t-44 80zM225 0q0 12 2.5 20.5t16.5 29.5q11 -17 15.5 -26.5t4.5 -23.5
q0 -11 -6.5 -18.5t-13.5 -7.5t-13 6.5t-6 19.5z" />
    <glyph glyph-name="delta" unicode="&#x3b4;" horiz-adv-x="466" 
d="M405 602h-343v-73l124 -120q-30 -6 -60 -22t-54 -48q-24 -30 -35.5 -63.5t-11.5 -71.5q0 -51 13.5 -86t43.5 -67q30 -30 65 -48t86 -18q52 0 89 19.5t65 51.5q28 31 41 66.5t13 81.5q0 60 -25 99.5t-50 63.5l-154 145h193v90zM233 329q45 0 77.5 -37t32.5 -89
q0 -54 -32.5 -91.5t-77.5 -37.5t-77 37.5t-32 91.5q0 52 31.5 89t77.5 37z" />
    <glyph glyph-name="epsilon" unicode="&#x3b5;" horiz-adv-x="412" 
d="M89 226q-23 -9 -47.5 -38t-24.5 -62q0 -67 50 -101.5t136 -34.5q73 0 124 35t69 111l-90 16q-12 -43 -40.5 -59t-62.5 -16q-42 0 -65.5 13.5t-23.5 39.5q0 23 37 37t108 14v87q-70 0 -100 8.5t-30 37.5q0 15 21.5 26.5t54.5 11.5q30 0 58 -16t45 -43l85 37
q-35 58 -83.5 82.5t-105.5 24.5q-35 0 -66 -8.5t-55 -24.5q-24 -15 -37.5 -38.5t-13.5 -53.5q0 -33 18 -54t39 -32z" />
    <glyph glyph-name="zeta" unicode="&#x3b6;" horiz-adv-x="370" 
d="M350 602h-285v-86h147q-45 -36 -78.5 -71t-63.5 -83q-32 -50 -42 -85t-10 -69q0 -63 32 -106t116 -55q34 -5 49 -12t15 -26q0 -18 -16.5 -27t-43.5 -12l-23 -91q53 0 89 12t58 32t31.5 45.5t9.5 52.5q0 23 -10 42.5t-32 37.5q-14 11 -30.5 18.5t-32.5 13.5q-16 5 -30.5 9
t-23.5 8q-21 5 -38 21t-17 50q0 31 14.5 71.5t40.5 79.5q24 36 72.5 81t101.5 81v68z" />
    <glyph glyph-name="eta" unicode="&#x3b7;" horiz-adv-x="416" 
d="M119 -6v249q0 48 30 78.5t62 30.5q41 0 63 -30t22 -81v-391h101v445q0 23 -11.5 49t-31.5 48q-21 22 -50 36.5t-65 14.5q-47 0 -78 -15t-42 -28v35h-101v-441h101z" />
    <glyph glyph-name="theta" unicode="&#x3b8;" horiz-adv-x="397" 
d="M15 307q0 -72 12.5 -130.5t36.5 -100.5q24 -41 58 -63.5t78 -22.5q38 0 71 23t58 65q24 42 38 100t14 127q0 61 -14 115t-39 95q-24 40 -57.5 64t-71.5 24q-39 0 -73 -24t-58 -64q-25 -41 -39 -94.5t-14 -113.5zM275 262q-5 -95 -24 -145t-51 -50q-33 0 -54 52t-24 143
h153zM122 348q3 90 22.5 135.5t54.5 45.5q33 0 52 -45.5t24 -135.5h-153z" />
    <glyph glyph-name="iota" unicode="&#x3b9;" horiz-adv-x="189" 
d="M15 109q0 -45 26.5 -79t83.5 -34h51v88q-24 0 -40.5 8t-16.5 39v303h-104v-325z" />
    <glyph glyph-name="kappa" unicode="&#x3ba;" horiz-adv-x="408" 
d="M122 435h-104v-439h104v133l28 32l122 -165h122l-177 233l172 206h-121l-146 -170v170z" />
    <glyph glyph-name="lambda" unicode="&#x3bb;" horiz-adv-x="447" 
d="M326 -5h108l-221 601h-112l70 -184l-160 -417h107l108 273z" />
    <glyph glyph-name="mu" unicode="&#x3bc;" horiz-adv-x="416" 
d="M123 29q14 -21 37.5 -29.5t48.5 -8.5q28 0 50.5 8t34.5 30v-34h97v438h-105v-210q0 -84 -22 -113t-61 -29q-28 0 -54 25.5t-26 71.5v255h-104v-535h104v131z" />
    <glyph glyph-name="nu" unicode="&#x3bd;" horiz-adv-x="477" 
d="M237 119l-115 313h-108l170 -439h106l170 439h-107z" />
    <glyph glyph-name="xi" unicode="&#x3be;" horiz-adv-x="370" 
d="M145 355q-60 -36 -90 -83.5t-31 -91.5q-2 -40 14.5 -70.5t46.5 -52.5q14 -11 29.5 -18t30.5 -12q14 -5 27 -8.5t24 -5.5q16 -5 31 -14t15 -15q0 -19 -19.5 -26.5t-47.5 -3.5l-24 -94q56 -2 93 7.5t60 26.5q22 17 31.5 41t9.5 53q0 46 -33.5 75.5t-79.5 41.5
q-48 12 -75.5 35.5t-27.5 60.5q0 25 13.5 48t37.5 40q24 18 56 28.5t69 10.5v85q-14 -1 -32 -1.5t-30 -0.5t-28.5 2.5t-30.5 8.5q-15 6 -25 15.5t-10 23.5q0 25 25 39.5t99 14.5h35v84h-82q-53 0 -88.5 -12.5t-56.5 -31.5q-21 -18 -30 -40.5t-9 -42.5q0 -42 25.5 -72
t77.5 -45z" />
    <glyph glyph-name="omicron" unicode="&#x3bf;" horiz-adv-x="481" 
d="M18 216q0 -51 15 -94.5t44 -74.5q28 -31 69.5 -48.5t93.5 -17.5t93 17.5t70 48.5t44.5 74.5t15.5 94.5t-15.5 93.5t-44.5 74.5q-29 31 -70.5 48.5t-92.5 17.5q-52 0 -93.5 -17.5t-69.5 -48.5q-29 -32 -44 -74.5t-15 -93.5zM240 362q53 0 85 -41t32 -105q0 -65 -32 -105
t-85 -40q-54 0 -85.5 40t-31.5 105q0 64 31.5 105t85.5 41z" />
    <glyph glyph-name="pi" unicode="&#x3c0;" horiz-adv-x="593" 
d="M582 432h-570v-93h112v-345h103v345h141v-345h103v345h111v93z" />
    <glyph glyph-name="rho" unicode="&#x3c1;" horiz-adv-x="439" 
d="M116 -157v191q19 -19 42 -30.5t72 -11.5q40 0 75.5 17.5t62.5 48.5q26 30 41.5 70.5t15.5 85.5q0 43 -14 84t-41 73q-26 32 -65 51.5t-88 19.5q-11 0 -31 -3t-44 -13q-26 -11 -49 -29.5t-41 -48.5t-28.5 -72t-10.5 -97v-336h103zM218 355q48 0 74.5 -39.5t26.5 -97.5
q0 -57 -28 -97t-75 -40q-46 0 -73 36t-27 88q0 80 30 115t72 35z" />
    <glyph glyph-name="sigma" unicode="&#x3c3;" horiz-adv-x="516" 
d="M398 340h105v92h-273q-48 0 -88 -17t-68 -46t-43.5 -69.5t-15.5 -88.5t15 -89.5t43 -71.5t67.5 -47t88.5 -17q48 0 86.5 17t65.5 47t42 71.5t15 89.5q0 51 -16 85.5t-24 43.5zM229 341q48 0 77 -36.5t29 -93.5q0 -58 -30 -94t-76 -36q-45 0 -75.5 36t-30.5 94
q0 57 29 93.5t77 36.5z" />
    <glyph glyph-name="tau" unicode="&#x3c4;" horiz-adv-x="397" 
d="M378 433h-362v-91h131v-348h104v348h127v91z" />
    <glyph glyph-name="upsilon" unicode="&#x3c5;" horiz-adv-x="416" 
d="M19 436v-278q0 -73 44 -123t137 -50q51 0 87.5 16.5t59.5 43.5q24 27 35.5 61.5t14.5 70.5q2 40 -4.5 79t-16.5 74q-11 35 -24 64.5t-24 51.5l-93 -23q17 -31 30 -66.5t22 -71.5q8 -35 11 -66.5t0 -52.5q-6 -39 -34.5 -63.5t-64.5 -24.5q-32 0 -57.5 20.5t-25.5 53.5v284
h-97z" />
    <glyph glyph-name="phi" unicode="&#x3c6;" horiz-adv-x="520" 
d="M199 447q-90 -17 -139.5 -81t-49.5 -145q0 -96 55 -155.5t146 -78.5v-129h99v129q45 8 81 30t62 54q26 31 40 70t16 82q1 39 -5.5 67.5t-25.5 61.5q-25 42 -65 68t-90 26q-33 0 -60 -16.5t-40 -50.5q-9 -24 -10.5 -53.5t-1.5 -53.5v-187q-45 12 -73 45t-28 96
q0 45 26.5 76t55.5 40zM310 272q0 52 4.5 66t25.5 14q30 0 52.5 -33t22.5 -88q0 -53 -29 -94.5t-76 -54.5v190z" />
    <glyph glyph-name="chi" unicode="&#x3c7;" horiz-adv-x="466" 
d="M175 169l-164 -278h111l107 176l107 -176h117l-166 282l156 263h-113l-98 -163l-98 163h-116z" />
    <glyph glyph-name="psi" unicode="&#x3c8;" horiz-adv-x="535" 
d="M119 436h-103v-220q0 -42 4.5 -70t14.5 -48q5 -11 16 -27t32 -32q20 -16 52.5 -28.5t80.5 -15.5v-147h103v146q33 2 68.5 11.5t53.5 23.5q12 9 25.5 20t24.5 31q12 21 19.5 53t7.5 83v220h-103v-220q0 -22 -1 -41t-5 -31q-12 -27 -31 -39.5t-59 -15.5v347h-103v-347
q-60 3 -78.5 35.5t-18.5 91.5v220z" />
    <glyph glyph-name="omega" unicode="&#x3c9;" horiz-adv-x="624" 
d="M312 73q23 -47 60.5 -65.5t70.5 -18.5q37 0 69.5 15t55.5 42q23 28 35 67t11 87q-1 24 -6 54.5t-13 62.5t-19.5 63t-24.5 56h-101q11 -24 21.5 -56t18.5 -65q9 -34 14 -64.5t5 -50.5q0 -69 -23.5 -96.5t-57.5 -27.5q-27 0 -46 28.5t-19 86.5v122h-103v-125
q0 -60 -19.5 -86t-45.5 -26q-33 0 -56.5 26.5t-23.5 92.5q0 22 5 54.5t13 66.5t18.5 65.5t21.5 54.5h-101q-10 -17 -20.5 -46t-19.5 -63q-9 -33 -14.5 -67t-5.5 -60q-5 -94 38.5 -152.5t129.5 -58.5q32 0 70 19t62 65z" />
    <glyph glyph-name="afii10023" unicode="&#x401;" horiz-adv-x="770" 
d="M172 603v-609h434v99h-328v163h304v98h-304v149h320v100h-426zM294 727q-21 0 -35.5 -15.5t-14.5 -34.5q0 -21 14.5 -36t35.5 -15q19 0 34 15t15 36q0 19 -15 34.5t-34 15.5zM477 727q-21 0 -35.5 -15.5t-14.5 -34.5q0 -21 14.5 -36t35.5 -15q19 0 34.5 15t15.5 36
q0 19 -15.5 34.5t-34.5 15.5z" />
    <glyph glyph-name="afii10017" unicode="&#x410;" horiz-adv-x="770" 
d="M678 -4l-234 605h-118l-234 -605h108l53 140h264l54 -140h107zM483 231h-193l95 245z" />
    <glyph glyph-name="afii10018" unicode="&#x411;" horiz-adv-x="770" 
d="M275 84v178h153q49 0 77 -24.5t28 -63.5q-1 -41 -26 -65.5t-81 -24.5h-151zM176 602v-608h252q41 0 78 11t65 33q28 21 45.5 51.5t20.5 68.5q2 39 -10.5 74t-39.5 62q-28 26 -70 42t-97 16h-145v160h322v90h-421z" />
    <glyph glyph-name="afii10019" unicode="&#x412;" horiz-adv-x="770" 
d="M169 -6h263q44 0 82 12t67 34q28 21 45 51.5t19 67.5q1 34 -8.5 61.5t-24.5 47.5t-32 32.5t-30 17.5q12 6 25.5 18.5t25.5 31.5q11 18 16.5 42.5t1.5 55.5q-9 54 -58.5 95.5t-129.5 41.5h-262v-609zM276 361v142h141q42 0 66 -20t24 -50q0 -34 -23.5 -53t-67.5 -19h-140z
M276 93v169h152q57 0 81 -26.5t24 -57.5q0 -33 -25 -59t-83 -26h-149z" />
    <glyph glyph-name="afii10020" unicode="&#x413;" horiz-adv-x="770" 
d="M176 602v-608h104v516h321v92h-425z" />
    <glyph glyph-name="afii10021" unicode="&#x414;" horiz-adv-x="770" 
d="M176 83h-51v-213h97v124h326v-124h97v213h-54v520h-350q0 -63 -1 -135.5t-7 -142.5q-6 -71 -19.5 -134.5t-37.5 -107.5zM490 83h-206q21 42 32.5 101t16.5 120q5 60 6 115t1 91h150v-427z" />
    <glyph glyph-name="afii10022" unicode="&#x415;" horiz-adv-x="770" 
d="M172 603v-609h434v99h-328v163h304v98h-304v149h320v100h-426z" />
    <glyph glyph-name="afii10024" unicode="&#x416;" horiz-adv-x="770" 
d="M336 346l-174 254h-115l184 -265l-227 -341h118l168 256l46 -67v-189h94v191l45 65l169 -256h118l-228 341l184 265h-114l-174 -253v253h-94v-254z" />
    <glyph glyph-name="afii10025" unicode="&#x417;" horiz-adv-x="770" 
d="M170 177q-2 -45 14 -81.5t45 -62.5t69 -40t85 -14t83.5 14.5t66.5 39.5q29 25 45 59.5t16 73.5q0 48 -29.5 88.5t-70.5 56.5q24 9 52.5 43t28.5 93q0 34 -14.5 65t-39.5 54q-26 24 -61.5 38t-78.5 14q-42 0 -78.5 -14.5t-62.5 -38.5q-27 -25 -41.5 -58.5t-12.5 -71.5h106
q-3 36 19.5 63.5t70.5 27.5t69 -28.5t19 -55.5q-3 -25 -14.5 -42.5t-28.5 -25.5q-18 -10 -41 -13t-47 -3v-98h18h21q10 -1 21.5 -2t22.5 -4q31 -10 49 -35t16 -53q-3 -39 -30.5 -64t-74.5 -25q-50 0 -79 27.5t-26 72.5h-107z" />
    <glyph glyph-name="afii10026" unicode="&#x418;" horiz-adv-x="770" 
d="M277 -6l244 439v-439h107v609h-130l-243 -440v440h-107v-609h129z" />
    <glyph glyph-name="afii10027" unicode="&#x419;" horiz-adv-x="770" 
d="M277 -6l244 439v-439h107v609h-130l-243 -440v440h-107v-609h129zM437 721q-3 -24 -18 -34.5t-31 -10.5t-31.5 11.5t-20.5 33.5h-87q14 -64 53 -90t87 -26q46 0 85.5 26t48.5 90h-86z" />
    <glyph glyph-name="afii10028" unicode="&#x41a;" horiz-adv-x="770" 
d="M257 221q6 5 13 11t15 13q7 7 15 14.5t16 15.5l227 -281h125l-278 352q53 53 116 120t118 137h-127q-26 -32 -56.5 -65t-61.5 -66q-32 -33 -63.5 -63.5t-58.5 -56.5v251h-106v-609h106v227z" />
    <glyph glyph-name="afii10029" unicode="&#x41b;" horiz-adv-x="770" 
d="M300 512h202v-518h105v608h-408v-444q0 -12 -2.5 -25.5t-9.5 -24.5q-7 -12 -20 -19.5t-35 -7.5v-92q49 0 81 13t52 36q19 22 27 50.5t8 59.5v364z" />
    <glyph glyph-name="afii10030" unicode="&#x41c;" horiz-adv-x="770" 
d="M445 -5l119 355v-355h105v608h-129l-157 -477l-158 477h-130v-608h107v355l119 -355h124z" />
    <glyph glyph-name="afii10031" unicode="&#x41d;" horiz-adv-x="770" 
d="M513 264v-270h107v609h-107v-240h-258v240h-107v-609h107v270h258z" />
    <glyph glyph-name="afii10032" unicode="&#x41e;" horiz-adv-x="770" 
d="M105 298q0 -71 19.5 -129.5t55.5 -100.5q36 -43 87.5 -66t115.5 -23t115.5 23t87.5 66q36 42 55.5 100.5t19.5 129.5q0 70 -19.5 129t-55.5 101t-87.5 66t-115.5 24t-115.5 -24t-87.5 -66t-55.5 -101t-19.5 -129zM550 298q0 -98 -45 -159.5t-122 -61.5t-121 61.5
t-44 159.5q0 96 44 158.5t121 62.5t122 -62.5t45 -158.5z" />
    <glyph glyph-name="afii10033" unicode="&#x41f;" horiz-adv-x="770" 
d="M255 510h256v-515h105v605h-469v-605h108v515z" />
    <glyph glyph-name="afii10034" unicode="&#x420;" horiz-adv-x="770" 
d="M166 602v-609h107v221h144q42 0 79.5 15t65.5 42q28 26 44 61.5t16 75.5q0 39 -16 74.5t-44 61.5q-28 27 -65.5 42.5t-79.5 15.5h-251zM273 312v191h130q19 0 38 -5.5t35 -16.5q15 -12 25 -30t10 -43q0 -27 -10 -45.5t-25 -29.5q-16 -11 -35 -16t-38 -5h-130z" />
    <glyph glyph-name="afii10035" unicode="&#x421;" horiz-adv-x="770" 
d="M547 198q-6 -22 -18 -43.5t-30 -38.5q-19 -18 -43.5 -28.5t-55.5 -10.5q-78 0 -124 60.5t-46 160.5q0 99 46 160t124 61q33 0 58 -11t42 -28t27.5 -37t15.5 -38h118q-6 31 -25 68t-51 70q-33 32 -80 53.5t-109 21.5q-65 0 -116.5 -24t-87.5 -66t-55 -101t-19 -129
q0 -71 19 -129.5t55 -100.5q36 -43 87.5 -66t116.5 -23q60 0 106 20t79 52q33 31 53.5 70t28.5 77h-116z" />
    <glyph glyph-name="afii10036" unicode="&#x422;" horiz-adv-x="770" 
d="M333 502v-510h107v510h191v98h-487v-98h189z" />
    <glyph glyph-name="afii10037" unicode="&#x423;" horiz-adv-x="770" 
d="M383 302l-107 299h-117l169 -448l-11 -32q-5 -15 -19.5 -26t-32.5 -11h-47v-91h57q17 0 37 2t40 12q17 9 32.5 26t25.5 45l198 523h-117z" />
    <glyph glyph-name="afii10038" unicode="&#x424;" horiz-adv-x="770" 
d="M432 456q62 -8 101 -49t39 -110q0 -72 -39.5 -112t-100.5 -46v317zM339 139q-63 6 -102 46t-39 112q0 69 39 110t102 49v-317zM339 50v-56h93v56q52 5 95.5 25.5t74.5 52.5q32 32 49.5 75t17.5 94q0 50 -18 93.5t-49 75.5q-32 33 -75.5 53t-94.5 25v57h-93v-57
q-53 -5 -96.5 -25t-75.5 -53q-31 -32 -48.5 -75.5t-17.5 -93.5q0 -51 17.5 -94.5t48.5 -75.5q32 -33 75.5 -53t96.5 -24z" />
    <glyph glyph-name="afii10039" unicode="&#x425;" horiz-adv-x="770" 
d="M386 221l142 -220h123l-203 313l181 280h-124l-118 -186l-120 186h-126l184 -282l-202 -311h123z" />
    <glyph glyph-name="afii10040" unicode="&#x426;" horiz-adv-x="770" 
d="M268 88v514h-101v-608h396v-91h101v184h-59v515h-101v-514h-236z" />
    <glyph glyph-name="afii10041" unicode="&#x427;" horiz-adv-x="770" 
d="M622 -6v606h-98v-235q0 -20 -14 -37.5t-34 -30.5q-21 -13 -45 -21t-44 -8q-24 -1 -49.5 1t-46.5 13t-34.5 35t-13.5 68v215h-99v-244q0 -49 18.5 -83t47.5 -56q29 -21 65.5 -31.5t71.5 -11.5q29 -2 58.5 4t54.5 14q25 9 42 18t22 15v-231h98z" />
    <glyph glyph-name="afii10042" unicode="&#x428;" horiz-adv-x="770" 
d="M564 84h-130v516h-97v-516h-131v516h-96v-606h550v606h-96v-516z" />
    <glyph glyph-name="afii10043" unicode="&#x429;" horiz-adv-x="770" 
d="M661 85v518h-97v-518h-130v518h-97v-518h-131v518h-97v-608h518v-92h94v182h-60z" />
    <glyph glyph-name="afii10044" unicode="&#x42a;" horiz-adv-x="770" 
d="M339 275h148q39 0 70 -23t31 -71q0 -49 -31 -72.5t-70 -23.5h-148v190zM241 513v-519h246q88 0 145 51.5t57 135.5q0 83 -57 134t-145 51h-148v234h-252v-87h154z" />
    <glyph glyph-name="afii10045" unicode="&#x42b;" horiz-adv-x="770" 
d="M576 600v-605h100v605h-100zM94 -5h247q89 0 146 51.5t57 135.5t-57 135.5t-146 51.5h-147v231h-100v-605zM194 275h147q38 0 69 -23t31 -70q0 -48 -31 -71.5t-69 -23.5h-147v188z" />
    <glyph glyph-name="afii10046" unicode="&#x42c;" horiz-adv-x="770" 
d="M170 -5h247q44 0 81 13t64 38t42.5 59.5t15.5 76.5t-15.5 76t-42.5 59t-64 38.5t-81 13.5h-148v231h-99v-605zM269 275h148q37 0 68.5 -23t31.5 -70q0 -48 -31.5 -71.5t-68.5 -23.5h-148v188z" />
    <glyph glyph-name="afii10047" unicode="&#x42d;" horiz-adv-x="770" 
d="M265 249h288q-7 -78 -51.5 -127.5t-114.5 -49.5q-54 0 -93.5 22t-55.5 73h-106q30 -100 94.5 -143t160.5 -43q62 0 112 23t86 65q35 41 54 99t19 127t-19.5 127t-54.5 99q-35 42 -85.5 65.5t-112.5 23.5q-97 0 -159.5 -47.5t-94.5 -137.5h107q18 45 55.5 71t91.5 26
q70 0 115 -53t52 -130h-288v-90z" />
    <glyph glyph-name="afii10048" unicode="&#x42e;" horiz-adv-x="770" 
d="M470 516q65 0 105.5 -61.5t40.5 -157.5q0 -97 -40.5 -158t-105.5 -61q-66 0 -106.5 61t-40.5 158q0 96 40.5 157.5t106.5 61.5zM166 252h63q3 -57 21.5 -105.5t49.5 -83.5t74 -55t96 -20q55 0 99.5 22.5t76.5 63.5q31 41 48 98t17 125q0 67 -17 124t-48 98
q-32 41 -76.5 64t-99.5 23q-53 0 -96 -20.5t-74 -55.5t-49.5 -83.5t-21.5 -104.5h-63v258h-97v-605h97v257z" />
    <glyph glyph-name="afii10049" unicode="&#x42f;" horiz-adv-x="770" 
d="M480 336h-127q-45 0 -76 20t-31 64q0 41 31 62t76 21h127v-167zM266 238l-172 -244h129l167 235h90v-235h108v609h-252q-43 0 -80.5 -14.5t-65.5 -38.5q-27 -25 -43 -58.5t-16 -71.5q0 -33 10.5 -63t28.5 -55q18 -24 42.5 -41t53.5 -23z" />
    <glyph glyph-name="afii10065" unicode="&#x430;" horiz-adv-x="770" 
d="M594 311q0 34 -16.5 60.5t-44.5 45.5q-27 18 -64 27.5t-77 9.5q-42 0 -79.5 -13t-64.5 -35q-28 -23 -42.5 -53t-11.5 -65h102q-3 31 25.5 53t70.5 22q45 0 70 -14.5t25 -35.5q0 -24 -21 -32.5t-42 -12.5q-12 -3 -27.5 -5t-33.5 -5t-37.5 -7t-37.5 -10q-50 -17 -83.5 -57
t-25.5 -97q7 -61 54 -86t110 -18q42 4 84 24t60 41q1 -17 4.5 -30.5t8.5 -21.5h109l-7.5 22.5t-7.5 50.5v242zM487 178q0 -15 -9.5 -29t-23.5 -26t-31 -21t-33 -14q-14 -5 -29.5 -8.5t-29.5 -3.5t-25.5 5t-15.5 19q-7 19 5 32.5t35 22.5q9 3 22 6.5t28 6.5q14 3 29 6t28 7
q6 1 13.5 3.5t14.5 5.5q6 2 12 5.5t10 7.5v-25z" />
    <glyph glyph-name="afii10066" unicode="&#x431;" horiz-adv-x="770" 
d="M332 450q7 9 13 14.5t10 8.5q12 8 32.5 13t36.5 5q11 -1 20.5 -2t20.5 -1t24.5 2t33.5 9q24 8 45.5 32t29.5 83h-96q-3 -21 -19 -31t-34 -8q-37 2 -78.5 -4.5t-74.5 -31.5q-38 -27 -63 -66t-38 -81q-15 -45 -19 -86t-4 -82q0 -50 14 -93t42 -75q27 -32 66 -50.5t89 -18.5
q49 0 88 18.5t66 50.5q27 33 42 76t15 93v0q0 48 -14.5 91t-41.5 75t-66 51.5t-89 19.5q-14 0 -26.5 -3t-24.5 -9zM383 81q-48 0 -77.5 42t-29.5 102q0 28 7.5 54t21.5 46q15 20 34.5 32t43.5 12q23 0 42.5 -12t34.5 -32q14 -19 22.5 -45.5t8.5 -54.5q0 -61 -31 -102.5
t-77 -41.5z" />
    <glyph glyph-name="afii10067" unicode="&#x432;" horiz-adv-x="770" 
d="M561 318q0 55 -42.5 94t-111.5 39h-186v-456h192q69 0 116.5 37t47.5 104q0 46 -19.5 69t-31.5 30q9 6 22 28t13 55zM395 87h-75v100h84q34 0 51 -18.5t17 -31.5q-2 -23 -18.5 -36.5t-58.5 -13.5zM320 359h75q34 0 47.5 -13t13.5 -28q0 -17 -13.5 -29t-43.5 -12h-79v82z
" />
    <glyph glyph-name="afii10068" unicode="&#x433;" horiz-adv-x="770" 
d="M330 346h238v90h-339v-440h101v350z" />
    <glyph glyph-name="afii10069" unicode="&#x434;" horiz-adv-x="770" 
d="M489 -95h102v186h-43v346h-278q2 -102 -5.5 -194t-34.5 -152h-48v-186h101v92h206v-92zM446 344v-253h-110q11 23 17.5 57.5t9.5 71.5q3 36 4 69.5t1 54.5h78z" />
    <glyph glyph-name="afii10070" unicode="&#x435;" horiz-adv-x="770" 
d="M610 181q2 72 -15.5 124t-48.5 85q-32 34 -73 50t-86 16q-51 0 -93 -18.5t-71 -49.5q-29 -32 -45 -75.5t-16 -94.5t16.5 -94.5t46.5 -75.5t71.5 -50t91.5 -18q48 0 83.5 13t60.5 34q25 22 41 49t25 55h-112q-7 -19 -32 -39.5t-67 -20.5q-24 0 -44 9.5t-36 25.5
q-15 15 -24.5 35t-10.5 40h338zM273 268q6 42 37 69.5t77 27.5q47 0 77 -28.5t35 -68.5h-226z" />
    <glyph glyph-name="afii10072" unicode="&#x436;" horiz-adv-x="770" 
d="M335 278l-107 157h-112l124 -184l-155 -254h112l103 166l35 -50v-116h100v116l35 50l103 -166h112l-155 254l125 184h-113l-107 -158v158h-100v-157z" />
    <glyph glyph-name="afii10073" unicode="&#x437;" horiz-adv-x="770" 
d="M490 227q18 10 32.5 33t14.5 59q0 57 -45 93.5t-109 36.5q-70 0 -113.5 -39t-43.5 -103v-18h97q0 31 12.5 50t44.5 19q23 0 40 -12t17 -28q0 -34 -26.5 -43t-83.5 -9v-82q20 0 42 -1t40 -6t30 -16.5t12 -32.5q0 -24 -20.5 -38t-47.5 -14q-40 0 -56.5 23t-16.5 59h-99v-18
q0 -71 48 -113.5t123 -42.5q76 0 122.5 37.5t47.5 102.5q0 40 -19.5 65.5t-42.5 37.5z" />
    <glyph glyph-name="afii10074" unicode="&#x438;" horiz-adv-x="770" 
d="M468 265v-268h100v438h-106l-160 -269v269h-100v-438h106z" />
    <glyph glyph-name="afii10075" unicode="&#x439;" horiz-adv-x="770" 
d="M302 165v268h-100v-439h106l160 270v-270h100v439h-106zM436 561q-3 -24 -16.5 -34.5t-31.5 -10.5t-32.5 11.5t-18.5 33.5h-88q14 -64 53 -90t87 -26q46 0 85.5 26t48.5 90h-87z" />
    <glyph glyph-name="afii10076" unicode="&#x43a;" horiz-adv-x="770" 
d="M320 436h-106v-439h106v132l28 32l125 -164h121l-179 234l174 205h-122l-147 -171v171z" />
    <glyph glyph-name="afii10077" unicode="&#x43b;" horiz-adv-x="770" 
d="M474 -3h103v438h-368v-310q0 -11 -8 -25.5t-39 -14.5v-94q49 0 78.5 11t45.5 30q15 19 20.5 42.5t5.5 48.5v220h162v-346z" />
    <glyph glyph-name="afii10078" unicode="&#x43c;" horiz-adv-x="770" 
d="M285 154l64 -158h83l64 158v-158h98v439h-92l-112 -281l-111 281h-92v-439h98v158z" />
    <glyph glyph-name="afii10079" unicode="&#x43d;" horiz-adv-x="770" 
d="M471 -3h100v439h-100v-162h-168v162h-99v-439h99v186h168v-186z" />
    <glyph glyph-name="afii10080" unicode="&#x43e;" horiz-adv-x="770" 
d="M387 453q-52 0 -93.5 -18t-70.5 -50q-29 -31 -44 -74.5t-15 -93.5q0 -51 15 -94.5t44 -75.5q29 -31 70.5 -49t93.5 -18t93.5 18t70.5 49q29 32 44.5 75.5t15.5 94.5q0 50 -15.5 93.5t-44.5 74.5q-29 32 -70.5 50t-93.5 18zM387 73q-54 0 -84.5 40.5t-30.5 103.5
t30.5 102.5t84.5 39.5q52 0 84 -39.5t32 -102.5t-32 -103.5t-84 -40.5z" />
    <glyph glyph-name="afii10081" unicode="&#x43f;" horiz-adv-x="770" 
d="M468 -3h102v438h-371v-438h102v346h167v-346z" />
    <glyph glyph-name="afii10082" unicode="&#x440;" horiz-adv-x="770" 
d="M461 454q-44 0 -77 -13t-54 -34v30h-102v-533h102v126q21 -22 54 -35t77 -13q93 0 151 64t58 172t-58 172t-151 64zM446 75q-55 0 -85.5 38t-30.5 105t30.5 105t85.5 38q54 0 84.5 -38t30.5 -105t-30.5 -105t-84.5 -38z" />
    <glyph glyph-name="afii10083" unicode="&#x441;" horiz-adv-x="770" 
d="M501 148q-9 -29 -35 -51.5t-66 -22.5q-53 0 -84.5 40t-31.5 103t31 103t85 40q47 0 71 -25t30 -49h110q-7 30 -23.5 60t-43.5 54t-63 39t-81 15q-53 0 -94.5 -18.5t-70.5 -49.5q-29 -32 -44 -75.5t-15 -93.5q0 -51 15 -94.5t44 -75.5t70.5 -49.5t94.5 -17.5q45 0 80 13
t61 36q27 23 44 53.5t26 64.5z" />
    <glyph glyph-name="afii10084" unicode="&#x442;" horiz-adv-x="770" 
d="M436 345h142v90h-383v-90h141v-348h100v348z" />
    <glyph glyph-name="afii10085" unicode="&#x443;" horiz-adv-x="770" 
d="M601 437h-106l-110 -271l-108 270h-108l162 -405l-6 -17q-6 -18 -22.5 -26t-32.5 -8h-44v-86h50q14 0 25.5 0.5t21.5 2.5q19 3 48 20.5t46 59.5z" />
    <glyph glyph-name="afii10086" unicode="&#x444;" horiz-adv-x="770" 
d="M336 410q-12 9 -34 19t-50 10q-45 0 -80 -18.5t-58 -48.5t-35 -68.5t-12 -78.5q0 -42 12 -81t35 -69q24 -30 58.5 -47.5t79.5 -17.5q20 0 35.5 5t25.5 11q10 7 15.5 12.5t7.5 6.5v-142h99v144q0 -2 5 -7.5t15 -12.5t25.5 -12t38.5 -5v0q43 0 77 16.5t58 45.5t37 68t13 85
q0 45 -12 84t-35 68q-23 28 -56.5 45t-77.5 17q-22 0 -38 -5.5t-27 -11.5q-12 -6 -17.5 -11l-5.5 -5v167h-99v-163zM332 224q0 -55 -24.5 -93t-58.5 -38q-36 0 -58.5 38t-22.5 93q0 54 22.5 92.5t58.5 38.5q35 0 59 -38t24 -93zM604 224q0 -55 -24 -93t-58 -38
q-36 0 -59.5 38t-23.5 93q0 54 23.5 92.5t59.5 38.5q35 0 58.5 -38.5t23.5 -92.5z" />
    <glyph glyph-name="afii10087" unicode="&#x445;" horiz-adv-x="770" 
d="M335 221l-154 -224h118l94 139l94 -139h118l-154 224l145 214h-116l-87 -129l-88 129h-115z" />
    <glyph glyph-name="afii10088" unicode="&#x446;" horiz-adv-x="770" 
d="M521 -100h103v190h-51v346h-103v-345h-162v345h-103v-438h316v-98z" />
    <glyph glyph-name="afii10089" unicode="&#x447;" horiz-adv-x="770" 
d="M470 -3h99v438h-99v-177q0 -10 -8.5 -21t-21.5 -21q-13 -9 -29 -15t-30 -6q-26 0 -53 16.5t-27 61.5v162h-99v-177q0 -46 17 -75.5t43 -47.5q27 -17 57.5 -24t57.5 -7q37 0 61 8t32 16v-131z" />
    <glyph glyph-name="afii10090" unicode="&#x448;" horiz-adv-x="770" 
d="M189 -3h406v439h-98v-349h-56v349h-98v-349h-56v349h-98v-439z" />
    <glyph glyph-name="afii10091" unicode="&#x449;" horiz-adv-x="770" 
d="M638 89h-47v347h-98v-348h-57v348h-98v-348h-56v348h-99v-439h358v-93h97v185z" />
    <glyph glyph-name="afii10092" unicode="&#x44a;" horiz-adv-x="770" 
d="M633 144q0 65 -46.5 106.5t-138.5 41.5h-84v144h-213v-94h110v-345h193q70 0 122 32t57 105v5v5zM444 90h-80v108h81q33 0 57.5 -11.5t24.5 -40.5q-2 -32 -24 -44t-59 -12z" />
    <glyph glyph-name="afii10093" unicode="&#x44b;" horiz-adv-x="770" 
d="M507 144q0 65 -47 106.5t-137 41.5h-85v143h-103v-438h195q33 0 64 7t56 24q24 16 39 42t18 64v5v5zM625 -3v438h-98v-438h98zM320 90h-82v108h82q32 0 56 -11t24 -41q-1 -31 -23 -43.5t-57 -12.5z" />
    <glyph glyph-name="afii10094" unicode="&#x44c;" horiz-adv-x="770" 
d="M573 144q0 64 -47.5 106t-137.5 42h-85v143h-104v-438h196q34 0 65.5 7.5t55.5 24.5q24 16 39 42t18 63v5v5zM384 90h-81v108h82q31 0 56.5 -11t25.5 -41q-2 -31 -24.5 -43.5t-58.5 -12.5z" />
    <glyph glyph-name="afii10095" unicode="&#x44d;" horiz-adv-x="770" 
d="M282 263v-92h213q-2 -17 -10 -35t-22 -33q-15 -15 -35 -24.5t-45 -9.5q-42 0 -64.5 22.5t-27.5 40.5h-107q6 -29 21.5 -56t40.5 -49q25 -21 59.5 -34t79.5 -13q49 0 89 18.5t68 50.5t43 75t15 91t-15 90.5t-43 74.5t-68 51t-89 19q-51 0 -85.5 -12.5t-57.5 -33.5t-37 -48
t-23 -57h108q2 6 8 16.5t17 20.5q12 10 28.5 17t39.5 7q25 0 44.5 -10t34.5 -24q14 -15 22 -32t10 -31h-212z" />
    <glyph glyph-name="afii10096" unicode="&#x44e;" horiz-adv-x="770" 
d="M266 268v167h-100v-438h100v175h28q3 -37 16.5 -71t35.5 -60t53 -41.5t69 -15.5q41 0 73.5 19t55.5 51q22 33 34.5 75t12.5 89q0 46 -12.5 88.5t-34.5 75.5q-23 32 -55.5 52t-72.5 20q-38 0 -68.5 -15.5t-52.5 -41.5t-35.5 -59.5t-17.5 -69.5h-29zM390 218q0 61 22.5 105
t55.5 44t55 -44.5t22 -104.5t-21.5 -104.5t-55.5 -44.5q-33 0 -55.5 44.5t-22.5 104.5z" />
    <glyph glyph-name="afii10097" unicode="&#x44f;" horiz-adv-x="770" 
d="M437 -3h104v438h-194q-69 0 -117 -37.5t-48 -105.5q0 -56 27.5 -89.5t54.5 -39.5l-115 -166h121l104 151h63v-151zM437 342v-101h-72q-31 0 -54.5 10t-23.5 40q0 26 21.5 38.5t56.5 12.5h72z" />
    <glyph glyph-name="afii10071" unicode="&#x451;" horiz-adv-x="770" 
d="M610 179q2 72 -15.5 124t-48.5 85q-32 34 -73 50t-86 16q-51 0 -93 -18.5t-71 -50.5t-45 -75.5t-16 -94.5t16.5 -94.5t46.5 -75.5t71.5 -50t91.5 -18q48 0 83.5 13t60.5 34q25 22 41 49t25 56h-112q-7 -19 -32 -39t-67 -20q-24 0 -44 9t-36 25q-15 15 -24.5 34.5
t-10.5 40.5h338zM273 266q6 42 37 69.5t77 27.5q47 0 77 -29t35 -68h-226zM294 595q-23 0 -39.5 -17t-16.5 -39q0 -24 16.5 -40.5t39.5 -16.5q22 0 39 16.5t17 40.5q0 22 -17 39t-39 17zM474 595q-23 0 -39.5 -17t-16.5 -39q0 -24 16.5 -40.5t39.5 -16.5q22 0 39.5 16.5
t17.5 40.5q0 22 -17.5 39t-39.5 17z" />
    <glyph glyph-name="afii00208" unicode="&#x2015;" horiz-adv-x="770" 
d="M730 342h-690v-84h690v84z" />
    <glyph glyph-name="quoteleft" unicode="&#x2018;" horiz-adv-x="240" 
d="M37 510h165v142h-78l56 138h-87l-56 -138v-142z" />
    <glyph glyph-name="quoteright" unicode="&#x2019;" horiz-adv-x="240" 
d="M200 648v142h-165v-142h78l-56 -138h87z" />
    <glyph glyph-name="quotedblleft" unicode="&#x201c;" horiz-adv-x="450" 
d="M248 510h165v142h-78l56 138h-87l-56 -138v-142zM33 510h165v142h-78l56 138h-87l-56 -138v-142z" />
    <glyph glyph-name="quotedblright" unicode="&#x201d;" horiz-adv-x="450" 
d="M415 648v142h-165v-142h78l-56 -138h87zM200 648v142h-165v-142h78l-56 -138h87z" />
    <glyph glyph-name="dagger" unicode="&#x2020;" horiz-adv-x="770" 
d="M400 497q0 12 3 37.5t8 43.5q4 13 5 29.5t-2 29.5q-2 14 -9.5 23.5t-19.5 9.5q-13 0 -20.5 -9.5t-10.5 -23.5q-3 -13 -2 -29.5t5 -29.5q5 -18 9 -43.5t4 -37.5q-12 -1 -33.5 3t-39.5 9q-28 8 -56 3.5t-28 -29.5q0 -26 28 -30.5t56 3.5q18 4 39.5 8.5t33.5 4.5
q0 -18 -4 -39t-13 -33t-13 -16.5t-3 -7.5q0 -4 4.5 -10.5t11.5 -21.5q10 -25 13.5 -78t3.5 -111q1 -58 0.5 -109.5t1.5 -72.5q3 -36 13 -36t13 36q1 21 0.5 72.5t0.5 109.5t4.5 111t13.5 78q6 15 10.5 21.5t4.5 10.5q1 3 -2.5 7.5t-12.5 16.5q-10 12 -13.5 32.5t-3.5 39.5
q11 0 33 -4.5t40 -8.5q27 -8 55.5 -3.5t28.5 30.5q0 25 -28.5 29.5t-55.5 -3.5q-18 -5 -39.5 -9t-33.5 -3z" />
    <glyph glyph-name="daggerdbl" unicode="&#x2021;" horiz-adv-x="770" 
d="M370 476v-81q-12 0 -32.5 4t-38.5 9q-27 8 -55 3.5t-28 -29.5t28 -30t55 3q18 5 38.5 9t32.5 4q0 -17 -4 -37.5t-13 -32.5t-12.5 -16t-2.5 -7q1 -4 5 -10.5t10 -21.5q9 -25 12.5 -62.5t4.5 -77.5t0.5 -76t1.5 -57q1 -36 12.5 -36t13.5 36q0 21 -0.5 57t0.5 76t5 77.5
t14 62.5q5 14 9 20.5t4 9.5q1 4 -2 8.5l-11 16.5q-11 12 -14 32t-3 38q10 0 31.5 -4t39.5 -9q27 -8 55 -3t28 30t-28 29.5t-55 -3.5q-18 -5 -39 -9t-32 -4v81q10 1 31.5 -3.5t39.5 -8.5q27 -8 55 -3t28 30q0 24 -28 28.5t-55 -3.5q-18 -5 -39 -8.5t-32 -3.5q0 11 2.5 34.5
t7.5 41.5q4 13 5 29t-1 29q-3 14 -10 23t-19 9q-13 0 -20 -9t-10 -23q-3 -13 -2 -29t5 -29q5 -18 8.5 -41t3.5 -35q-12 0 -32.5 3.5t-38.5 8.5q-27 8 -55 3.5t-28 -28.5q0 -25 28 -30t55 3q18 4 38.5 8.5t32.5 3.5z" />
    <glyph glyph-name="twodotenleader" unicode="&#x2025;" horiz-adv-x="770" 
d="M634 242v118h-117v-118h117zM253 242v118h-117v-118h117z" />
    <glyph glyph-name="ellipsis" unicode="&#x2026;" horiz-adv-x="770" 
d="M681 242v118h-118v-118h118zM444 242v118h-118v-118h118zM207 242v118h-118v-118h118z" />
    <glyph glyph-name="perthousand" unicode="&#x2030;" horiz-adv-x="770" 
d="M489 602l-470 -608h76l467 608h-73zM235 589q-52 -3 -98 -41t-65 -92q-11 -27 -9.5 -51.5t13.5 -42.5q12 -19 32 -29t47 -8q50 2 93 39t64 90q23 57 0.5 96.5t-77.5 38.5zM231 527q14 0 17.5 -17t-7.5 -46q-16 -29 -43.5 -53t-45.5 -24q-14 0 -18 17.5t9 44.5
q15 30 42 54t46 24zM407 271q-54 -3 -99 -40t-64 -91q-11 -28 -9 -52.5t13 -43.5q12 -18 32 -28.5t47 -8.5q50 3 93.5 40t65.5 91q21 57 -2 96.5t-77 36.5zM404 210q14 0 17.5 -17.5t-8.5 -46.5q-15 -29 -42.5 -53t-46.5 -24q-14 0 -17.5 17t8.5 46q15 29 42 53.5t47 24.5z
M659 271q-52 -3 -97 -40t-65 -91q-11 -28 -9 -52.5t14 -43.5q12 -18 32 -28.5t47 -8.5q50 3 93.5 40t64.5 91q21 57 -1.5 96.5t-78.5 36.5zM658 210q12 0 16 -17.5t-8 -46.5q-15 -29 -42.5 -53t-45.5 -24q-13 0 -17.5 17.5t6.5 45.5q16 29 43.5 53.5t47.5 24.5z" />
    <glyph glyph-name="minute" unicode="&#x2032;" horiz-adv-x="216" 
d="M72 447l133 217h-111l-82 -217h60z" />
    <glyph glyph-name="second" unicode="&#x2033;" horiz-adv-x="362" 
d="M79 447l133 217h-111l-82 -217h60zM210 447l133 217h-111l-82 -217h60z" />
    <glyph glyph-name="uni203B" unicode="&#x203b;" horiz-adv-x="770" 
d="M614 373q-32 0 -53 -22t-21 -52q0 -31 21.5 -52t52.5 -21t52.5 21t21.5 53q0 30 -22 51.5t-52 21.5zM156 373q-32 0 -53 -22t-21 -52q0 -31 21.5 -52t52.5 -21t52.5 21t21.5 53q0 30 -22 51.5t-52 21.5zM385 603q-32 0 -53 -22t-21 -52q0 -31 21.5 -52t52.5 -21t52.5 21
t21.5 53q0 30 -22 51.5t-52 21.5zM385 144q-32 0 -53 -22t-21 -52q0 -31 21.5 -52t52.5 -21t52.5 21t21.5 53q0 30 -22 51.5t-52 21.5zM635 -15l65 65l-251 250l251 250l-65 65l-250 -251l-250 251l-65 -65l251 -250l-251 -250l65 -65l250 251z" />
    <glyph glyph-name="uni2074" unicode="&#x2074;" horiz-adv-x="308" 
d="M292 342v64h-46v222h-71l-159 -219v-67h153v-57h77v57h46zM169 502v-96h-67z" />
    <glyph glyph-name="uni207F" unicode="&#x207f;" horiz-adv-x="308" 
d="M93 603v21h-80v-326h78v191q0 30 19 53t49 23q32 0 43.5 -21t11.5 -48v-198h81v218q0 20 -7 40.5t-22 37.5t-38 28t-54 11q-30 0 -49.5 -6t-31.5 -24z" />
    <glyph glyph-name="uni2081" unicode="&#x2081;" horiz-adv-x="308" 
d="M217 -39v344h-67q-1 -16 -7.5 -28t-9.5 -15q-7 -5 -27 -9.5t-38 -4.5v-63h72v-224h77z" />
    <glyph glyph-name="uni2082" unicode="&#x2082;" horiz-adv-x="308" 
d="M156 308q-64 0 -94.5 -37.5t-30.5 -89.5h75q0 27 11.5 44.5t38.5 17.5q22 0 33.5 -12t11.5 -32q0 -14 -13 -29t-23 -21l-61 -37q-52 -35 -66.5 -69t-14.5 -80h257v64h-164l12.5 12t20.5 16l58 38q10 6 23.5 15.5t24.5 22.5t19 30t8 40q0 42 -32 74.5t-94 32.5z" />
    <glyph glyph-name="uni2083" unicode="&#x2083;" horiz-adv-x="308" 
d="M247 135q3 1 15.5 19t12.5 52q0 40 -35 70.5t-87 30.5q-50 0 -87 -29.5t-34 -89.5h73q0 24 11 39t36 15q21 0 33 -11.5t12 -25.5q-1 -10 -8 -19.5t-17 -14.5q-3 -2 -23.5 -3.5t-32.5 -1.5v-65q11 0 32 -2t24 -2q12 -4 23 -14t11 -23q-1 -17 -15 -30.5t-38 -13.5
q-27 0 -42 16.5t-14 44.5h-75q-2 -58 36.5 -92.5t95.5 -34.5q58 0 95.5 30.5t37.5 78.5q0 28 -13.5 49t-26.5 27z" />
    <glyph glyph-name="uni2084" unicode="&#x2084;" horiz-adv-x="308" 
d="M292 10v65h-46v222h-71l-159 -220v-67h153v-56h77v56h46zM169 171v-96h-67z" />
    <glyph glyph-name="uni2103" unicode="&#x2103;" horiz-adv-x="770" 
d="M697 180l-98 -1q-10 -42 -44.5 -76t-92.5 -34q-68 0 -109.5 55t-41.5 142t41.5 142.5t109.5 55.5q29 0 52 -9.5t40 -23.5q17 -15 28.5 -32.5t17.5 -33.5h96q-7 30 -24.5 62t-46.5 59q-29 26 -69.5 43.5t-94.5 17.5q-57 0 -102.5 -21t-77.5 -58q-31 -37 -48 -89t-17 -113
q0 -62 17 -114t48 -89q32 -37 77.5 -57.5t102.5 -20.5q53 0 93.5 16.5t69.5 44.5q29 27 46.5 62t26.5 72zM266 535q0 40 -28.5 68t-68.5 28t-68 -28t-28 -68q0 -41 28 -68.5t68 -27.5t68.5 27.5t28.5 68.5zM208 535q0 -17 -11.5 -28.5t-27.5 -11.5q-15 0 -26.5 11.5
t-11.5 28.5q0 16 11.5 28t26.5 12q16 0 27.5 -12t11.5 -28z" />
    <glyph glyph-name="uni2109" unicode="&#x2109;" horiz-adv-x="770" 
d="M263 535q0 40 -28 68t-68 28q-41 0 -68.5 -28t-27.5 -68q0 -41 27.5 -68.5t68.5 -27.5q40 0 68 27.5t28 68.5zM206 535q0 -17 -11.5 -28.5t-27.5 -11.5q-15 0 -26.5 11.5t-11.5 28.5q0 16 11.5 28t26.5 12q16 0 27.5 -12t11.5 -28zM291 536v-542h98v234h247v88h-247v132
h280v88h-378z" />
    <glyph glyph-name="afii61289" unicode="&#x2113;" horiz-adv-x="770" 
d="M554 55l-61 49q-12 -27 -24.5 -42.5t-24.5 -20.5q-12 -6 -26 -2.5t-25 19.5q36 32 70.5 97t49.5 171q8 64 5 119.5t-17 95.5q-14 41 -39 63.5t-61 21.5q-33 -3 -62 -26t-50 -62q-22 -39 -35 -91t-14 -112q-3 -68 4 -131t34 -116q-12 -5 -38 -9t-41 -5l30 -74q28 0 51 6
t38 15q27 -38 64 -53.5t69 -6.5q33 9 56.5 29.5t46.5 64.5zM400 546q15 0 23 -19t11 -50t2 -69t-4 -74q-8 -67 -31.5 -123t-50.5 -83q-6 9 -11.5 32t-8.5 52q-4 29 -6 61t-1 61q1 35 7.5 72t17.5 68q10 31 23.5 50.5t28.5 21.5z" />
    <glyph glyph-name="afii61352" unicode="&#x2116;" horiz-adv-x="770" 
d="M362 30v542h-78v-401l-164 401h-97v-542h78v401l164 -401h97zM685 211q0 38 -10.5 72.5t-30.5 59.5q-19 26 -47 41t-63 15q-36 0 -64 -15t-48 -41q-19 -25 -29.5 -59.5t-10.5 -72.5q0 -39 10.5 -73.5t29.5 -59.5q20 -26 48 -40.5t64 -14.5q35 0 63 14.5t47 40.5
q20 25 30.5 59.5t10.5 73.5zM758 53q0 19 -15 34.5t-35 15.5q-21 0 -35.5 -15.5t-14.5 -34.5q0 -21 14.5 -35t35.5 -14q20 0 35 14t15 35zM611 211q0 -51 -20 -84t-57 -33q-39 0 -58.5 33t-19.5 84q0 48 20 82t58 34q37 0 57 -34t20 -82z" />
    <glyph glyph-name="uni2121" unicode="&#x2121;" horiz-adv-x="770" 
d="M174 527v-533h79v533h155v75h-390v-75h156zM458 442q-40 0 -72 -18.5t-54 -49.5q-23 -31 -34.5 -72.5t-11.5 -87.5q0 -48 12.5 -89.5t35.5 -72.5t54.5 -49t70.5 -18q37 0 65 11t47 30t31 43t18 50h-83q-6 -22 -24.5 -42t-54.5 -20q-18 0 -34.5 10.5t-28.5 28.5
q-13 17 -21 40.5t-8 49.5h265q1 64 -12.5 112t-37.5 80t-56 48t-67 16zM368 253q3 51 27.5 83.5t62.5 32.5q41 0 64.5 -35.5t25.5 -80.5h-180zM661 603v-609h78v609h-78z" />
    <glyph glyph-name="trademark" unicode="&#x2122;" horiz-adv-x="770" 
d="M418 479l75 -203h47l73 207v-207h58v322h-80l-75 -215l-79 215h-76v-322h57v203zM178 546v-270h61v270h103v52h-269v-52h105z" />
    <glyph glyph-name="uni2126" unicode="&#x2126;" horiz-adv-x="770" 
d="M624 350q0 57 -18.5 105.5t-50.5 83.5q-33 35 -78 55.5t-99 20.5t-99.5 -21.5t-77.5 -57.5q-33 -36 -51.5 -85t-17.5 -104q0 -98 43.5 -161t108.5 -85v-37h-110v-71h158q17 0 23 10t6 23l1 95q0 4 -0.5 9.5t-2.5 12.5q-2 6 -8 12t-16 11q-64 24 -91.5 69t-27.5 114
q0 84 45 136t117 52q74 0 118.5 -50t44.5 -136q0 -75 -33.5 -121.5t-80.5 -60.5q-19 -6 -23.5 -16t-4.5 -31v-96q0 -15 6 -24t22 -9h164v71h-117v39q29 10 56 32.5t48 54.5t33.5 72.5t12.5 87.5z" />
    <glyph glyph-name="uni212B" unicode="&#x212b;" horiz-adv-x="770" 
d="M481 583q0 39 -28 67.5t-68 28.5q-41 0 -68.5 -28.5t-27.5 -67.5q0 -41 27.5 -69t68.5 -28q40 0 68 28t28 69zM424 583q0 -18 -11.5 -29t-27.5 -11q-15 0 -26.5 11t-11.5 29q0 16 11.5 28t26.5 12q16 0 27.5 -12t11.5 -28zM308 180l78 199l78 -199h-156zM278 103h216
l43 -109h89l-191 482h-99l-190 -482h88z" />
    <glyph glyph-name="onethird" unicode="&#x2153;" horiz-adv-x="770" 
d="M657 151q2 0 13 17t11 53q0 41 -32.5 71.5t-80.5 30.5q-46 0 -80 -31t-32 -91h71q0 25 9 39.5t31 14.5q19 0 29 -11t10 -23q-1 -10 -7.5 -20t-15.5 -15q-2 -1 -20.5 -2t-29.5 -1v-69q10 0 29 -1.5t23 -2.5q12 -3 20.5 -13t8.5 -22q0 -17 -12.5 -30t-33.5 -13
q-24 0 -36.5 16.5t-11.5 45.5h-73q0 -60 34.5 -95t88.5 -35q53 0 87 31t34 79q0 29 -11.5 49.5t-22.5 27.5zM124 -26l541 624l-46 42l-537 -621zM231 287v346h-65q-1 -16 -7 -28t-9 -14q-6 -5 -23.5 -9.5t-36.5 -4.5v-66h67v-224h74z" />
    <glyph glyph-name="twothirds" unicode="&#x2154;" horiz-adv-x="770" 
d="M172 647q-58 0 -86.5 -38.5t-28.5 -92.5h72q0 27 10 44.5t33 17.5q20 0 30 -11.5t10 -30.5q0 -13 -12 -28t-21 -21l-54 -37q-48 -36 -61.5 -70t-13.5 -82h237v67h-147l11 11t15 14l54 38q19 13 44 38.5t25 70.5q0 42 -30 76t-87 34zM658 151q2 0 13 17t11 53
q0 41 -32.5 71.5t-80.5 30.5q-47 0 -81 -31t-32 -91h72q-1 25 8.5 39.5t31.5 14.5q19 0 29 -11t10 -23q-1 -10 -7.5 -20t-15.5 -15q-2 -1 -20 -2t-30 -1v-69q9 0 28.5 -1.5t23.5 -2.5q11 -3 20 -13t9 -22q-1 -17 -13 -30t-33 -13q-24 0 -36.5 16.5t-11.5 45.5h-74
q0 -60 34.5 -95t88.5 -35q53 0 87.5 31t34.5 79q0 29 -11.5 49.5t-22.5 27.5zM124 -26l541 624l-46 42l-537 -621z" />
    <glyph glyph-name="oneeighth" unicode="&#x215b;" horiz-adv-x="770" 
d="M658 152q10 6 19 25t9 44q0 42 -34.5 71.5t-83.5 29.5q-51 0 -85 -29.5t-34 -71.5q0 -25 8.5 -44t18.5 -25q-15 -9 -27 -31t-12 -50q0 -47 37.5 -79t93.5 -32q54 0 92 32t38 79q0 28 -12.5 50t-27.5 31zM124 -26l541 624l-46 42l-537 -621zM231 288v345h-65
q-1 -15 -7 -27.5t-8 -14.5q-7 -5 -24.5 -9.5t-35.5 -4.5v-66h67v-223h73zM568 188q-24 0 -34 9t-10 22q0 14 10 24t34 10q21 0 32 -10.5t11 -23.5t-11 -22t-32 -9zM568 30q-26 0 -40 12.5t-14 29.5t14 29.5t40 12.5q24 0 38.5 -12.5t14.5 -29.5t-14.5 -29.5t-38.5 -12.5z
" />
    <glyph glyph-name="threeeighths" unicode="&#x215c;" horiz-adv-x="770" 
d="M658 152q10 6 19 25t9 44q0 42 -34.5 71.5t-83.5 29.5q-51 0 -85 -29.5t-34 -71.5q0 -25 8.5 -44t18.5 -25q-15 -9 -27 -31t-12 -50q0 -47 37.5 -79t93.5 -32q54 0 92 32t38 79q0 28 -12.5 50t-27.5 31zM275 469q2 0 13.5 17.5t11.5 52.5q0 41 -32.5 71.5t-80.5 30.5
q-46 0 -80.5 -30.5t-32.5 -91.5h72q-1 25 8.5 39.5t31.5 14.5q18 0 28 -11t10 -23q-1 -10 -7 -20t-15 -14q-3 -2 -21 -3t-29 -1v-69q9 0 28 -1.5t23 -2.5q12 -3 21 -13t9 -22q-1 -16 -13 -29.5t-33 -13.5q-24 0 -37 16.5t-12 44.5h-73q0 -60 34.5 -95t88.5 -35
q53 0 87.5 31.5t34.5 79.5q0 28 -12 49t-23 28zM124 -26l541 624l-46 42l-537 -621zM568 188q-24 0 -34 9t-10 22q0 14 10 24t34 10q21 0 32 -10.5t11 -23.5t-11 -22t-32 -9zM568 30q-26 0 -40 12.5t-14 29.5t14 29.5t40 12.5q24 0 38.5 -12.5t14.5 -29.5t-14.5 -29.5
t-38.5 -12.5z" />
    <glyph glyph-name="fiveeighths" unicode="&#x215d;" horiz-adv-x="770" 
d="M658 152q10 6 19 25t9 44q0 42 -34.5 71.5t-83.5 29.5q-51 0 -85 -29.5t-34 -71.5q0 -25 8.5 -44t18.5 -25q-15 -9 -27 -31t-12 -50q0 -47 37.5 -79t93.5 -32q54 0 92 32t38 79q0 28 -12.5 50t-27.5 31zM222 521q-27 2 -42 -4.5l-15 -6.5l8 46h132v70h-193l-30 -194h68
q7 10 20 16.5t28 6.5q19 0 31 -15.5t12 -39.5t-13 -38.5t-32 -14.5q-20 0 -33 13t-16 37h-73q6 -52 37 -85.5t87 -33.5q44 0 82 31.5t38 91.5q0 30 -9.5 51.5t-23.5 35.5q-14 15 -31 22.5t-32 10.5zM124 -26l541 624l-46 42l-537 -621zM568 188q-24 0 -34 9t-10 22
q0 14 10 24t34 10q21 0 32 -10.5t11 -23.5t-11 -22t-32 -9zM568 30q-26 0 -40 12.5t-14 29.5t14 29.5t40 12.5q24 0 38.5 -12.5t14.5 -29.5t-14.5 -29.5t-38.5 -12.5z" />
    <glyph glyph-name="seveneighths" unicode="&#x215e;" horiz-adv-x="770" 
d="M658 152q10 6 19 25t9 44q0 42 -34.5 71.5t-83.5 29.5q-51 0 -85 -29.5t-34 -71.5q0 -25 8.5 -44t18.5 -25q-15 -9 -27 -31t-12 -50q0 -47 37.5 -79t93.5 -32q54 0 92 32t38 79q0 28 -12.5 50t-27.5 31zM124 -26l541 624l-46 42l-537 -621zM344 628h-240v-71h148
q-12 -15 -25.5 -36t-34.5 -69q-26 -49 -35 -97t-10 -70h81q-1 15 2.5 36.5t9.5 45.5q6 23 13.5 45.5t15.5 39.5q16 32 39.5 66t35.5 48v62zM568 188q-24 0 -34 9t-10 22q0 14 10 24t34 10q21 0 32 -10.5t11 -23.5t-11 -22t-32 -9zM568 30q-26 0 -40 12.5t-14 29.5t14 29.5
t40 12.5q24 0 38.5 -12.5t14.5 -29.5t-14.5 -29.5t-38.5 -12.5z" />
    <glyph glyph-name="uni2160" unicode="&#x2160;" horiz-adv-x="770" 
d="M434 -3v606h-99v-606h99z" />
    <glyph glyph-name="uni2161" unicode="&#x2161;" horiz-adv-x="770" 
d="M574 -3v606h-99v-606h99zM296 -3v606h-100v-606h100z" />
    <glyph glyph-name="uni2162" unicode="&#x2162;" horiz-adv-x="770" 
d="M608 -3v606h-99v-606h99zM434 -3v606h-98v-606h98zM261 -3v606h-99v-606h99z" />
    <glyph glyph-name="uni2163" unicode="&#x2163;" horiz-adv-x="770" 
d="M679 604h-106l-115 -459l-115 459h-107l164 -607h116zM218 -3v607h-99v-607h99z" />
    <glyph glyph-name="uni2164" unicode="&#x2164;" horiz-adv-x="770" 
d="M659 604h-108l-164 -482l-164 482h-109l215 -607h115z" />
    <glyph glyph-name="uni2165" unicode="&#x2165;" horiz-adv-x="770" 
d="M659 -3v607h-99v-607h99zM539 604h-106l-116 -459l-114 459h-107l163 -607h117z" />
    <glyph glyph-name="uni2166" unicode="&#x2166;" horiz-adv-x="770" 
d="M695 -3v607h-92v-607h92zM568 -3v607h-91v-607h91zM457 604h-106l-92 -453l-93 453h-106l140 -607h116z" />
    <glyph glyph-name="uni2167" unicode="&#x2167;" horiz-adv-x="770" 
d="M734 -3v606h-86v-606h86zM616 -3v606h-85v-606h85zM497 -3v606h-85v-606h85zM390 603h-95l-84 -454l-84 454h-94l120 -606h116z" />
    <glyph glyph-name="uni2168" unicode="&#x2168;" horiz-adv-x="770" 
d="M688 -6l-182 310l177 302h-111l-122 -207l-122 207h-112l178 -302l-181 -310h111l126 214l127 -214h111zM185 -6v612h-99v-612h99z" />
    <glyph glyph-name="uni2169" unicode="&#x2169;" horiz-adv-x="770" 
d="M658 -6l-212 318l195 294h-111l-140 -211l-139 211h-111l195 -294l-210 -318h111l154 234l156 -234h112z" />
    <glyph glyph-name="uni2170" unicode="&#x2170;" horiz-adv-x="770" 
d="M434 502v99h-99v-99h99zM434 -6v442h-99v-442h99z" />
    <glyph glyph-name="uni2171" unicode="&#x2171;" horiz-adv-x="770" 
d="M574 502v99h-100v-99h100zM295 502v99h-99v-99h99zM574 -6v442h-100v-442h100zM295 -6v442h-99v-442h99z" />
    <glyph glyph-name="uni2172" unicode="&#x2172;" horiz-adv-x="770" 
d="M613 502v99h-99v-99h99zM434 502v99h-98v-99h98zM255 502v99h-99v-99h99zM613 -6v442h-99v-442h99zM434 -6v442h-98v-442h98zM255 -6v442h-99v-442h99z" />
    <glyph glyph-name="uni2173" unicode="&#x2173;" horiz-adv-x="770" 
d="M228 502v99h-99v-99h99zM662 435h-108l-100 -317l-102 317h-108l152 -441h115zM228 -6v441h-99v-441h99z" />
    <glyph glyph-name="uni2174" unicode="&#x2174;" horiz-adv-x="770" 
d="M593 435h-108l-101 -317l-101 317h-108l152 -441h114z" />
    <glyph glyph-name="uni2175" unicode="&#x2175;" horiz-adv-x="770" 
d="M643 502v99h-99v-99h99zM527 435h-107l-101 -318l-102 318h-108l152 -441h115zM643 -6v441h-99v-441h99z" />
    <glyph glyph-name="uni2176" unicode="&#x2176;" horiz-adv-x="770" 
d="M684 502v99h-92v-99h92zM557 502v99h-91v-99h91zM450 436h-100l-90 -315l-89 315h-101l133 -442h114zM684 -6v442h-92v-442h92zM557 -6v442h-91v-442h91z" />
    <glyph glyph-name="uni2177" unicode="&#x2177;" horiz-adv-x="770" 
d="M720 502v99h-86v-99h86zM603 502v99h-86v-99h86zM484 502v99h-86v-99h86zM377 436h-96l-75 -320l-74 320h-97l114 -442h114zM720 -6v442h-86v-442h86zM603 -6v442h-86v-442h86zM484 -6v442h-86v-442h86z" />
    <glyph glyph-name="uni2178" unicode="&#x2178;" horiz-adv-x="770" 
d="M661 -6l-145 225l138 215h-115l-81 -125l-81 125h-115l138 -215l-145 -225h115l88 134l87 -134h116zM233 502v99h-100v-99h100zM233 -6v441h-100v-441h100z" />
    <glyph glyph-name="uni2179" unicode="&#x2179;" horiz-adv-x="770" 
d="M584 -6l-145 225l138 215h-115l-81 -125l-81 125h-115l138 -215l-145 -225h115l88 134l87 -134h116z" />
    <glyph glyph-name="arrowleft" unicode="&#x2190;" horiz-adv-x="770" 
d="M770 269v61h-625l37 99l-182 -130l182 -132l-37 102h625z" />
    <glyph glyph-name="arrowup" unicode="&#x2191;" horiz-adv-x="770" 
d="M357 -85h61v625l99 -37l-129 182l-133 -182l102 37v-625z" />
    <glyph glyph-name="arrowright" unicode="&#x2192;" horiz-adv-x="770" 
d="M0 269h625l-37 -102l182 132l-182 130l37 -99h-625v-61z" />
    <glyph glyph-name="arrowdown" unicode="&#x2193;" horiz-adv-x="770" 
d="M357 685v-625l-102 37l133 -182l129 182l-99 -37v625h-61z" />
    <glyph glyph-name="arrowboth" unicode="&#x2194;" horiz-adv-x="770" 
d="M146 330l36 99l-181 -130l181 -131l-36 101h478l-36 -101l181 131l-181 130l36 -99h-478z" />
    <glyph glyph-name="arrowupdn" unicode="&#x2195;" horiz-adv-x="770" 
d="M417 537l98 -37l-129 182l-132 -181l102 36v-477l-102 36l132 -181l129 182l-98 -37v477z" />
    <glyph glyph-name="uni2196" unicode="&#x2196;" horiz-adv-x="770" 
d="M710 -67l43 44l-609 603l96 45l-219 37l34 -223l46 98z" />
    <glyph glyph-name="uni2197" unicode="&#x2197;" horiz-adv-x="770" 
d="M19 -30l43 -43l604 609l45 -96l37 220l-224 -34l99 -46z" />
    <glyph glyph-name="uni2198" unicode="&#x2198;" horiz-adv-x="770" 
d="M62 666l-44 -43l610 -604l-97 -45l220 -37l-34 224l-46 -99z" />
    <glyph glyph-name="uni2199" unicode="&#x2199;" horiz-adv-x="770" 
d="M748 623l-43 43l-603 -609l-45 96l-37 -220l223 34l-98 47z" />
    <glyph glyph-name="arrowdblright" unicode="&#x21d2;" horiz-adv-x="770" 
d="M0 258v-64h564l-74 -77l49 -48l227 230l-229 230l-47 -48l74 -76h-564v-65h626l39 -41l-39 -41h-626z" />
    <glyph glyph-name="arrowdblboth" unicode="&#x21d4;" horiz-adv-x="770" 
d="M207 405l74 76l-51 49l-225 -231l226 -232l50 51l-74 76h356l-74 -76l52 -51l224 232l-226 230l-50 -48l74 -76h-356zM625 258h-480l-40 41l40 41h480l40 -41z" />
    <glyph glyph-name="universal" unicode="&#x2200;" horiz-adv-x="770" 
d="M258 466l-52 137h-110l230 -609h124l231 609h-110l-52 -137h-261zM295 368h187l-93 -247z" />
    <glyph glyph-name="partialdiff" unicode="&#x2202;" horiz-adv-x="354" 
d="M162 398q25 2 39 -7.5t20 -21.5q6 -13 7.5 -24l1.5 -11q-11 0 -29.5 -2t-38.5 -8q-46 -14 -72.5 -33.5t-39.5 -40.5q-14 -21 -16 -41t1 -34q14 -45 53.5 -54.5t84.5 6.5q44 15 83.5 52t53.5 86q10 39 6.5 73t-18.5 59q-16 26 -41 42t-58 19q-34 2 -64 -11.5t-49 -32.5
q-20 -18 -26.5 -37t5.5 -27t21 -2.5t19 16.5q10 10 23.5 20.5t33.5 13.5zM226 279q-6 -18 -15 -36t-27 -35q-14 -14 -36.5 -25.5t-30.5 0.5q-7 9 1.5 31t28.5 39q11 9 24.5 14t25.5 8q11 2 19.5 3t9.5 1z" />
    <glyph glyph-name="existential" unicode="&#x2203;" horiz-adv-x="770" 
d="M599 603h-427v-100h321v-149h-304v-98h304v-163h-328v-99h434v609z" />
    <glyph glyph-name="gradient" unicode="&#x2207;" horiz-adv-x="770" 
d="M385 56l292 499h-585zM385 123l-235 399h468z" />
    <glyph glyph-name="element" unicode="&#x2208;" horiz-adv-x="770" 
d="M155 257h506v68h-508q0 1 0.5 10t7.5 24q6 14 19.5 32.5t39.5 37.5q9 6 22 11t25 8q13 4 23.5 6t15.5 2h353v70h-358q-21 0 -54.5 -8.5t-60.5 -25.5q-54 -35 -82.5 -81.5t-28.5 -120.5q0 -66 28 -114.5t74 -79.5q38 -26 73.5 -30.5t51.5 -4.5h359v70h-353q-9 0 -38.5 5
t-56.5 26q-21 17 -33 33.5t-17 30.5q-6 13 -7 21.5t-1 9.5z" />
    <glyph glyph-name="suchthat" unicode="&#x220b;" horiz-adv-x="770" 
d="M598 257q0 -1 -1.5 -9.5t-6.5 -21.5q-6 -14 -17.5 -30.5t-31.5 -33.5q-28 -21 -58 -26t-38 -5h-353v-70h359q15 0 50.5 4.5t74.5 30.5q46 31 74 79.5t28 114.5q0 74 -28.5 120.5t-82.5 81.5q-27 17 -61 25.5t-54 8.5h-358v-70h353q4 0 14.5 -2t23.5 -6q12 -3 25.5 -8
t22.5 -11q25 -19 38.5 -37.5t20.5 -32.5q6 -15 7 -24t1 -10h-508v-68h506z" />
    <glyph glyph-name="product" unicode="&#x220f;" horiz-adv-x="770" 
d="M258 104v446h269v-446l-2 -39q-1 -12 -8 -18.5t-19 -6.5l-44 -2v-44h237v44l-43 2q-17 0 -23.5 6t-6.5 22v425l1 39q0 9 1 13.5t4 7.5q3 2 9 2.5t15 1.5l43 3v43h-597v-43l43 -4q18 -3 23.5 -13.5t5.5 -49.5v-393q0 -37 -5 -48.5t-23 -11.5l-44 -2v-44h237v44l-46 2
q-11 0 -17 2.5t-8 9.5t-2 19.5v32.5z" />
    <glyph glyph-name="summation" unicode="&#x2211;" horiz-adv-x="770" 
d="M124 67v-73h497v152h-48l-8 -52q-2 -10 -9.5 -15t-19.5 -5h-324l274 224l-225 248h270q12 0 18.5 -2.5t6.5 -14.5l5 -53h47v127h-465v-54l240 -266z" />
    <glyph glyph-name="radical" unicode="&#x221a;" horiz-adv-x="770" 
d="M111 216l38 -53l33 49l148 -292l288 713h152v52h-191l-253 -620l-132 270z" />
    <glyph glyph-name="proportional" unicode="&#x221d;" horiz-adv-x="770" 
d="M259 407q31 2 53.5 -12.5t36.5 -33.5q15 -19 22 -35.5t8 -17.5q-6 -12 -15.5 -29.5t-23.5 -34.5q-15 -16 -35.5 -27t-48.5 -8q-33 3 -58.5 31.5t-24.5 71.5q0 38 27.5 65.5t58.5 29.5zM674 434q-8 4 -17.5 10.5t-23.5 12.5t-32.5 10.5t-42.5 4.5q-32 -1 -55 -11t-40 -24
t-27.5 -29t-15.5 -26q-3 5 -14.5 21t-31.5 32q-20 17 -49.5 29t-68.5 10q-32 -2 -60 -15.5t-49 -34.5q-21 -22 -33.5 -50.5t-12.5 -59.5q-2 -67 38 -115.5t106 -57.5q34 -6 63 3t51 25q22 15 36.5 32.5t20.5 29.5q6 -12 17 -27.5t28 -29.5t40 -24.5t53 -11.5q25 -2 45.5 3.5
t35.5 12.5t23.5 13.5t9.5 7.5l-34 64q-1 -1 -8.5 -6.5t-18.5 -11.5t-23.5 -11t-23.5 -4q-24 1 -40 10.5t-28 23.5q-11 14 -20 30.5t-18 32.5l14 28t20 31t27 26.5t35 14.5q28 3 53 -9t29 -15z" />
    <glyph glyph-name="infinity" unicode="&#x221e;" horiz-adv-x="770" 
d="M385 369q-1 1 -8.5 14t-23.5 27t-40.5 26t-59.5 12q-31 0 -57.5 -11.5t-46.5 -31.5t-31.5 -47t-11.5 -58q0 -32 11.5 -59t31.5 -47t46.5 -31t57.5 -11q37 0 62 11.5t40 25.5t22 27t8 15q0 -2 7.5 -15t23.5 -27q15 -14 40 -25.5t61 -11.5q30 0 56.5 11t46.5 31t32 47
t12 59q0 31 -12 58t-32 47t-46.5 31.5t-56.5 11.5q-37 0 -62 -12t-40 -26q-16 -14 -23 -27t-7 -14zM175 300q0 33 23.5 57.5t54.5 24.5q23 0 40 -12.5t28 -27.5t16.5 -28t6.5 -14q-1 -2 -6.5 -15t-16.5 -28t-28 -27t-40 -12q-31 0 -54.5 24t-23.5 58zM596 300
q0 -34 -24 -57.5t-55 -23.5q-24 0 -41 11.5t-28 26.5t-16.5 28t-5.5 15q0 1 5.5 14t16.5 28t28 27.5t41 12.5q31 0 55 -24.5t24 -57.5z" />
    <glyph glyph-name="angle" unicode="&#x2220;" horiz-adv-x="770" 
d="M240 116l398 400l-56 54l-457 -459l-4.5 -4.5t-7.5 -9.5t-6.5 -14t-0.5 -16q5 -15 13.5 -20t23.5 -5h528v74h-431z" />
    <glyph glyph-name="uni2225" unicode="&#x2225;" horiz-adv-x="770" 
d="M426 662v-732h70v732h-70zM270 662v-732h70v732h-70z" />
    <glyph glyph-name="logicaland" unicode="&#x2227;" horiz-adv-x="770" 
d="M116 67l63 -38l204 413l201 -406l67 31l-233 466q-11 21 -36 21t-35 -21z" />
    <glyph glyph-name="logicalor" unicode="&#x2228;" horiz-adv-x="770" 
d="M117 540l231 -465q10 -21 36 -21t36 21l231 466l-66 31l-201 -407l-204 414z" />
    <glyph glyph-name="intersection" unicode="&#x2229;" horiz-adv-x="770" 
d="M223 10v352q0 32 12.5 59.5t34.5 48.5q21 20 50.5 31.5t63.5 11.5q35 0 64.5 -12.5t50.5 -33.5t33 -49t12 -59v-352h70v367q0 40 -16.5 78.5t-46.5 68.5t-72.5 48.5t-94.5 18.5q-49 0 -91 -17.5t-73 -47.5q-32 -30 -49.5 -70.5t-17.5 -86.5v-356h70z" />
    <glyph glyph-name="union" unicode="&#x222a;" horiz-adv-x="770" 
d="M223 582h-70v-357q0 -47 17.5 -87.5t49.5 -69.5q31 -30 73 -47t91 -17q52 0 94.5 18t72.5 48t46.5 68.5t16.5 79.5v367h-70v-352q0 -32 -12 -60t-33 -49q-21 -22 -50.5 -34t-64.5 -12q-34 0 -63.5 11.5t-50.5 31.5q-22 20 -34.5 47.5t-12.5 60.5v353z" />
    <glyph glyph-name="integral" unicode="&#x222b;" horiz-adv-x="770" 
d="M524 553q13 30 -5.5 49t-45.5 19q-46 -1 -71.5 -34.5t-38.5 -79.5q-13 -40 -19.5 -74.5t-9.5 -68.5t-4 -68.5t-3 -74.5q-2 -26 -2.5 -52t-3.5 -48t-8.5 -37t-16.5 -19q-1 0 -9.5 7t-19.5 10q-12 4 -25 -1t-23 -27q-6 -11 -4 -23.5t10 -23.5q8 -10 21.5 -16t33.5 -2
q57 10 84.5 69.5t39.5 152.5q3 24 4.5 46t3.5 43q1 21 2 42.5t3 46.5q1 26 3 52.5t6 49.5q3 22 8 37.5t13 19.5q0 -1 2 -3l5 -5t8 -6t12 -5q13 -5 26.5 -1.5t23.5 25.5z" />
    <glyph glyph-name="uni222C" unicode="&#x222c;" horiz-adv-x="770" 
d="M634 553q13 30 -6 49t-46 19q-45 -1 -70.5 -34.5t-38.5 -79.5q-13 -40 -19.5 -74.5t-9.5 -68.5t-4 -68.5t-3 -74.5q-2 -26 -2.5 -52.5t-3.5 -48.5q-3 -21 -8.5 -36.5t-15.5 -18.5q-2 0 -10 7t-20 10q-12 4 -24.5 -1t-22.5 -27q-6 -11 -5 -23.5t9 -23.5q7 -10 21 -16
t34 -2q57 10 85 69.5t40 152.5q2 24 3.5 45.5t3.5 42.5q1 21 2.5 42.5t3.5 47.5q1 25 3 52t6 49q3 23 8 38.5t13 19.5q0 -1 2 -3l5 -5t8 -6t12 -5q13 -5 26.5 -1.5t23.5 25.5zM424 553q15 30 -4.5 49t-46.5 19q-45 -1 -70 -34t-40 -80q-12 -41 -17.5 -75.5t-8.5 -67.5
q-3 -34 -4.5 -68.5t-3.5 -74.5q-2 -26 -3 -52t-3 -48q-3 -22 -8.5 -37t-16.5 -18q-1 0 -8.5 6t-19.5 9q-12 4 -26 -0.5t-24 -26.5q-6 -11 -4.5 -23.5t9.5 -23.5q8 -10 22 -16t34 -2q56 10 84 69.5t39 152.5q3 24 5 45.5t3 42.5q2 21 3 42.5t3 47.5q1 25 3 52t6 49
q3 23 8 38.5t13 19.5q0 -1 2 -3l5 -5t8 -6t12 -5q13 -5 26.5 -1.5t22.5 25.5z" />
    <glyph glyph-name="uni222E" unicode="&#x222e;" horiz-adv-x="770" 
d="M291 24q1 20 -7.5 32t-26.5 15q-24 4 -37.5 -7t-18.5 -33q-5 -26 10.5 -47t41.5 -25q57 -11 92.5 33t59.5 133q49 3 87 38t48 91q9 53 -17 97.5t-66 64.5l10 80q4 30 13 44t12 16q-3 -8 -3.5 -10.5t-0.5 -3.5q0 -2 0.5 -3t0.5 -4q0 -16 10.5 -29.5t27.5 -15.5
q19 -3 33.5 7t20.5 35q5 28 -12 46t-43 24q-55 9 -94 -31t-59 -139q-45 -3 -85 -37.5t-49 -88.5q-10 -53 14.5 -98.5t69.5 -63.5l-12 -78q-5 -32 -15.5 -48t-10.5 -14l0.5 2t1.5 5q1 2 2 5.5t2 7.5zM362 377l-31 -179q-18 8 -30 35.5t-5 63.5q5 33 25.5 55t40.5 25zM447 361
q17 -11 30 -38t7 -61q-6 -38 -27 -58.5t-39 -22.5z" />
    <glyph glyph-name="therefore" unicode="&#x2234;" horiz-adv-x="770" 
d="M382 518q-26 0 -43.5 -18t-17.5 -43q0 -26 17.5 -43.5t43.5 -17.5q25 0 43 17.5t18 43.5q0 25 -18 43t-43 18zM581 188q-26 0 -43.5 -18t-17.5 -42q0 -26 17.5 -43.5t43.5 -17.5q24 0 42 17.5t18 43.5q0 24 -18 42t-42 18zM189 188q-26 0 -43.5 -18t-17.5 -42
q0 -26 17.5 -43.5t43.5 -17.5q25 0 42.5 17.5t17.5 43.5q0 24 -17.5 42t-42.5 18z" />
    <glyph glyph-name="uni2235" unicode="&#x2235;" horiz-adv-x="770" 
d="M382 73q25 0 43 17.5t18 43.5q0 25 -18 43t-43 18q-26 0 -43.5 -18t-17.5 -43q0 -26 17.5 -43.5t43.5 -17.5zM581 402q24 0 42 17.5t18 43.5q0 25 -18 43t-42 18q-26 0 -43.5 -18t-17.5 -43q0 -26 17.5 -43.5t43.5 -17.5zM189 402q25 0 42.5 17.5t17.5 43.5
q0 25 -17.5 43t-42.5 18q-26 0 -43.5 -18t-17.5 -43q0 -26 17.5 -43.5t43.5 -17.5z" />
    <glyph glyph-name="similar" unicode="&#x223c;" horiz-adv-x="770" 
d="M75 241h91q5 51 28.5 82.5t68.5 28.5q10 -2 21.5 -7.5t22.5 -14.5q12 -9 24 -21t26 -24q26 -25 58.5 -49.5t76.5 -27.5q48 -3 84 12t61 42t40 63.5t21 78.5h-92q-8 -46 -31.5 -80t-72.5 -30q-23 2 -46.5 22t-48.5 46q-27 24 -59.5 47.5t-78.5 27.5q-42 3 -76 -11.5
t-59 -41.5q-26 -28 -41 -65t-18 -78z" />
    <glyph glyph-name="uni223D" unicode="&#x223d;" horiz-adv-x="770" 
d="M308 372l32 60q-11 12 -36 27t-74 16q-36 0 -65.5 -15.5t-50.5 -38.5q-22 -24 -33.5 -51.5t-10.5 -51.5q0 -44 13.5 -75.5t35.5 -53.5q21 -21 49.5 -32t59.5 -12q49 -2 84.5 21t59.5 54t38 60.5t20 40.5q24 42 49.5 65t61.5 22q27 -2 47.5 -19t31.5 -41q10 -24 8 -51.5
t-20 -51.5q-20 -26 -44 -31t-46 0t-38.5 14t-20.5 12l-32 -59q2 -2 12 -9.5t26 -14.5q16 -8 38 -13t48 -3q39 3 71 23.5t52 51.5q19 30 25.5 66.5t-4.5 72.5q-19 51 -57 83.5t-95 35.5q-35 2 -62 -7.5t-48 -27.5t-37.5 -42.5t-30.5 -51.5q-9 -18 -21.5 -42t-28.5 -44
q-16 -21 -36.5 -35t-45.5 -12q-42 3 -68 33.5t-20 75.5q3 36 28.5 60.5t55.5 27.5q12 0 25.5 -5.5t25.5 -11.5q11 -7 19 -13.5t9 -6.5z" />
    <glyph glyph-name="uni2252" unicode="&#x2252;" horiz-adv-x="770" 
d="M107 194h556v71h-556v-71zM233 548q-21 0 -34.5 -14.5t-13.5 -34.5q0 -21 13.5 -34.5t34.5 -13.5q20 0 34.5 13.5t14.5 34.5q0 20 -14.5 34.5t-34.5 14.5zM537 151q-20 0 -34 -14.5t-14 -33.5q0 -20 14 -34.5t34 -14.5t34.5 14.5t14.5 34.5q0 19 -14.5 33.5t-34.5 14.5z
M107 335h556v70h-556v-70z" />
    <glyph glyph-name="notequal" unicode="&#x2260;" horiz-adv-x="770" 
d="M670 160v83h-264l40 116h224v83h-196l42 125l-90 19l-49 -144h-261v-83h231l-41 -116h-190v-83h161l-44 -125l94 -17l50 142h293z" />
    <glyph glyph-name="equivalence" unicode="&#x2261;" horiz-adv-x="770" 
d="M107 389h556v60h-556v-60zM107 270h556v60h-556v-60zM107 151h556v60h-556v-60z" />
    <glyph glyph-name="lessequal" unicode="&#x2264;" horiz-adv-x="770" 
d="M658 212l-392 164l386 160l-28 71l-488 -205q-16 -7 -20 -11t-4 -16t5.5 -18.5t18.5 -9.5l487 -204zM668 44v78h-566v-78h566z" />
    <glyph glyph-name="greaterequal" unicode="&#x2265;" horiz-adv-x="770" 
d="M666 376q0 12 -4.5 16t-20.5 11l-487 205l-28 -71l385 -160l-392 -164l36 -69l486 204q12 3 18.5 9t6.5 19zM675 43v78h-566v-78h566z" />
    <glyph glyph-name="uni226A" unicode="&#x226a;" horiz-adv-x="770" 
d="M483 567l-414 -267l408 -275l37 50l-333 225l336 218zM655 567l-414 -267l408 -275l36 50l-332 225l336 218z" />
    <glyph glyph-name="uni226B" unicode="&#x226b;" horiz-adv-x="770" 
d="M280 567l-35 -49l336 -218l-332 -225l36 -50l408 275zM108 567l-35 -49l337 -218l-333 -225l36 -50l408 275z" />
    <glyph glyph-name="propersubset" unicode="&#x2282;" horiz-adv-x="770" 
d="M677 452v71h-357q-47 0 -87.5 -18t-69.5 -50q-30 -31 -47 -73t-17 -90q0 -53 18 -96t48 -73t68.5 -46t79.5 -16h367v70h-352q-32 0 -60 11.5t-49 32.5q-22 22 -34 51.5t-12 65.5q0 33 11.5 62t31.5 51t47.5 34.5t60.5 12.5h353z" />
    <glyph glyph-name="propersuperset" unicode="&#x2283;" horiz-adv-x="770" 
d="M100 452h353q32 0 59.5 -12.5t47.5 -34.5q21 -22 32.5 -51t11.5 -62q0 -36 -12.5 -65.5t-33.5 -51.5q-22 -21 -50 -32.5t-59 -11.5h-352v-70h367q40 0 78.5 16t68.5 46t48.5 73t18.5 96q0 48 -17.5 90t-46.5 73q-30 32 -70.5 50t-86.5 18h-357v-71z" />
    <glyph glyph-name="reflexsubset" unicode="&#x2286;" horiz-adv-x="770" 
d="M678 518v65h-357q-46 0 -86 -15t-70 -42t-47.5 -65.5t-17.5 -86.5q0 -50 17 -89t46 -65q28 -27 65.5 -40.5t78.5 -13.5h375v66h-353q-66 0 -109.5 38.5t-43.5 104.5q0 31 12 57.5t33 45.5q20 18 47.5 29t57.5 11h352zM95 103v-65h596v65h-596z" />
    <glyph glyph-name="reflexsuperset" unicode="&#x2287;" horiz-adv-x="770" 
d="M107 518h353q29 0 56 -11t48 -29q20 -19 32.5 -45.5t12.5 -57.5q0 -66 -43.5 -104.5t-108.5 -38.5h-354v-66h375q40 0 77.5 13.5t66.5 40.5q28 26 45.5 65t17.5 89q0 48 -18 86.5t-48 65.5t-70 42t-85 15h-357v-65zM691 103h-596v-65h596v65z" />
    <glyph glyph-name="uni2299" unicode="&#x2299;" horiz-adv-x="770" 
d="M386 614q-66 0 -124 -24.5t-101 -67.5t-67.5 -100t-24.5 -123t24.5 -123.5t67.5 -99.5q43 -43 101 -67t124 -24q65 0 122.5 24.5t99.5 67.5q43 42 68 99.5t25 122.5t-25 122.5t-68 99.5q-42 43 -99.5 68t-122.5 25zM386 578q57 0 108 -22t89 -60t60 -89t22 -108
q0 -59 -22 -109.5t-60 -88.5t-89 -59.5t-108 -21.5q-59 0 -110 21.5t-89 59.5t-60 88.5t-22 109.5q0 58 22 109t60 89q38 37 89 59t110 22zM386 420q-50 0 -85.5 -36t-35.5 -86q0 -49 35.5 -84.5t85.5 -35.5q24 0 46 9.5t39 26.5q16 16 26 38t10 46q0 50 -36 86t-85 36z" />
    <glyph glyph-name="perpendicular" unicode="&#x22a5;" horiz-adv-x="770" 
d="M107 115v-78h556v78h-237v433h-82v-433h-237z" />
    <glyph glyph-name="uni2312" unicode="&#x2312;" horiz-adv-x="770" 
d="M174 299q15 89 74.5 141.5t134.5 52.5q37 0 72 -14t63 -40q28 -25 47.5 -61t27.5 -79h80q-11 61 -37 110.5t-64 85.5q-38 35 -86.5 54.5t-102.5 19.5q-55 0 -103.5 -19.5t-86.5 -55.5q-38 -35 -63.5 -85t-34.5 -110h79z" />
    <glyph glyph-name="uni2460" unicode="&#x2460;" horiz-adv-x="770" 
d="M690 300q0 -64 -24 -120t-66 -98q-41 -42 -96.5 -66t-118.5 -24q-64 0 -119.5 24t-96.5 66q-42 42 -65.5 98t-23.5 120q0 63 23.5 119t65.5 98q41 42 96.5 66.5t119.5 24.5q63 0 118.5 -24.5t96.5 -66.5q42 -42 66 -98t24 -119zM438 64v476h-69q0 -18 -9.5 -34.5
t-21.5 -25.5q-17 -12 -38.5 -17.5t-43.5 -5.5v-68h101v-325h81zM744 300q0 74 -28.5 139.5t-77.5 113.5q-48 49 -113.5 77.5t-139.5 28.5q-75 0 -140 -28.5t-114 -77.5q-49 -48 -77 -113.5t-28 -139.5q0 -75 28 -140t77 -114t114 -77t140 -28q74 0 139.5 28t113.5 77
q49 49 77.5 114t28.5 140z" />
    <glyph glyph-name="uni2461" unicode="&#x2461;" horiz-adv-x="770" 
d="M690 300q0 -64 -24 -120t-66 -98q-41 -42 -96.5 -66t-118.5 -24q-64 0 -119.5 24t-96.5 66q-42 42 -65.5 98t-23.5 120q0 63 23.5 119t65.5 98q41 42 96.5 66.5t119.5 24.5q63 0 118.5 -24.5t96.5 -66.5q42 -42 66 -98t24 -119zM549 72v71h-231q5 16 20 34t34 33l87 65
q14 12 29.5 25t28.5 30t21.5 38.5t8.5 50.5q0 28 -10 54.5t-30 46.5q-19 20 -48 32.5t-67 12.5q-40 0 -70.5 -14t-50.5 -37q-20 -22 -30.5 -51t-8.5 -59h81q-2 36 17 63.5t61 27.5q38 0 56.5 -23.5t17.5 -54.5q-1 -30 -18.5 -50t-37.5 -35l-80 -59q-68 -51 -87 -100.5
t-19 -100.5h326zM744 300q0 74 -28.5 139.5t-77.5 113.5q-48 49 -113.5 77.5t-139.5 28.5q-75 0 -140 -28.5t-114 -77.5q-49 -48 -77 -113.5t-28 -139.5q0 -75 28 -140t77 -114t114 -77t140 -28q74 0 139.5 28t113.5 77q49 49 77.5 114t28.5 140z" />
    <glyph glyph-name="uni2462" unicode="&#x2462;" horiz-adv-x="770" 
d="M690 300q0 -64 -24 -120t-66 -98q-41 -42 -96.5 -66t-118.5 -24q-64 0 -119.5 24t-96.5 66q-42 42 -65.5 98t-23.5 120q0 63 23.5 119t65.5 98q41 42 96.5 66.5t119.5 24.5q63 0 118.5 -24.5t96.5 -66.5q42 -42 66 -98t24 -119zM552 198q0 37 -22 67.5t-54 44.5
q18 9 39.5 35t21.5 71q0 26 -12 50.5t-32 42.5q-21 19 -49 30t-61 11t-61.5 -11t-49.5 -30t-33 -46t-10 -58h81q-2 30 15.5 52.5t57.5 22.5q38 0 55.5 -21t16.5 -45q-1 -21 -11 -35.5t-26 -22.5q-14 -6 -32 -8t-36 -2v-74q14 0 31 -1t34 -5q24 -7 39 -25.5t14 -42.5
q-2 -32 -24 -52.5t-61 -20.5q-42 0 -64.5 23.5t-19.5 58.5h-82q-2 -35 10.5 -64t35.5 -49q23 -21 54 -32t67 -11q72 0 120 42t48 105zM744 300q0 74 -28.5 139.5t-77.5 113.5q-48 49 -113.5 77.5t-139.5 28.5q-75 0 -140 -28.5t-114 -77.5q-49 -48 -77 -113.5t-28 -139.5
q0 -75 28 -140t77 -114t114 -77t140 -28q74 0 139.5 28t113.5 77q49 49 77.5 114t28.5 140z" />
    <glyph glyph-name="uni2463" unicode="&#x2463;" horiz-adv-x="770" 
d="M690 300q0 -64 -24 -120t-66 -98q-41 -42 -96.5 -66t-118.5 -24q-64 0 -119.5 24t-96.5 66q-42 42 -65.5 98t-23.5 120q0 63 23.5 119t65.5 98q41 42 96.5 66.5t119.5 24.5q63 0 118.5 -24.5t96.5 -66.5q42 -42 66 -98t24 -119zM553 131v74h-64v331h-81l-213 -320v-85
h212v-72h82v72h64zM407 205h-129l129 194v-194zM744 300q0 74 -28.5 139.5t-77.5 113.5q-48 49 -113.5 77.5t-139.5 28.5q-75 0 -140 -28.5t-114 -77.5q-49 -48 -77 -113.5t-28 -139.5q0 -75 28 -140t77 -114t114 -77t140 -28q74 0 139.5 28t113.5 77q49 49 77.5 114
t28.5 140z" />
    <glyph glyph-name="uni2464" unicode="&#x2464;" horiz-adv-x="770" 
d="M690 300q0 -64 -24 -120t-66 -98q-41 -42 -96.5 -66t-118.5 -24q-64 0 -119.5 24t-96.5 66q-42 42 -65.5 98t-23.5 120q0 63 23.5 119t65.5 98q41 42 96.5 66.5t119.5 24.5q63 0 118.5 -24.5t96.5 -66.5q42 -42 66 -98t24 -119zM744 300q0 74 -28.5 139.5t-77.5 113.5
q-48 49 -113.5 77.5t-139.5 28.5q-75 0 -140 -28.5t-114 -77.5q-49 -48 -77 -113.5t-28 -139.5q0 -75 28 -140t77 -114t114 -77t140 -28q74 0 139.5 28t113.5 77q49 49 77.5 114t28.5 140zM264 527l-39 -253h85q22 29 61 30t63 -19q24 -21 27 -52.5t-3 -50.5
q-3 -10 -9.5 -22t-17.5 -22t-27.5 -15.5t-40.5 -1.5q-24 3 -37.5 13t-20.5 22q-7 11 -8.5 20.5t-1.5 11.5h-81q3 -35 17.5 -59t32.5 -40q17 -16 33 -24.5t23 -10.5q37 -12 69 -10t68 20q42 20 66.5 63.5t20.5 100.5q-1 11 -5 28t-13 35t-25 35t-41 29q-48 22 -86.5 14
t-59.5 -18l17 99h195v77h-262z" />
    <glyph glyph-name="uni2465" unicode="&#x2465;" horiz-adv-x="770" 
d="M690 300q0 -64 -24 -120t-66 -98q-41 -42 -96.5 -66t-118.5 -24q-64 0 -119.5 24t-96.5 66q-42 42 -65.5 98t-23.5 120q0 63 23.5 119t65.5 98q41 42 96.5 66.5t119.5 24.5q63 0 118.5 -24.5t96.5 -66.5q42 -42 66 -98t24 -119zM555 216q0 33 -11.5 62.5t-30.5 51.5
q-20 23 -47.5 36t-60.5 13q-42 0 -68 -12.5t-41 -28.5q0 13 2 33t12 45q9 24 28 45t58 21q38 0 57 -22.5t24 -47.5h77q-3 27 -16 52.5t-33 44.5q-21 20 -48.5 32t-59.5 12q-62 0 -103 -33t-61 -88q-11 -26 -16.5 -59t-5.5 -67q-1 -35 2.5 -67.5t12.5 -57.5q17 -55 58 -92
t109 -37q35 0 64.5 12.5t51.5 34.5q21 22 33.5 52t12.5 65zM475 213q0 -42 -24 -67t-62 -25q-39 0 -62.5 25t-23.5 67q0 41 23.5 66.5t62.5 25.5q38 0 62 -25.5t24 -66.5zM744 300q0 74 -28.5 139.5t-77.5 113.5q-48 49 -113.5 77.5t-139.5 28.5q-75 0 -140 -28.5
t-114 -77.5q-49 -48 -77 -113.5t-28 -139.5q0 -75 28 -140t77 -114t114 -77t140 -28q74 0 139.5 28t113.5 77q49 49 77.5 114t28.5 140z" />
    <glyph glyph-name="uni2466" unicode="&#x2466;" horiz-adv-x="770" 
d="M744 300q0 74 -28.5 139.5t-77.5 113.5q-48 49 -113.5 77.5t-139.5 28.5q-75 0 -140 -28.5t-114 -77.5q-49 -48 -77 -113.5t-28 -139.5q0 -75 28 -140t77 -114t114 -77t140 -28q74 0 139.5 28t113.5 77q49 49 77.5 114t28.5 140zM690 300q0 -64 -24 -120t-66 -98
q-41 -42 -96.5 -66t-118.5 -24q-64 0 -119.5 24t-96.5 66q-42 42 -65.5 98t-23.5 120q0 63 23.5 119t65.5 98q41 42 96.5 66.5t119.5 24.5q63 0 118.5 -24.5t96.5 -66.5q42 -42 66 -98t24 -119zM547 439v80h-326v-81h247q-32 -41 -57.5 -77t-46.5 -74q-11 -20 -24 -49.5
t-24 -62.5t-19 -65.5t-8 -57.5h92q-1 27 10.5 83.5t43.5 124.5q15 32 27 55t24 43t26 38.5t35 42.5z" />
    <glyph glyph-name="uni2467" unicode="&#x2467;" horiz-adv-x="770" 
d="M690 300q0 -64 -24 -120t-66 -98q-41 -42 -96.5 -66t-118.5 -24q-64 0 -119.5 24t-96.5 66q-42 42 -65.5 98t-23.5 120q0 63 23.5 119t65.5 98q41 42 96.5 66.5t119.5 24.5q63 0 118.5 -24.5t96.5 -66.5q42 -42 66 -98t24 -119zM563 195q0 36 -21.5 67.5t-56.5 52.5
q29 18 45.5 44t16.5 59q0 27 -13 51t-35 42t-51.5 28.5t-62.5 10.5q-34 0 -63.5 -10.5t-51.5 -28.5t-34.5 -42t-12.5 -51q0 -33 16.5 -59.5t45.5 -44.5q-36 -20 -57 -51.5t-21 -67.5q0 -31 14 -58t38 -47t56.5 -31.5t69.5 -11.5q36 0 68.5 11.5t56.5 31.5t38.5 47t14.5 58z
M385 475q39 0 58.5 -18.5t19.5 -43.5q0 -26 -19.5 -43.5t-58.5 -17.5q-40 0 -59 17.5t-19 43.5q0 25 19 43.5t59 18.5zM477 198q0 -32 -24 -53t-68 -21q-45 0 -68.5 21t-23.5 53q0 30 23.5 52t68.5 22q44 0 68 -22t24 -52zM744 300q0 74 -28.5 139.5t-77.5 113.5
q-48 49 -113.5 77.5t-139.5 28.5q-75 0 -140 -28.5t-114 -77.5q-49 -48 -77 -113.5t-28 -139.5q0 -75 28 -140t77 -114t114 -77t140 -28q74 0 139.5 28t113.5 77q49 49 77.5 114t28.5 140z" />
    <glyph glyph-name="uni2468" unicode="&#x2468;" horiz-adv-x="770" 
d="M690 300q0 -64 -24 -120t-66 -98q-41 -42 -96.5 -66t-118.5 -24q-64 0 -119.5 24t-96.5 66q-42 42 -65.5 98t-23.5 120q0 63 23.5 119t65.5 98q41 42 96.5 66.5t119.5 24.5q63 0 118.5 -24.5t96.5 -66.5q42 -42 66 -98t24 -119zM553 419q-18 55 -60 92t-108 37
q-35 0 -64.5 -13t-51.5 -35q-21 -22 -33.5 -52t-12.5 -64q-2 -72 41 -118t110 -46q37 -2 65.5 12.5t42.5 30.5q0 -15 -1.5 -35.5t-10.5 -44.5q-10 -26 -29 -45t-57 -19q-39 0 -58.5 22t-22.5 46h-77q1 -27 14 -52.5t35 -44.5q21 -20 49 -31.5t61 -11.5q60 0 100.5 32.5
t61.5 88.5q10 25 15 58t6 68q0 34 -4 67t-11 58zM472 385q0 -40 -23.5 -65t-59.5 -25q-37 0 -60 25t-23 65q0 39 23 63.5t60 24.5q36 0 59.5 -24.5t23.5 -63.5zM744 300q0 74 -28.5 139.5t-77.5 113.5q-48 49 -113.5 77.5t-139.5 28.5q-75 0 -140 -28.5t-114 -77.5
q-49 -48 -77 -113.5t-28 -139.5q0 -75 28 -140t77 -114t114 -77t140 -28q74 0 139.5 28t113.5 77q49 49 77.5 114t28.5 140z" />
    <glyph glyph-name="uni2469" unicode="&#x2469;" horiz-adv-x="770" 
d="M690 300q0 -64 -24 -120t-66 -98q-41 -42 -96.5 -66t-118.5 -24q-64 0 -119.5 24t-96.5 66q-42 42 -65.5 98t-23.5 120q0 63 23.5 119t65.5 98q41 42 96.5 66.5t119.5 24.5q63 0 118.5 -24.5t96.5 -66.5q42 -42 66 -98t24 -119zM644 303q0 106 -41.5 173t-121.5 67
q-81 0 -122 -67t-41 -173q0 -107 41 -174t122 -67q80 0 121.5 67t41.5 174zM297 74v458h-64q0 -19 -10 -34.5t-21 -23.5q-15 -12 -35.5 -17t-41.5 -5v-65h95v-313h77zM481 471q39 0 60 -47.5t21 -120.5q0 -74 -21 -121.5t-60 -47.5q-41 0 -61.5 47.5t-20.5 121.5
q0 73 20.5 120.5t61.5 47.5zM744 300q0 74 -28.5 139.5t-77.5 113.5q-48 49 -113.5 77.5t-139.5 28.5q-75 0 -140 -28.5t-114 -77.5q-49 -48 -77 -113.5t-28 -139.5q0 -75 28 -140t77 -114t114 -77t140 -28q74 0 139.5 28t113.5 77q49 49 77.5 114t28.5 140z" />
    <glyph glyph-name="uni246A" unicode="&#x246a;" horiz-adv-x="770" 
d="M690 300q0 -64 -24 -120t-66 -98q-41 -42 -96.5 -66t-118.5 -24q-64 0 -119.5 24t-96.5 66q-42 42 -65.5 98t-23.5 120q0 63 23.5 119t64.5 98t96.5 66.5t119.5 24.5q63 0 119 -24.5t97 -66.5q42 -42 66 -98t24 -119zM546 72v461h-66q0 -19 -9.5 -34.5t-20.5 -24.5
q-16 -11 -36.5 -16.5t-41.5 -5.5v-64h96v-316h78zM329 72v461h-66q0 -19 -9.5 -34.5t-21.5 -24.5q-15 -11 -35.5 -16.5t-42.5 -5.5v-64h98v-316h77zM744 300q0 74 -28.5 139.5t-77.5 113.5q-48 49 -113.5 77.5t-139.5 28.5q-75 0 -140 -28.5t-114 -77.5q-49 -48 -77 -113.5
t-28 -139.5q0 -75 28 -140t77 -114t114 -77t140 -28q74 0 139.5 28t113.5 77q49 49 77.5 114t28.5 140z" />
    <glyph glyph-name="uni246B" unicode="&#x246b;" horiz-adv-x="770" 
d="M690 300q0 -64 -24 -120t-66 -98q-41 -42 -96.5 -66t-118.5 -24q-64 0 -119.5 24t-96.5 66q-42 42 -65.5 98t-23.5 120q0 63 23.5 119t65.5 98q41 42 96.5 66.5t119.5 24.5q63 0 118.5 -24.5t96.5 -66.5q42 -42 66 -98t24 -119zM598 406q0 54 -34 96.5t-103 42.5
q-38 0 -65 -13.5t-44 -34.5q-16 -22 -23.5 -49.5t-6.5 -55.5h76q-1 33 14 56.5t48 23.5q30 0 44 -20t13 -47t-16 -46t-29 -31l-66 -60q-42 -36 -67.5 -83t-25.5 -104h281v66h-187q2 13 16 30.5t25 28.5l73 62q9 9 22.5 21.5t25.5 29.5t20.5 38.5t8.5 48.5zM295 80v457h-65
q0 -18 -9.5 -34t-21.5 -24q-15 -10 -33 -15.5t-39 -5.5v-65h92v-313h76zM744 300q0 74 -28.5 139.5t-77.5 113.5q-48 49 -113.5 77.5t-139.5 28.5q-75 0 -140 -28.5t-114 -77.5q-49 -48 -77 -113.5t-28 -139.5q0 -75 28 -140t77 -114t114 -77t140 -28q74 0 139.5 28
t113.5 77q49 49 77.5 114t28.5 140z" />
    <glyph glyph-name="uni246C" unicode="&#x246c;" horiz-adv-x="770" 
d="M690 300q0 -64 -24 -120t-66 -98q-41 -42 -96.5 -66t-118.5 -24q-64 0 -119.5 24t-96.5 66q-42 42 -65.5 98t-23.5 120q0 63 23.5 119t65.5 98q41 42 96.5 66.5t119.5 24.5q63 0 118.5 -24.5t96.5 -66.5q42 -42 66 -98t24 -119zM631 203q0 36 -20 64.5t-50 42.5
q16 9 36.5 33.5t20.5 67.5q0 25 -11 48t-31 41q-19 17 -46 28t-58 11q-62 0 -105 -39.5t-41 -99.5h80q-3 27 13.5 48t52.5 21q35 0 51 -20t15 -40t-10 -33.5t-24 -20.5q-13 -6 -29.5 -8t-34.5 -2v-74h14.5t14.5 -1q8 0 16 -1l16 -2q22 -7 36.5 -24t13.5 -39
q-3 -29 -22.5 -47.5t-55.5 -18.5q-39 0 -59.5 21.5t-17.5 54.5l-81 -1q-2 -34 10 -61.5t33 -46.5q22 -20 51.5 -30.5t64.5 -10.5q67 0 112 39.5t45 99.5zM296 72v457h-66q0 -18 -9 -34t-21 -23q-16 -11 -35.5 -16.5t-40.5 -5.5v-65h95v-313h77zM744 300q0 74 -28.5 139.5
t-77.5 113.5q-48 49 -113.5 77.5t-139.5 28.5q-75 0 -140 -28.5t-114 -77.5q-49 -48 -77 -113.5t-28 -139.5q0 -75 28 -140t77 -114t114 -77t140 -28q74 0 139.5 28t113.5 77q49 49 77.5 114t28.5 140z" />
    <glyph glyph-name="uni246D" unicode="&#x246d;" horiz-adv-x="770" 
d="M690 300q0 -64 -24 -120t-66 -98q-41 -42 -96.5 -66t-118.5 -24q-64 0 -119.5 24t-96.5 66q-42 42 -65.5 98t-23.5 120q0 63 23.5 119t65.5 98q41 42 96.5 66.5t119.5 24.5q63 0 118.5 -24.5t96.5 -66.5q42 -42 66 -98t24 -119zM292 71v458h-66q0 -18 -9 -34t-21 -24
q-15 -11 -34 -16.5t-40 -5.5v-64h94v-314h76zM641 141v70h-62v316h-76l-194 -305v-81h194v-70h76v70h62zM503 211h-116l116 185v-185zM744 300q0 74 -28.5 139.5t-77.5 113.5q-48 49 -113.5 77.5t-139.5 28.5q-75 0 -140 -28.5t-114 -77.5q-49 -48 -77 -113.5t-28 -139.5
q0 -75 28 -140t77 -114t114 -77t140 -28q74 0 139.5 28t113.5 77q49 49 77.5 114t28.5 140z" />
    <glyph glyph-name="uni246E" unicode="&#x246e;" horiz-adv-x="770" 
d="M690 300q0 -64 -24 -120t-66 -98q-41 -42 -96.5 -66t-118.5 -24q-64 0 -119.5 24t-96.5 66q-42 42 -65.5 98t-23.5 120q0 63 23.5 119t65.5 98q41 42 96.5 66.5t119.5 24.5q63 0 118.5 -24.5t96.5 -66.5q42 -42 66 -98t24 -119zM290 68v458h-64q0 -18 -10 -34t-21 -24
q-15 -11 -33.5 -16.5t-39.5 -5.5v-64h92v-314h76zM616 218q0 36 -10.5 62t-26.5 44q-15 17 -34.5 27.5t-37.5 15.5q-27 6 -57.5 1.5t-49.5 -16.5l17 99h175v72h-238l-36 -245h78q9 13 26 20.5t39 7.5q34 0 54.5 -25.5t18.5 -62.5q-3 -39 -23.5 -61.5t-51.5 -22.5
q-33 0 -53 17t-23 45h-76q2 -25 13.5 -49t31.5 -43q20 -20 48 -31.5t63 -11.5q27 0 54.5 10.5t49.5 30.5t35.5 49t13.5 67zM744 300q0 74 -28.5 139.5t-77.5 113.5q-48 49 -113.5 77.5t-139.5 28.5q-75 0 -140 -28.5t-114 -77.5q-49 -48 -77 -113.5t-28 -139.5
q0 -75 28 -140t77 -114t114 -77t140 -28q74 0 139.5 28t113.5 77q49 49 77.5 114t28.5 140z" />
    <glyph glyph-name="uni2474" unicode="&#x2474;" horiz-adv-x="770" 
d="M438 61v481h-68q0 -20 -10.5 -36t-22.5 -25q-17 -12 -38 -17.5t-43 -5.5v-69h102v-328h80zM752 300q0 58 -11.5 107t-29.5 89q-17 39 -38 69.5t-39 52.5h-45q56 -73 77.5 -155t21.5 -163q0 -84 -22.5 -164t-76.5 -154h45q18 20 38.5 50t38.5 70q17 40 29 89t12 109z
M181 -18q-55 74 -77 154t-22 164q0 81 21 163t78 155h-45q-19 -22 -40 -52.5t-38 -69.5q-18 -40 -29 -89t-11 -107q0 -60 11.5 -109t28.5 -89q18 -40 38.5 -70t39.5 -50h45z" />
    <glyph glyph-name="uni2475" unicode="&#x2475;" horiz-adv-x="770" 
d="M549 59v71h-232q5 17 20.5 35t34.5 33l87 67q14 11 29.5 24t28.5 30t21.5 39t8.5 51q0 57 -39.5 102t-114.5 45q-41 0 -71.5 -14t-50.5 -37q-21 -22 -31 -51t-8 -59h81q-2 37 17 64t61 27q37 0 56 -23.5t18 -54.5q-1 -30 -18 -50.5t-38 -35.5l-80 -61q-68 -52 -87 -101.5
t-19 -100.5h326zM752 300q0 58 -11.5 107t-29.5 89q-17 39 -38 69.5t-39 52.5h-45q56 -73 77.5 -155t21.5 -163q0 -84 -22.5 -164t-76.5 -154h45q18 20 38.5 50t38.5 70q17 40 29 89t12 109zM181 -18q-55 74 -77 154t-22 164q0 81 21 163t78 155h-45q-19 -22 -40 -52.5
t-38 -69.5q-18 -40 -29 -89t-11 -107q0 -60 11.5 -109t28.5 -89q18 -40 38.5 -70t39.5 -50h45z" />
    <glyph glyph-name="uni2476" unicode="&#x2476;" horiz-adv-x="770" 
d="M552 195q0 39 -22.5 69.5t-54.5 44.5q18 9 40 35.5t22 73.5q0 26 -12 50.5t-32 42.5q-21 19 -49 30t-61 11t-61.5 -11t-49.5 -30q-21 -20 -33 -46.5t-10 -58.5h81q-3 30 15 53t58 23q38 0 55.5 -22t16.5 -44q-1 -23 -11 -38t-26 -23q-14 -6 -32.5 -8t-36.5 -2v-75h15h17
q8 -1 16.5 -2t17.5 -3q24 -7 39 -26t15 -43q-2 -33 -24.5 -53.5t-61.5 -20.5q-42 0 -65 23.5t-20 59.5h-81q-2 -36 10.5 -65t35.5 -50t54 -32t67 -11t66.5 11t53.5 31q22 20 35 47t13 59zM752 300q0 58 -11.5 107t-29.5 89q-17 39 -38 69.5t-39 52.5h-45q56 -73 77.5 -155
t21.5 -163q0 -84 -22.5 -164t-76.5 -154h45q18 20 38.5 50t38.5 70q17 40 29 89t12 109zM181 -18q-55 74 -77 154t-22 164q0 81 21 163t78 155h-45q-19 -22 -40 -52.5t-38 -69.5q-18 -40 -29 -89t-11 -107q0 -60 11.5 -109t28.5 -89q18 -40 38.5 -70t39.5 -50h45z" />
    <glyph glyph-name="uni2477" unicode="&#x2477;" horiz-adv-x="770" 
d="M565 131v74h-64v334h-78l-215 -323v-85h213v-73h80v73h64zM421 205h-131l131 198v-198zM752 300q0 58 -11.5 107t-29.5 89q-17 39 -38 69.5t-39 52.5h-45q56 -73 77.5 -155t21.5 -163q0 -84 -22.5 -164t-76.5 -154h45q18 20 38.5 50t38.5 70q17 40 29 89t12 109zM181 -18
q-55 74 -77 154t-22 164q0 81 21 163t78 155h-45q-19 -22 -40 -52.5t-38 -69.5q-18 -40 -29 -89t-11 -107q0 -60 11.5 -109t28.5 -89q18 -40 38.5 -70t39.5 -50h45z" />
    <glyph glyph-name="uni2478" unicode="&#x2478;" horiz-adv-x="770" 
d="M550 218q0 38 -11 65.5t-28 45.5q-17 19 -37.5 30t-39.5 16q-29 6 -62 1t-54 -17l18 101h195v77h-263l-39 -255h84q9 14 28.5 22.5t44.5 8.5q37 0 60 -27.5t21 -69.5q-3 -42 -26 -66.5t-58 -24.5q-36 0 -58 19.5t-25 49.5h-81q2 -27 14 -52.5t34 -46.5q21 -20 50.5 -32.5
t67.5 -12.5q30 0 59.5 11t52.5 33t38 53t15 71zM752 300q0 58 -11.5 107t-29.5 89q-17 39 -38 69.5t-39 52.5h-45q56 -73 77.5 -155t21.5 -163q0 -84 -22.5 -164t-76.5 -154h45q18 20 38.5 50t38.5 70q17 40 29 89t12 109zM181 -18q-55 74 -77 154t-22 164q0 81 21 163
t78 155h-45q-19 -22 -40 -52.5t-38 -69.5q-18 -40 -29 -89t-11 -107q0 -60 11.5 -109t28.5 -89q18 -40 38.5 -70t39.5 -50h45z" />
    <glyph glyph-name="uni2479" unicode="&#x2479;" horiz-adv-x="770" 
d="M557 214q0 34 -11.5 63.5t-31.5 52.5q-20 22 -47.5 35t-59.5 14q-42 0 -68.5 -13t-42.5 -30q0 14 2 34.5t12 46.5q9 25 28.5 45.5t58.5 20.5q38 0 58 -23t24 -47h76q-3 27 -15.5 52t-33.5 45q-21 19 -49 31t-60 12q-61 0 -101.5 -32.5t-62.5 -88.5q-10 -26 -15 -59
t-6 -68t3 -68t12 -58q17 -54 58 -92t109 -38q34 0 64 12.5t52 34.5t34.5 52.5t12.5 65.5zM474 214q0 -42 -24 -66t-60 -24q-37 0 -60 24t-23 66q0 40 23 65t60 25q36 0 60 -25t24 -65zM752 300q0 58 -11.5 107t-29.5 89q-17 39 -38 69.5t-39 52.5h-45q56 -73 77.5 -155
t21.5 -163q0 -84 -22.5 -164t-76.5 -154h45q18 20 38.5 50t38.5 70q17 40 29 89t12 109zM181 -18q-55 74 -77 154t-22 164q0 81 21 163t78 155h-45q-19 -22 -40 -52.5t-38 -69.5q-18 -40 -29 -89t-11 -107q0 -60 11.5 -109t28.5 -89q18 -40 38.5 -70t39.5 -50h45z" />
    <glyph glyph-name="uni247A" unicode="&#x247a;" horiz-adv-x="770" 
d="M556 455l1 78h-327v-81h247q-7 -9 -20.5 -26t-29.5 -40t-33.5 -51t-32.5 -59q-33 -67 -47.5 -124t-16.5 -89h93q0 31 10.5 80.5t32.5 101.5q20 51 39 86.5t35 60.5q16 24 28.5 39t20.5 24zM752 300q0 58 -11.5 107t-29.5 89q-17 39 -38 69.5t-39 52.5h-45
q56 -73 77.5 -155t21.5 -163q0 -84 -22.5 -164t-76.5 -154h45q18 20 38.5 50t38.5 70q17 40 29 89t12 109zM181 -18q-55 74 -77 154t-22 164q0 81 21 163t78 155h-45q-19 -22 -40 -52.5t-38 -69.5q-18 -40 -29 -89t-11 -107q0 -60 11.5 -109t28.5 -89q18 -40 38.5 -70
t39.5 -50h45z" />
    <glyph glyph-name="uni247B" unicode="&#x247b;" horiz-adv-x="770" 
d="M563 193q0 37 -21.5 69t-56.5 53q29 18 45.5 45t16.5 60q0 27 -13 51t-35 42t-51.5 29t-62.5 11q-34 0 -63.5 -11t-51.5 -29t-34.5 -42t-12.5 -51q0 -33 17 -60.5t45 -45.5q-36 -20 -57 -52t-21 -69q0 -31 14 -58t38 -47t56.5 -31.5t69.5 -11.5q36 0 68.5 11.5t56.5 31.5
t38.5 47t14.5 58zM464 415q0 -27 -20 -45t-59 -18q-41 0 -60 18t-19 45q0 25 19 43.5t60 18.5q39 0 59 -18.5t20 -43.5zM479 196q0 -32 -25 -53t-69 -21q-45 0 -69 21t-24 53q0 31 24 53.5t69 22.5q44 0 69 -22.5t25 -53.5zM752 300q0 58 -11.5 107t-29.5 89
q-17 39 -38 69.5t-39 52.5h-45q56 -73 77.5 -155t21.5 -163q0 -84 -22.5 -164t-76.5 -154h45q18 20 38.5 50t38.5 70q17 40 29 89t12 109zM181 -18q-55 74 -77 154t-22 164q0 81 21 163t78 155h-45q-19 -22 -40 -52.5t-38 -69.5q-18 -40 -29 -89t-11 -107q0 -60 11.5 -109
t28.5 -89q18 -40 38.5 -70t39.5 -50h45z" />
    <glyph glyph-name="uni247C" unicode="&#x247c;" horiz-adv-x="770" 
d="M544 422q-18 55 -59.5 92.5t-108.5 37.5q-35 0 -64.5 -13t-51.5 -36q-21 -22 -33.5 -52.5t-13.5 -64.5q-1 -72 42 -118.5t110 -46.5q38 -2 66.5 13t42.5 31q0 -8 -0.5 -17t-1.5 -19q-1 -11 -3.5 -22.5t-7.5 -24.5q-9 -25 -28.5 -45t-56.5 -20q-40 0 -60 22.5t-23 46.5
h-77q2 -27 15 -52.5t35 -44.5q21 -19 49 -30.5t61 -11.5q60 0 101 32t62 89q9 25 14 58.5t5 68.5q1 35 -3 68t-11 59zM464 387q0 -42 -23.5 -66.5t-60.5 -24.5t-60 24.5t-23 66.5q0 40 23 65t60 25t60.5 -25t23.5 -65zM752 300q0 58 -11.5 107t-29.5 89q-17 39 -38 69.5
t-39 52.5h-45q56 -73 77.5 -155t21.5 -163q0 -84 -22.5 -164t-76.5 -154h45q18 20 38.5 50t38.5 70q17 40 29 89t12 109zM181 -18q-55 74 -77 154t-22 164q0 81 21 163t78 155h-45q-19 -22 -40 -52.5t-38 -69.5q-18 -40 -29 -89t-11 -107q0 -60 11.5 -109t28.5 -89
q18 -40 38.5 -70t39.5 -50h45z" />
    <glyph glyph-name="uni247D" unicode="&#x247d;" horiz-adv-x="770" 
d="M649 302q0 108 -42.5 176.5t-122.5 68.5q-81 0 -122.5 -68t-41.5 -177q0 -111 42 -178.5t122 -67.5t122.5 68.5t42.5 177.5zM484 474q39 0 61 -48.5t22 -123.5q0 -76 -22 -124t-61 -48t-60.5 48t-21.5 124q0 75 21 123.5t61 48.5zM300 68v468h-67q0 -20 -10 -35.5
t-22 -24.5q-16 -12 -36.5 -17.5t-42.5 -5.5v-66h99v-319h79zM752 300q0 58 -11.5 107t-29.5 89q-17 39 -38 69.5t-39 52.5h-45q56 -73 77.5 -155t21.5 -163q0 -84 -22.5 -164t-76.5 -154h45q18 20 38.5 50t38.5 70q17 40 29 89t12 109zM181 -18q-55 74 -77 154t-22 164
q0 81 21 163t78 155h-45q-19 -22 -40 -52.5t-38 -69.5q-18 -40 -29 -89t-11 -107q0 -60 11.5 -109t28.5 -89q18 -40 38.5 -70t39.5 -50h45z" />
    <glyph glyph-name="uni247E" unicode="&#x247e;" horiz-adv-x="770" 
d="M559 68v468h-67q0 -20 -10 -35.5t-22 -24.5q-15 -12 -36 -17.5t-43 -5.5v-66h99v-319h79zM333 68v468h-67q0 -20 -10 -35.5t-22 -24.5q-16 -12 -36.5 -17.5t-42.5 -5.5v-66h99v-319h79zM752 300q0 58 -11.5 107t-29.5 89q-17 39 -38 69.5t-39 52.5h-45q56 -73 77.5 -155
t21.5 -163q0 -84 -22.5 -164t-76.5 -154h45q18 20 38.5 50t38.5 70q17 40 29 89t12 109zM181 -18q-55 74 -77 154t-22 164q0 81 21 163t78 155h-45q-19 -22 -40 -52.5t-38 -69.5q-18 -40 -29 -89t-11 -107q0 -60 11.5 -109t28.5 -89q18 -40 38.5 -70t39.5 -50h45z" />
    <glyph glyph-name="uni247F" unicode="&#x247f;" horiz-adv-x="770" 
d="M617 74v67h-194q1 13 14.5 31.5t26.5 29.5l73 64q9 8 23 21t26 30q13 18 22 40.5t9 49.5q0 55 -35 98.5t-106 43.5q-39 0 -66.5 -13.5t-44.5 -35.5q-18 -22 -25.5 -50t-6.5 -57h79q-2 33 13.5 58t50.5 25q30 0 43.5 -21t12.5 -49q-1 -27 -17 -48t-28 -32l-68 -60
q-38 -34 -66.5 -83t-28.5 -109h293zM298 73v466h-66q0 -18 -10 -34t-22 -25q-16 -11 -36.5 -16.5t-41.5 -5.5v-66h98v-319h78zM752 300q0 58 -11.5 107t-29.5 89q-17 39 -38 69.5t-39 52.5h-45q56 -73 77.5 -155t21.5 -163q0 -84 -22.5 -164t-76.5 -154h45q18 20 38.5 50
t38.5 70q17 40 29 89t12 109zM181 -18q-55 74 -77 154t-22 164q0 81 21 163t78 155h-45q-19 -22 -40 -52.5t-38 -69.5q-18 -40 -29 -89t-11 -107q0 -60 11.5 -109t28.5 -89q18 -40 38.5 -70t39.5 -50h45z" />
    <glyph glyph-name="uni2480" unicode="&#x2480;" horiz-adv-x="770" 
d="M301 67v467h-66q0 -19 -10 -35t-22 -24q-16 -12 -36.5 -17.5t-42.5 -5.5v-67h99v-318h78zM645 200q0 36 -20.5 66t-50.5 44q17 9 37 34t20 70q0 25 -11 48.5t-30 41.5t-45.5 29t-57.5 11q-62 0 -104.5 -40t-39.5 -101h79q-2 27 15 48.5t50 21.5t49 -20.5t15 -41.5
q-2 -20 -10.5 -34.5t-22.5 -21.5q-12 -6 -28.5 -8t-33.5 -2v-75h13.5t15.5 -1q7 0 14.5 -1t15.5 -2q21 -7 35 -25t13 -40q-2 -30 -22 -49t-54 -19q-37 0 -57 21.5t-17 54.5h-81q-3 -33 8.5 -61t32.5 -48q22 -20 51.5 -31.5t63.5 -11.5q67 0 112 41t45 102zM752 300
q0 58 -11.5 107t-29.5 89q-17 39 -38 69.5t-39 52.5h-45q56 -73 77.5 -155t21.5 -163q0 -84 -22.5 -164t-76.5 -154h45q18 20 38.5 50t38.5 70q17 40 29 89t12 109zM181 -18q-55 74 -77 154t-22 164q0 81 21 163t78 155h-45q-19 -22 -40 -52.5t-38 -69.5q-18 -40 -29 -89
t-11 -107q0 -60 11.5 -109t28.5 -89q18 -40 38.5 -70t39.5 -50h45z" />
    <glyph glyph-name="uni2481" unicode="&#x2481;" horiz-adv-x="770" 
d="M651 139v72h-58v322h-76l-200 -312v-82h199v-72h77v72h58zM516 211h-120l120 188v-188zM294 68v468h-67q0 -20 -9.5 -35.5t-21.5 -24.5q-16 -12 -37 -17.5t-43 -5.5v-66h100v-319h78zM752 300q0 58 -11.5 107t-29.5 89q-17 39 -38 69.5t-39 52.5h-45q56 -73 77.5 -155
t21.5 -163q0 -84 -22.5 -164t-76.5 -154h45q18 20 38.5 50t38.5 70q17 40 29 89t12 109zM181 -18q-55 74 -77 154t-22 164q0 81 21 163t78 155h-45q-19 -22 -40 -52.5t-38 -69.5q-18 -40 -29 -89t-11 -107q0 -60 11.5 -109t28.5 -89q18 -40 38.5 -70t39.5 -50h45z" />
    <glyph glyph-name="uni2482" unicode="&#x2482;" horiz-adv-x="770" 
d="M297 64v467h-66q0 -19 -10 -35t-22 -24q-16 -12 -36.5 -17.5t-42.5 -5.5v-67h99v-318h78zM636 215q0 36 -10.5 62t-26.5 44q-15 18 -34.5 28.5t-37.5 15.5q-27 7 -57 2t-50 -17l17 105h181v74h-247l-35 -253h81q8 12 24.5 19.5t38.5 7.5q33 0 53 -25.5t18 -64.5
q-3 -39 -23.5 -62t-50.5 -23q-31 0 -50.5 17.5t-23.5 45.5h-78q2 -26 13.5 -50.5t31.5 -44.5q20 -19 48 -31t63 -12q28 0 56 10.5t50 31.5q21 21 35 51t14 69zM752 300q0 58 -11.5 107t-29.5 89q-17 39 -38 69.5t-39 52.5h-45q56 -73 77.5 -155t21.5 -163q0 -84 -22.5 -164
t-76.5 -154h45q18 20 38.5 50t38.5 70q17 40 29 89t12 109zM181 -18q-55 74 -77 154t-22 164q0 81 21 163t78 155h-45q-19 -22 -40 -52.5t-38 -69.5q-18 -40 -29 -89t-11 -107q0 -60 11.5 -109t28.5 -89q18 -40 38.5 -70t39.5 -50h45z" />
    <glyph glyph-name="uni249C" unicode="&#x249c;" horiz-adv-x="770" 
d="M567 118l-2.5 5.5t-4.5 13.5t-4 18.5t-2 22.5v198q0 53 -46 84.5t-110 31.5q-34 0 -63 -10t-51 -28q-21 -17 -32.5 -41.5t-8.5 -53.5h80q-3 27 17.5 44t56.5 17q37 0 55.5 -12t18.5 -30q0 -20 -16 -27t-31 -10q-11 -3 -24.5 -5t-28.5 -4t-30.5 -5.5t-30.5 -7.5
q-40 -13 -66 -45t-19 -80q6 -50 43.5 -71t88.5 -16q34 3 66 17.5t48 32.5q1 -12 4 -22t9 -17h83zM471 265q0 -25 -26.5 -47t-59.5 -29q-21 -6 -46.5 -3t-28.5 18q-6 17 5 28.5t32 20.5q7 2 17.5 4.5t23.5 4.5q12 2 24 4.5t23 5.5q9 2 19.5 6t16.5 9v-22zM752 300
q0 58 -11.5 107t-29.5 89q-17 39 -38 69.5t-39 52.5h-45q56 -73 77.5 -155t21.5 -163q0 -84 -22.5 -164t-76.5 -154h45q18 20 38.5 50t38.5 70q17 40 29 89t12 109zM181 -18q-55 74 -77 154t-22 164q0 81 21 163t78 155h-45q-19 -22 -40 -52.5t-38 -69.5q-18 -40 -29 -89
t-11 -107q0 -60 11.5 -109t28.5 -89q18 -40 38.5 -70t39.5 -50h45z" />
    <glyph glyph-name="uni249D" unicode="&#x249d;" horiz-adv-x="770" 
d="M572 232q0 84 -43 138.5t-115 54.5q-33 0 -60.5 -12.5t-47.5 -34.5v169h-82v-496h82v33q20 -22 47.5 -34t60.5 -12q72 0 115 54.5t43 139.5zM488 232q0 -53 -24 -86.5t-67 -33.5q-42 0 -66.5 33.5t-24.5 86.5q0 52 24.5 86t66.5 34q43 0 67 -34t24 -86zM752 300
q0 58 -11.5 107t-29.5 89q-17 39 -38 69.5t-39 52.5h-45q56 -73 77.5 -155t21.5 -163q0 -84 -22.5 -164t-76.5 -154h45q18 20 38.5 50t38.5 70q17 40 29 89t12 109zM181 -18q-55 74 -77 154t-22 164q0 81 21 163t78 155h-45q-19 -22 -40 -52.5t-38 -69.5q-18 -40 -29 -89
t-11 -107q0 -60 11.5 -109t28.5 -89q18 -40 38.5 -70t39.5 -50h45z" />
    <glyph glyph-name="uni249E" unicode="&#x249e;" horiz-adv-x="770" 
d="M557 235h-89q-6 -18 -24 -36t-51 -18q-43 0 -67 34.5t-24 83.5q0 48 24 83t67 35q36 0 54 -19.5t22 -34.5h88q-5 21 -17.5 44t-33.5 42t-49.5 31.5t-63.5 12.5q-41 0 -73 -15.5t-55 -42.5q-22 -26 -34 -61.5t-12 -74.5q0 -41 12 -76t34 -62q23 -26 55 -41t73 -15
q34 0 62 11t49 29q20 18 33.5 41.5t19.5 48.5zM752 300q0 58 -11.5 107t-29.5 89q-17 39 -38 69.5t-39 52.5h-45q56 -73 77.5 -155t21.5 -163q0 -84 -22.5 -164t-76.5 -154h45q18 20 38.5 50t38.5 70q17 40 29 89t12 109zM181 -18q-55 74 -77 154t-22 164q0 81 21 163
t78 155h-45q-19 -22 -40 -52.5t-38 -69.5q-18 -40 -29 -89t-11 -107q0 -60 11.5 -109t28.5 -89q18 -40 38.5 -70t39.5 -50h45z" />
    <glyph glyph-name="uni249F" unicode="&#x249f;" horiz-adv-x="770" 
d="M546 54v495h-82v-166q-21 21 -48 33t-59 12q-74 0 -116.5 -55t-42.5 -138q0 -85 42.5 -139.5t116.5 -54.5q32 0 59 11.5t48 34.5v-33h82zM464 235q0 -53 -23 -87t-68 -34t-67 34t-22 87q0 52 22 86t67 34t68 -34t23 -86zM752 300q0 58 -11.5 107t-29.5 89
q-17 39 -38 69.5t-39 52.5h-45q56 -73 77.5 -155t21.5 -163q0 -84 -22.5 -164t-76.5 -154h45q18 20 38.5 50t38.5 70q17 40 29 89t12 109zM181 -18q-55 74 -77 154t-22 164q0 81 21 163t78 155h-45q-19 -22 -40 -52.5t-38 -69.5q-18 -40 -29 -89t-11 -107q0 -60 11.5 -109
t28.5 -89q18 -40 38.5 -70t39.5 -50h45z" />
    <glyph glyph-name="uni24A0" unicode="&#x24a0;" horiz-adv-x="770" 
d="M557 269q3 56 -10 98t-38 70q-24 28 -57 42t-67 14q-40 0 -72 -15.5t-55 -41.5q-23 -27 -35 -62.5t-12 -75.5t12.5 -75t36.5 -62q23 -26 55.5 -41t71.5 -15q36 0 63 10.5t46 26.5q19 17 31 37t19 40l-92 -1q-6 -10 -22.5 -23.5t-46.5 -13.5q-20 0 -36 8.5t-27 21.5
t-17.5 28.5t-6.5 29.5h259zM468 339h-167q6 32 27 54.5t57 22.5q35 0 56 -23.5t27 -53.5zM752 300q0 58 -11.5 107t-29.5 89q-17 39 -38 69.5t-39 52.5h-45q56 -73 77.5 -155t21.5 -163q0 -84 -22.5 -164t-76.5 -154h45q18 20 38.5 50t38.5 70q17 40 29 89t12 109zM181 -18
q-55 74 -77 154t-22 164q0 81 21 163t78 155h-45q-19 -22 -40 -52.5t-38 -69.5q-18 -40 -29 -89t-11 -107q0 -60 11.5 -109t28.5 -89q18 -40 38.5 -70t39.5 -50h45z" />
    <glyph glyph-name="uni24A1" unicode="&#x24a1;" horiz-adv-x="770" 
d="M470 339v70h-49v26q0 12 2 19.5t10 13.5q3 2 7 3t8 1q5 1 10.5 1h11.5v71h-46q-21 0 -36.5 -7t-25.5 -18q-12 -13 -17 -29t-5 -40v-41h-43v-70h43v-285h81v285h49zM752 300q0 58 -11.5 107t-29.5 89q-17 39 -38 69.5t-39 52.5h-45q56 -73 77.5 -155t21.5 -163
q0 -84 -22.5 -164t-76.5 -154h45q18 20 38.5 50t38.5 70q17 40 29 89t12 109zM181 -18q-55 74 -77 154t-22 164q0 81 21 163t78 155h-45q-19 -22 -40 -52.5t-38 -69.5q-18 -40 -29 -89t-11 -107q0 -60 11.5 -109t28.5 -89q18 -40 38.5 -70t39.5 -50h45z" />
    <glyph glyph-name="uni24A2" unicode="&#x24a2;" horiz-adv-x="770" 
d="M554 208v328h-83v-29q-21 19 -48 30.5t-60 11.5q-72 0 -114.5 -50t-42.5 -125q0 -76 43.5 -126t113.5 -50q33 0 60 11t48 32v-38q0 -39 -24 -57.5t-63 -18.5q-36 0 -59.5 15t-23.5 36h-83q3 -48 46.5 -85t118.5 -37q29 0 59.5 7t55.5 25q24 17 40 46.5t16 73.5zM380 476
q41 0 66 -28t25 -74q0 -47 -25 -74.5t-66 -27.5q-42 0 -66 27.5t-24 74.5q0 46 24 74t66 28zM752 300q0 58 -11.5 107t-29.5 89q-17 39 -38 69.5t-39 52.5l-45 5q56 -74 77.5 -158t21.5 -165q0 -84 -22.5 -164t-76.5 -154h45q18 20 38.5 50t38.5 70q17 40 29 89t12 109z
M181 -18q-55 74 -77 154t-22 164q0 81 21 163t78 155h-45q-19 -22 -40 -52.5t-38 -69.5q-18 -40 -29 -89t-11 -107q0 -60 11.5 -109t28.5 -89q18 -40 38.5 -70t39.5 -50h45z" />
    <glyph glyph-name="uni24A3" unicode="&#x24a3;" horiz-adv-x="770" 
d="M544 51v251q0 18 -6.5 39t-19.5 38q-13 18 -33 30.5t-47 14.5q-42 3 -72 -11t-48 -32v167h-82v-497h82v204q0 39 22 64t58 25q33 0 49 -20t16 -61v-212h81zM752 300q0 58 -11.5 107t-29.5 89q-17 39 -38 69.5t-39 52.5h-45q56 -73 77.5 -155t21.5 -163q0 -84 -22.5 -164
t-76.5 -154h45q18 20 38.5 50t38.5 70q17 40 29 89t12 109zM181 -18q-55 74 -77 154t-22 164q0 81 21 163t78 155h-45q-19 -22 -40 -52.5t-38 -69.5q-18 -40 -29 -89t-11 -107q0 -60 11.5 -109t28.5 -89q18 -40 38.5 -70t39.5 -50h45z" />
    <glyph glyph-name="uni24A4" unicode="&#x24a4;" horiz-adv-x="770" 
d="M427 463v84h-83v-84h83zM427 51v361h-83v-361h83zM752 300q0 58 -11.5 107t-29.5 89q-17 39 -38 69.5t-39 52.5h-45q56 -73 77.5 -155t21.5 -163q0 -84 -22.5 -164t-76.5 -154h45q18 20 38.5 50t38.5 70q17 40 29 89t12 109zM181 -18q-55 74 -77 154t-22 164q0 81 21 163
t78 155h-45q-19 -22 -40 -52.5t-38 -69.5q-18 -40 -29 -89t-11 -107q0 -60 11.5 -109t28.5 -89q18 -40 38.5 -70t39.5 -50h45z" />
    <glyph glyph-name="uni24A5" unicode="&#x24a5;" horiz-adv-x="770" 
d="M438 522v83h-82v-83h82zM438 92v367h-82v-351q0 -14 -2 -21t-9 -13q-4 -3 -7.5 -4.5t-8.5 -1.5q-4 -1 -9.5 -0.5t-12.5 0.5v-71h45q21 0 36.5 6t27.5 18q10 11 16 29t6 42zM752 300q0 58 -11.5 107t-29.5 89q-17 39 -38 69.5t-39 52.5h-45q56 -73 77.5 -155t21.5 -163
q0 -84 -22.5 -164t-76.5 -154h45q18 20 38.5 50t38.5 70q17 40 29 89t12 109zM181 -18q-55 74 -77 154t-22 164q0 81 21 163t78 155h-45q-19 -22 -40 -52.5t-38 -69.5q-18 -40 -29 -89t-11 -107q0 -60 11.5 -109t28.5 -89q18 -40 38.5 -70t39.5 -50h45z" />
    <glyph glyph-name="uni24A6" unicode="&#x24a6;" horiz-adv-x="770" 
d="M559 53l-161 224l139 137h-103l-124 -122v257h-82v-495h82v136l31 30l124 -166zM752 300q0 58 -11.5 107t-29.5 89q-17 39 -38 69.5t-39 52.5h-45q56 -73 77.5 -155t21.5 -163q0 -84 -22.5 -164t-76.5 -154h45q18 20 38.5 50t38.5 70q17 40 29 89t12 109zM181 -18
q-55 74 -77 154t-22 164q0 81 21 163t78 155h-45q-19 -22 -40 -52.5t-38 -69.5q-18 -40 -29 -89t-11 -107q0 -60 11.5 -109t28.5 -89q18 -40 38.5 -70t39.5 -50h45z" />
    <glyph glyph-name="uni24A7" unicode="&#x24a7;" horiz-adv-x="770" 
d="M426 52v496h-83v-496h83zM752 300q0 58 -11.5 107t-29.5 89q-17 39 -38 69.5t-39 52.5h-45q56 -73 77.5 -155t21.5 -163q0 -84 -22.5 -164t-76.5 -154h45q18 20 38.5 50t38.5 70q17 40 29 89t12 109zM181 -18q-55 74 -77 154t-22 164q0 81 21 163t78 155h-45
q-19 -22 -40 -52.5t-38 -69.5q-18 -40 -29 -89t-11 -107q0 -60 11.5 -109t28.5 -89q18 -40 38.5 -70t39.5 -50h45z" />
    <glyph glyph-name="uni24A8" unicode="&#x24a8;" horiz-adv-x="770" 
d="M616 113v250q0 45 -22 81.5t-70 41.5q-27 2 -46 -2.5t-32 -12.5t-21.5 -17t-14.5 -16q-11 21 -31.5 34.5t-47.5 13.5q-38 1 -61 -15t-35 -31v34h-82v-361h82v211q0 40 16 61.5t45 23.5q30 0 39 -21.5t9 -55.5v-219h82v211q0 40 15 61.5t45 23.5q30 0 39 -21.5t9 -55.5
v-219h82zM752 300q0 58 -11.5 107t-29.5 89q-17 39 -38 69.5t-39 52.5h-45q56 -73 77.5 -155t21.5 -163q0 -84 -22.5 -164t-76.5 -154h45q18 20 38.5 50t38.5 70q17 40 29 89t12 109zM181 -18q-55 74 -77 154t-22 164q0 81 21 163t78 155h-45q-19 -22 -40 -52.5t-38 -69.5
q-18 -40 -29 -89t-11 -107q0 -60 11.5 -109t28.5 -89q18 -40 38.5 -70t39.5 -50h45z" />
    <glyph glyph-name="uni24A9" unicode="&#x24a9;" horiz-adv-x="770" 
d="M538 110v249q0 19 -6.5 39.5t-20.5 38.5q-13 18 -33 30t-47 15q-42 5 -71.5 -9.5t-47.5 -33.5v33h-83v-362h83v203q0 40 21.5 65t57.5 25q33 0 49.5 -20.5t16.5 -61.5v-211h81zM752 300q0 58 -11.5 107t-29.5 89q-17 39 -38 69.5t-39 52.5h-45q56 -73 77.5 -155
t21.5 -163q0 -84 -22.5 -164t-76.5 -154h45q18 20 38.5 50t38.5 70q17 40 29 89t12 109zM181 -18q-55 74 -77 154t-22 164q0 81 21 163t78 155h-45q-19 -22 -40 -52.5t-38 -69.5q-18 -40 -29 -89t-11 -107q0 -60 11.5 -109t28.5 -89q18 -40 38.5 -70t39.5 -50h45z" />
    <glyph glyph-name="uni24AA" unicode="&#x24aa;" horiz-adv-x="770" 
d="M559 298q0 40 -12 75.5t-35 61.5q-22 27 -54 42.5t-72 15.5q-41 0 -73 -15.5t-55 -42.5q-22 -26 -34 -61.5t-12 -75.5t12 -75t34 -62q23 -26 55 -41t73 -15q40 0 72 15t54 41q23 27 35 62t12 75zM474 298q0 -48 -24 -82.5t-64 -34.5q-42 0 -66 34.5t-24 82.5
q0 49 24 83.5t66 34.5q40 0 64 -34.5t24 -83.5zM752 300q0 58 -11.5 107t-29.5 89q-17 39 -38 69.5t-39 52.5h-45q56 -73 77.5 -155t21.5 -163q0 -84 -22.5 -164t-76.5 -154h45q18 20 38.5 50t38.5 70q17 40 29 89t12 109zM181 -18q-55 74 -77 154t-22 164q0 81 21 163
t78 155h-45q-19 -22 -40 -52.5t-38 -69.5q-18 -40 -29 -89t-11 -107q0 -60 11.5 -109t28.5 -89q18 -40 38.5 -70t39.5 -50h45z" />
    <glyph glyph-name="uni24AB" unicode="&#x24ab;" horiz-adv-x="770" 
d="M578 357q0 84 -43.5 138t-114.5 54q-33 0 -60 -12t-48 -33v32h-82v-474h82v147q21 -23 48 -34.5t60 -11.5q71 0 114.5 55t43.5 139zM494 357q0 -54 -24.5 -87t-66.5 -33t-66.5 33t-24.5 87q0 51 24.5 85.5t66.5 34.5t66.5 -34.5t24.5 -85.5zM752 300q0 58 -11.5 107
t-29.5 89q-17 39 -38 69.5t-39 52.5h-45q56 -73 77.5 -155t21.5 -163q0 -84 -22.5 -164t-76.5 -154h45q18 20 38.5 50t38.5 70q17 40 29 89t12 109zM181 -18q-55 74 -77 154t-22 164q0 81 21 163t78 155h-45q-19 -22 -40 -52.5t-38 -69.5q-18 -40 -29 -89t-11 -107
q0 -60 11.5 -109t28.5 -89q18 -40 38.5 -70t39.5 -50h45z" />
    <glyph glyph-name="uni24AC" unicode="&#x24ac;" horiz-adv-x="770" 
d="M537 63v474h-82v-33q-21 22 -48.5 34t-59.5 12q-72 0 -115 -54.5t-43 -138.5t43 -138.5t115 -54.5q32 0 59.5 12t48.5 34v-147h82zM455 357q0 -52 -25 -86t-67 -34q-43 0 -66.5 34t-23.5 86t23.5 85.5t66.5 33.5q42 0 67 -33.5t25 -85.5zM752 300q0 58 -11.5 107
t-29.5 89q-17 39 -38 69.5t-39 52.5h-45q56 -73 77.5 -155t21.5 -163q0 -84 -22.5 -164t-76.5 -154h45q18 20 38.5 50t38.5 70q17 40 29 89t12 109zM181 -18q-55 74 -77 154t-22 164q0 81 21 163t78 155h-45q-19 -22 -40 -52.5t-38 -69.5q-18 -40 -29 -89t-11 -107
q0 -60 11.5 -109t28.5 -89q18 -40 38.5 -70t39.5 -50h45z" />
    <glyph glyph-name="uni24AD" unicode="&#x24ad;" horiz-adv-x="770" 
d="M497 409v84q-2 0 -20.5 -3.5t-35.5 -9.5q-21 -11 -33.5 -21.5t-23.5 -25.5v47h-81v-362h81v174q0 37 12 61t36 40q15 9 31 12.5t34 3.5zM752 300q0 58 -11.5 107t-29.5 89q-17 39 -38 69.5t-39 52.5h-45q56 -73 77.5 -155t21.5 -163q0 -84 -22.5 -164t-76.5 -154h45
q18 20 38.5 50t38.5 70q17 40 29 89t12 109zM181 -18q-55 74 -77 154t-22 164q0 81 21 163t78 155h-45q-19 -22 -40 -52.5t-38 -69.5q-18 -40 -29 -89t-11 -107q0 -60 11.5 -109t28.5 -89q18 -40 38.5 -70t39.5 -50h45z" />
    <glyph glyph-name="uni24AE" unicode="&#x24ae;" horiz-adv-x="770" 
d="M537 219q1 34 -17.5 57t-42.5 36q-14 6 -29.5 11t-31.5 9q-16 5 -30 8.5t-24 6.5q-20 6 -29.5 14.5t-7.5 24.5q1 15 16.5 24t45.5 9t46 -14t16 -29h77q0 21 -9.5 41.5t-27.5 37.5q-18 16 -45 26.5t-61 10.5q-64 0 -100 -34t-38 -71q-3 -36 14 -60.5t54 -38.5q11 -5 25 -9
t29 -8q14 -4 29 -8t28 -9q15 -6 23 -16t7 -22q-3 -15 -19 -26t-47 -11q-37 0 -56 17.5t-20 38.5h-79q0 -17 8 -39t26 -42q19 -20 49 -34t75 -14q28 -1 54 8t46 24q19 15 31.5 36t14.5 45zM752 300q0 58 -11.5 107t-29.5 89q-17 39 -38 69.5t-39 52.5h-45q56 -73 77.5 -155
t21.5 -163q0 -84 -22.5 -164t-76.5 -154h45q18 20 38.5 50t38.5 70q17 40 29 89t12 109zM181 -18q-55 74 -77 154t-22 164q0 81 21 163t78 155h-45q-19 -22 -40 -52.5t-38 -69.5q-18 -40 -29 -89t-11 -107q0 -60 11.5 -109t28.5 -89q18 -40 38.5 -70t39.5 -50h45z" />
    <glyph glyph-name="uni24AF" unicode="&#x24af;" horiz-adv-x="770" 
d="M470 64v71q-12 0 -21.5 0.5t-15.5 6.5q-8 6 -9.5 13t-1.5 20v178h48v72h-48v110h-82v-110h-43v-72h43v-192q0 -25 5 -43t17 -28q11 -12 26 -19t36 -7h46zM752 300q0 58 -11.5 107t-29.5 89q-17 39 -38 69.5t-39 52.5h-45q56 -73 77.5 -155t21.5 -163q0 -84 -22.5 -164
t-76.5 -154h45q18 20 38.5 50t38.5 70q17 40 29 89t12 109zM181 -18q-55 74 -77 154t-22 164q0 81 21 163t78 155h-45q-19 -22 -40 -52.5t-38 -69.5q-18 -40 -29 -89t-11 -107q0 -60 11.5 -109t28.5 -89q18 -40 38.5 -70t39.5 -50h45z" />
    <glyph glyph-name="uni24B0" unicode="&#x24b0;" horiz-adv-x="770" 
d="M538 126v361h-82v-202q0 -44 -20.5 -67t-55.5 -23q-33 -1 -48.5 18t-15.5 62v212h-83v-246q0 -51 30 -88t83 -40q35 -3 64 12t46 33v-32h82zM752 300q0 58 -11.5 107t-29.5 89q-17 39 -38 69.5t-39 52.5h-45q56 -73 77.5 -155t21.5 -163q0 -84 -22.5 -164t-76.5 -154h45
q18 20 38.5 50t38.5 70q17 40 29 89t12 109zM181 -18q-55 74 -77 154t-22 164q0 81 21 163t78 155h-45q-19 -22 -40 -52.5t-38 -69.5q-18 -40 -29 -89t-11 -107q0 -60 11.5 -109t28.5 -89q18 -40 38.5 -70t39.5 -50h45z" />
    <glyph glyph-name="uni24B1" unicode="&#x24b1;" horiz-adv-x="770" 
d="M564 478h-89l-88 -252l-89 252h-89l131 -357h93zM752 300q0 58 -11.5 107t-29.5 89q-17 39 -38 69.5t-39 52.5h-45q56 -73 77.5 -155t21.5 -163q0 -84 -22.5 -164t-76.5 -154h45q18 20 38.5 50t38.5 70q17 40 29 89t12 109zM181 -18q-55 74 -77 154t-22 164q0 81 21 163
t78 155h-45q-19 -22 -40 -52.5t-38 -69.5q-18 -40 -29 -89t-11 -107q0 -60 11.5 -109t28.5 -89q18 -40 38.5 -70t39.5 -50h45z" />
    <glyph glyph-name="uni24B2" unicode="&#x24b2;" horiz-adv-x="770" 
d="M619 475h-82l-54 -231l-55 231h-86l-54 -231l-55 231h-82l92 -356h88l54 218l53 -218h88zM752 300q0 58 -11.5 107t-29.5 89q-17 39 -38 69.5t-39 52.5h-45q56 -73 77.5 -155t21.5 -163q0 -84 -22.5 -164t-76.5 -154h45q18 20 38.5 50t38.5 70q17 40 29 89t12 109z
M181 -18q-55 74 -77 154t-22 164q0 81 21 163t78 155h-45q-19 -22 -40 -52.5t-38 -69.5q-18 -40 -29 -89t-11 -107q0 -60 11.5 -109t28.5 -89q18 -40 38.5 -70t39.5 -50h45z" />
    <glyph glyph-name="uni24B3" unicode="&#x24b3;" horiz-adv-x="770" 
d="M560 119l-126 183l118 174h-95l-71 -104l-71 104h-96l119 -174l-125 -183h96l77 113l77 -113h97zM752 300q0 58 -11.5 107t-29.5 89q-17 39 -38 69.5t-39 52.5h-45q56 -73 77.5 -155t21.5 -163q0 -84 -22.5 -164t-76.5 -154h45q18 20 38.5 50t38.5 70q17 40 29 89t12 109
zM181 -18q-55 74 -77 154t-22 164q0 81 21 163t78 155h-45q-19 -22 -40 -52.5t-38 -69.5q-18 -40 -29 -89t-11 -107q0 -60 11.5 -109t28.5 -89q18 -40 38.5 -70t39.5 -50h45z" />
    <glyph glyph-name="uni24B4" unicode="&#x24b4;" horiz-adv-x="770" 
d="M565 546h-88l-90 -248l-89 248h-89l137 -365l-11 -30q-4 -10 -15 -18.5t-24 -8.5h-37v-71h40q15 0 30 1.5t31 9.5q13 7 26 21t21 36zM752 300q0 58 -11.5 107t-29.5 89q-17 39 -38 69.5t-39 52.5h-45q56 -73 77.5 -155t21.5 -163q0 -84 -22.5 -164t-76.5 -154h45
q18 20 38.5 50t38.5 70q17 40 29 89t12 109zM181 -18q-55 74 -77 154t-22 164q0 81 21 163t78 155h-45q-19 -22 -40 -52.5t-38 -69.5q-18 -40 -29 -89t-11 -107q0 -60 11.5 -109t28.5 -89q18 -40 38.5 -70t39.5 -50h45z" />
    <glyph glyph-name="uni24B5" unicode="&#x24b5;" horiz-adv-x="770" 
d="M543 118v72h-201l189 220v71h-274v-72h169l-187 -220v-71h304zM752 300q0 58 -11.5 107t-29.5 89q-17 39 -38 69.5t-39 52.5h-45q56 -73 77.5 -155t21.5 -163q0 -84 -22.5 -164t-76.5 -154h45q18 20 38.5 50t38.5 70q17 40 29 89t12 109zM181 -18q-55 74 -77 154t-22 164
q0 81 21 163t78 155h-45q-19 -22 -40 -52.5t-38 -69.5q-18 -40 -29 -89t-11 -107q0 -60 11.5 -109t28.5 -89q18 -40 38.5 -70t39.5 -50h45z" />
    <glyph glyph-name="uni24D0" unicode="&#x24d0;" horiz-adv-x="770" 
d="M690 300q0 -64 -24 -120t-66 -98q-41 -42 -96.5 -66t-118.5 -24q-64 0 -119.5 24t-96.5 66q-42 42 -65.5 98t-23.5 120q0 63 23.5 119t65.5 98q41 42 96.5 66.5t119.5 24.5q63 0 118.5 -24.5t96.5 -66.5q42 -42 66 -98t24 -119zM546 134q-1 0 -6.5 17t-5.5 38v190
q0 49 -44 79t-105 30q-32 0 -60 -9.5t-49 -25.5q-20 -16 -31 -38.5t-9 -49.5h75q-3 24 17 40.5t56 16.5q37 0 55 -12.5t18 -29.5q0 -10 -4.5 -16.5t-11.5 -9.5q-7 -4 -15.5 -6.5t-15.5 -3.5q-11 -3 -23.5 -5t-26.5 -4q-15 -2 -30 -5t-29 -7q-39 -12 -63.5 -42.5t-18.5 -75.5
q6 -46 42 -66t84 -15q34 3 65.5 17.5t46.5 31.5q0 -13 3 -22.5t8 -16.5h78zM457 272q0 -24 -26 -45t-58 -29q-22 -6 -46.5 -2.5t-27.5 18.5q-6 16 4.5 28t31.5 20q6 2 16.5 4.5t22.5 4.5q12 3 24 5t22 5t20.5 6.5t16.5 9.5v-25zM744 300q0 74 -28.5 139.5t-77.5 113.5
q-48 49 -113.5 77.5t-139.5 28.5q-75 0 -140 -28.5t-114 -77.5q-49 -48 -77 -113.5t-28 -139.5q0 -75 28 -140t77 -114t114 -77t140 -28q74 0 139.5 28t113.5 77q49 49 77.5 114t28.5 140z" />
    <glyph glyph-name="uni24D1" unicode="&#x24d1;" horiz-adv-x="770" 
d="M690 300q0 -64 -24 -120t-66 -98q-41 -42 -96.5 -66t-118.5 -24q-64 0 -119.5 24t-96.5 66q-42 42 -65.5 98t-23.5 120q0 63 23.5 119t65.5 98q41 42 96.5 66.5t119.5 24.5q63 0 118.5 -24.5t96.5 -66.5q42 -42 66 -98t24 -119zM579 237q0 79 -41 131t-109 52
q-33 0 -59.5 -12.5t-46.5 -33.5v162h-76v-470h76v34q20 -22 46.5 -34t59.5 -12q68 0 109 51t41 132zM413 352q41 0 64.5 -32t23.5 -83t-23.5 -83.5t-64.5 -32.5q-42 0 -66 32.5t-24 83.5t24 83t66 32zM744 300q0 74 -28.5 139.5t-77.5 113.5q-48 49 -113.5 77.5t-139.5 28.5
q-75 0 -140 -28.5t-114 -77.5q-49 -48 -77 -113.5t-28 -139.5q0 -75 28 -140t77 -114t114 -77t140 -28q74 0 139.5 28t113.5 77q49 49 77.5 114t28.5 140z" />
    <glyph glyph-name="uni24D2" unicode="&#x24d2;" horiz-adv-x="770" 
d="M690 300q0 -64 -24 -120t-66 -98q-41 -42 -96.5 -66t-118.5 -24q-64 0 -119.5 24t-96.5 66q-42 42 -65.5 98t-23.5 120q0 63 23.5 119t65.5 98q41 42 96.5 66.5t119.5 24.5q63 0 118.5 -24.5t96.5 -66.5q42 -42 66 -98t24 -119zM547 236h-83q-6 -17 -23.5 -34t-49.5 -17
q-42 0 -66 33t-24 80t24 80.5t66 33.5q35 0 52.5 -18.5t21.5 -31.5h82q-4 19 -16.5 40t-32.5 39q-20 17 -47.5 29t-60.5 12q-39 0 -70 -15t-52 -40q-22 -25 -33 -58.5t-11 -70.5q0 -38 11 -71t33 -58q21 -25 52 -39t70 -14q66 0 106 37.5t51 82.5zM744 300q0 74 -28.5 139.5
t-77.5 113.5q-48 49 -113.5 77.5t-139.5 28.5q-75 0 -140 -28.5t-114 -77.5q-49 -48 -77 -113.5t-28 -139.5q0 -75 28 -140t77 -114t114 -77t140 -28q74 0 139.5 28t113.5 77q49 49 77.5 114t28.5 140z" />
    <glyph glyph-name="uni24D3" unicode="&#x24d3;" horiz-adv-x="770" 
d="M690 300q0 -64 -24 -120t-66 -98q-41 -42 -96.5 -66t-118.5 -24q-64 0 -119.5 24t-96.5 66q-42 42 -65.5 98t-23.5 120q0 63 23.5 119t65.5 98q41 42 96.5 66.5t119.5 24.5q63 0 118.5 -24.5t96.5 -66.5q42 -42 66 -98t24 -119zM524 67v470h-76v-161q-20 21 -46 33
t-59 12q-70 0 -110.5 -52t-40.5 -131q0 -81 40.5 -132.5t110.5 -51.5q33 0 59 12t46 34v-33h76zM360 353q43 0 65.5 -32t22.5 -83t-22.5 -84t-65.5 -33q-44 0 -66.5 33t-22.5 84t22.5 83t66.5 32zM744 300q0 74 -28.5 139.5t-77.5 113.5q-48 49 -113.5 77.5t-139.5 28.5
q-75 0 -140 -28.5t-114 -77.5q-49 -48 -77 -113.5t-28 -139.5q0 -75 28 -140t77 -114t114 -77t140 -28q74 0 139.5 28t113.5 77q49 49 77.5 114t28.5 140z" />
    <glyph glyph-name="uni24D4" unicode="&#x24d4;" horiz-adv-x="770" 
d="M690 300q0 -64 -24 -120t-66 -98q-41 -42 -96.5 -66t-118.5 -24q-64 0 -119.5 24t-96.5 66q-42 42 -65.5 98t-23.5 120q0 63 23.5 119t65.5 98q41 42 96.5 66.5t119.5 24.5q63 0 118.5 -24.5t96.5 -66.5q42 -42 66 -98t24 -119zM551 272q3 52 -10 92t-36 66
q-24 26 -55 39.5t-64 13.5q-38 0 -69 -15t-53 -40t-33.5 -59t-11.5 -71q0 -38 12 -71.5t35 -57.5q22 -25 53 -39.5t68 -14.5q35 0 61 9.5t44 24.5q18 16 29.5 34.5t17.5 36.5h-85q-6 -9 -22.5 -22t-44.5 -13q-21 0 -37 8.5t-27 21.5q-11 12 -16.5 27.5t-5.5 29.5h250z
M468 336h-165q5 32 26.5 54t57.5 22q34 0 55 -23.5t26 -52.5zM744 300q0 74 -28.5 139.5t-77.5 113.5q-48 49 -113.5 77.5t-139.5 28.5q-75 0 -140 -28.5t-114 -77.5q-49 -48 -77 -113.5t-28 -139.5q0 -75 28 -140t77 -114t114 -77t140 -28q74 0 139.5 28t113.5 77
q49 49 77.5 114t28.5 140z" />
    <glyph glyph-name="uni24D5" unicode="&#x24d5;" horiz-adv-x="770" 
d="M690 300q0 -64 -24 -120t-66 -98q-41 -42 -96.5 -66t-118.5 -24q-64 0 -119.5 24t-96.5 66q-42 42 -65.5 98t-23.5 120q0 63 23.5 119t65.5 98q41 42 96.5 66.5t119.5 24.5q63 0 118.5 -24.5t96.5 -66.5q42 -42 66 -98t24 -119zM460 334v65h-47v26q0 12 2 19t10 13
q3 2 6.5 3t7.5 2h10h11v66h-43q-20 0 -35 -7t-24 -18q-12 -12 -16.5 -26.5t-4.5 -37.5v-40h-41v-65h41v-273h76v273h47zM744 300q0 74 -28.5 139.5t-77.5 113.5q-48 49 -113.5 77.5t-139.5 28.5q-75 0 -140 -28.5t-114 -77.5q-49 -48 -77 -113.5t-28 -139.5q0 -75 28 -140
t77 -114t114 -77t140 -28q74 0 139.5 28t113.5 77q49 49 77.5 114t28.5 140z" />
    <glyph glyph-name="uni24D6" unicode="&#x24d6;" horiz-adv-x="770" 
d="M690 300q0 -64 -24 -120t-66 -98q-41 -42 -96.5 -66t-118.5 -24q-64 0 -119.5 24t-96.5 66q-42 42 -65.5 98t-23.5 120q0 63 23.5 119t65.5 98q41 42 96.5 66.5t119.5 24.5q63 0 118.5 -24.5t96.5 -66.5q42 -42 66 -98t24 -119zM537 208v312h-75v-30q-20 19 -47 31
t-59 12q-68 0 -109 -48t-41 -119q0 -72 41 -118.5t109 -46.5q31 0 58 11t48 32v-40q0 -38 -23.5 -56t-61.5 -18q-36 0 -59 14.5t-23 33.5h-77q3 -44 44.5 -79t114.5 -35q27 0 55.5 6.5t51.5 23.5q23 16 38 44t15 70zM462 366q0 -44 -24.5 -71t-65.5 -27t-64.5 27t-23.5 71
q0 45 23.5 72.5t64.5 27.5t65.5 -27.5t24.5 -72.5zM744 300q0 74 -28.5 139.5t-77.5 113.5q-48 49 -113.5 77.5t-139.5 28.5q-75 0 -140 -28.5t-114 -77.5q-49 -48 -77 -113.5t-28 -139.5q0 -75 28 -140t77 -114t114 -77t140 -28q74 0 139.5 28t113.5 77q49 49 77.5 114
t28.5 140z" />
    <glyph glyph-name="uni24D7" unicode="&#x24d7;" horiz-adv-x="770" 
d="M690 300q0 -64 -24 -120t-66 -98q-41 -42 -96.5 -66t-118.5 -24q-64 0 -119.5 24t-96.5 66q-42 42 -65.5 98t-23.5 120q0 63 23.5 119t65.5 98q41 42 96.5 66.5t119.5 24.5q63 0 118.5 -24.5t96.5 -66.5q42 -42 66 -98t24 -119zM532 64v236q0 18 -6.5 37.5t-18.5 36.5
q-13 17 -32 28.5t-44 14.5q-42 3 -71.5 -11.5t-46.5 -32.5v161h-76v-470h76v192q0 39 22 63.5t57 24.5q33 0 48.5 -20t15.5 -59v-201h76zM744 300q0 74 -28.5 139.5t-77.5 113.5q-48 49 -113.5 77.5t-139.5 28.5q-75 0 -140 -28.5t-114 -77.5q-49 -48 -77 -113.5t-28 -139.5
q0 -75 28 -140t77 -114t114 -77t140 -28q74 0 139.5 28t113.5 77q49 49 77.5 114t28.5 140z" />
    <glyph glyph-name="uni24D8" unicode="&#x24d8;" horiz-adv-x="770" 
d="M690 300q0 -64 -24 -120t-66 -98q-41 -42 -96.5 -66t-118.5 -24q-64 0 -119.5 24t-96.5 66q-42 42 -65.5 98t-23.5 120q0 63 23.5 119t65.5 98q41 42 96.5 66.5t119.5 24.5q63 0 118.5 -24.5t96.5 -66.5q42 -42 66 -98t24 -119zM424 456v76h-77v-76h77zM424 61v343h-77
v-343h77zM744 300q0 74 -28.5 139.5t-77.5 113.5q-48 49 -113.5 77.5t-139.5 28.5q-75 0 -140 -28.5t-114 -77.5q-49 -48 -77 -113.5t-28 -139.5q0 -75 28 -140t77 -114t114 -77t140 -28q74 0 139.5 28t113.5 77q49 49 77.5 114t28.5 140z" />
    <glyph glyph-name="uni24D9" unicode="&#x24d9;" horiz-adv-x="770" 
d="M690 300q0 -64 -24 -120t-66 -98q-41 -42 -96.5 -66t-118.5 -24q-64 0 -119.5 24t-96.5 66q-42 42 -65.5 98t-23.5 120q0 63 23.5 119t65.5 98q41 42 96.5 66.5t119.5 24.5q63 0 118.5 -24.5t96.5 -66.5q42 -42 66 -98t24 -119zM436 503v77h-77v-77h77zM436 111v340h-77
v-327q0 -12 -2.5 -19.5t-8.5 -13.5q-4 -3 -7.5 -4.5t-8.5 -1.5q-4 -1 -9 -0.5t-11 0.5v-65h41q20 0 35 6t26 17q10 9 16 26t6 42zM744 300q0 74 -28.5 139.5t-77.5 113.5q-48 49 -113.5 77.5t-139.5 28.5q-75 0 -140 -28.5t-114 -77.5q-49 -48 -77 -113.5t-28 -139.5
q0 -75 28 -140t77 -114t114 -77t140 -28q74 0 139.5 28t113.5 77q49 49 77.5 114t28.5 140z" />
    <glyph glyph-name="uni24DA" unicode="&#x24da;" horiz-adv-x="770" 
d="M690 300q0 -64 -24 -120t-66 -98q-41 -42 -96.5 -66t-118.5 -24q-64 0 -119.5 24t-96.5 66q-42 42 -65.5 98t-23.5 120q0 63 23.5 119t65.5 98q41 42 96.5 66.5t119.5 24.5q63 0 118.5 -24.5t96.5 -66.5q42 -42 66 -98t24 -119zM551 65l-154 213l131 129h-94l-122 -119
v248h-76v-471h76v130l31 31l121 -161h87zM744 300q0 74 -28.5 139.5t-77.5 113.5q-48 49 -113.5 77.5t-139.5 28.5q-75 0 -140 -28.5t-114 -77.5q-49 -48 -77 -113.5t-28 -139.5q0 -75 28 -140t77 -114t114 -77t140 -28q74 0 139.5 28t113.5 77q49 49 77.5 114t28.5 140z
" />
    <glyph glyph-name="uni24DB" unicode="&#x24db;" horiz-adv-x="770" 
d="M690 300q0 -64 -24 -120t-66 -98q-41 -42 -96.5 -66t-118.5 -24q-64 0 -119.5 24t-96.5 66q-42 42 -65.5 98t-23.5 120q0 63 23.5 119t65.5 98q41 42 96.5 66.5t119.5 24.5q63 0 118.5 -24.5t96.5 -66.5q42 -42 66 -98t24 -119zM423 64v472h-76v-472h76zM744 300
q0 74 -28.5 139.5t-77.5 113.5q-48 49 -113.5 77.5t-139.5 28.5q-75 0 -140 -28.5t-114 -77.5q-49 -48 -77 -113.5t-28 -139.5q0 -75 28 -140t77 -114t114 -77t140 -28q74 0 139.5 28t113.5 77q49 49 77.5 114t28.5 140z" />
    <glyph glyph-name="uni24DC" unicode="&#x24dc;" horiz-adv-x="770" 
d="M690 300q0 -64 -24 -120t-66 -98q-41 -42 -96.5 -66t-118.5 -24q-64 0 -119.5 24t-96.5 66q-42 42 -65.5 98t-23.5 120q0 63 23.5 119t65.5 98q41 42 96.5 66.5t119.5 24.5q63 0 118.5 -24.5t96.5 -66.5q42 -42 66 -98t24 -119zM608 126v238q0 41 -21.5 76t-66.5 39
q-27 2 -45.5 -3t-30.5 -12q-13 -8 -21 -17.5t-13 -15.5q-10 21 -29.5 34.5t-46.5 13.5q-39 1 -61 -16t-33 -31v36h-75v-342h75v199q0 39 16 60t44 24q30 0 39 -21.5t9 -54.5v-207h76v199q0 39 15.5 60t44.5 24q29 0 38 -21.5t9 -54.5v-207h77zM744 300q0 74 -28.5 139.5
t-77.5 113.5q-48 49 -113.5 77.5t-139.5 28.5q-75 0 -140 -28.5t-114 -77.5q-49 -48 -77 -113.5t-28 -139.5q0 -75 28 -140t77 -114t114 -77t140 -28q74 0 139.5 28t113.5 77q49 49 77.5 114t28.5 140z" />
    <glyph glyph-name="uni24DD" unicode="&#x24dd;" horiz-adv-x="770" 
d="M690 300q0 -64 -24 -120t-66 -98q-41 -42 -96.5 -66t-118.5 -24q-64 0 -119.5 24t-96.5 66q-42 42 -65.5 98t-23.5 120q0 63 23.5 119t65.5 98q41 42 96.5 66.5t119.5 24.5q63 0 118.5 -24.5t96.5 -66.5q42 -42 66 -98t24 -119zM533 121v235q0 18 -6.5 37.5t-18.5 36.5
q-13 17 -32 28.5t-44 14.5q-42 3 -71.5 -11.5t-46.5 -32.5v33h-76v-341h76v191q0 39 22 63t57 24q33 0 48.5 -19.5t15.5 -59.5v-199h76zM744 300q0 74 -28.5 139.5t-77.5 113.5q-48 49 -113.5 77.5t-139.5 28.5q-75 0 -140 -28.5t-114 -77.5q-49 -48 -77 -113.5t-28 -139.5
q0 -75 28 -140t77 -114t114 -77t140 -28q74 0 139.5 28t113.5 77q49 49 77.5 114t28.5 140z" />
    <glyph glyph-name="uni24DE" unicode="&#x24de;" horiz-adv-x="770" 
d="M690 300q0 -64 -24 -120t-66 -98q-41 -42 -96.5 -66t-118.5 -24q-64 0 -119.5 24t-96.5 66q-42 42 -65.5 98t-23.5 120q0 63 23.5 119t65.5 98q41 42 96.5 66.5t119.5 24.5q63 0 118.5 -24.5t96.5 -66.5q42 -42 66 -98t24 -119zM551 298q0 38 -11.5 71.5t-33.5 58.5
q-21 25 -51.5 39.5t-68.5 14.5q-39 0 -70 -14.5t-52 -39.5q-22 -25 -33 -58.5t-11 -71.5t11 -71t33 -58q21 -25 52 -39t70 -14q38 0 68.5 14t51.5 39q22 25 33.5 58t11.5 71zM386 412q40 0 64 -33.5t24 -80.5t-24 -80t-64 -33q-41 0 -64.5 33t-23.5 80t23.5 80.5t64.5 33.5z
M744 300q0 74 -28.5 139.5t-77.5 113.5q-48 49 -113.5 77.5t-139.5 28.5q-75 0 -140 -28.5t-114 -77.5q-49 -48 -77 -113.5t-28 -139.5q0 -75 28 -140t77 -114t114 -77t140 -28q74 0 139.5 28t113.5 77q49 49 77.5 114t28.5 140z" />
    <glyph glyph-name="uni24DF" unicode="&#x24df;" horiz-adv-x="770" 
d="M690 300q0 -64 -24 -120t-66 -98q-41 -42 -96.5 -66t-118.5 -24q-64 0 -119.5 24t-96.5 66q-42 42 -65.5 98t-23.5 120q0 63 23.5 119t65.5 98q41 42 96.5 66.5t119.5 24.5q63 0 118.5 -24.5t96.5 -66.5q42 -42 66 -98t24 -119zM573 352q0 80 -41 131.5t-109 51.5
q-33 0 -60 -12.5t-47 -33.5v33h-75v-450h75v143q20 -23 47 -35t60 -12q68 0 109 51.5t41 132.5zM407 468q41 0 64 -33t23 -83q0 -52 -23 -84t-64 -32q-42 0 -66.5 32t-24.5 84q0 50 24.5 83t66.5 33zM744 300q0 74 -28.5 139.5t-77.5 113.5q-48 49 -113.5 77.5t-139.5 28.5
q-75 0 -140 -28.5t-114 -77.5q-49 -48 -77 -113.5t-28 -139.5q0 -75 28 -140t77 -114t114 -77t140 -28q74 0 139.5 28t113.5 77q49 49 77.5 114t28.5 140z" />
    <glyph glyph-name="uni24E0" unicode="&#x24e0;" horiz-adv-x="770" 
d="M690 300q0 -64 -24 -120t-66 -98q-41 -42 -96.5 -66t-118.5 -24q-64 0 -119.5 24t-96.5 66q-42 42 -65.5 98t-23.5 120q0 63 23.5 119t65.5 98q41 42 96.5 66.5t119.5 24.5q63 0 118.5 -24.5t96.5 -66.5q42 -42 66 -98t24 -119zM522 74v450h-75v-34q-21 21 -48 33.5
t-59 12.5q-69 0 -109.5 -51.5t-40.5 -131.5t40.5 -131t109.5 -51q32 0 59 12t48 33v-142h75zM357 469q40 0 65 -32.5t25 -83.5t-25 -83t-65 -32q-42 0 -65 32t-23 83t23 83.5t65 32.5zM744 300q0 74 -28.5 139.5t-77.5 113.5q-48 49 -113.5 77.5t-139.5 28.5
q-75 0 -140 -28.5t-114 -77.5q-49 -48 -77 -113.5t-28 -139.5q0 -75 28 -140t77 -114t114 -77t140 -28q74 0 139.5 28t113.5 77q49 49 77.5 114t28.5 140z" />
    <glyph glyph-name="uni24E1" unicode="&#x24e1;" horiz-adv-x="770" 
d="M690 300q0 -64 -24 -120t-66 -98q-41 -42 -96.5 -66t-118.5 -24q-64 0 -119.5 24t-96.5 66q-42 42 -65.5 98t-23.5 120q0 63 23.5 119t65.5 98q41 42 96.5 66.5t119.5 24.5q63 0 118.5 -24.5t96.5 -66.5q42 -42 66 -98t24 -119zM500 392v75q-2 0 -18.5 -2.5t-31.5 -8.5
q-22 -10 -35 -21t-23 -26v47h-76v-342h76v164q0 36 11.5 59t34.5 38q15 9 31 13t31 4zM744 300q0 74 -28.5 139.5t-77.5 113.5q-48 49 -113.5 77.5t-139.5 28.5q-75 0 -140 -28.5t-114 -77.5q-49 -48 -77 -113.5t-28 -139.5q0 -75 28 -140t77 -114t114 -77t140 -28
q74 0 139.5 28t113.5 77q49 49 77.5 114t28.5 140z" />
    <glyph glyph-name="uni24E2" unicode="&#x24e2;" horiz-adv-x="770" 
d="M690 300q0 -64 -24 -120t-66 -98q-41 -42 -96.5 -66t-118.5 -24q-64 0 -119.5 24t-96.5 66q-42 42 -65.5 98t-23.5 120q0 63 23.5 119t65.5 98q41 42 96.5 66.5t119.5 24.5q63 0 118.5 -24.5t96.5 -66.5q42 -42 66 -98t24 -119zM530 223q1 31 -16.5 53t-41.5 33
q-13 6 -28 10.5t-30 9.5q-15 4 -29 7.5t-24 7.5q-20 6 -29 14.5t-6 23.5q0 14 15.5 24t45.5 10t45 -14.5t15 -27.5h72q1 39 -35 73.5t-101 34.5q-61 0 -95.5 -31.5t-36.5 -67.5q-3 -34 13.5 -57t51.5 -36q10 -5 23.5 -8.5t28.5 -7.5q14 -4 28.5 -8t27.5 -9q15 -6 22 -16
t6 -21q-2 -15 -17.5 -26.5t-47.5 -11.5q-36 0 -54.5 17t-20.5 38h-73q0 -15 7.5 -35.5t25.5 -39.5q17 -19 46 -32t72 -13q54 -1 95.5 30t44.5 76zM744 300q0 74 -28.5 139.5t-77.5 113.5q-48 49 -113.5 77.5t-139.5 28.5q-75 0 -140 -28.5t-114 -77.5q-49 -48 -77 -113.5
t-28 -139.5q0 -75 28 -140t77 -114t114 -77t140 -28q74 0 139.5 28t113.5 77q49 49 77.5 114t28.5 140z" />
    <glyph glyph-name="uni24E3" unicode="&#x24e3;" horiz-adv-x="770" 
d="M690 300q0 -64 -24 -120t-66 -98q-41 -42 -96.5 -66t-118.5 -24q-64 0 -119.5 24t-96.5 66q-42 42 -65.5 98t-23.5 120q0 63 23.5 119t65.5 98q41 42 96.5 66.5t119.5 24.5q63 0 118.5 -24.5t96.5 -66.5q42 -42 66 -98t24 -119zM464 76v65q-12 0 -21 1t-15 7
q-8 6 -9.5 12.5t-1.5 20.5v172h47v65h-47v105h-77v-105h-40v-65h40v-186q0 -24 5 -40.5t16 -26.5q11 -12 25.5 -18.5t33.5 -6.5h44zM744 300q0 74 -28.5 139.5t-77.5 113.5q-48 49 -113.5 77.5t-139.5 28.5q-75 0 -140 -28.5t-114 -77.5q-49 -48 -77 -113.5t-28 -139.5
q0 -75 28 -140t77 -114t114 -77t140 -28q74 0 139.5 28t113.5 77q49 49 77.5 114t28.5 140z" />
    <glyph glyph-name="uni24E4" unicode="&#x24e4;" horiz-adv-x="770" 
d="M690 300q0 -64 -24 -120t-66 -98q-41 -42 -96.5 -66t-118.5 -24q-64 0 -119.5 24t-96.5 66q-42 42 -65.5 98t-23.5 120q0 63 23.5 119t65.5 98q41 42 96.5 66.5t119.5 24.5q63 0 118.5 -24.5t96.5 -66.5q42 -42 66 -98t24 -119zM530 135v342h-77v-192q0 -42 -20 -64.5
t-54 -22.5q-33 -1 -48.5 18t-15.5 61v200h-76v-234q0 -48 28 -82.5t78 -37.5q36 -2 64.5 12.5t43.5 32.5v-33h77zM744 300q0 74 -28.5 139.5t-77.5 113.5q-48 49 -113.5 77.5t-139.5 28.5q-75 0 -140 -28.5t-114 -77.5q-49 -48 -77 -113.5t-28 -139.5q0 -75 28 -140t77 -114
t114 -77t140 -28q74 0 139.5 28t113.5 77q49 49 77.5 114t28.5 140z" />
    <glyph glyph-name="uni24E5" unicode="&#x24e5;" horiz-adv-x="770" 
d="M690 300q0 -64 -24 -120t-66 -98q-41 -42 -96.5 -66t-118.5 -24q-64 0 -119.5 24t-96.5 66q-42 42 -65.5 98t-23.5 120q0 63 23.5 119t65.5 98q41 42 96.5 66.5t119.5 24.5q63 0 118.5 -24.5t96.5 -66.5q42 -42 66 -98t24 -119zM555 448h-81l-87 -243l-87 243h-83
l126 -337h87zM744 300q0 74 -28.5 139.5t-77.5 113.5q-48 49 -113.5 77.5t-139.5 28.5q-75 0 -140 -28.5t-114 -77.5q-49 -48 -77 -113.5t-28 -139.5q0 -75 28 -140t77 -114t114 -77t140 -28q74 0 139.5 28t113.5 77q49 49 77.5 114t28.5 140z" />
    <glyph glyph-name="uni24E6" unicode="&#x24e6;" horiz-adv-x="770" 
d="M690 300q0 -64 -24 -120t-66 -98q-41 -42 -96.5 -66t-118.5 -24q-64 0 -119.5 24t-96.5 66q-42 42 -65.5 98t-23.5 120q0 63 23.5 119t65.5 98q41 42 96.5 66.5t119.5 24.5q63 0 118.5 -24.5t96.5 -66.5q42 -42 66 -98t24 -119zM608 448h-76l-54 -218l-54 218h-80
l-53 -218l-55 218h-76l89 -336h83l52 205l53 -205h82zM744 300q0 74 -28.5 139.5t-77.5 113.5q-48 49 -113.5 77.5t-139.5 28.5q-75 0 -140 -28.5t-114 -77.5q-49 -48 -77 -113.5t-28 -139.5q0 -75 28 -140t77 -114t114 -77t140 -28q74 0 139.5 28t113.5 77q49 49 77.5 114
t28.5 140z" />
    <glyph glyph-name="uni24E7" unicode="&#x24e7;" horiz-adv-x="770" 
d="M690 300q0 -64 -24 -120t-66 -98q-41 -42 -96.5 -66t-118.5 -24q-64 0 -119.5 24t-96.5 66q-42 42 -65.5 98t-23.5 120q0 63 23.5 119t65.5 98q41 42 96.5 66.5t119.5 24.5q63 0 118.5 -24.5t96.5 -66.5q42 -42 66 -98t24 -119zM550 128l-120 172l114 164h-89l-70 -99
l-69 99h-89l113 -164l-119 -172h89l75 107l75 -107h90zM744 300q0 74 -28.5 139.5t-77.5 113.5q-48 49 -113.5 77.5t-139.5 28.5q-75 0 -140 -28.5t-114 -77.5q-49 -48 -77 -113.5t-28 -139.5q0 -75 28 -140t77 -114t114 -77t140 -28q74 0 139.5 28t113.5 77q49 49 77.5 114
t28.5 140z" />
    <glyph glyph-name="uni24E8" unicode="&#x24e8;" horiz-adv-x="770" 
d="M690 300q0 -64 -24 -120t-66 -98q-41 -42 -96.5 -66t-118.5 -24q-64 0 -119.5 24t-96.5 66q-42 42 -65.5 98t-23.5 120q0 63 23.5 119t65.5 98q41 42 96.5 66.5t119.5 24.5q63 0 118.5 -24.5t96.5 -66.5q42 -42 66 -98t24 -119zM564 515h-82l-88 -241l-86 241h-82
l131 -347l-11 -29q-4 -11 -15 -19.5t-25 -8.5h-33v-64h37q13 0 27.5 1t29.5 9q14 7 25.5 19.5t20.5 33.5zM744 300q0 74 -28.5 139.5t-77.5 113.5q-48 49 -113.5 77.5t-139.5 28.5q-75 0 -140 -28.5t-114 -77.5q-49 -48 -77 -113.5t-28 -139.5q0 -75 28 -140t77 -114
t114 -77t140 -28q74 0 139.5 28t113.5 77q49 49 77.5 114t28.5 140z" />
    <glyph glyph-name="uni24E9" unicode="&#x24e9;" horiz-adv-x="770" 
d="M690 300q0 -64 -24 -120t-66 -98q-41 -42 -96.5 -66t-118.5 -24q-64 0 -119.5 24t-96.5 66q-42 42 -65.5 98t-23.5 120q0 63 23.5 119t65.5 98q41 42 96.5 66.5t119.5 24.5q63 0 118.5 -24.5t96.5 -66.5q42 -42 66 -98t24 -119zM531 129v65h-196l184 211v65h-261v-65h165
l-183 -211v-65h291zM744 300q0 74 -28.5 139.5t-77.5 113.5q-48 49 -113.5 77.5t-139.5 28.5q-75 0 -140 -28.5t-114 -77.5q-49 -48 -77 -113.5t-28 -139.5q0 -75 28 -140t77 -114t114 -77t140 -28q74 0 139.5 28t113.5 77q49 49 77.5 114t28.5 140z" />
    <glyph glyph-name="SF100000" unicode="&#x2500;" horiz-adv-x="770" 
d="M0 315v-30h770v30h-770z" />
    <glyph glyph-name="uni2501" unicode="&#x2501;" horiz-adv-x="770" 
d="M0 331v-62h770v62h-770z" />
    <glyph glyph-name="SF110000" unicode="&#x2502;" horiz-adv-x="770" 
d="M369 685v-770h32v770h-32z" />
    <glyph glyph-name="uni2503" unicode="&#x2503;" horiz-adv-x="770" 
d="M353 685v-770h64v770h-64z" />
    <glyph glyph-name="SF010000" unicode="&#x250c;" horiz-adv-x="770" 
d="M401 285h369v30h-401v-400h32v370z" />
    <glyph glyph-name="uni250D" unicode="&#x250d;" horiz-adv-x="770" 
d="M401 269h369v62h-401v-416h32v354z" />
    <glyph glyph-name="uni250E" unicode="&#x250e;" horiz-adv-x="770" 
d="M417 285h353v30h-417v-400h64v370z" />
    <glyph glyph-name="uni250F" unicode="&#x250f;" horiz-adv-x="770" 
d="M353 331v-416h64v354h353v62h-417z" />
    <glyph glyph-name="SF030000" unicode="&#x2510;" horiz-adv-x="770" 
d="M369 285v-370h32v400h-401v-30h369z" />
    <glyph glyph-name="uni2511" unicode="&#x2511;" horiz-adv-x="770" 
d="M369 269v-354h32v416h-401v-62h369z" />
    <glyph glyph-name="uni2512" unicode="&#x2512;" horiz-adv-x="770" 
d="M353 285v-370h64v400h-417v-30h353z" />
    <glyph glyph-name="uni2513" unicode="&#x2513;" horiz-adv-x="770" 
d="M417 331h-417v-62h353v-354h64v416z" />
    <glyph glyph-name="SF020000" unicode="&#x2514;" horiz-adv-x="770" 
d="M401 315v370h-32v-400h401v30h-369z" />
    <glyph glyph-name="uni2515" unicode="&#x2515;" horiz-adv-x="770" 
d="M401 331v354h-32v-416h401v62h-369z" />
    <glyph glyph-name="uni2516" unicode="&#x2516;" horiz-adv-x="770" 
d="M417 315v370h-64v-400h417v30h-353z" />
    <glyph glyph-name="uni2517" unicode="&#x2517;" horiz-adv-x="770" 
d="M353 269h417v62h-353v354h-64v-416z" />
    <glyph glyph-name="SF040000" unicode="&#x2518;" horiz-adv-x="770" 
d="M369 315h-369v-30h401v400h-32v-370z" />
    <glyph glyph-name="uni2519" unicode="&#x2519;" horiz-adv-x="770" 
d="M369 331h-369v-62h401v416h-32v-354z" />
    <glyph glyph-name="uni251A" unicode="&#x251a;" horiz-adv-x="770" 
d="M353 315h-353v-30h417v400h-64v-370z" />
    <glyph glyph-name="uni251B" unicode="&#x251b;" horiz-adv-x="770" 
d="M417 269v416h-64v-354h-353v-62h417z" />
    <glyph glyph-name="SF080000" unicode="&#x251c;" horiz-adv-x="770" 
d="M401 315v370h-32v-770h32v370h369v30h-369z" />
    <glyph glyph-name="uni251D" unicode="&#x251d;" horiz-adv-x="770" 
d="M401 331v354h-32v-770h32v354h369v62h-369z" />
    <glyph glyph-name="uni251E" unicode="&#x251e;" horiz-adv-x="770" 
d="M417 315v370h-64v-385h16v-385h32l-1 370h370v30h-353z" />
    <glyph glyph-name="uni251F" unicode="&#x251f;" horiz-adv-x="770" 
d="M401 315v370h-32v-385h-16v-385h64v370h353v30h-369z" />
    <glyph glyph-name="uni2520" unicode="&#x2520;" horiz-adv-x="770" 
d="M353 -85h64v370h353v30h-353v370h-64v-770z" />
    <glyph glyph-name="uni2521" unicode="&#x2521;" horiz-adv-x="770" 
d="M417 331v354h-64v-385h16v-385h32v354h369v62h-353z" />
    <glyph glyph-name="uni2522" unicode="&#x2522;" horiz-adv-x="770" 
d="M401 331v354h-32v-385h-16v-385h64v354h353v62h-369z" />
    <glyph glyph-name="uni2523" unicode="&#x2523;" horiz-adv-x="770" 
d="M353 -85h64v354h353v62h-353v354h-64v-770z" />
    <glyph glyph-name="SF090000" unicode="&#x2524;" horiz-adv-x="770" 
d="M369 285v-369h32v769h-32v-370h-369v-30h369z" />
    <glyph glyph-name="uni2525" unicode="&#x2525;" horiz-adv-x="770" 
d="M369 269v-353h32v769h-32v-354h-369v-62h369z" />
    <glyph glyph-name="uni2526" unicode="&#x2526;" horiz-adv-x="770" 
d="M369 285v-370h32v385h16v385h-64v-370h-353v-30h369z" />
    <glyph glyph-name="uni2527" unicode="&#x2527;" horiz-adv-x="770" 
d="M353 285v-370h64v385h-16v385h-32v-370h-369v-30h353z" />
    <glyph glyph-name="uni2528" unicode="&#x2528;" horiz-adv-x="770" 
d="M417 -85v770h-64v-370h-353v-30h353v-370h64z" />
    <glyph glyph-name="uni2529" unicode="&#x2529;" horiz-adv-x="770" 
d="M369 269v-353h32v384h16v385h-64v-354h-353v-62h369z" />
    <glyph glyph-name="uni252A" unicode="&#x252a;" horiz-adv-x="770" 
d="M353 269v-354h64v385h-16v385h-32v-354h-369v-62h353z" />
    <glyph glyph-name="uni252B" unicode="&#x252b;" horiz-adv-x="770" 
d="M417 -85v770h-64v-354h-353v-62h353v-354h64z" />
    <glyph glyph-name="SF060000" unicode="&#x252c;" horiz-adv-x="770" 
d="M401 285h369v30h-770v-30h369v-370h32v370z" />
    <glyph glyph-name="uni252D" unicode="&#x252d;" horiz-adv-x="770" 
d="M401 285h369v30h-385v16h-385v-62h369v-354h32v370z" />
    <glyph glyph-name="uni252E" unicode="&#x252e;" horiz-adv-x="770" 
d="M401 269h369v62h-385v-16h-385v-30h369v-370h32v354z" />
    <glyph glyph-name="uni252F" unicode="&#x252f;" horiz-adv-x="770" 
d="M369 -85h32v354h369v62h-770v-62h369v-354z" />
    <glyph glyph-name="uni2530" unicode="&#x2530;" horiz-adv-x="770" 
d="M417 285h353v30h-770v-30h353v-370h64v370z" />
    <glyph glyph-name="uni2531" unicode="&#x2531;" horiz-adv-x="770" 
d="M417 285h353v30h-385v16h-385v-62h353v-354h64v370z" />
    <glyph glyph-name="uni2532" unicode="&#x2532;" horiz-adv-x="770" 
d="M353 285v-370h64v354h353v62h-385v-16h-385v-30h353z" />
    <glyph glyph-name="uni2533" unicode="&#x2533;" horiz-adv-x="770" 
d="M353 -85h64v354h353v62h-770v-62h353v-354z" />
    <glyph glyph-name="SF070000" unicode="&#x2534;" horiz-adv-x="770" 
d="M369 315h-369v-30h770v30h-369v369h-32v-369z" />
    <glyph glyph-name="uni2535" unicode="&#x2535;" horiz-adv-x="770" 
d="M369 331h-369v-62h385v16h385v30h-369v369h-32v-353z" />
    <glyph glyph-name="uni2536" unicode="&#x2536;" horiz-adv-x="770" 
d="M401 331v353h-32v-369h-369v-30h385v-16h385v62h-369z" />
    <glyph glyph-name="uni2537" unicode="&#x2537;" horiz-adv-x="770" 
d="M369 685v-354h-369v-62h770v62h-369v354h-32z" />
    <glyph glyph-name="uni2538" unicode="&#x2538;" horiz-adv-x="770" 
d="M353 315h-353v-30h770v30h-353v370h-64v-370z" />
    <glyph glyph-name="uni2539" unicode="&#x2539;" horiz-adv-x="770" 
d="M353 331h-353v-62h385v16h385v30h-353v370h-64v-354z" />
    <glyph glyph-name="uni253A" unicode="&#x253a;" horiz-adv-x="770" 
d="M417 331v354h-64v-370h-353v-30h385v-16h385v62h-353z" />
    <glyph glyph-name="uni253B" unicode="&#x253b;" horiz-adv-x="770" 
d="M353 685v-354h-353v-62h770v62h-353v354h-64z" />
    <glyph glyph-name="SF050000" unicode="&#x253c;" horiz-adv-x="770" 
d="M369 285v-370h32v370h369v30h-369v370h-32v-370h-369v-30h369z" />
    <glyph glyph-name="uni253D" unicode="&#x253d;" horiz-adv-x="770" 
d="M369 269v-354h32v370h369v30h-369v370h-32v-351h-369v-65h369z" />
    <glyph glyph-name="uni253E" unicode="&#x253e;" horiz-adv-x="770" 
d="M369 285v-370h32v354h369v62h-369v354h-32v-370h-369v-30h369z" />
    <glyph glyph-name="uni253F" unicode="&#x253f;" horiz-adv-x="770" 
d="M369 685v-354h-369v-62h369v-354h32v354h369v62h-369v354h-32z" />
    <glyph glyph-name="uni2540" unicode="&#x2540;" horiz-adv-x="770" 
d="M369 285v-370h32v370h369v30h-353v370h-64v-370h-353v-30h369z" />
    <glyph glyph-name="uni2541" unicode="&#x2541;" horiz-adv-x="770" 
d="M369 315h-369v-30h353v-370h64v370h353v30h-369v370h-32v-370z" />
    <glyph glyph-name="uni2542" unicode="&#x2542;" horiz-adv-x="770" 
d="M353 285v-370h64v370h353v30h-353v370h-64v-370h-353v-30h353z" />
    <glyph glyph-name="uni2543" unicode="&#x2543;" horiz-adv-x="770" 
d="M401 285h369v30h-353v370h-64v-354h-353v-62h369v-354h32v370z" />
    <glyph glyph-name="uni2544" unicode="&#x2544;" horiz-adv-x="770" 
d="M369 285v-370h32v354h369v62h-353v354h-64v-370h-353v-30h369z" />
    <glyph glyph-name="uni2545" unicode="&#x2545;" horiz-adv-x="770" 
d="M401 315v370h-32v-354h-369v-62h353v-354h64v370h353v30h-369z" />
    <glyph glyph-name="uni2546" unicode="&#x2546;" horiz-adv-x="770" 
d="M369 315h-369v-30h353v-370h64v354h353v62h-369v354h-32v-370z" />
    <glyph glyph-name="uni2547" unicode="&#x2547;" horiz-adv-x="770" 
d="M369 269v-354h32v354h369v62h-353v354h-64v-354h-353v-62h369z" />
    <glyph glyph-name="uni2548" unicode="&#x2548;" horiz-adv-x="770" 
d="M369 331h-369v-62h353v-354h64v354h353v62h-369v354h-32v-354z" />
    <glyph glyph-name="uni2549" unicode="&#x2549;" horiz-adv-x="770" 
d="M417 285h353v30h-353v370h-64v-354h-353v-62h353v-354h64v370z" />
    <glyph glyph-name="uni254A" unicode="&#x254a;" horiz-adv-x="770" 
d="M353 285v-370h64v354h353v62h-353v354h-64v-370h-353v-30h353z" />
    <glyph glyph-name="uni254B" unicode="&#x254b;" horiz-adv-x="770" 
d="M353 685v-354h-353v-62h353v-354h64v354h353v62h-353v354h-64z" />
    <glyph glyph-name="shade" unicode="&#x2592;" horiz-adv-x="770" 
d="M704 -16v633h-638v-633h638z" />
    <glyph glyph-name="filledbox" unicode="&#x25a0;" horiz-adv-x="770" 
d="M554 130v348h-350v-348h350z" />
    <glyph glyph-name="H22073" unicode="&#x25a1;" horiz-adv-x="770" 
d="M554 130v348h-350v-348h350zM246 169v270h267v-270h-267z" />
    <glyph glyph-name="uni25A3" unicode="&#x25a3;" horiz-adv-x="770" 
d="M100 585v-570h570v570h-570zM634 550v-500h-498v500h498zM239 446v-292h292v292h-292z" />
    <glyph glyph-name="uni25A4" unicode="&#x25a4;" horiz-adv-x="770" 
d="M701 -15v630h-632v-630h632zM678 73v-63h-586v63h586zM678 159v-62h-586v62h586zM678 245v-62h-586v62h586zM678 332v-63h-586v63h586zM678 418v-63h-586v63h586zM678 504v-62h-586v62h586zM678 590v-62h-586v62h586z" />
    <glyph glyph-name="uni25A5" unicode="&#x25a5;" horiz-adv-x="770" 
d="M700 616h-630v-632h630v632zM612 593h63v-586h-63v586zM526 593h62v-586h-62v586zM440 593h62v-586h-62v586zM353 593h63v-586h-63v586zM267 593h63v-586h-63v586zM181 593h62v-586h-62v586zM95 593h62v-586h-62v586z" />
    <glyph glyph-name="uni25A6" unicode="&#x25a6;" horiz-adv-x="770" 
d="M701 -15v630h-632v-630h632zM353 73h64v-63h-64v63zM591 73v-63h-64v63h64zM440 10v63h64v-63h-64zM179 10v63h64v-63h-64zM92 10v63h64v-63h-64zM266 10v63h64v-63h-64zM678 73v-63h-64v63h64zM353 159h64v-62h-64v62zM591 159v-62h-64v62h64zM440 97v62h64v-62h-64z
M179 97v62h64v-62h-64zM92 97v62h64v-62h-64zM266 97v62h64v-62h-64zM678 159v-62h-64v62h64zM353 245h64v-62h-64v62zM591 245v-62h-64v62h64zM440 183v62h64v-62h-64zM179 183v62h64v-62h-64zM92 183v62h64v-62h-64zM266 183v62h64v-62h-64zM678 245v-62h-64v62h64z
M353 332h64v-63h-64v63zM591 332v-63h-64v63h64zM440 269v63h64v-63h-64zM179 269v63h64v-63h-64zM92 269v63h64v-63h-64zM266 269v63h64v-63h-64zM678 332v-63h-64v63h64zM353 418h64v-63h-64v63zM591 418v-63h-64v63h64zM440 355v63h64v-63h-64zM179 355v63h64v-63h-64z
M92 355v63h64v-63h-64zM266 355v63h64v-63h-64zM678 418v-63h-64v63h64zM353 504h64v-62h-64v62zM591 504v-62h-64v62h64zM440 442v62h64v-62h-64zM179 442v62h64v-62h-64zM92 442v62h64v-62h-64zM266 442v62h64v-62h-64zM678 504v-62h-64v62h64zM353 590h64v-62h-64v62z
M591 590v-62h-64v62h64zM440 528v62h64v-62h-64zM179 528v62h64v-62h-64zM92 528v62h64v-62h-64zM266 528v62h64v-62h-64zM678 590v-62h-64v62h64z" />
    <glyph glyph-name="uni25A7" unicode="&#x25a7;" horiz-adv-x="770" 
d="M69 615v-631h630v631h-630zM192 591l486 -486v-79l-566 565h80zM581 7l-486 486v80l565 -566h-79zM95 457l449 -450h-79l-370 371v79zM95 111l103 -104h-103v104zM234 7l-139 140v79l218 -219h-79zM429 7h-79l-255 255v80zM675 488l-104 103h104v-103zM535 591l140 -139
v-80l-219 219h79zM340 591h80l255 -255v-79zM678 141l-450 450h79l371 -370v-80z" />
    <glyph glyph-name="uni25A8" unicode="&#x25a8;" horiz-adv-x="770" 
d="M700 616h-630v-632h630v632zM578 592h79l-565 -565v79zM189 8h-80l566 565v-79zM675 458v-79l-371 -371h-79zM675 111v-103h-104zM535 8h-79l219 219v-79zM340 8l335 334v-79l-255 -255h-80zM95 489v103h103zM234 592h79l-218 -219v79zM429 592l-334 -334v79l255 255h79z
M92 142v79l370 371h79z" />
    <glyph glyph-name="uni25A9" unicode="&#x25a9;" horiz-adv-x="770" 
d="M704 -16v633h-638v-633h638zM608 373l55 54l11 -9v-87l-13 -12zM661 173l-55 55l55 54l13 -13v-84zM393 590h107l11 -11l-53 -53zM161 375l-56 -56l-12 13v86l13 11zM93 125l14 13l46 -48l-60 -62v97zM105 173l-12 12v84l13 13l55 -54zM209 590l10 -10l-47 -49l-60 59h97
zM312 526l-54 54l8 10h89l10 -10zM534 11l60 60l60 -60h-120zM93 477v95l60 -60l-47 -48zM312 75l53 -54l-10 -10h-89l-8 9zM210 11h-97l59 60l47 -51zM393 11l64 66l54 -54l-11 -12h-107zM674 125v-97l-60 62l46 48zM534 590h120l-60 -60zM674 477l-13 -13l-47 48l60 60
v-95zM239 561l54 -54l-49 -48l-54 54zM171 494l55 -54l-48 -48l-54 55zM384 561l55 -55l-54 -54l-54 54zM312 488l54 -55l-48 -48l-55 54zM244 421l55 -55l-47 -48l-55 55zM179 355l55 -54l-55 -55l-54 55zM457 489l47 -49l-54 -54l-46 48zM385 416l46 -49l-48 -48l-47 48z
M317 349l47 -49l-47 -48l-47 49zM253 283l47 -48l-55 -54l-47 47zM524 422l47 -49l-54 -54l-46 48zM452 349l46 -49l-48 -48l-47 48zM384 282l47 -49l-47 -48l-47 49zM320 217l47 -49l-55 -55l-47 49zM591 355l54 -53l-54 -54l-54 53zM518 282l54 -54l-48 -47l-54 53z
M450 215l55 -54l-47 -47l-55 54zM386 150l54 -54l-54 -55l-55 54zM590 210l54 -54l-48 -48l-55 53zM522 143l55 -54l-47 -48l-55 54zM530 561l47 -48l-54 -54l-46 47zM597 494l47 -48l-54 -54l-46 47zM179 210l47 -49l-55 -54l-47 48zM246 143l47 -49l-55 -54l-47 48z" />
    <glyph glyph-name="triagup" unicode="&#x25b2;" horiz-adv-x="770" 
d="M385 567l-293 -499h585z" />
    <glyph glyph-name="uni25B3" unicode="&#x25b3;" horiz-adv-x="770" 
d="M385 567l-293 -499h585zM385 500l233 -399h-468z" />
    <glyph glyph-name="uni25B6" unicode="&#x25b6;" horiz-adv-x="770" 
d="M651 300l-497 291v-584z" />
    <glyph glyph-name="uni25B7" unicode="&#x25b7;" horiz-adv-x="770" 
d="M651 300l-497 291v-584zM592 300l-410 -241v480z" />
    <glyph glyph-name="triagdn" unicode="&#x25bc;" horiz-adv-x="770" 
d="M385 32l292 499h-585z" />
    <glyph glyph-name="uni25BD" unicode="&#x25bd;" horiz-adv-x="770" 
d="M385 32l292 499h-585zM385 99l-235 399h468z" />
    <glyph glyph-name="uni25C0" unicode="&#x25c0;" horiz-adv-x="770" 
d="M119 300l497 -293v584z" />
    <glyph glyph-name="uni25C1" unicode="&#x25c1;" horiz-adv-x="770" 
d="M119 300l497 -293v584zM178 300l410 239v-480z" />
    <glyph glyph-name="uni25C6" unicode="&#x25c6;" horiz-adv-x="770" 
d="M383 557l-254 -256l256 -258l256 257z" />
    <glyph glyph-name="uni25C7" unicode="&#x25c7;" horiz-adv-x="770" 
d="M383 557l-254 -256l256 -258l256 257zM182 302l203 200l205 -203l-203 -202z" />
    <glyph glyph-name="uni25C8" unicode="&#x25c8;" horiz-adv-x="770" 
d="M385 656l-356 -357l356 -355l356 356zM696 299l-311 -310l-311 310l311 312zM385 489l-190 -190l190 -190l190 190z" />
    <glyph glyph-name="circle" unicode="&#x25cb;" horiz-adv-x="770" 
d="M385 531q-47 0 -87.5 -18t-70.5 -48q-31 -30 -48 -70.5t-17 -86.5q0 -47 17 -87.5t48 -71.5q30 -30 70.5 -47.5t87.5 -17.5q46 0 86.5 17.5t71.5 47.5q30 31 47.5 71.5t17.5 87.5q0 46 -17.5 86.5t-47.5 70.5q-31 30 -71.5 48t-86.5 18zM385 493q38 0 71.5 -15t58.5 -40
t40 -58.5t15 -71.5q0 -39 -15 -73t-40 -59t-58.5 -39.5t-71.5 -14.5q-39 0 -72.5 14.5t-58.5 39.5t-39.5 59t-14.5 73q0 38 14.5 71.5t39.5 58.5t58.5 40t72.5 15z" />
    <glyph glyph-name="uni25CE" unicode="&#x25ce;" horiz-adv-x="770" 
d="M374 632q-67 -3 -125.5 -29t-101.5 -71q-44 -44 -69 -102.5t-26 -125.5q-2 -68 23 -128t69 -106q44 -45 103 -72.5t127 -28.5q70 -2 133 23t111 70q47 45 74 107.5t26 134.5q-1 70 -29 131t-75 105t-109 68.5t-131 23.5zM89 302q1 59 23 111.5t61 91.5q38 39 89.5 62.5
t111.5 25.5q61 1 116.5 -20.5t97.5 -60.5q41 -40 65.5 -94t25.5 -116q0 -63 -24 -118t-66 -95q-41 -40 -96.5 -62.5t-118.5 -19.5q-61 1 -113.5 25.5t-90.5 64.5q-39 40 -60.5 92.5t-20.5 112.5zM163 302q-1 -45 15.5 -84.5t44.5 -69.5q29 -30 67.5 -47.5t82.5 -18.5
q47 -2 88.5 14.5t71.5 46.5q31 30 49 70.5t18 88.5q0 46 -18.5 85.5t-50.5 68.5q-31 29 -72 45t-86 15q-44 -2 -82 -19t-67 -46q-28 -29 -44.5 -67.5t-16.5 -81.5zM373 479q38 1 72 -12.5t60 -38.5q25 -24 40.5 -57t15.5 -71q0 -39 -15 -72.5t-40 -58.5q-26 -25 -60 -38.5
t-73 -12.5q-37 1 -68.5 15.5t-55.5 39.5q-23 25 -36.5 57.5t-13.5 69.5q0 36 13.5 68t36.5 56q24 24 55.5 38.5t68.5 16.5z" />
    <glyph glyph-name="H18533" unicode="&#x25cf;" horiz-adv-x="770" 
d="M385 531q-47 0 -87.5 -18t-70.5 -48q-31 -30 -48 -70.5t-17 -86.5q0 -47 17 -87.5t48 -71.5q30 -30 70.5 -47.5t87.5 -17.5q46 0 86.5 17.5t71.5 47.5q30 31 47.5 71.5t17.5 87.5q0 46 -17.5 86.5t-47.5 70.5q-31 30 -71.5 48t-86.5 18z" />
    <glyph glyph-name="uni25D0" unicode="&#x25d0;" horiz-adv-x="770" 
d="M386 615q-66 0 -124 -24.5t-101 -67.5q-44 -43 -68.5 -100t-24.5 -123t24.5 -123.5t68.5 -100.5q43 -43 101 -67.5t124 -24.5q64 0 121.5 25t100.5 68t68 100.5t25 122.5q0 64 -25 121.5t-68 100.5t-100.5 68t-121.5 25zM386 17v565q57 -2 107.5 -24.5t88.5 -60.5
t60.5 -89t22.5 -108q0 -59 -22.5 -110t-60.5 -89t-88.5 -60.5t-107.5 -23.5z" />
    <glyph glyph-name="uni25D1" unicode="&#x25d1;" horiz-adv-x="770" 
d="M383 615q-65 0 -122.5 -25t-99.5 -68q-43 -43 -67.5 -100.5t-24.5 -121.5q0 -65 24.5 -122.5t67.5 -100.5q42 -43 99.5 -68t122.5 -25q66 0 123.5 24.5t101.5 67.5q43 43 68 100.5t25 123.5t-25 123t-68 100q-44 43 -101.5 67.5t-123.5 24.5zM383 17q-58 1 -108.5 23.5
t-88.5 60.5t-59.5 89t-21.5 110q0 57 21.5 108t59.5 89t88.5 60.5t108.5 24.5v-565z" />
    <glyph glyph-name="uni2605" unicode="&#x2605;" horiz-adv-x="770" 
d="M394 596l-74 -218h-238l190 -141l-79 -227l201 141l201 -141l-79 227l190 141h-238z" />
    <glyph glyph-name="uni2606" unicode="&#x2606;" horiz-adv-x="770" 
d="M394 596l-74 -218h-238l190 -141l-79 -227l201 141l201 -141l-79 227l190 141h-238zM532 92l-138 98l-140 -99l57 157l-137 98h169l51 150l51 -150h169l-137 -98z" />
    <glyph glyph-name="uni260E" unicode="&#x260e;" horiz-adv-x="770" 
d="M601 333l61 -2q19 0 32.5 4t13.5 25q-11 -3 -32.5 -4t-37.5 -1q-27 1 -45.5 3.5t-38.5 10.5q2 -21 14.5 -28.5t32.5 -7.5zM171 333q18 0 31 7.5t16 28.5q-21 -8 -39.5 -10.5t-45.5 -3.5q-16 0 -37.5 1t-32.5 4q0 -21 13 -25t33 -4zM175 67h422h8t5 3l1 8t3 18
q1 10 2.5 20t1.5 16l-58 170q-4 9 -8 14.5t-9 10.5q-5 4 -10.5 9t-12.5 13q-8 7 -12.5 11.5t-7.5 9.5q-2 4 -3 9.5t-1 15.5v40q20 -4 36.5 -18.5t18.5 -32.5q23 -7 39.5 -10t43.5 -3q16 -1 38 0t34 4q-3 25 -7 43.5t-13 31.5q-8 14 -23.5 23.5t-41.5 17.5
q-57 15 -117.5 22.5t-117.5 7.5q-56 0 -117.5 -7.5t-117.5 -22.5q-27 -8 -42.5 -17.5t-24.5 -23.5q-9 -13 -12.5 -31.5t-6.5 -43.5q11 -3 33.5 -4t38.5 0q27 0 43.5 3t40.5 10q1 18 17.5 32.5t37.5 18.5v-40q0 -10 -1.5 -15.5t-3.5 -9.5q-3 -5 -7.5 -9.5l-11.5 -11.5
q-8 -8 -13.5 -13t-10.5 -9q-5 -5 -9 -10.5t-7 -14.5l-59 -170q0 -6 1 -16t3 -20q1 -10 2.5 -18t2.5 -8q0 -3 4 -3h9zM386 354q40 0 68.5 -29.5t28.5 -68.5q0 -42 -29 -71t-71 -29t-69 31t-27 71t29.5 68t69.5 28zM385 446q11 0 22 -0.5t21 -1.5t18.5 -2t16.5 -1l-10 -57
l-68 3l-68 -4l-10 57q7 0 15.5 1t18.5 2t21 2t23 1z" />
    <glyph glyph-name="uni260F" unicode="&#x260f;" horiz-adv-x="770" 
d="M175 69h422q1 0 3.5 -0.5t4.5 -0.5t3.5 0.5t1.5 2.5q0 1 1 8.5t3 17.5q1 10 2.5 19.5t1.5 15.5l-58 170q-4 9 -8 15.5t-9 11.5t-11 9.5t-12 10.5q-17 12 -20.5 19.5t-3.5 26.5v40q26 -7 38.5 -19.5t16.5 -31.5q5 -33 16.5 -42t33.5 -9l61 -2q19 -1 34 5t10 39
q-6 51 -24.5 76.5t-60.5 37.5q-55 15 -116.5 23.5t-118.5 8.5q-56 0 -118.5 -8.5t-116.5 -23.5q-44 -12 -62 -37.5t-24 -76.5q-5 -33 9.5 -39t34.5 -5l62 2q21 0 32.5 9t17.5 42q3 19 15.5 31.5t39.5 19.5v-40q0 -19 -4.5 -26.5t-19.5 -19.5q-8 -6 -13.5 -10.5t-10.5 -9.5
t-9 -11.5t-7 -15.5l-59 -170q0 -6 1 -15.5t3 -19.5q1 -10 2.5 -17.5t2.5 -8.5q0 -2 1 -2.5t3 -0.5t4 0.5t5 0.5zM386 499q45 0 99 -5.5t101 -17.5q43 -12 65.5 -29t29.5 -56q3 -26 -1.5 -34t-22.5 -7l-49 2q-17 0 -24.5 8t-12.5 38q-6 30 -34 43t-60 19q-41 6 -91.5 6
t-91.5 -6q-32 -6 -60.5 -19t-33.5 -43q-6 -30 -13 -38t-23 -8l-49 -2q-20 -1 -24.5 7t0.5 34q6 39 28 56t67 29t99 17.5t101 5.5zM181 92l-5 35l53 158q4 13 9.5 21t11.5 14t12 10.5t14 9.5q15 11 19 25t4 34v42l10 1l8 -55l6.5 0.5t16.5 1.5q9 0 21 1t24 1q11 0 22.5 -0.5
t21.5 -1.5t16.5 -1h7.5l10 54q1 0 2 -0.5t3 -0.5h2h3v-42q0 -20 3.5 -34t19.5 -25q6 -5 12.5 -9.5t12.5 -10.5t11 -14t10 -21l54 -158l-5 -35h-410zM385 410q-12 0 -26.5 -1t-22.5 -1l-7 38h8t13 1q8 1 17 1.5t18 0.5q8 0 16.5 -0.5t16.5 -1.5t14 -1h9l-7 -38q-8 0 -22.5 1
t-26.5 1zM386 354q-40 0 -69.5 -28t-29.5 -68t27 -71t69 -31t71 29t29 71q0 39 -28.5 68.5t-68.5 29.5zM386 332q30 0 52.5 -23t22.5 -53q0 -33 -22.5 -55.5t-55.5 -22.5t-54 24t-21 56q0 31 23 52.5t55 21.5z" />
    <glyph glyph-name="uni261C" unicode="&#x261c;" horiz-adv-x="770" 
d="M280 342q-18 -3 -34 -10.5t-16 -23.5q0 -18 11.5 -22.5t12.5 -4.5q-1 -1 -5.5 -11t5.5 -24q6 -10 12.5 -12t7.5 -2q-1 0 -6 -5.5t-2 -17.5q3 -15 16.5 -21t28.5 -6q1 -1 19 -1.5t42 -1.5q24 0 49 0.5t40 2.5q31 4 53.5 10.5t38.5 13.5q16 6 25 11t13 7h2h4h4.5h3.5v-16
h80v187h-79v-24q-1 0 -5.5 -0.5t-10.5 0.5q-6 0 -12 1t-9 4q-26 19 -52.5 28.5t-50.5 13.5q-25 3 -47 3h-40q-32 0 -66.5 -0.5t-64.5 -1.5q-31 0 -54.5 -0.5t-33.5 -0.5q-7 -1 -22.5 -1.5t-31.5 -3.5q-15 -3 -27.5 -9t-13.5 -18q-2 -16 10 -24t28 -11q17 -3 34 -3.5t27 -0.5
q16 -1 32.5 -2t32.5 -1q16 -1 29 -1.5t22 -0.5zM339 402q-6 -3 -12.5 -8t-10.5 -11q-7 -9 -11 -16l-4 -7q-2 0 -15 0.5t-33 0.5q-20 1 -44 2l-48 2q-43 2 -58.5 5t-14.5 14q0 9 18 11.5t55 3.5q21 1 47.5 1.5t51.5 0.5t46.5 0.5t32.5 0.5zM526 382l15 -10t11 -7q4 -3 7.5 -5
t7.5 -3q5 -2 9.5 -3t9.5 -1q4 -1 9 -0.5t11 0.5v-109h-19q-2 -2 -12.5 -8t-30.5 -14q-19 -8 -45.5 -15t-59.5 -9q-8 -1 -12.5 -1h-9.5q1 1 3 2.5t3 4.5q2 2 2.5 6t0.5 11q-2 14 -12.5 19l-10.5 5l6.5 5.5t3.5 17.5q-3 11 -12 15.5l-9 4.5q3 3 6 10.5t-1 20.5q-2 6 -7.5 9.5
t-11.5 6.5q-7 2 -13.5 3.5t-11.5 3.5l7 6l1.5 -1t5.5 -2q3 -1 8 -1.5t13 -0.5q1 0 3.5 0.5t4.5 1.5q2 0 3.5 1t2.5 1q0 -2 19 -22.5t58 -32.5q21 -6 46.5 -7.5t25.5 7.5q0 4 -6 6t-16 3t-23.5 3t-27.5 8q-13 3 -22.5 8.5t-16.5 10.5q-6 5 -10 9t-4 5l3.5 8.5t3.5 13.5
q-1 3 -4.5 2.5t-9.5 -2.5q-5 -2 -11.5 -4.5t-12.5 -3.5q-2 -1 -6 -0.5t-8 0.5q-4 1 -7 1.5l-3 0.5l0.5 1.5t0.5 3.5t-0.5 4t-2.5 3q-6 1 -10 -2t-8 -7l-10 -10t-11 -7q-12 -6 -15.5 -4l-3.5 2q6 5 9.5 10.5t6.5 10.5q3 6 6 10.5t8 8.5q4 3 9.5 5.5t11.5 4.5q5 2 10 3.5
t10 3.5q42 4 82.5 -2t62.5 -18zM404 219q2 -11 -9 -15.5t-16 -4.5q-1 -1 -11.5 -1h-24.5q-14 1 -27.5 2t-19.5 3q-8 2 -7.5 13.5t10.5 11.5l49 1h38q3 0 10 -2t8 -8zM392 261q-2 -8 -16.5 -10.5t-20.5 -2.5q-1 0 -12 -0.5t-24 0.5q-14 0 -26 0.5t-14 2.5q-14 7 -8.5 16.5
t17.5 9.5h75q10 0 20 -4t9 -12zM360 323q16 -3 18.5 -11.5t-5.5 -14.5q-3 -2 -22 -2h-41h-30.5t-9.5 1q-11 0 -16.5 7.5t2.5 13.5q6 5 19 7t19 2h6.5h16.5q9 0 20.5 -1t22.5 -2zM650 379v-154h-25v154h25z" />
    <glyph glyph-name="uni261E" unicode="&#x261e;" horiz-adv-x="770" 
d="M489 342q8 0 21 0.5t28 1.5q16 0 32.5 1t33.5 2q10 0 27 0.5t33 3.5q17 3 28.5 11t10.5 24q-1 12 -13.5 18t-28.5 9t-31.5 3.5t-21.5 1.5q-11 0 -34.5 0.5t-53.5 0.5q-31 1 -65 1.5t-65 0.5h-41t-47 -3q-25 -4 -51 -13.5t-52 -28.5q-3 -3 -9 -4t-12 -1q-6 -1 -10.5 -0.5
t-5.5 0.5v24h-79v-187h80v16h3h4h5h3q3 -2 12 -7t25 -11q15 -7 38 -13.5t54 -10.5q15 -2 39.5 -2.5t48.5 -0.5q24 1 42 1.5t20 1.5q15 0 28 6t17 21q3 12 -2.5 17.5l-5.5 5.5l6.5 2t13.5 12q9 14 4.5 24t-4.5 11q1 0 12.5 4.5t11.5 22.5q0 16 -16 23.5t-33 10.5zM430 402
q10 0 31 -0.5t47 -0.5q25 0 51.5 -0.5t48.5 -1.5q36 -1 54 -3.5t19 -11.5q0 -11 -15.5 -14t-57.5 -5q-24 -1 -48.5 -2t-44.5 -2q-21 0 -34 -0.5t-14 -0.5l-4 7t-10 16q-5 6 -11.5 11t-11.5 8zM243 382q21 12 61 18t83 2q4 -2 9.5 -3.5t10.5 -3.5t10.5 -4.5t10.5 -5.5
q4 -4 7 -8.5t6 -10.5q3 -5 7 -10.5t10 -10.5l-3 -2t-15 4q-7 2 -12 7l-10 10q-4 4 -8.5 7t-9.5 2q-3 -1 -3.5 -3t-0.5 -4t1 -3.5l1 -1.5q-1 0 -4 -0.5t-7 -1.5q-3 0 -7 -0.5t-6 0.5q-6 1 -12.5 3.5t-12.5 4.5q-5 2 -9 2.5t-4 -2.5q0 -5 3.5 -13.5l3.5 -8.5q-1 -2 -15 -14
t-38 -19q-15 -6 -28.5 -8t-23.5 -3t-15.5 -3t-5.5 -6q0 -9 26 -7.5t47 7.5q19 6 33 15t24 17q9 9 14 15.5t6 7.5l4.5 -2t8.5 -2q7 0 12 0.5t9 1.5q3 1 4.5 2t2.5 1l7 -6q-6 -2 -12.5 -3.5t-12.5 -3.5q-7 -3 -12 -6.5t-7 -9.5q-4 -13 -1 -20.5t7 -10.5q-1 0 -9.5 -4.5
t-11.5 -15.5q-3 -12 2.5 -17.5t6.5 -5.5q-1 0 -11.5 -5t-10.5 -19q-1 -7 -0.5 -11t1.5 -6q2 -3 4 -4.5t4 -2.5h-10.5t-11.5 1q-33 2 -60 9t-46 15q-20 8 -30.5 14t-11.5 8h-20v109q6 0 10.5 -0.5t9.5 0.5q4 0 9 1t11 3q3 1 6.5 3t7.5 5t10.5 7t16.5 10zM364 219q0 6 7.5 8
t11.5 2h37l50 -1q9 0 9.5 -11.5t-7.5 -13.5q-7 -2 -20.5 -3t-27.5 -2h-24t-10 1q-6 0 -17 4.5t-9 15.5zM377 261q-3 8 7.5 12t21.5 4h74q12 0 17 -9.5t-7 -16.5q-3 -2 -15.5 -2.5t-25.5 -0.5q-14 -1 -25 -0.5l-11 0.5q-6 0 -20.5 2.5t-15.5 10.5zM408 323q10 1 21.5 2
t21.5 1h16h7q6 0 19 -2t20 -7q6 -6 0.5 -13.5t-15.5 -7.5q0 -1 -9.5 -1h-29.5h-42.5t-21.5 2q-9 6 -6 14.5t19 11.5zM119 379h24v-154h-24v154z" />
    <glyph glyph-name="female" unicode="&#x2640;" horiz-adv-x="770" 
d="M428 337q24 1 46 15t39 36t27.5 50.5t10.5 59.5q0 33 -13.5 63t-35.5 52q-23 23 -53 36.5t-63 13.5q-35 0 -65 -13.5t-52 -35.5q-23 -23 -35.5 -53t-12.5 -63q0 -32 10 -60t27 -50t39 -35.5t46 -14.5v-47h-217v-85h217v-273h85v273h217v85h-217v46zM463 498
q0 -33 -22 -55.5t-55 -22.5q-34 0 -55.5 22.5t-21.5 55.5q0 30 21.5 53.5t55.5 23.5q33 0 55 -23.5t22 -53.5z" />
    <glyph glyph-name="male" unicode="&#x2642;" horiz-adv-x="770" 
d="M343 263q-24 -3 -46 -17t-40 -36q-17 -21 -27 -49t-10 -58q0 -35 12.5 -65t35.5 -52q22 -22 52 -34.5t65 -12.5q34 0 64 12.5t52 34.5q23 23 36 52.5t13 64.5q0 30 -10.5 58t-28.5 49q-17 22 -39 36t-45 17v235l127 -158l61 64l-230 278l-230 -279l61 -58l127 154v-236z
M464 103q0 -32 -23 -55.5t-56 -23.5q-34 0 -56.5 23.5t-22.5 55.5t23 55t56 23q32 0 55.5 -23t23.5 -55z" />
    <glyph glyph-name="spade" unicode="&#x2660;" horiz-adv-x="770" 
d="M578 -14l-4 11q-40 3 -69.5 10t-49.5 23q-19 16 -28.5 45.5t-9.5 78.5q13 -13 42.5 -20t69.5 -7q46 0 76 32t30 80q0 51 -29.5 88.5t-67.5 70.5q-53 42 -97 103.5t-56 133.5q-12 -72 -56.5 -133.5t-96.5 -103.5q-39 -33 -68 -70.5t-29 -88.5q0 -48 29.5 -80t76.5 -32
q39 0 68.5 7t43.5 20q0 -49 -10 -78.5t-29 -45.5q-20 -16 -49.5 -23t-68.5 -10l-3 -11h385z" />
    <glyph glyph-name="uni2661" unicode="&#x2661;" horiz-adv-x="770" 
d="M385 7q8 33 24.5 62t38.5 58q22 28 47 56t51 58q18 21 36.5 46t33.5 52t24 55.5t9 58.5q-1 54 -37.5 89t-90.5 35q-44 0 -81 -23.5t-55 -67.5q-17 45 -54 68t-82 23q-54 0 -91 -35.5t-37 -88.5q-1 -30 8 -58.5t24 -55.5t33.5 -52t37.5 -46q25 -30 50 -58.5t47 -56.5
t38.5 -57.5t25.5 -61.5zM385 79q-11 23 -26 44t-33 43q-18 21 -38.5 44t-41.5 49q-33 39 -63.5 85.5t-30.5 97.5q0 46 27 76t80 30q24 -1 45 -14t37 -31q17 -19 28 -41.5t16 -42.5q4 20 15 42t27 41q16 18 37 30.5t47 14.5q54 3 80.5 -28t26.5 -77q0 -51 -31 -97.5
t-63 -85.5q-22 -26 -42 -49t-38 -44q-17 -22 -32 -43.5t-27 -43.5z" />
    <glyph glyph-name="club" unicode="&#x2663;" horiz-adv-x="770" 
d="M416 185q13 -26 47.5 -38t70.5 -12q28 0 52.5 10.5t42.5 28.5q18 19 28.5 43t10.5 51t-11 50.5t-28 41.5q-17 17 -38.5 27.5t-43.5 12.5q-17 1 -29 -1t-21 -5q10 13 15.5 29.5t5.5 42.5q0 27 -11.5 51t-30.5 41t-42.5 27t-47.5 10q-25 0 -49 -10t-43 -28
q-19 -17 -30.5 -41t-11.5 -51q0 -23 4 -38t16 -32q-10 4 -23.5 5t-25.5 1q-54 -6 -87.5 -45.5t-33.5 -87.5q0 -55 39.5 -93.5t97.5 -38.5q34 0 67.5 12t47.5 37q0 -56 -10 -90.5t-30 -55.5q-19 -20 -49 -29.5t-69 -12.5l-3 -11h385l-4 11q-40 3 -70 12.5t-49 30.5
q-20 20 -29.5 55t-9.5 90z" />
    <glyph glyph-name="uni2664" unicode="&#x2664;" horiz-adv-x="770" 
d="M578 -14l-4 11q-40 3 -67 9.5t-43 23.5q-17 16 -23.5 45t-6.5 79q11 -9 35.5 -18t59.5 -9q46 0 76 32t30 80q0 51 -29.5 88.5t-67.5 69.5q-53 42 -97 104t-56 134q-12 -72 -56.5 -134t-96.5 -104q-39 -32 -68 -69.5t-29 -88.5q0 -48 29.5 -80t76.5 -32q34 0 58.5 9
t36.5 18q0 -50 -7 -79t-24 -45q-16 -17 -43 -23.5t-66 -9.5l-3 -11h385zM457 6h-143l5 3q28 15 36 63.5t8 132.5q-12 -20 -37.5 -31t-50.5 -15q-42 -11 -75 10.5t-33 61.5q0 29 8 51.5t21 40.5q14 18 30 32t33 27q45 36 80.5 82t45.5 80q11 -34 46.5 -80t80.5 -82
q15 -13 31.5 -27t29.5 -32q14 -18 22.5 -40.5t8.5 -51.5q0 -40 -33 -61.5t-75 -10.5q-26 4 -51.5 15t-37.5 31q0 -84 8.5 -132.5t36.5 -63.5z" />
    <glyph glyph-name="heart" unicode="&#x2665;" horiz-adv-x="770" 
d="M385 7q8 33 24.5 62t38.5 58q22 28 47 56t51 58q36 43 69.5 97.5t33.5 114.5q0 54 -37 89t-91 35q-51 0 -88 -36.5t-48 -84.5q-12 47 -48.5 83.5t-87.5 36.5q-54 0 -91 -35t-37 -89q0 -60 33 -114.5t70 -97.5q25 -30 50 -58t47 -56t38.5 -57.5t25.5 -61.5z" />
    <glyph glyph-name="uni2667" unicode="&#x2667;" horiz-adv-x="770" 
d="M431 185q19 -24 46 -37t57 -13q28 0 52.5 10.5t42.5 28.5q18 19 28.5 43t10.5 51t-11 50.5t-28 41.5q-17 17 -38.5 27.5t-43.5 12.5q-17 1 -29 -1t-21 -5q10 13 15.5 29.5t5.5 42.5q0 27 -11.5 51t-30.5 41t-42.5 27t-47.5 10q-25 0 -49 -10t-43 -28q-19 -17 -30.5 -41
t-11.5 -51q0 -22 4 -37.5t16 -32.5q-10 4 -23.5 5t-25.5 1q-54 -6 -87.5 -45.5t-33.5 -87.5q0 -55 39.5 -93.5t97.5 -38.5q30 0 57 14t43 35q0 -56 -7.5 -90.5t-24.5 -55.5q-17 -20 -44.5 -29.5t-66.5 -12.5l-3 -11h385l-4 11q-40 3 -67.5 12.5t-44.5 30.5q-17 20 -24 55
t-7 90zM321 384q-17 13 -27.5 34t-10.5 45q0 42 30 72.5t72 30.5t72 -30.5t30 -72.5q0 -24 -11 -45.5t-29 -35.5l27 -33q12 9 27.5 14.5t32.5 5.5q42 0 73 -30.5t31 -71.5q0 -42 -31 -72t-73 -30q-30 0 -55 16.5t-36 40.5h-39q0 -78 8 -132.5t35 -75.5l5 -3h-133l5 3
q27 21 35 75.5t8 132.5h-40q-13 -26 -37 -41t-54 -15q-42 0 -72 29.5t-30 72.5q0 41 30 71.5t72 30.5q16 0 31.5 -5t28.5 -14z" />
    <glyph glyph-name="uni2668" unicode="&#x2668;" horiz-adv-x="770" 
d="M295 613q-3 -1 -5.5 -7t-5.5 -15t-6.5 -19t-7.5 -19q-26 -49 -33 -103t15 -111q10 -27 12 -54t0 -52q-3 -24 -8.5 -44.5t-9.5 -33.5q-7 -18 -8 -34.5t2 -29.5q2 -13 6 -20.5t7 -6.5q5 1 6.5 4.5t3.5 10.5q1 8 5 19t14 27q21 35 34 75t10 67t-10 55.5t-13 56.5
q-7 27 -11 51.5t1 45.5q15 69 12.5 103.5t-10.5 33.5zM227 255q-18 -3 -48.5 -12.5t-58.5 -26.5q-29 -16 -50 -41.5t-21 -59.5q0 -41 31.5 -70t80.5 -48q50 -19 110.5 -27.5t118.5 -8.5q54 0 112 9t107 28q49 20 80.5 50.5t31.5 74.5q0 31 -16.5 54t-39.5 39
q-24 16 -48.5 25t-40.5 12q-9 1 -11 -5.5t8 -9.5q9 -3 25 -10.5t31 -19.5q16 -12 27.5 -29.5t11.5 -39.5q0 -27 -27 -47.5t-68 -33.5q-42 -14 -90.5 -20.5t-91.5 -6.5q-51 -1 -101 6t-90 21q-39 14 -63.5 34t-24.5 46q0 22 16 40t36 31t39.5 20.5t25.5 9.5q12 3 9.5 10.5
t-11.5 5.5zM403 654q-4 -1 -5 -8.5t-2 -20.5q-1 -12 -3.5 -28.5t-9.5 -33.5q-8 -19 -18 -40.5t-15 -46.5t-3 -55.5t18 -66.5q12 -30 18.5 -75t-20.5 -111q-9 -23 -11.5 -44t-1.5 -36q2 -16 5.5 -25t8.5 -7q4 1 6 6t5 13t8 21t17 32q7 11 15.5 30t16.5 41q7 22 11 45t1 43
q-6 34 -14 61t-14 52q-6 24 -7 49t8 55q8 28 9 55t-3 48t-10 34t-10 13zM521 613q-3 -1 -5.5 -7t-4.5 -15q-3 -9 -6.5 -19t-7.5 -19q-26 -49 -33.5 -103t14.5 -111q10 -27 12 -54t0 -52q-3 -24 -8.5 -44.5t-9.5 -33.5q-7 -18 -7.5 -34.5t1.5 -29.5q3 -13 7 -20.5t7 -6.5
q5 1 6.5 4.5t2.5 10.5q2 8 5.5 19t13.5 27q21 35 34 75t11 67q-3 27 -10 55.5t-14 56.5q-6 27 -10 51.5t1 45.5q14 69 11.5 103.5t-10.5 33.5z" />
    <glyph glyph-name="uni2669" unicode="&#x2669;" horiz-adv-x="770" 
d="M411 634v-489q-21 6 -61 -2t-68 -32q-15 -12 -27 -27t-18 -33q-6 -17 -4.5 -35.5t15.5 -35.5q10 -14 28 -20.5t39 -6.5t42.5 6.5t39.5 19.5q25 18 42.5 43.5t17.5 54.5v557h-46z" />
    <glyph glyph-name="musicalnote" unicode="&#x266a;" horiz-adv-x="770" 
d="M369 634v-489q-11 3 -27 2.5t-34 -4.5q-19 -5 -37 -12.5t-32 -19.5q-15 -12 -27 -27t-18 -33q-6 -17 -4 -35.5t16 -35.5q10 -14 28 -20.5t39 -6.5t42.5 6.5t39.5 19.5q25 18 42.5 43.5t17.5 54.5v352q6 0 30.5 -17t41.5 -36q10 -13 19.5 -42t10.5 -47q1 -21 -4 -45
t-12 -47q-8 -23 -16 -43.5t-13 -33.5h32q7 13 18.5 33.5t22.5 44.5q11 25 19 52t8 56q0 37 -12 66t-39 61q-9 12 -18.5 23t-19.5 21q-9 10 -18.5 19.5t-17.5 18.5q-9 12 -15 28t-10 32q-3 17 -5.5 32.5t-3.5 28.5h-44z" />
    <glyph glyph-name="uni266C" unicode="&#x266c;" horiz-adv-x="770" 
d="M326 405v45l256 56v-45zM275 518v-337q-22 3 -57.5 -2.5t-68.5 -31.5q-37 -30 -45.5 -70.5t18.5 -64.5q25 -24 65.5 -22t79.5 26q27 15 43 42.5t16 59.5v207l256 56v-136q-27 7 -60 1.5t-66 -31.5q-15 -12 -27 -27.5t-17 -33.5t-2.5 -36.5t16.5 -34.5q12 -16 30 -22
t38 -5q20 0 40.5 7t37.5 18q26 17 43 44.5t17 55.5v415z" />
    <glyph glyph-name="uni266D" unicode="&#x266d;" horiz-adv-x="770" 
d="M306 -46q13 13 29 29.5t33 33.5q16 16 32 31.5t28 26.5q13 10 30 25.5t32 35.5q15 21 25 44.5t11 50.5q0 40 -25.5 72t-64.5 33q-34 2 -54 -5t-22 -9v285h-54v-653zM360 255q0 8 14 18.5t39 8.5q13 -1 23.5 -17t10.5 -40q0 -43 -28.5 -83.5t-58.5 -70.5v184z" />
    <glyph glyph-name="uni3000" unicode="&#x3000;" horiz-adv-x="770" 
 />
    <glyph glyph-name="uni3001" unicode="&#x3001;" horiz-adv-x="293" 
d="M199 -58l68 78q-15 13 -24 22t-18 17t-19.5 16.5t-26.5 21.5q-23 17 -42.5 29.5t-33.5 20.5t-22 12t-8 5l-51 -54q1 -1 10.5 -8.5t24.5 -18.5q14 -11 30.5 -24t31.5 -25q22 -21 46.5 -50t33.5 -42z" />
    <glyph glyph-name="uni3002" unicode="&#x3002;" horiz-adv-x="231" 
d="M212 19q0 40 -28.5 68t-67.5 28q-41 0 -69 -28t-28 -68q0 -41 28 -68.5t69 -27.5q39 0 67.5 27.5t28.5 68.5zM154 19q0 -17 -11.5 -28.5t-26.5 -11.5t-27 11.5t-12 28.5q0 16 12 28t27 12t26.5 -12t11.5 -28z" />
    <glyph glyph-name="uni3003" unicode="&#x3003;" horiz-adv-x="770" 
d="M269 171l144 223l-79 48l-119 -235zM413 171l144 223l-79 48l-119 -235z" />
    <glyph glyph-name="uni3008" unicode="&#x3008;" horiz-adv-x="430" 
d="M144 300l261 420l-89 46l-285 -466l286 -464l86 49z" />
    <glyph glyph-name="uni3009" unicode="&#x3009;" horiz-adv-x="430" 
d="M288 300l-259 -415l86 -49l286 464l-285 466l-89 -46z" />
    <glyph glyph-name="uni300A" unicode="&#x300a;" horiz-adv-x="385" 
d="M260 660h-67l-158 -360l158 -360h68l-156 360zM358 660h-68l-157 -360l157 -360h69l-157 360z" />
    <glyph glyph-name="uni300B" unicode="&#x300b;" horiz-adv-x="385" 
d="M128 660l155 -360l-156 -360h68l158 360l-158 360h-67zM30 660l156 -360l-157 -360h69l157 360l-157 360h-68z" />
    <glyph glyph-name="uni300C" unicode="&#x300c;" horiz-adv-x="308" 
d="M42 327h50v299h184v43h-234v-342z" />
    <glyph glyph-name="uni300D" unicode="&#x300d;" horiz-adv-x="308" 
d="M265 271h-50v-299h-184v-43h234v342z" />
    <glyph glyph-name="uni300E" unicode="&#x300e;" horiz-adv-x="308" 
d="M132 325v254h144v89h-237v-343h93zM98 359h-26v277h169v-23h-143v-254z" />
    <glyph glyph-name="uni300F" unicode="&#x300f;" horiz-adv-x="308" 
d="M174 273v-254h-145v-89h238v343h-93zM208 239h25v-277h-168v23h143v254z" />
    <glyph glyph-name="uni3010" unicode="&#x3010;" horiz-adv-x="450" 
d="M411 -180q-59 38 -107.5 89.5t-82.5 112.5q-34 62 -52.5 132t-18.5 146q0 75 18.5 145t52.5 131q34 62 82 113.5t107 89.5h-360v-959h361z" />
    <glyph glyph-name="uni3011" unicode="&#x3011;" horiz-adv-x="450" 
d="M39 -179h361v959h-360q58 -38 106 -89.5t82 -113.5q34 -61 53 -131t19 -145q0 -76 -19 -146t-53 -132q-34 -61 -82.5 -112.5t-106.5 -89.5z" />
    <glyph glyph-name="uni3013" unicode="&#x3013;" horiz-adv-x="770" 
d="M107 194h556v71h-556v-71zM107 334h556v71h-556v-71z" />
    <glyph glyph-name="uni3014" unicode="&#x3014;" horiz-adv-x="254" 
d="M239 683l-191 -123v-523l191 -122v84l-119 74v452l119 76v82z" />
    <glyph glyph-name="uni3015" unicode="&#x3015;" horiz-adv-x="254" 
d="M15 683v-82l120 -76v-452l-120 -74v-84l192 122v523z" />
    <glyph glyph-name="uni3041" unicode="&#x3041;" horiz-adv-x="770" 
d="M616 112q0 49 -22.5 83.5t-70.5 55.5q-1 0 -2.5 0.5t-2.5 1.5q-2 0 -3.5 0.5t-1.5 1.5q1 2 2 5l2 6q0 2 1 5t3 6l-74 25q-1 -8 -3 -15.5t-4 -14.5q-18 0 -35.5 -0.5t-32.5 -3.5v37q27 4 53 8t47 7q20 3 33.5 5.5t15.5 2.5l-17 73l-132 -21v82h-83v-95l-45 -8
q-27 -3 -49 -2t-38 7l14 -73q23 -8 41 -7.5t42 3.5l9.5 1t25.5 4v-48q-26 -13 -50.5 -30.5t-44.5 -39.5q-19 -22 -31 -48.5t-12 -56.5q0 -21 8.5 -35t22.5 -21q13 -8 29.5 -10t31.5 1q24 4 46.5 12t42.5 18l50 8q-1 1 -2 3.5t-2 4.5t-1.5 5t-0.5 6q36 27 62.5 60.5
t44.5 67.5q23 -11 37 -29t14 -43q0 -29 -17 -49.5t-44 -30.5q-11 -5 -25.5 -8t-29.5 -5q-15 -1 -27.5 -1t-17.5 3l67 -59q80 0 128 42.5t48 102.5zM406 200q-8 -14 -16.5 -25.5t-17.5 -22.5v44q8 1 16.5 2t17.5 2zM290 86q-11 -5 -22 -9t-22 -6q-13 0 -15 9.5t3 23.5
q6 15 21.5 31.5t33.5 29.5v-41t1 -38z" />
    <glyph glyph-name="uni3042" unicode="&#x3042;" horiz-adv-x="770" 
d="M690 155q0 63 -31 109.5t-91 74.5q-2 0 -3.5 0.5t-3.5 1.5q-3 0 -4.5 1t-2.5 2q1 3 2.5 7t2.5 7q1 4 2 7.5t3 7.5l-90 32q-3 -10 -5 -20t-5 -20q-28 3 -54.5 1.5t-49.5 -4.5v55q36 5 71.5 11t64.5 10q29 5 47.5 8t20.5 3l-20 82l-184 -29v118h-94v-133l-67 -11
q-36 -5 -65 -3t-50 9l18 -83q30 -10 55 -9.5t56 4.5l14.5 2.5t38.5 5.5v-70q-35 -16 -68 -39.5t-59 -53.5t-42 -66t-16 -76q0 -27 10.5 -44t27.5 -27q16 -10 36 -12.5t38 0.5q31 4 59 13t54 21q0 -1 2 -1h3l64 10q-3 4 -5 10t-3 14q54 37 92 86t62 99q33 -15 53.5 -42
t20.5 -63q0 -42 -23.5 -70t-60.5 -44q-15 -7 -35 -11t-39 -5q-20 -2 -36.5 -1t-23.5 4l82 -70q52 0 95 15t73 41q30 27 46.5 61.5t16.5 73.5zM429 283q-15 -27 -32.5 -50.5t-36.5 -43.5v87q15 3 32 5t37 2zM268 120q-18 -9 -34.5 -14.5t-33.5 -5.5q-18 0 -22.5 10t1.5 28
q6 29 31.5 56t55.5 45v-15v-54t2 -50z" />
    <glyph glyph-name="uni3043" unicode="&#x3043;" horiz-adv-x="770" 
d="M619 131q-6 27 -18.5 56t-30.5 56q-17 26 -39 48.5t-46 36.5l-65 -40q45 -42 76 -90.5t42 -98.5zM380 53q-3 3 -7.5 15t-9.5 26q-4 15 -7.5 27.5t-3.5 16.5q-8 -18 -22.5 -40.5t-36.5 -31.5q-15 -7 -26 -2.5t-18 17.5q-18 30 -26 71.5t-8 85.5q-1 44 5.5 85t18.5 70
l-81 33q-8 -23 -13.5 -53.5t-8.5 -63.5q-3 -34 -3 -66.5t3 -59.5q6 -57 24.5 -110t67.5 -83q13 -10 31 -12t37 4q26 7 51 28.5t33 42.5z" />
    <glyph glyph-name="uni3044" unicode="&#x3044;" horiz-adv-x="770" 
d="M711 172q-8 36 -25.5 74.5t-41.5 74.5t-52.5 66t-57.5 49l-71 -47q53 -54 96.5 -119.5t58.5 -131.5zM396 73q-3 3 -7.5 15.5t-9.5 27.5t-9 29t-4 21q-10 -24 -33 -53.5t-53 -40.5q-21 -7 -38 -2.5t-30 25.5q-26 38 -38 95.5t-13 119.5t8 121t24 100l-92 39
q-10 -30 -17.5 -71t-12.5 -85q-4 -44 -4 -88t5 -80q4 -39 12 -76.5t21 -70.5q14 -33 35 -61t54 -48q18 -12 42 -14t48 4q36 8 68.5 37t43.5 56z" />
    <glyph glyph-name="uni3045" unicode="&#x3045;" horiz-adv-x="770" 
d="M499 417q-30 30 -71.5 44.5t-79.5 13.5l-48 -65q48 -2 84 -14.5t70 -44.5zM527 189q0 47 -26.5 82t-66.5 48q-12 3 -34 5t-43 -1l-113 -31l32 -72q2 0 14.5 3.5t27.5 8.5q15 4 29.5 8t20.5 5q18 2 32.5 -2t25.5 -18q9 -13 11 -29.5t0 -31.5q-4 -26 -19.5 -50t-38.5 -44
q-23 -21 -53 -34.5t-63 -17.5l80 -48q80 20 132 79.5t52 139.5z" />
    <glyph glyph-name="uni3046" unicode="&#x3046;" horiz-adv-x="770" 
d="M537 559q-39 40 -93.5 61t-105.5 20l-61 -73q66 -2 113 -18.5t91 -62.5zM576 255q0 63 -35.5 111t-89.5 66q-15 4 -46.5 6.5t-59.5 -4.5l-146 -42l37 -84q9 3 24.5 8.5t34.5 11.5q18 6 37 11.5t36 8.5q24 3 48.5 -5t39.5 -28q13 -19 17 -43.5t1 -46.5q-6 -38 -26.5 -72
t-52.5 -62q-31 -28 -71.5 -48t-85.5 -27l95 -51q52 13 96.5 40t76.5 65q33 38 51.5 85t18.5 100z" />
    <glyph glyph-name="uni3047" unicode="&#x3047;" horiz-adv-x="770" 
d="M479 369v81h-236l38 -81h198zM624 76q-20 -12 -51.5 -16t-61.5 -4q-9 0 -18.5 0.5t-18.5 3.5q-10 0 -15.5 6.5t-5.5 18.5v8.5v8.5t0.5 8.5t0.5 9.5q0 18 -16 33.5t-39 19.5h-1.5h-0.5q-1 0 -1 0.5v1.5q4 4 22 23t39 40q20 21 37.5 39t19.5 20l-35 43l-326 -28l27 -74
l180 17l-214 -228l49 -60q1 2 18.5 20.5t39.5 40.5q22 23 42 43.5t27 27.5q2 1 4 3t4 3l4 2t4 1q11 0 21.5 -11t10.5 -23v-19t1 -19q1 -22 15.5 -34t35.5 -18q7 -3 28 -5t28 -2q34 -1 60 2t56 9z" />
    <glyph glyph-name="uni3048" unicode="&#x3048;" horiz-adv-x="770" 
d="M508 521v85h-311l49 -85h262zM691 98q-33 -15 -83.5 -21t-93.5 -1q-11 0 -21.5 3t-18.5 7q-8 3 -12.5 10t-4.5 18q0 6 1 12.5t2 13.5q0 7 0.5 14t0.5 14q-2 20 -16.5 37t-38.5 24q-3 0 -5.5 0.5t-4.5 1.5q-2 0 -4.5 0.5t-4.5 1.5l168 173l-47 56l-426 -36l31 -83l280 26
l-310 -321l53 -75l167 174l2 2.5t6 5.5t8.5 5.5t10.5 2.5q16 0 26.5 -13.5t11.5 -28.5q0 -8 -0.5 -15t-0.5 -14v-14.5v-14.5q0 -28 19.5 -44t47.5 -24q4 -2 14 -3.5t22 -2.5q11 -1 21.5 -1.5t15.5 -0.5q45 -3 79 1t73 12z" />
    </font>
</defs>
</svg>
